%TF.GenerationSoftware,KiCad,Pcbnew,9.0.3*%
%TF.CreationDate,2025-10-01T09:47:41-07:00*%
%TF.ProjectId,ballin balloon bayload,62616c6c-696e-4206-9261-6c6c6f6f6e20,rev?*%
%TF.SameCoordinates,Original*%
%TF.FileFunction,Legend,Top*%
%TF.FilePolarity,Positive*%
%FSLAX46Y46*%
G04 Gerber Fmt 4.6, Leading zero omitted, Abs format (unit mm)*
G04 Created by KiCad (PCBNEW 9.0.3) date 2025-10-01 09:47:41*
%MOMM*%
%LPD*%
G01*
G04 APERTURE LIST*
%ADD10C,0.200000*%
%ADD11C,0.100000*%
%ADD12C,0.150000*%
%ADD13C,0.120000*%
%ADD14C,0.127000*%
G04 APERTURE END LIST*
D10*
X47649435Y-98877695D02*
X46280387Y-96496742D01*
X44792292Y-98877695D02*
X45417292Y-93877695D01*
X45417292Y-93877695D02*
X47322054Y-93877695D01*
X47322054Y-93877695D02*
X47768482Y-94115790D01*
X47768482Y-94115790D02*
X47976816Y-94353885D01*
X47976816Y-94353885D02*
X48155387Y-94830076D01*
X48155387Y-94830076D02*
X48066101Y-95544361D01*
X48066101Y-95544361D02*
X47768482Y-96020552D01*
X47768482Y-96020552D02*
X47500625Y-96258647D01*
X47500625Y-96258647D02*
X46994673Y-96496742D01*
X46994673Y-96496742D02*
X45089911Y-96496742D01*
X51369673Y-93877695D02*
X52322054Y-93877695D01*
X52322054Y-93877695D02*
X52768482Y-94115790D01*
X52768482Y-94115790D02*
X53185149Y-94591980D01*
X53185149Y-94591980D02*
X53304197Y-95544361D01*
X53304197Y-95544361D02*
X53095863Y-97211028D01*
X53095863Y-97211028D02*
X52738720Y-98163409D01*
X52738720Y-98163409D02*
X52203006Y-98639600D01*
X52203006Y-98639600D02*
X51697054Y-98877695D01*
X51697054Y-98877695D02*
X50744673Y-98877695D01*
X50744673Y-98877695D02*
X50298244Y-98639600D01*
X50298244Y-98639600D02*
X49881578Y-98163409D01*
X49881578Y-98163409D02*
X49762530Y-97211028D01*
X49762530Y-97211028D02*
X49970863Y-95544361D01*
X49970863Y-95544361D02*
X50328006Y-94591980D01*
X50328006Y-94591980D02*
X50863720Y-94115790D01*
X50863720Y-94115790D02*
X51369673Y-93877695D01*
X57947053Y-98401504D02*
X57679196Y-98639600D01*
X57679196Y-98639600D02*
X56935149Y-98877695D01*
X56935149Y-98877695D02*
X56458958Y-98877695D01*
X56458958Y-98877695D02*
X55774434Y-98639600D01*
X55774434Y-98639600D02*
X55357768Y-98163409D01*
X55357768Y-98163409D02*
X55179196Y-97687219D01*
X55179196Y-97687219D02*
X55060149Y-96734838D01*
X55060149Y-96734838D02*
X55149434Y-96020552D01*
X55149434Y-96020552D02*
X55506577Y-95068171D01*
X55506577Y-95068171D02*
X55804196Y-94591980D01*
X55804196Y-94591980D02*
X56339911Y-94115790D01*
X56339911Y-94115790D02*
X57083958Y-93877695D01*
X57083958Y-93877695D02*
X57560149Y-93877695D01*
X57560149Y-93877695D02*
X58244673Y-94115790D01*
X58244673Y-94115790D02*
X58453006Y-94353885D01*
X60030387Y-98877695D02*
X60655387Y-93877695D01*
X62887530Y-98877695D02*
X61101815Y-96020552D01*
X63512530Y-93877695D02*
X60298244Y-96734838D01*
X67024434Y-96258647D02*
X67708958Y-96496742D01*
X67708958Y-96496742D02*
X67917292Y-96734838D01*
X67917292Y-96734838D02*
X68095863Y-97211028D01*
X68095863Y-97211028D02*
X68006577Y-97925314D01*
X68006577Y-97925314D02*
X67708958Y-98401504D01*
X67708958Y-98401504D02*
X67441101Y-98639600D01*
X67441101Y-98639600D02*
X66935149Y-98877695D01*
X66935149Y-98877695D02*
X65030387Y-98877695D01*
X65030387Y-98877695D02*
X65655387Y-93877695D01*
X65655387Y-93877695D02*
X67322053Y-93877695D01*
X67322053Y-93877695D02*
X67768482Y-94115790D01*
X67768482Y-94115790D02*
X67976815Y-94353885D01*
X67976815Y-94353885D02*
X68155387Y-94830076D01*
X68155387Y-94830076D02*
X68095863Y-95306266D01*
X68095863Y-95306266D02*
X67798244Y-95782457D01*
X67798244Y-95782457D02*
X67530387Y-96020552D01*
X67530387Y-96020552D02*
X67024434Y-96258647D01*
X67024434Y-96258647D02*
X65357768Y-96258647D01*
X72411339Y-98877695D02*
X70030387Y-98877695D01*
X70030387Y-98877695D02*
X70655387Y-93877695D01*
X75655387Y-93877695D02*
X76607768Y-93877695D01*
X76607768Y-93877695D02*
X77054196Y-94115790D01*
X77054196Y-94115790D02*
X77470863Y-94591980D01*
X77470863Y-94591980D02*
X77589911Y-95544361D01*
X77589911Y-95544361D02*
X77381577Y-97211028D01*
X77381577Y-97211028D02*
X77024434Y-98163409D01*
X77024434Y-98163409D02*
X76488720Y-98639600D01*
X76488720Y-98639600D02*
X75982768Y-98877695D01*
X75982768Y-98877695D02*
X75030387Y-98877695D01*
X75030387Y-98877695D02*
X74583958Y-98639600D01*
X74583958Y-98639600D02*
X74167292Y-98163409D01*
X74167292Y-98163409D02*
X74048244Y-97211028D01*
X74048244Y-97211028D02*
X74256577Y-95544361D01*
X74256577Y-95544361D02*
X74613720Y-94591980D01*
X74613720Y-94591980D02*
X75149434Y-94115790D01*
X75149434Y-94115790D02*
X75655387Y-93877695D01*
X82232767Y-98401504D02*
X81964910Y-98639600D01*
X81964910Y-98639600D02*
X81220863Y-98877695D01*
X81220863Y-98877695D02*
X80744672Y-98877695D01*
X80744672Y-98877695D02*
X80060148Y-98639600D01*
X80060148Y-98639600D02*
X79643482Y-98163409D01*
X79643482Y-98163409D02*
X79464910Y-97687219D01*
X79464910Y-97687219D02*
X79345863Y-96734838D01*
X79345863Y-96734838D02*
X79435148Y-96020552D01*
X79435148Y-96020552D02*
X79792291Y-95068171D01*
X79792291Y-95068171D02*
X80089910Y-94591980D01*
X80089910Y-94591980D02*
X80625625Y-94115790D01*
X80625625Y-94115790D02*
X81369672Y-93877695D01*
X81369672Y-93877695D02*
X81845863Y-93877695D01*
X81845863Y-93877695D02*
X82530387Y-94115790D01*
X82530387Y-94115790D02*
X82738720Y-94353885D01*
X84316101Y-98877695D02*
X84941101Y-93877695D01*
X87173244Y-98877695D02*
X85387529Y-96020552D01*
X87798244Y-93877695D02*
X84583958Y-96734838D01*
D11*
X43500000Y-72500000D02*
X88500000Y-72500000D01*
X88500000Y-117500000D01*
X43500000Y-117500000D01*
X43500000Y-72500000D01*
D12*
X106534819Y-123126666D02*
X106058628Y-123459999D01*
X106534819Y-123698094D02*
X105534819Y-123698094D01*
X105534819Y-123698094D02*
X105534819Y-123317142D01*
X105534819Y-123317142D02*
X105582438Y-123221904D01*
X105582438Y-123221904D02*
X105630057Y-123174285D01*
X105630057Y-123174285D02*
X105725295Y-123126666D01*
X105725295Y-123126666D02*
X105868152Y-123126666D01*
X105868152Y-123126666D02*
X105963390Y-123174285D01*
X105963390Y-123174285D02*
X106011009Y-123221904D01*
X106011009Y-123221904D02*
X106058628Y-123317142D01*
X106058628Y-123317142D02*
X106058628Y-123698094D01*
X106534819Y-122174285D02*
X106534819Y-122745713D01*
X106534819Y-122459999D02*
X105534819Y-122459999D01*
X105534819Y-122459999D02*
X105677676Y-122555237D01*
X105677676Y-122555237D02*
X105772914Y-122650475D01*
X105772914Y-122650475D02*
X105820533Y-122745713D01*
X111374819Y-114166666D02*
X110898628Y-114499999D01*
X111374819Y-114738094D02*
X110374819Y-114738094D01*
X110374819Y-114738094D02*
X110374819Y-114357142D01*
X110374819Y-114357142D02*
X110422438Y-114261904D01*
X110422438Y-114261904D02*
X110470057Y-114214285D01*
X110470057Y-114214285D02*
X110565295Y-114166666D01*
X110565295Y-114166666D02*
X110708152Y-114166666D01*
X110708152Y-114166666D02*
X110803390Y-114214285D01*
X110803390Y-114214285D02*
X110851009Y-114261904D01*
X110851009Y-114261904D02*
X110898628Y-114357142D01*
X110898628Y-114357142D02*
X110898628Y-114738094D01*
X110470057Y-113785713D02*
X110422438Y-113738094D01*
X110422438Y-113738094D02*
X110374819Y-113642856D01*
X110374819Y-113642856D02*
X110374819Y-113404761D01*
X110374819Y-113404761D02*
X110422438Y-113309523D01*
X110422438Y-113309523D02*
X110470057Y-113261904D01*
X110470057Y-113261904D02*
X110565295Y-113214285D01*
X110565295Y-113214285D02*
X110660533Y-113214285D01*
X110660533Y-113214285D02*
X110803390Y-113261904D01*
X110803390Y-113261904D02*
X111374819Y-113833332D01*
X111374819Y-113833332D02*
X111374819Y-113214285D01*
X48854819Y-136809523D02*
X49854819Y-136142857D01*
X48854819Y-136142857D02*
X49854819Y-136809523D01*
X49854819Y-135238095D02*
X49854819Y-135809523D01*
X49854819Y-135523809D02*
X48854819Y-135523809D01*
X48854819Y-135523809D02*
X48997676Y-135619047D01*
X48997676Y-135619047D02*
X49092914Y-135714285D01*
X49092914Y-135714285D02*
X49140533Y-135809523D01*
X117738095Y-120954819D02*
X117738095Y-121764342D01*
X117738095Y-121764342D02*
X117785714Y-121859580D01*
X117785714Y-121859580D02*
X117833333Y-121907200D01*
X117833333Y-121907200D02*
X117928571Y-121954819D01*
X117928571Y-121954819D02*
X118119047Y-121954819D01*
X118119047Y-121954819D02*
X118214285Y-121907200D01*
X118214285Y-121907200D02*
X118261904Y-121859580D01*
X118261904Y-121859580D02*
X118309523Y-121764342D01*
X118309523Y-121764342D02*
X118309523Y-120954819D01*
X118690476Y-120954819D02*
X119309523Y-120954819D01*
X119309523Y-120954819D02*
X118976190Y-121335771D01*
X118976190Y-121335771D02*
X119119047Y-121335771D01*
X119119047Y-121335771D02*
X119214285Y-121383390D01*
X119214285Y-121383390D02*
X119261904Y-121431009D01*
X119261904Y-121431009D02*
X119309523Y-121526247D01*
X119309523Y-121526247D02*
X119309523Y-121764342D01*
X119309523Y-121764342D02*
X119261904Y-121859580D01*
X119261904Y-121859580D02*
X119214285Y-121907200D01*
X119214285Y-121907200D02*
X119119047Y-121954819D01*
X119119047Y-121954819D02*
X118833333Y-121954819D01*
X118833333Y-121954819D02*
X118738095Y-121907200D01*
X118738095Y-121907200D02*
X118690476Y-121859580D01*
X117738095Y-149954819D02*
X117738095Y-150764342D01*
X117738095Y-150764342D02*
X117785714Y-150859580D01*
X117785714Y-150859580D02*
X117833333Y-150907200D01*
X117833333Y-150907200D02*
X117928571Y-150954819D01*
X117928571Y-150954819D02*
X118119047Y-150954819D01*
X118119047Y-150954819D02*
X118214285Y-150907200D01*
X118214285Y-150907200D02*
X118261904Y-150859580D01*
X118261904Y-150859580D02*
X118309523Y-150764342D01*
X118309523Y-150764342D02*
X118309523Y-149954819D01*
X119309523Y-150954819D02*
X118738095Y-150954819D01*
X119023809Y-150954819D02*
X119023809Y-149954819D01*
X119023809Y-149954819D02*
X118928571Y-150097676D01*
X118928571Y-150097676D02*
X118833333Y-150192914D01*
X118833333Y-150192914D02*
X118738095Y-150240533D01*
X84588095Y-111154819D02*
X84588095Y-110154819D01*
X84588095Y-110631009D02*
X85159523Y-110631009D01*
X85159523Y-111154819D02*
X85159523Y-110154819D01*
X86111904Y-110154819D02*
X85635714Y-110154819D01*
X85635714Y-110154819D02*
X85588095Y-110631009D01*
X85588095Y-110631009D02*
X85635714Y-110583390D01*
X85635714Y-110583390D02*
X85730952Y-110535771D01*
X85730952Y-110535771D02*
X85969047Y-110535771D01*
X85969047Y-110535771D02*
X86064285Y-110583390D01*
X86064285Y-110583390D02*
X86111904Y-110631009D01*
X86111904Y-110631009D02*
X86159523Y-110726247D01*
X86159523Y-110726247D02*
X86159523Y-110964342D01*
X86159523Y-110964342D02*
X86111904Y-111059580D01*
X86111904Y-111059580D02*
X86064285Y-111107200D01*
X86064285Y-111107200D02*
X85969047Y-111154819D01*
X85969047Y-111154819D02*
X85730952Y-111154819D01*
X85730952Y-111154819D02*
X85635714Y-111107200D01*
X85635714Y-111107200D02*
X85588095Y-111059580D01*
X45888095Y-111154819D02*
X45888095Y-110154819D01*
X45888095Y-110631009D02*
X46459523Y-110631009D01*
X46459523Y-111154819D02*
X46459523Y-110154819D01*
X47364285Y-110488152D02*
X47364285Y-111154819D01*
X47126190Y-110107200D02*
X46888095Y-110821485D01*
X46888095Y-110821485D02*
X47507142Y-110821485D01*
X44738095Y-70804819D02*
X44738095Y-69804819D01*
X44738095Y-70281009D02*
X45309523Y-70281009D01*
X45309523Y-70804819D02*
X45309523Y-69804819D01*
X45690476Y-69804819D02*
X46309523Y-69804819D01*
X46309523Y-69804819D02*
X45976190Y-70185771D01*
X45976190Y-70185771D02*
X46119047Y-70185771D01*
X46119047Y-70185771D02*
X46214285Y-70233390D01*
X46214285Y-70233390D02*
X46261904Y-70281009D01*
X46261904Y-70281009D02*
X46309523Y-70376247D01*
X46309523Y-70376247D02*
X46309523Y-70614342D01*
X46309523Y-70614342D02*
X46261904Y-70709580D01*
X46261904Y-70709580D02*
X46214285Y-70757200D01*
X46214285Y-70757200D02*
X46119047Y-70804819D01*
X46119047Y-70804819D02*
X45833333Y-70804819D01*
X45833333Y-70804819D02*
X45738095Y-70757200D01*
X45738095Y-70757200D02*
X45690476Y-70709580D01*
X43238095Y-119804819D02*
X43238095Y-118804819D01*
X43238095Y-119281009D02*
X43809523Y-119281009D01*
X43809523Y-119804819D02*
X43809523Y-118804819D01*
X44238095Y-118900057D02*
X44285714Y-118852438D01*
X44285714Y-118852438D02*
X44380952Y-118804819D01*
X44380952Y-118804819D02*
X44619047Y-118804819D01*
X44619047Y-118804819D02*
X44714285Y-118852438D01*
X44714285Y-118852438D02*
X44761904Y-118900057D01*
X44761904Y-118900057D02*
X44809523Y-118995295D01*
X44809523Y-118995295D02*
X44809523Y-119090533D01*
X44809523Y-119090533D02*
X44761904Y-119233390D01*
X44761904Y-119233390D02*
X44190476Y-119804819D01*
X44190476Y-119804819D02*
X44809523Y-119804819D01*
X110238095Y-134304819D02*
X110238095Y-133304819D01*
X110238095Y-133781009D02*
X110809523Y-133781009D01*
X110809523Y-134304819D02*
X110809523Y-133304819D01*
X111809523Y-134304819D02*
X111238095Y-134304819D01*
X111523809Y-134304819D02*
X111523809Y-133304819D01*
X111523809Y-133304819D02*
X111428571Y-133447676D01*
X111428571Y-133447676D02*
X111333333Y-133542914D01*
X111333333Y-133542914D02*
X111238095Y-133590533D01*
X140017095Y-96624819D02*
X140017095Y-97434342D01*
X140017095Y-97434342D02*
X140064714Y-97529580D01*
X140064714Y-97529580D02*
X140112333Y-97577200D01*
X140112333Y-97577200D02*
X140207571Y-97624819D01*
X140207571Y-97624819D02*
X140398047Y-97624819D01*
X140398047Y-97624819D02*
X140493285Y-97577200D01*
X140493285Y-97577200D02*
X140540904Y-97529580D01*
X140540904Y-97529580D02*
X140588523Y-97434342D01*
X140588523Y-97434342D02*
X140588523Y-96624819D01*
X141017095Y-96720057D02*
X141064714Y-96672438D01*
X141064714Y-96672438D02*
X141159952Y-96624819D01*
X141159952Y-96624819D02*
X141398047Y-96624819D01*
X141398047Y-96624819D02*
X141493285Y-96672438D01*
X141493285Y-96672438D02*
X141540904Y-96720057D01*
X141540904Y-96720057D02*
X141588523Y-96815295D01*
X141588523Y-96815295D02*
X141588523Y-96910533D01*
X141588523Y-96910533D02*
X141540904Y-97053390D01*
X141540904Y-97053390D02*
X140969476Y-97624819D01*
X140969476Y-97624819D02*
X141588523Y-97624819D01*
X106054819Y-106833333D02*
X106769104Y-106833333D01*
X106769104Y-106833333D02*
X106911961Y-106880952D01*
X106911961Y-106880952D02*
X107007200Y-106976190D01*
X107007200Y-106976190D02*
X107054819Y-107119047D01*
X107054819Y-107119047D02*
X107054819Y-107214285D01*
X106150057Y-106404761D02*
X106102438Y-106357142D01*
X106102438Y-106357142D02*
X106054819Y-106261904D01*
X106054819Y-106261904D02*
X106054819Y-106023809D01*
X106054819Y-106023809D02*
X106102438Y-105928571D01*
X106102438Y-105928571D02*
X106150057Y-105880952D01*
X106150057Y-105880952D02*
X106245295Y-105833333D01*
X106245295Y-105833333D02*
X106340533Y-105833333D01*
X106340533Y-105833333D02*
X106483390Y-105880952D01*
X106483390Y-105880952D02*
X107054819Y-106452380D01*
X107054819Y-106452380D02*
X107054819Y-105833333D01*
X91914819Y-72083333D02*
X92629104Y-72083333D01*
X92629104Y-72083333D02*
X92771961Y-72130952D01*
X92771961Y-72130952D02*
X92867200Y-72226190D01*
X92867200Y-72226190D02*
X92914819Y-72369047D01*
X92914819Y-72369047D02*
X92914819Y-72464285D01*
X91914819Y-71130952D02*
X91914819Y-71607142D01*
X91914819Y-71607142D02*
X92391009Y-71654761D01*
X92391009Y-71654761D02*
X92343390Y-71607142D01*
X92343390Y-71607142D02*
X92295771Y-71511904D01*
X92295771Y-71511904D02*
X92295771Y-71273809D01*
X92295771Y-71273809D02*
X92343390Y-71178571D01*
X92343390Y-71178571D02*
X92391009Y-71130952D01*
X92391009Y-71130952D02*
X92486247Y-71083333D01*
X92486247Y-71083333D02*
X92724342Y-71083333D01*
X92724342Y-71083333D02*
X92819580Y-71130952D01*
X92819580Y-71130952D02*
X92867200Y-71178571D01*
X92867200Y-71178571D02*
X92914819Y-71273809D01*
X92914819Y-71273809D02*
X92914819Y-71511904D01*
X92914819Y-71511904D02*
X92867200Y-71607142D01*
X92867200Y-71607142D02*
X92819580Y-71654761D01*
X50989104Y-134874285D02*
X50989104Y-134398095D01*
X51274819Y-134969523D02*
X50274819Y-134636190D01*
X50274819Y-134636190D02*
X51274819Y-134302857D01*
X51274819Y-133445714D02*
X51274819Y-134017142D01*
X51274819Y-133731428D02*
X50274819Y-133731428D01*
X50274819Y-133731428D02*
X50417676Y-133826666D01*
X50417676Y-133826666D02*
X50512914Y-133921904D01*
X50512914Y-133921904D02*
X50560533Y-134017142D01*
X91914819Y-92403333D02*
X92629104Y-92403333D01*
X92629104Y-92403333D02*
X92771961Y-92450952D01*
X92771961Y-92450952D02*
X92867200Y-92546190D01*
X92867200Y-92546190D02*
X92914819Y-92689047D01*
X92914819Y-92689047D02*
X92914819Y-92784285D01*
X92248152Y-91498571D02*
X92914819Y-91498571D01*
X91867200Y-91736666D02*
X92581485Y-91974761D01*
X92581485Y-91974761D02*
X92581485Y-91355714D01*
D13*
%TO.C,R1*%
X108920000Y-124880000D02*
X108920000Y-121040000D01*
X107080000Y-124880000D02*
X107080000Y-121040000D01*
%TO.C,R2*%
X108080000Y-112080000D02*
X108080000Y-115920000D01*
X109920000Y-112080000D02*
X109920000Y-115920000D01*
%TO.C,X1*%
X42660000Y-140060000D02*
X46910000Y-140060000D01*
X46910000Y-140060000D02*
X46910000Y-139040000D01*
X45310000Y-139040000D02*
X45310000Y-137760000D01*
X46910000Y-139040000D02*
X45310000Y-139040000D01*
X45310000Y-134240000D02*
X48200000Y-134240000D01*
X39090000Y-133660000D02*
X39090000Y-138340000D01*
X45310000Y-132960000D02*
X45310000Y-134240000D01*
X46910000Y-132960000D02*
X45310000Y-132960000D01*
X42660000Y-131940000D02*
X46910000Y-131940000D01*
X46910000Y-131940000D02*
X46910000Y-132960000D01*
D14*
%TO.C,U3*%
X143995000Y-117730000D02*
G75*
G02*
X141455000Y-120270000I-2540000J0D01*
G01*
X141455000Y-99950000D02*
G75*
G02*
X143995000Y-102490000I0J-2540000D01*
G01*
X119865000Y-120270000D02*
G75*
G02*
X117325000Y-117730000I1J2540001D01*
G01*
X117325000Y-102490000D02*
G75*
G02*
X119865000Y-99950000I2540001J-1D01*
G01*
X143995000Y-102490000D02*
X143995000Y-117730000D01*
X141455000Y-120270000D02*
X138295200Y-120270000D01*
X135755200Y-99950000D02*
X141455000Y-99950000D01*
X123024800Y-120270000D02*
X119865000Y-120270000D01*
X119865000Y-99950000D02*
X125564800Y-99950000D01*
X117325000Y-117730000D02*
X117325000Y-102490000D01*
D10*
%TO.C,U1*%
X117150000Y-145890000D02*
G75*
G02*
X116950000Y-145890000I-100000J0D01*
G01*
X116950000Y-145890000D02*
G75*
G02*
X117150000Y-145890000I100000J0D01*
G01*
D14*
X143200000Y-145890000D02*
G75*
G02*
X140660000Y-148430000I-2540000J0D01*
G01*
X140660000Y-125570000D02*
G75*
G02*
X143200000Y-128110000I0J-2540000D01*
G01*
X120340000Y-148430000D02*
G75*
G02*
X117800000Y-145890000I1J2540001D01*
G01*
X117800000Y-128110000D02*
G75*
G02*
X120340000Y-125570000I2540001J-1D01*
G01*
X143200000Y-128110000D02*
X143200000Y-145890000D01*
X140660000Y-148430000D02*
X120340000Y-148430000D01*
X120340000Y-125570000D02*
X140660000Y-125570000D01*
X117800000Y-145890000D02*
X117800000Y-128110000D01*
%TO.C,U2*%
X114830000Y-70300000D02*
X141500000Y-70300000D01*
X114830000Y-93160000D02*
X114830000Y-70300000D01*
X141500000Y-95700000D02*
X117370000Y-95700000D01*
X144040000Y-72840000D02*
X144040000Y-93160000D01*
X117370000Y-95700000D02*
G75*
G02*
X114830000Y-93160000I0J2540000D01*
G01*
X141500000Y-70300000D02*
G75*
G02*
X144040000Y-72840000I-1J-2540001D01*
G01*
X144040000Y-93160000D02*
G75*
G02*
X141500000Y-95700000I-2540001J1D01*
G01*
D10*
X114285000Y-93160000D02*
G75*
G02*
X114085000Y-93160000I-100000J0D01*
G01*
X114085000Y-93160000D02*
G75*
G02*
X114285000Y-93160000I100000J0D01*
G01*
D13*
%TO.C,J2*%
X100790000Y-99635000D02*
X100790000Y-113365000D01*
X103760000Y-99265000D02*
X104710000Y-99265000D01*
X103760000Y-113735000D02*
X104710000Y-113735000D01*
X104710000Y-99265000D02*
X104710000Y-100215000D01*
X104710000Y-100215000D02*
X105400000Y-100215000D01*
X104710000Y-113735000D02*
X104710000Y-112785000D01*
%TO.C,J5*%
X93460000Y-73130000D02*
X93460000Y-71750000D01*
X94840000Y-73130000D02*
X93460000Y-73130000D01*
X96110000Y-70370000D02*
X108920000Y-70370000D01*
X96110000Y-73130000D02*
X96110000Y-70370000D01*
X96110000Y-73130000D02*
X108920000Y-73130000D01*
X108920000Y-73130000D02*
X108920000Y-70370000D01*
%TO.C,A1*%
X51980000Y-125270000D02*
X51980000Y-143050000D01*
X54630000Y-122620000D02*
X100350000Y-122620000D01*
X54630000Y-145700000D02*
X100350000Y-145700000D01*
X59440000Y-146020000D02*
X57440000Y-146020000D01*
X103000000Y-125270000D02*
X103000000Y-143050000D01*
X51980000Y-125270000D02*
G75*
G02*
X54630000Y-122620000I2650000J0D01*
G01*
X54630000Y-145700000D02*
G75*
G02*
X51980000Y-143050000I0J2650000D01*
G01*
X100350000Y-122620000D02*
G75*
G02*
X103000000Y-125270000I0J-2650000D01*
G01*
X103000000Y-143050000D02*
G75*
G02*
X100350000Y-145700000I-2650000J0D01*
G01*
%TO.C,J4*%
X93460000Y-93450000D02*
X93460000Y-92070000D01*
X94840000Y-93450000D02*
X93460000Y-93450000D01*
X96110000Y-90690000D02*
X108920000Y-90690000D01*
X96110000Y-93450000D02*
X96110000Y-90690000D01*
X96110000Y-93450000D02*
X108920000Y-93450000D01*
X108920000Y-93450000D02*
X108920000Y-90690000D01*
%TD*%
M02*
