%TF.GenerationSoftware,KiCad,Pcbnew,9.0.3*%
%TF.CreationDate,2025-10-01T09:47:41-07:00*%
%TF.ProjectId,ballin balloon bayload,62616c6c-696e-4206-9261-6c6c6f6f6e20,rev?*%
%TF.SameCoordinates,Original*%
%TF.FileFunction,Copper,L1,Top*%
%TF.FilePolarity,Positive*%
%FSLAX46Y46*%
G04 Gerber Fmt 4.6, Leading zero omitted, Abs format (unit mm)*
G04 Created by KiCad (PCBNEW 9.0.3) date 2025-10-01 09:47:41*
%MOMM*%
%LPD*%
G01*
G04 APERTURE LIST*
G04 Aperture macros list*
%AMRoundRect*
0 Rectangle with rounded corners*
0 $1 Rounding radius*
0 $2 $3 $4 $5 $6 $7 $8 $9 X,Y pos of 4 corners*
0 Add a 4 corners polygon primitive as box body*
4,1,4,$2,$3,$4,$5,$6,$7,$8,$9,$2,$3,0*
0 Add four circle primitives for the rounded corners*
1,1,$1+$1,$2,$3*
1,1,$1+$1,$4,$5*
1,1,$1+$1,$6,$7*
1,1,$1+$1,$8,$9*
0 Add four rect primitives between the rounded corners*
20,1,$1+$1,$2,$3,$4,$5,0*
20,1,$1+$1,$4,$5,$6,$7,0*
20,1,$1+$1,$6,$7,$8,$9,0*
20,1,$1+$1,$8,$9,$2,$3,0*%
G04 Aperture macros list end*
%TA.AperFunction,ComponentPad*%
%ADD10C,1.400000*%
%TD*%
%TA.AperFunction,SMDPad,CuDef*%
%ADD11RoundRect,0.250001X-1.449999X0.499999X-1.449999X-0.499999X1.449999X-0.499999X1.449999X0.499999X0*%
%TD*%
%TA.AperFunction,SMDPad,CuDef*%
%ADD12RoundRect,0.250000X-1.500000X0.250000X-1.500000X-0.250000X1.500000X-0.250000X1.500000X0.250000X0*%
%TD*%
%TA.AperFunction,ComponentPad*%
%ADD13C,4.000000*%
%TD*%
%TA.AperFunction,ComponentPad*%
%ADD14C,1.930400*%
%TD*%
%TA.AperFunction,ComponentPad*%
%ADD15C,3.516000*%
%TD*%
%TA.AperFunction,ComponentPad*%
%ADD16C,1.508000*%
%TD*%
%TA.AperFunction,ComponentPad*%
%ADD17R,1.508000X1.508000*%
%TD*%
%TA.AperFunction,SMDPad,CuDef*%
%ADD18RoundRect,0.200000X-0.450000X0.200000X-0.450000X-0.200000X0.450000X-0.200000X0.450000X0.200000X0*%
%TD*%
%TA.AperFunction,SMDPad,CuDef*%
%ADD19RoundRect,0.250001X-1.249999X0.799999X-1.249999X-0.799999X1.249999X-0.799999X1.249999X0.799999X0*%
%TD*%
%TA.AperFunction,ComponentPad*%
%ADD20R,1.700000X1.700000*%
%TD*%
%TA.AperFunction,ComponentPad*%
%ADD21C,1.700000*%
%TD*%
%TA.AperFunction,ComponentPad*%
%ADD22RoundRect,0.250000X0.550000X-1.050000X0.550000X1.050000X-0.550000X1.050000X-0.550000X-1.050000X0*%
%TD*%
%TA.AperFunction,ComponentPad*%
%ADD23O,1.600000X2.600000*%
%TD*%
%TA.AperFunction,ViaPad*%
%ADD24C,0.600000*%
%TD*%
%TA.AperFunction,Conductor*%
%ADD25C,0.700000*%
%TD*%
%TA.AperFunction,Conductor*%
%ADD26C,0.200000*%
%TD*%
%TA.AperFunction,Conductor*%
%ADD27C,0.400000*%
%TD*%
G04 APERTURE END LIST*
D10*
%TO.P,R1,2*%
%TO.N,/inside/SDA*%
X108000000Y-120420000D03*
%TO.P,R1,1*%
%TO.N,+3V3*%
X108000000Y-125500000D03*
%TD*%
%TO.P,R2,2*%
%TO.N,/inside/SCL*%
X109000000Y-116540000D03*
%TO.P,R2,1*%
%TO.N,+3V3*%
X109000000Y-111460000D03*
%TD*%
D11*
%TO.P,X1,MP*%
%TO.N,N/C*%
X40700000Y-132650000D03*
X40700000Y-139350000D03*
D12*
%TO.P,X1,2,2*%
%TO.N,+5V*%
X46450000Y-137000000D03*
%TO.P,X1,1,1*%
%TO.N,GND*%
X46450000Y-135000000D03*
%TD*%
D13*
%TO.P,U3,SH4*%
%TO.N,N/C*%
X119865000Y-102490000D03*
%TO.P,U3,SH3*%
X141455000Y-102490000D03*
%TO.P,U3,SH2*%
X141455000Y-117730000D03*
%TO.P,U3,SH1*%
X119865000Y-117730000D03*
D14*
%TO.P,U3,10,PS0*%
%TO.N,unconnected-(U3-PS0-Pad10)*%
X126850000Y-101220000D03*
%TO.P,U3,9,PS1*%
%TO.N,unconnected-(U3-PS1-Pad9)*%
X129390000Y-101220000D03*
%TO.P,U3,8,INT*%
%TO.N,unconnected-(U3-INT-Pad8)*%
X131930000Y-101220000D03*
%TO.P,U3,7,ADR*%
%TO.N,unconnected-(U3-ADR-Pad7)*%
X134470000Y-101220000D03*
%TO.P,U3,6,RST*%
%TO.N,unconnected-(U3-RST-Pad6)*%
X137010000Y-119000000D03*
%TO.P,U3,5,SCL*%
%TO.N,/inside/SCL*%
X134470000Y-119000000D03*
%TO.P,U3,4,SDA*%
%TO.N,/inside/SDA*%
X131930000Y-119000000D03*
%TO.P,U3,3,GND*%
%TO.N,GND*%
X129390000Y-119000000D03*
%TO.P,U3,2,3VO*%
%TO.N,unconnected-(U3-3VO-Pad2)*%
X126850000Y-119000000D03*
%TO.P,U3,1,VIN*%
%TO.N,+3V3*%
X124310000Y-119000000D03*
%TD*%
D15*
%TO.P,U1,S2*%
%TO.N,N/C*%
X140660000Y-128110000D03*
%TO.P,U1,S1*%
X120340000Y-128110000D03*
D16*
%TO.P,U1,9,DET*%
%TO.N,unconnected-(U1-DET-Pad9)*%
X140660000Y-145890000D03*
%TO.P,U1,8,DAT2*%
%TO.N,unconnected-(U1-DAT2-Pad8)*%
X138120000Y-145890000D03*
%TO.P,U1,7,DAT1*%
%TO.N,unconnected-(U1-DAT1-Pad7)*%
X135580000Y-145890000D03*
%TO.P,U1,6,D3/CS*%
%TO.N,/inside/CS_microSD*%
X133040000Y-145890000D03*
%TO.P,U1,5,CMD/SI*%
%TO.N,/inside/MOSI*%
X130500000Y-145890000D03*
%TO.P,U1,4,D0/SO*%
%TO.N,/inside/MISO*%
X127960000Y-145890000D03*
%TO.P,U1,3,CLK*%
%TO.N,/inside/SCK*%
X125420000Y-145890000D03*
%TO.P,U1,2,GND*%
%TO.N,GND*%
X122880000Y-145890000D03*
D17*
%TO.P,U1,1,3V*%
%TO.N,+3V3*%
X120340000Y-145890000D03*
%TD*%
D16*
%TO.P,U2,JP1_1,G1*%
%TO.N,unconnected-(U2-G1-PadJP1_1)*%
X116100000Y-93414000D03*
%TO.P,U2,JP1_2,G2*%
%TO.N,unconnected-(U2-G2-PadJP1_2)*%
X116100000Y-90874000D03*
%TO.P,U2,JP1_3,G3*%
%TO.N,unconnected-(U2-G3-PadJP1_3)*%
X116100000Y-88334000D03*
%TO.P,U2,JP1_4,G4*%
%TO.N,unconnected-(U2-G4-PadJP1_4)*%
X116100000Y-85794000D03*
%TO.P,U2,JP1_5,G5*%
%TO.N,unconnected-(U2-G5-PadJP1_5)*%
X116100000Y-83254000D03*
%TO.P,U2,JP3_1,VIN*%
%TO.N,+3V3*%
X141500000Y-93414000D03*
%TO.P,U2,JP3_2,GND*%
%TO.N,GND*%
X141500000Y-90874000D03*
%TO.P,U2,JP3_3,EN*%
%TO.N,unconnected-(U2-EN-PadJP3_3)*%
X141500000Y-88334000D03*
%TO.P,U2,JP3_4,G0*%
%TO.N,unconnected-(U2-G0-PadJP3_4)*%
X141500000Y-85794000D03*
%TO.P,U2,JP3_5,SCK*%
%TO.N,/inside/SCK*%
X141500000Y-83254000D03*
%TO.P,U2,JP3_6,MISO*%
%TO.N,/inside/MISO*%
X141500000Y-80714000D03*
%TO.P,U2,JP3_7,MOSI*%
%TO.N,/inside/MOSI*%
X141500000Y-78174000D03*
%TO.P,U2,JP3_8,~{CS}*%
%TO.N,/inside/CS_LoRa*%
X141500000Y-75634000D03*
%TO.P,U2,JP3_9,RST*%
%TO.N,unconnected-(U2-RST-PadJP3_9)*%
X141500000Y-73094000D03*
%TD*%
D18*
%TO.P,J2,1,Pin_1*%
%TO.N,/inside/RX_MCU*%
X104750000Y-100875000D03*
%TO.P,J2,2,Pin_2*%
%TO.N,unconnected-(J2-Pin_2-Pad2)*%
X104750000Y-102125000D03*
%TO.P,J2,3,Pin_3*%
%TO.N,unconnected-(J2-Pin_3-Pad3)*%
X104750000Y-103375000D03*
%TO.P,J2,4,Pin_4*%
%TO.N,unconnected-(J2-Pin_4-Pad4)*%
X104750000Y-104625000D03*
%TO.P,J2,5,Pin_5*%
%TO.N,unconnected-(J2-Pin_5-Pad5)*%
X104750000Y-105875000D03*
%TO.P,J2,6,Pin_6*%
%TO.N,/inside/TX_MCU*%
X104750000Y-107125000D03*
%TO.P,J2,7,Pin_7*%
%TO.N,unconnected-(J2-Pin_7-Pad7)*%
X104750000Y-108375000D03*
%TO.P,J2,8,Pin_8*%
%TO.N,+5V*%
X104750000Y-109625000D03*
%TO.P,J2,9,Pin_9*%
%TO.N,unconnected-(J2-Pin_9-Pad9)*%
X104750000Y-110875000D03*
%TO.P,J2,10,Pin_10*%
%TO.N,GND*%
X104750000Y-112125000D03*
D19*
%TO.P,J2,MP,MountPin*%
X102000000Y-98325000D03*
X102000000Y-114675000D03*
%TD*%
D20*
%TO.P,J5,1,Pin_1*%
%TO.N,unconnected-(J5-Pin_1-Pad1)*%
X94840000Y-71750000D03*
D21*
%TO.P,J5,2,Pin_2*%
%TO.N,unconnected-(J5-Pin_2-Pad2)*%
X97380000Y-71750000D03*
%TO.P,J5,3,Pin_3*%
%TO.N,unconnected-(J5-Pin_3-Pad3)*%
X99920000Y-71750000D03*
%TO.P,J5,4,Pin_4*%
%TO.N,unconnected-(J5-Pin_4-Pad4)*%
X102460000Y-71750000D03*
%TO.P,J5,5,Pin_5*%
%TO.N,unconnected-(J5-Pin_5-Pad5)*%
X105000000Y-71750000D03*
%TO.P,J5,6,Pin_6*%
%TO.N,unconnected-(J5-Pin_6-Pad6)*%
X107540000Y-71750000D03*
%TD*%
D22*
%TO.P,A1,1,~{RESET}*%
%TO.N,unconnected-(A1-~{RESET}-Pad1)*%
X58440000Y-144020000D03*
D23*
%TO.P,A1,2,3V3*%
%TO.N,+3V3*%
X60980000Y-144020000D03*
%TO.P,A1,3,NC*%
%TO.N,unconnected-(A1-NC-Pad3)*%
X63520000Y-144020000D03*
%TO.P,A1,4,GND*%
%TO.N,GND*%
X66060000Y-144020000D03*
%TO.P,A1,5,DAC2/A0*%
%TO.N,unconnected-(A1-DAC2{slash}A0-Pad5)*%
X68600000Y-144020000D03*
%TO.P,A1,6,DAC1/A1*%
%TO.N,unconnected-(A1-DAC1{slash}A1-Pad6)*%
X71140000Y-144020000D03*
%TO.P,A1,7,I34/A2*%
%TO.N,unconnected-(A1-I34{slash}A2-Pad7)*%
X73680000Y-144020000D03*
%TO.P,A1,8,I39/A3*%
%TO.N,unconnected-(A1-I39{slash}A3-Pad8)*%
X76220000Y-144020000D03*
%TO.P,A1,9,IO36/A4*%
%TO.N,unconnected-(A1-IO36{slash}A4-Pad9)*%
X78760000Y-144020000D03*
%TO.P,A1,10,IO4/A5*%
%TO.N,unconnected-(A1-IO4{slash}A5-Pad10)*%
X81300000Y-144020000D03*
%TO.P,A1,11,SCK/IO5*%
%TO.N,/inside/SCK*%
X83840000Y-144020000D03*
%TO.P,A1,12,MOSI/IO18*%
%TO.N,/inside/MOSI*%
X86380000Y-144020000D03*
%TO.P,A1,13,MISO/IO19*%
%TO.N,/inside/MISO*%
X88920000Y-144020000D03*
%TO.P,A1,14,RX/IO16*%
%TO.N,/inside/RX_MCU*%
X91460000Y-144020000D03*
%TO.P,A1,15,TX/IO17*%
%TO.N,/inside/TX_MCU*%
X94000000Y-144020000D03*
%TO.P,A1,16,IO21*%
%TO.N,unconnected-(A1-IO21-Pad16)*%
X96540000Y-144020000D03*
%TO.P,A1,17,SDA/IO23*%
%TO.N,/inside/SDA*%
X96540000Y-124300000D03*
%TO.P,A1,18,SCL/IO22*%
%TO.N,/inside/SCL*%
X94000000Y-124300000D03*
%TO.P,A1,19,A6/IO14*%
%TO.N,/inside/CS_LoRa*%
X91460000Y-124300000D03*
%TO.P,A1,20,A7/IO32*%
%TO.N,/inside/CS_microSD*%
X88920000Y-124300000D03*
%TO.P,A1,21,A8/IO15*%
%TO.N,unconnected-(A1-A8{slash}IO15-Pad21)*%
X86380000Y-124300000D03*
%TO.P,A1,22,A9/IO33*%
%TO.N,unconnected-(A1-A9{slash}IO33-Pad22)*%
X83840000Y-124300000D03*
%TO.P,A1,23,A10/IO27*%
%TO.N,unconnected-(A1-A10{slash}IO27-Pad23)*%
X81300000Y-124300000D03*
%TO.P,A1,24,A11/IO12*%
%TO.N,unconnected-(A1-A11{slash}IO12-Pad24)*%
X78760000Y-124300000D03*
%TO.P,A1,25,A12/IO13*%
%TO.N,unconnected-(A1-A12{slash}IO13-Pad25)*%
X76220000Y-124300000D03*
%TO.P,A1,26,USB*%
%TO.N,unconnected-(A1-USB-Pad26)*%
X73680000Y-124300000D03*
%TO.P,A1,27,EN*%
%TO.N,unconnected-(A1-EN-Pad27)*%
X71140000Y-124300000D03*
%TO.P,A1,28,VBAT*%
%TO.N,+5V*%
X68600000Y-124300000D03*
%TD*%
D20*
%TO.P,J4,1,Pin_1*%
%TO.N,+3V3*%
X94840000Y-92070000D03*
D21*
%TO.P,J4,2,Pin_2*%
%TO.N,GND*%
X97380000Y-92070000D03*
%TO.P,J4,3,Pin_3*%
%TO.N,unconnected-(J4-Pin_3-Pad3)*%
X99920000Y-92070000D03*
%TO.P,J4,4,Pin_4*%
%TO.N,/inside/SCL*%
X102460000Y-92070000D03*
%TO.P,J4,5,Pin_5*%
%TO.N,/inside/SDA*%
X105000000Y-92070000D03*
%TO.P,J4,6,Pin_6*%
%TO.N,unconnected-(J4-Pin_6-Pad6)*%
X107540000Y-92070000D03*
%TD*%
D24*
%TO.N,/inside/SCK*%
X128000000Y-140500000D03*
%TD*%
D25*
%TO.N,+5V*%
X45850000Y-137000000D02*
X55600000Y-137000000D01*
X68600000Y-124000000D02*
X55600000Y-137000000D01*
D26*
%TO.N,/inside/SCK*%
X128000000Y-143310000D02*
X125420000Y-145890000D01*
X128000000Y-140500000D02*
X128000000Y-143310000D01*
%TO.N,/inside/MISO*%
X139565000Y-80714000D02*
X141500000Y-80714000D01*
X127960000Y-145890000D02*
X126350000Y-147500000D01*
X138510000Y-81769000D02*
X138510000Y-135340000D01*
X138510000Y-135340000D02*
X127960000Y-145890000D01*
X98875049Y-147500000D02*
X96996049Y-145621000D01*
X90221000Y-145621000D02*
X88920000Y-144320000D01*
X96996049Y-145621000D02*
X90221000Y-145621000D01*
X139565000Y-80714000D02*
X138510000Y-81769000D01*
X126350000Y-147500000D02*
X98875049Y-147500000D01*
%TO.N,/inside/CS_LoRa*%
X91460000Y-123040000D02*
X91460000Y-124000000D01*
%TO.N,/inside/SCL*%
X98500000Y-119000000D02*
X100974000Y-116526000D01*
X98500000Y-119500000D02*
X98500000Y-119000000D01*
X117814894Y-116526000D02*
X118911894Y-115429000D01*
X118911894Y-115429000D02*
X130899000Y-115429000D01*
X100974000Y-116526000D02*
X117814894Y-116526000D01*
X130899000Y-115429000D02*
X134470000Y-119000000D01*
X94000000Y-124000000D02*
X98500000Y-119500000D01*
%TO.N,/inside/RX_MCU*%
X104100000Y-100875000D02*
X104750000Y-100875000D01*
X91460000Y-144320000D02*
X90359000Y-143219000D01*
X90359000Y-114616000D02*
X104100000Y-100875000D01*
X90359000Y-143219000D02*
X90359000Y-114616000D01*
%TO.N,/inside/TX_MCU*%
X92899000Y-118101000D02*
X92899000Y-143219000D01*
X92899000Y-143219000D02*
X94000000Y-144320000D01*
X103875000Y-107125000D02*
X92899000Y-118101000D01*
X104750000Y-107125000D02*
X103875000Y-107125000D01*
%TO.N,/inside/SDA*%
X99500000Y-120500000D02*
X130430000Y-120500000D01*
X98500000Y-121500000D02*
X99500000Y-120500000D01*
X96540000Y-124000000D02*
X98500000Y-122040000D01*
X130430000Y-120500000D02*
X131930000Y-119000000D01*
X98500000Y-122040000D02*
X98500000Y-121500000D01*
D27*
%TO.N,+5V*%
X105005484Y-109625000D02*
X104750000Y-109625000D01*
X105801000Y-108829484D02*
X105005484Y-109625000D01*
X105454484Y-100074000D02*
X105801000Y-100420516D01*
X68600000Y-124000000D02*
X92526000Y-100074000D01*
X92526000Y-100074000D02*
X105454484Y-100074000D01*
X105801000Y-100420516D02*
X105801000Y-108829484D01*
%TD*%
%TA.AperFunction,Conductor*%
%TO.N,GND*%
G36*
X135826420Y-119867629D02*
G01*
X135840313Y-119883662D01*
X135892027Y-119954839D01*
X136055161Y-120117973D01*
X136241806Y-120253579D01*
X136447367Y-120358317D01*
X136624850Y-120415984D01*
X136666780Y-120429609D01*
X136780714Y-120447654D01*
X136894647Y-120465700D01*
X136894648Y-120465700D01*
X137125352Y-120465700D01*
X137125353Y-120465700D01*
X137353219Y-120429609D01*
X137572633Y-120358317D01*
X137729208Y-120278538D01*
X137797874Y-120265643D01*
X137862614Y-120291919D01*
X137902872Y-120349025D01*
X137909500Y-120389024D01*
X137909500Y-135039902D01*
X137889815Y-135106941D01*
X137873181Y-135127583D01*
X128367871Y-144632892D01*
X128306548Y-144666377D01*
X128258778Y-144665868D01*
X128258575Y-144667152D01*
X128058736Y-144635500D01*
X128058731Y-144635500D01*
X127861269Y-144635500D01*
X127861266Y-144635500D01*
X127837144Y-144639320D01*
X127767851Y-144630363D01*
X127714400Y-144585366D01*
X127693762Y-144518614D01*
X127712488Y-144451300D01*
X127730064Y-144429169D01*
X128358506Y-143800728D01*
X128358511Y-143800724D01*
X128368714Y-143790520D01*
X128368716Y-143790520D01*
X128480520Y-143678716D01*
X128533058Y-143587716D01*
X128559577Y-143541785D01*
X128600501Y-143389057D01*
X128600501Y-143230943D01*
X128600501Y-143223348D01*
X128600500Y-143223330D01*
X128600500Y-141079765D01*
X128620185Y-141012726D01*
X128621398Y-141010874D01*
X128709390Y-140879185D01*
X128709390Y-140879184D01*
X128709394Y-140879179D01*
X128769737Y-140733497D01*
X128800500Y-140578842D01*
X128800500Y-140421158D01*
X128800500Y-140421155D01*
X128800499Y-140421153D01*
X128769737Y-140266503D01*
X128729489Y-140169334D01*
X128709397Y-140120827D01*
X128709390Y-140120814D01*
X128621789Y-139989711D01*
X128621786Y-139989707D01*
X128510292Y-139878213D01*
X128510288Y-139878210D01*
X128379185Y-139790609D01*
X128379172Y-139790602D01*
X128233501Y-139730264D01*
X128233489Y-139730261D01*
X128078845Y-139699500D01*
X128078842Y-139699500D01*
X127921158Y-139699500D01*
X127921155Y-139699500D01*
X127766510Y-139730261D01*
X127766498Y-139730264D01*
X127620827Y-139790602D01*
X127620814Y-139790609D01*
X127489711Y-139878210D01*
X127489707Y-139878213D01*
X127378213Y-139989707D01*
X127378210Y-139989711D01*
X127290609Y-140120814D01*
X127290602Y-140120827D01*
X127230264Y-140266498D01*
X127230261Y-140266510D01*
X127199500Y-140421153D01*
X127199500Y-140578846D01*
X127230261Y-140733489D01*
X127230264Y-140733501D01*
X127290602Y-140879172D01*
X127290609Y-140879185D01*
X127378602Y-141010874D01*
X127399480Y-141077551D01*
X127399500Y-141079765D01*
X127399500Y-143009902D01*
X127379815Y-143076941D01*
X127363181Y-143097583D01*
X125827871Y-144632892D01*
X125766548Y-144666377D01*
X125718778Y-144665868D01*
X125718575Y-144667152D01*
X125518736Y-144635500D01*
X125518731Y-144635500D01*
X125321269Y-144635500D01*
X125321264Y-144635500D01*
X125126236Y-144666389D01*
X124938441Y-144727408D01*
X124762495Y-144817058D01*
X124602753Y-144933115D01*
X124463115Y-145072753D01*
X124347058Y-145232495D01*
X124347056Y-145232499D01*
X124260203Y-145402954D01*
X124212230Y-145453749D01*
X124144409Y-145470544D01*
X124078274Y-145448006D01*
X124039235Y-145402953D01*
X123952520Y-145232768D01*
X123952512Y-145232755D01*
X123926542Y-145197010D01*
X123926541Y-145197009D01*
X123362962Y-145760589D01*
X123345925Y-145697007D01*
X123280099Y-145582993D01*
X123187007Y-145489901D01*
X123072993Y-145424075D01*
X123009409Y-145407037D01*
X123572989Y-144843457D01*
X123537239Y-144817483D01*
X123361373Y-144727873D01*
X123173646Y-144666876D01*
X122978697Y-144636000D01*
X122781303Y-144636000D01*
X122586353Y-144666876D01*
X122398626Y-144727873D01*
X122222762Y-144817482D01*
X122222760Y-144817483D01*
X122187010Y-144843456D01*
X122187010Y-144843457D01*
X122750591Y-145407037D01*
X122687007Y-145424075D01*
X122572993Y-145489901D01*
X122479901Y-145582993D01*
X122414075Y-145697007D01*
X122397037Y-145760590D01*
X121833457Y-145197010D01*
X121833456Y-145197010D01*
X121818818Y-145217159D01*
X121763489Y-145259826D01*
X121693875Y-145265806D01*
X121632080Y-145233200D01*
X121597722Y-145172362D01*
X121594499Y-145144275D01*
X121594499Y-145088129D01*
X121594498Y-145088123D01*
X121594497Y-145088116D01*
X121588091Y-145028517D01*
X121583664Y-145016648D01*
X121552857Y-144934049D01*
X121537797Y-144893671D01*
X121537793Y-144893664D01*
X121451547Y-144778455D01*
X121451544Y-144778452D01*
X121336335Y-144692206D01*
X121336328Y-144692202D01*
X121201482Y-144641908D01*
X121201483Y-144641908D01*
X121141883Y-144635501D01*
X121141881Y-144635500D01*
X121141873Y-144635500D01*
X121141864Y-144635500D01*
X119538129Y-144635500D01*
X119538123Y-144635501D01*
X119478516Y-144641908D01*
X119343671Y-144692202D01*
X119343664Y-144692206D01*
X119228455Y-144778452D01*
X119228452Y-144778455D01*
X119142206Y-144893664D01*
X119142202Y-144893671D01*
X119091908Y-145028517D01*
X119088545Y-145059803D01*
X119085501Y-145088123D01*
X119085500Y-145088135D01*
X119085500Y-146691870D01*
X119085501Y-146691876D01*
X119092738Y-146759196D01*
X119090175Y-146759471D01*
X119087106Y-146816752D01*
X119046240Y-146873424D01*
X118981222Y-146899006D01*
X118970169Y-146899500D01*
X99175146Y-146899500D01*
X99108107Y-146879815D01*
X99087465Y-146863181D01*
X97483639Y-145259355D01*
X97476570Y-145252286D01*
X97476569Y-145252284D01*
X97415100Y-145190815D01*
X97389689Y-145144275D01*
X97381618Y-145129495D01*
X97386602Y-145059803D01*
X97399677Y-145034254D01*
X97426632Y-144993914D01*
X97502051Y-144811835D01*
X97525847Y-144692206D01*
X97540500Y-144618543D01*
X97540500Y-143421456D01*
X97502052Y-143228170D01*
X97502051Y-143228169D01*
X97502051Y-143228165D01*
X97447963Y-143097583D01*
X97426635Y-143046092D01*
X97426628Y-143046079D01*
X97317139Y-142882218D01*
X97317136Y-142882214D01*
X97177785Y-142742863D01*
X97177781Y-142742860D01*
X97013920Y-142633371D01*
X97013907Y-142633364D01*
X96831839Y-142557950D01*
X96831829Y-142557947D01*
X96638543Y-142519500D01*
X96638541Y-142519500D01*
X96441459Y-142519500D01*
X96441457Y-142519500D01*
X96248170Y-142557947D01*
X96248160Y-142557950D01*
X96066092Y-142633364D01*
X96066079Y-142633371D01*
X95902218Y-142742860D01*
X95902214Y-142742863D01*
X95762863Y-142882214D01*
X95762860Y-142882218D01*
X95653371Y-143046079D01*
X95653364Y-143046092D01*
X95577950Y-143228160D01*
X95577947Y-143228170D01*
X95539500Y-143421456D01*
X95539500Y-143421459D01*
X95539500Y-144618541D01*
X95539500Y-144618543D01*
X95539499Y-144618543D01*
X95577947Y-144811829D01*
X95577949Y-144811835D01*
X95591047Y-144843457D01*
X95593363Y-144849047D01*
X95600832Y-144918516D01*
X95569557Y-144980996D01*
X95509468Y-145016648D01*
X95478802Y-145020500D01*
X95061198Y-145020500D01*
X94994159Y-145000815D01*
X94948404Y-144948011D01*
X94938460Y-144878853D01*
X94946637Y-144849047D01*
X94962051Y-144811835D01*
X94985847Y-144692206D01*
X95000500Y-144618543D01*
X95000500Y-143421456D01*
X94962052Y-143228170D01*
X94962051Y-143228169D01*
X94962051Y-143228165D01*
X94907963Y-143097583D01*
X94886635Y-143046092D01*
X94886628Y-143046079D01*
X94777139Y-142882218D01*
X94777136Y-142882214D01*
X94637785Y-142742863D01*
X94637781Y-142742860D01*
X94473920Y-142633371D01*
X94473907Y-142633364D01*
X94291839Y-142557950D01*
X94291829Y-142557947D01*
X94098543Y-142519500D01*
X94098541Y-142519500D01*
X93901459Y-142519500D01*
X93901457Y-142519500D01*
X93708170Y-142557947D01*
X93708164Y-142557949D01*
X93670951Y-142573363D01*
X93601481Y-142580830D01*
X93539003Y-142549554D01*
X93503351Y-142489465D01*
X93499500Y-142458801D01*
X93499500Y-137878711D01*
X109149500Y-137878711D01*
X109149500Y-138121288D01*
X109181161Y-138361785D01*
X109243947Y-138596104D01*
X109328403Y-138799997D01*
X109336776Y-138820212D01*
X109458064Y-139030289D01*
X109458066Y-139030292D01*
X109458067Y-139030293D01*
X109605733Y-139222736D01*
X109605739Y-139222743D01*
X109777256Y-139394260D01*
X109777262Y-139394265D01*
X109969711Y-139541936D01*
X110179788Y-139663224D01*
X110403900Y-139756054D01*
X110638211Y-139818838D01*
X110818586Y-139842584D01*
X110878711Y-139850500D01*
X110878712Y-139850500D01*
X111121289Y-139850500D01*
X111169388Y-139844167D01*
X111361789Y-139818838D01*
X111596100Y-139756054D01*
X111820212Y-139663224D01*
X112030289Y-139541936D01*
X112222738Y-139394265D01*
X112394265Y-139222738D01*
X112541936Y-139030289D01*
X112663224Y-138820212D01*
X112756054Y-138596100D01*
X112818838Y-138361789D01*
X112850500Y-138121288D01*
X112850500Y-137878712D01*
X112818838Y-137638211D01*
X112756054Y-137403900D01*
X112663224Y-137179788D01*
X112541936Y-136969711D01*
X112394265Y-136777262D01*
X112394260Y-136777256D01*
X112222743Y-136605739D01*
X112222736Y-136605733D01*
X112030293Y-136458067D01*
X112030292Y-136458066D01*
X112030289Y-136458064D01*
X111820212Y-136336776D01*
X111820205Y-136336773D01*
X111596104Y-136243947D01*
X111361785Y-136181161D01*
X111121289Y-136149500D01*
X111121288Y-136149500D01*
X110878712Y-136149500D01*
X110878711Y-136149500D01*
X110638214Y-136181161D01*
X110403895Y-136243947D01*
X110179794Y-136336773D01*
X110179785Y-136336777D01*
X109969706Y-136458067D01*
X109777263Y-136605733D01*
X109777256Y-136605739D01*
X109605739Y-136777256D01*
X109605733Y-136777263D01*
X109458067Y-136969706D01*
X109336777Y-137179785D01*
X109336773Y-137179794D01*
X109243947Y-137403895D01*
X109181161Y-137638214D01*
X109149500Y-137878711D01*
X93499500Y-137878711D01*
X93499500Y-127961962D01*
X118081500Y-127961962D01*
X118081500Y-128258037D01*
X118113685Y-128502503D01*
X118120144Y-128551557D01*
X118196769Y-128837529D01*
X118310067Y-129111052D01*
X118310070Y-129111059D01*
X118310071Y-129111060D01*
X118458096Y-129367447D01*
X118638324Y-129602326D01*
X118638330Y-129602333D01*
X118847666Y-129811669D01*
X118847673Y-129811675D01*
X119082552Y-129991903D01*
X119338939Y-130139928D01*
X119338940Y-130139929D01*
X119338943Y-130139930D01*
X119338948Y-130139933D01*
X119612471Y-130253231D01*
X119898443Y-130329856D01*
X120191970Y-130368500D01*
X120191977Y-130368500D01*
X120488023Y-130368500D01*
X120488030Y-130368500D01*
X120781557Y-130329856D01*
X121067529Y-130253231D01*
X121341052Y-130139933D01*
X121597448Y-129991903D01*
X121832328Y-129811674D01*
X122041674Y-129602328D01*
X122221903Y-129367448D01*
X122369933Y-129111052D01*
X122483231Y-128837529D01*
X122559856Y-128551557D01*
X122598500Y-128258030D01*
X122598500Y-127961970D01*
X122559856Y-127668443D01*
X122483231Y-127382471D01*
X122369933Y-127108948D01*
X122369930Y-127108943D01*
X122369929Y-127108940D01*
X122369928Y-127108939D01*
X122221903Y-126852552D01*
X122041675Y-126617673D01*
X122041669Y-126617666D01*
X121832333Y-126408330D01*
X121832326Y-126408324D01*
X121597447Y-126228096D01*
X121341060Y-126080071D01*
X121341059Y-126080070D01*
X121341052Y-126080067D01*
X121067529Y-125966769D01*
X121045386Y-125960836D01*
X121007082Y-125950572D01*
X120781557Y-125890144D01*
X120732503Y-125883685D01*
X120488037Y-125851500D01*
X120488030Y-125851500D01*
X120191970Y-125851500D01*
X120191962Y-125851500D01*
X119912571Y-125888283D01*
X119898443Y-125890144D01*
X119803119Y-125915685D01*
X119612477Y-125966767D01*
X119612473Y-125966768D01*
X119612471Y-125966769D01*
X119612464Y-125966772D01*
X119338940Y-126080070D01*
X119338939Y-126080071D01*
X119082552Y-126228096D01*
X118847673Y-126408324D01*
X118847666Y-126408330D01*
X118638330Y-126617666D01*
X118638324Y-126617673D01*
X118458096Y-126852552D01*
X118310071Y-127108939D01*
X118310070Y-127108940D01*
X118196772Y-127382464D01*
X118196767Y-127382477D01*
X118120145Y-127668440D01*
X118120143Y-127668451D01*
X118081500Y-127961962D01*
X93499500Y-127961962D01*
X93499500Y-125861198D01*
X93519185Y-125794159D01*
X93571989Y-125748404D01*
X93641147Y-125738460D01*
X93670950Y-125746636D01*
X93708165Y-125762051D01*
X93708169Y-125762051D01*
X93708170Y-125762052D01*
X93901456Y-125800500D01*
X93901459Y-125800500D01*
X94098543Y-125800500D01*
X94228582Y-125774632D01*
X94291835Y-125762051D01*
X94473914Y-125686632D01*
X94637782Y-125577139D01*
X94777139Y-125437782D01*
X94886632Y-125273914D01*
X94962051Y-125091835D01*
X95000500Y-124898541D01*
X95000500Y-123900096D01*
X95020185Y-123833057D01*
X95036814Y-123812420D01*
X95347722Y-123501512D01*
X95409043Y-123468029D01*
X95478735Y-123473013D01*
X95534668Y-123514885D01*
X95559085Y-123580349D01*
X95557018Y-123613386D01*
X95539500Y-123701454D01*
X95539500Y-123701459D01*
X95539500Y-124898541D01*
X95539500Y-124898543D01*
X95539499Y-124898543D01*
X95577947Y-125091829D01*
X95577950Y-125091839D01*
X95653364Y-125273907D01*
X95653371Y-125273920D01*
X95762860Y-125437781D01*
X95762863Y-125437785D01*
X95902214Y-125577136D01*
X95902218Y-125577139D01*
X96066079Y-125686628D01*
X96066092Y-125686635D01*
X96210952Y-125746637D01*
X96248165Y-125762051D01*
X96248169Y-125762051D01*
X96248170Y-125762052D01*
X96441456Y-125800500D01*
X96441459Y-125800500D01*
X96638543Y-125800500D01*
X96768582Y-125774632D01*
X96831835Y-125762051D01*
X97013914Y-125686632D01*
X97177782Y-125577139D01*
X97317139Y-125437782D01*
X97338700Y-125405513D01*
X106799500Y-125405513D01*
X106799500Y-125594486D01*
X106829059Y-125781118D01*
X106887454Y-125960836D01*
X106948208Y-126080071D01*
X106973240Y-126129199D01*
X107084310Y-126282073D01*
X107217927Y-126415690D01*
X107370801Y-126526760D01*
X107450347Y-126567290D01*
X107539163Y-126612545D01*
X107539165Y-126612545D01*
X107539168Y-126612547D01*
X107635497Y-126643846D01*
X107718881Y-126670940D01*
X107905514Y-126700500D01*
X107905519Y-126700500D01*
X108094486Y-126700500D01*
X108281118Y-126670940D01*
X108460832Y-126612547D01*
X108629199Y-126526760D01*
X108782073Y-126415690D01*
X108915690Y-126282073D01*
X109026760Y-126129199D01*
X109112547Y-125960832D01*
X109170940Y-125781118D01*
X109182390Y-125708825D01*
X109200500Y-125594486D01*
X109200500Y-125405513D01*
X109170940Y-125218881D01*
X109129661Y-125091839D01*
X109112547Y-125039168D01*
X109112545Y-125039165D01*
X109112545Y-125039163D01*
X109026759Y-124870800D01*
X108915690Y-124717927D01*
X108782073Y-124584310D01*
X108629199Y-124473240D01*
X108460836Y-124387454D01*
X108281118Y-124329059D01*
X108094486Y-124299500D01*
X108094481Y-124299500D01*
X107905519Y-124299500D01*
X107905514Y-124299500D01*
X107718881Y-124329059D01*
X107539163Y-124387454D01*
X107370800Y-124473240D01*
X107292280Y-124530289D01*
X107217927Y-124584310D01*
X107217925Y-124584312D01*
X107217924Y-124584312D01*
X107084312Y-124717924D01*
X107084312Y-124717925D01*
X107084310Y-124717927D01*
X107080815Y-124722738D01*
X106973240Y-124870800D01*
X106887454Y-125039163D01*
X106829059Y-125218881D01*
X106799500Y-125405513D01*
X97338700Y-125405513D01*
X97375459Y-125350500D01*
X97387984Y-125331756D01*
X97426628Y-125273920D01*
X97426628Y-125273919D01*
X97426632Y-125273914D01*
X97502051Y-125091835D01*
X97540500Y-124898541D01*
X97540500Y-123900096D01*
X97560185Y-123833058D01*
X97576819Y-123812416D01*
X98251024Y-123138211D01*
X98980520Y-122408716D01*
X99059577Y-122271784D01*
X99100501Y-122119057D01*
X99100501Y-121960942D01*
X99100501Y-121953347D01*
X99100500Y-121953329D01*
X99100500Y-121800097D01*
X99120185Y-121733058D01*
X99136819Y-121712416D01*
X99712417Y-121136819D01*
X99773740Y-121103334D01*
X99800098Y-121100500D01*
X106947332Y-121100500D01*
X107014371Y-121120185D01*
X107047650Y-121151615D01*
X107084310Y-121202073D01*
X107217927Y-121335690D01*
X107370801Y-121446760D01*
X107450347Y-121487290D01*
X107539163Y-121532545D01*
X107539165Y-121532545D01*
X107539168Y-121532547D01*
X107635497Y-121563846D01*
X107718881Y-121590940D01*
X107905514Y-121620500D01*
X107905519Y-121620500D01*
X108094486Y-121620500D01*
X108281118Y-121590940D01*
X108286947Y-121589046D01*
X108460832Y-121532547D01*
X108629199Y-121446760D01*
X108782073Y-121335690D01*
X108915690Y-121202073D01*
X108952350Y-121151615D01*
X109007680Y-121108949D01*
X109052668Y-121100500D01*
X130343331Y-121100500D01*
X130343347Y-121100501D01*
X130350943Y-121100501D01*
X130509054Y-121100501D01*
X130509057Y-121100501D01*
X130661785Y-121059577D01*
X130711904Y-121030639D01*
X130798716Y-120980520D01*
X130910520Y-120868716D01*
X130910520Y-120868714D01*
X130920728Y-120858507D01*
X130920730Y-120858504D01*
X131354055Y-120425178D01*
X131415376Y-120391695D01*
X131480051Y-120394929D01*
X131586781Y-120429609D01*
X131814647Y-120465700D01*
X131814648Y-120465700D01*
X132045352Y-120465700D01*
X132045353Y-120465700D01*
X132273219Y-120429609D01*
X132492633Y-120358317D01*
X132698194Y-120253579D01*
X132884839Y-120117973D01*
X133047973Y-119954839D01*
X133099683Y-119883665D01*
X133155012Y-119841002D01*
X133224625Y-119835023D01*
X133286420Y-119867629D01*
X133300313Y-119883662D01*
X133352027Y-119954839D01*
X133515161Y-120117973D01*
X133701806Y-120253579D01*
X133907367Y-120358317D01*
X134084850Y-120415984D01*
X134126780Y-120429609D01*
X134240714Y-120447654D01*
X134354647Y-120465700D01*
X134354648Y-120465700D01*
X134585352Y-120465700D01*
X134585353Y-120465700D01*
X134813219Y-120429609D01*
X135032633Y-120358317D01*
X135238194Y-120253579D01*
X135424839Y-120117973D01*
X135587973Y-119954839D01*
X135639683Y-119883665D01*
X135695012Y-119841002D01*
X135764625Y-119835023D01*
X135826420Y-119867629D01*
G37*
%TD.AperFunction*%
%TA.AperFunction,Conductor*%
G36*
X122414075Y-146082993D02*
G01*
X122479901Y-146197007D01*
X122572993Y-146290099D01*
X122687007Y-146355925D01*
X122750590Y-146372962D01*
X122260372Y-146863181D01*
X122199049Y-146896666D01*
X122172691Y-146899500D01*
X121709831Y-146899500D01*
X121642792Y-146879815D01*
X121597037Y-146827011D01*
X121586069Y-146767825D01*
X121586881Y-146754726D01*
X121588091Y-146751483D01*
X121594500Y-146691873D01*
X121594499Y-146631872D01*
X121594737Y-146628050D01*
X121605377Y-146598675D01*
X121614182Y-146568687D01*
X121617181Y-146566087D01*
X121618533Y-146562357D01*
X121643365Y-146543398D01*
X121666986Y-146522931D01*
X121670915Y-146522366D01*
X121674068Y-146519959D01*
X121705206Y-146517435D01*
X121736144Y-146512987D01*
X121739753Y-146514635D01*
X121743709Y-146514315D01*
X121771274Y-146529029D01*
X121799700Y-146542011D01*
X121803646Y-146546310D01*
X121805346Y-146547218D01*
X121806692Y-146549629D01*
X121818817Y-146562839D01*
X121833457Y-146582988D01*
X121833457Y-146582989D01*
X122397037Y-146019409D01*
X122414075Y-146082993D01*
G37*
%TD.AperFunction*%
%TA.AperFunction,Conductor*%
G36*
X123926541Y-146582988D02*
G01*
X123926543Y-146582988D01*
X123952516Y-146547241D01*
X124039235Y-146377046D01*
X124087210Y-146326250D01*
X124155031Y-146309455D01*
X124221165Y-146331992D01*
X124260202Y-146377042D01*
X124334249Y-146522366D01*
X124347058Y-146547505D01*
X124459751Y-146702615D01*
X124483231Y-146768422D01*
X124467405Y-146836475D01*
X124417299Y-146885170D01*
X124359433Y-146899500D01*
X123587309Y-146899500D01*
X123520270Y-146879815D01*
X123499628Y-146863181D01*
X123009409Y-146372962D01*
X123072993Y-146355925D01*
X123187007Y-146290099D01*
X123280099Y-146197007D01*
X123345925Y-146082993D01*
X123362962Y-146019409D01*
X123926541Y-146582988D01*
G37*
%TD.AperFunction*%
%TA.AperFunction,Conductor*%
G36*
X130665942Y-116049185D02*
G01*
X130686584Y-116065819D01*
X131943383Y-117322619D01*
X131976868Y-117383942D01*
X131971884Y-117453634D01*
X131930012Y-117509567D01*
X131864548Y-117533984D01*
X131855702Y-117534300D01*
X131814647Y-117534300D01*
X131787239Y-117538641D01*
X131586780Y-117570390D01*
X131432629Y-117620478D01*
X131367367Y-117641683D01*
X131367364Y-117641684D01*
X131367362Y-117641685D01*
X131161805Y-117746421D01*
X131061779Y-117819095D01*
X130975161Y-117882027D01*
X130975159Y-117882029D01*
X130975158Y-117882029D01*
X130812029Y-118045158D01*
X130812022Y-118045167D01*
X130760008Y-118116757D01*
X130704678Y-118159423D01*
X130635065Y-118165401D01*
X130621990Y-118158502D01*
X130587744Y-118155806D01*
X129872962Y-118870589D01*
X129855925Y-118807007D01*
X129790099Y-118692993D01*
X129697007Y-118599901D01*
X129582993Y-118534075D01*
X129519408Y-118517037D01*
X130234192Y-117802254D01*
X130234191Y-117802253D01*
X130157935Y-117746850D01*
X129952446Y-117642147D01*
X129733102Y-117570877D01*
X129505319Y-117534800D01*
X129274681Y-117534800D01*
X129046897Y-117570877D01*
X128827553Y-117642147D01*
X128622069Y-117746847D01*
X128545807Y-117802254D01*
X129260591Y-118517037D01*
X129197007Y-118534075D01*
X129082993Y-118599901D01*
X128989901Y-118692993D01*
X128924075Y-118807007D01*
X128907037Y-118870590D01*
X128192254Y-118155807D01*
X128167447Y-118157760D01*
X128165291Y-118159423D01*
X128095677Y-118165399D01*
X128033883Y-118132790D01*
X128019990Y-118116756D01*
X127967977Y-118045167D01*
X127967973Y-118045161D01*
X127804839Y-117882027D01*
X127618194Y-117746421D01*
X127412633Y-117641683D01*
X127299944Y-117605068D01*
X127193219Y-117570390D01*
X126996508Y-117539234D01*
X126965353Y-117534300D01*
X126734647Y-117534300D01*
X126707239Y-117538641D01*
X126506780Y-117570390D01*
X126352629Y-117620478D01*
X126287367Y-117641683D01*
X126287364Y-117641684D01*
X126287362Y-117641685D01*
X126081805Y-117746421D01*
X125981779Y-117819095D01*
X125895161Y-117882027D01*
X125895159Y-117882029D01*
X125895158Y-117882029D01*
X125732028Y-118045159D01*
X125680318Y-118116332D01*
X125624987Y-118158998D01*
X125555374Y-118164976D01*
X125493579Y-118132370D01*
X125479682Y-118116332D01*
X125427977Y-118045167D01*
X125427973Y-118045161D01*
X125264839Y-117882027D01*
X125078194Y-117746421D01*
X124872633Y-117641683D01*
X124759944Y-117605068D01*
X124653219Y-117570390D01*
X124456508Y-117539234D01*
X124425353Y-117534300D01*
X124194647Y-117534300D01*
X124167239Y-117538641D01*
X123966780Y-117570390D01*
X123812629Y-117620478D01*
X123747367Y-117641683D01*
X123747364Y-117641684D01*
X123747362Y-117641685D01*
X123541805Y-117746421D01*
X123441779Y-117819095D01*
X123355161Y-117882027D01*
X123355159Y-117882029D01*
X123355158Y-117882029D01*
X123192029Y-118045158D01*
X123192029Y-118045159D01*
X123192027Y-118045161D01*
X123192023Y-118045167D01*
X123056421Y-118231805D01*
X122951685Y-118437362D01*
X122880390Y-118656780D01*
X122844300Y-118884647D01*
X122844300Y-119115352D01*
X122880390Y-119343219D01*
X122905645Y-119420943D01*
X122951683Y-119562633D01*
X122951684Y-119562636D01*
X122951685Y-119562637D01*
X123031460Y-119719205D01*
X123044356Y-119787875D01*
X123018080Y-119852615D01*
X122960973Y-119892872D01*
X122920975Y-119899500D01*
X121509396Y-119899500D01*
X121442357Y-119879815D01*
X121396602Y-119827011D01*
X121386658Y-119757853D01*
X121415683Y-119694297D01*
X121432083Y-119678553D01*
X121483028Y-119637925D01*
X121533825Y-119597416D01*
X121732416Y-119398825D01*
X121907523Y-119179248D01*
X122056945Y-118941445D01*
X122178801Y-118688408D01*
X122271560Y-118423318D01*
X122334055Y-118149509D01*
X122337746Y-118116756D01*
X122349429Y-118013055D01*
X122365500Y-117870425D01*
X122365500Y-117589575D01*
X122342331Y-117383942D01*
X122334057Y-117310505D01*
X122334054Y-117310487D01*
X122271560Y-117036682D01*
X122271556Y-117036670D01*
X122248465Y-116970680D01*
X122178801Y-116771592D01*
X122056945Y-116518555D01*
X121907523Y-116280752D01*
X121867698Y-116230813D01*
X121841289Y-116166126D01*
X121854046Y-116097430D01*
X121901916Y-116046537D01*
X121964645Y-116029500D01*
X130598903Y-116029500D01*
X130665942Y-116049185D01*
G37*
%TD.AperFunction*%
%TA.AperFunction,Conductor*%
G36*
X142002702Y-66500617D02*
G01*
X142386771Y-66517386D01*
X142397506Y-66518326D01*
X142775971Y-66568152D01*
X142786597Y-66570025D01*
X143159284Y-66652648D01*
X143169710Y-66655442D01*
X143533765Y-66770227D01*
X143543911Y-66773920D01*
X143896578Y-66920000D01*
X143906369Y-66924566D01*
X144244942Y-67100816D01*
X144254310Y-67106224D01*
X144576244Y-67311318D01*
X144585105Y-67317523D01*
X144887930Y-67549889D01*
X144896217Y-67556843D01*
X145177635Y-67814715D01*
X145185284Y-67822364D01*
X145443156Y-68103782D01*
X145450110Y-68112069D01*
X145682476Y-68414894D01*
X145688681Y-68423755D01*
X145893775Y-68745689D01*
X145899183Y-68755057D01*
X146075430Y-69093623D01*
X146080002Y-69103427D01*
X146226075Y-69456078D01*
X146229775Y-69466244D01*
X146344554Y-69830278D01*
X146347354Y-69840727D01*
X146429971Y-70213389D01*
X146431849Y-70224042D01*
X146481671Y-70602473D01*
X146482614Y-70613249D01*
X146499382Y-70997297D01*
X146499500Y-71002706D01*
X146499500Y-146997293D01*
X146499382Y-147002702D01*
X146482614Y-147386750D01*
X146481671Y-147397526D01*
X146431849Y-147775957D01*
X146429971Y-147786610D01*
X146347354Y-148159272D01*
X146344554Y-148169721D01*
X146229775Y-148533755D01*
X146226075Y-148543921D01*
X146080002Y-148896572D01*
X146075430Y-148906376D01*
X145899183Y-149244942D01*
X145893775Y-149254310D01*
X145688681Y-149576244D01*
X145682476Y-149585105D01*
X145450110Y-149887930D01*
X145443156Y-149896217D01*
X145185284Y-150177635D01*
X145177635Y-150185284D01*
X144896217Y-150443156D01*
X144887930Y-150450110D01*
X144585105Y-150682476D01*
X144576244Y-150688681D01*
X144254310Y-150893775D01*
X144244942Y-150899183D01*
X143906376Y-151075430D01*
X143896572Y-151080002D01*
X143543921Y-151226075D01*
X143533755Y-151229775D01*
X143169721Y-151344554D01*
X143159272Y-151347354D01*
X142786610Y-151429971D01*
X142775957Y-151431849D01*
X142397526Y-151481671D01*
X142386750Y-151482614D01*
X142002703Y-151499382D01*
X141997294Y-151499500D01*
X43502706Y-151499500D01*
X43497297Y-151499382D01*
X43113249Y-151482614D01*
X43102473Y-151481671D01*
X42724042Y-151431849D01*
X42713389Y-151429971D01*
X42340727Y-151347354D01*
X42330278Y-151344554D01*
X41966244Y-151229775D01*
X41956078Y-151226075D01*
X41603427Y-151080002D01*
X41593623Y-151075430D01*
X41255057Y-150899183D01*
X41245689Y-150893775D01*
X40923755Y-150688681D01*
X40914894Y-150682476D01*
X40612069Y-150450110D01*
X40603782Y-150443156D01*
X40322364Y-150185284D01*
X40314715Y-150177635D01*
X40056843Y-149896217D01*
X40049889Y-149887930D01*
X39817523Y-149585105D01*
X39811318Y-149576244D01*
X39606224Y-149254310D01*
X39600816Y-149244942D01*
X39424569Y-148906376D01*
X39419997Y-148896572D01*
X39273924Y-148543921D01*
X39270224Y-148533755D01*
X39155442Y-148169710D01*
X39152648Y-148159284D01*
X39070025Y-147786597D01*
X39068152Y-147775971D01*
X39018326Y-147397506D01*
X39017386Y-147386771D01*
X39000618Y-147002702D01*
X39000500Y-146997293D01*
X39000500Y-142915730D01*
X57439500Y-142915730D01*
X57439500Y-145124269D01*
X57442353Y-145154699D01*
X57442353Y-145154701D01*
X57487206Y-145282880D01*
X57487207Y-145282882D01*
X57567850Y-145392150D01*
X57677118Y-145472793D01*
X57703576Y-145482051D01*
X57805299Y-145517646D01*
X57835730Y-145520500D01*
X57835734Y-145520500D01*
X59044270Y-145520500D01*
X59074699Y-145517646D01*
X59074701Y-145517646D01*
X59149420Y-145491500D01*
X59202882Y-145472793D01*
X59312150Y-145392150D01*
X59392793Y-145282882D01*
X59422841Y-145197009D01*
X59437646Y-145154701D01*
X59437646Y-145154699D01*
X59440500Y-145124269D01*
X59440500Y-144618543D01*
X59979499Y-144618543D01*
X60017947Y-144811829D01*
X60017950Y-144811839D01*
X60093364Y-144993907D01*
X60093371Y-144993920D01*
X60202860Y-145157781D01*
X60202863Y-145157785D01*
X60342214Y-145297136D01*
X60342218Y-145297139D01*
X60506079Y-145406628D01*
X60506092Y-145406635D01*
X60665814Y-145472793D01*
X60688165Y-145482051D01*
X60688169Y-145482051D01*
X60688170Y-145482052D01*
X60881456Y-145520500D01*
X60881459Y-145520500D01*
X61078543Y-145520500D01*
X61224332Y-145491500D01*
X61271835Y-145482051D01*
X61449547Y-145408441D01*
X61453907Y-145406635D01*
X61453907Y-145406634D01*
X61453914Y-145406632D01*
X61617782Y-145297139D01*
X61757139Y-145157782D01*
X61866632Y-144993914D01*
X61942051Y-144811835D01*
X61965847Y-144692206D01*
X61980500Y-144618543D01*
X62519499Y-144618543D01*
X62557947Y-144811829D01*
X62557950Y-144811839D01*
X62633364Y-144993907D01*
X62633371Y-144993920D01*
X62742860Y-145157781D01*
X62742863Y-145157785D01*
X62882214Y-145297136D01*
X62882218Y-145297139D01*
X63046079Y-145406628D01*
X63046092Y-145406635D01*
X63205814Y-145472793D01*
X63228165Y-145482051D01*
X63228169Y-145482051D01*
X63228170Y-145482052D01*
X63421456Y-145520500D01*
X63421459Y-145520500D01*
X63618543Y-145520500D01*
X63764332Y-145491500D01*
X63811835Y-145482051D01*
X63989547Y-145408441D01*
X63993907Y-145406635D01*
X63993907Y-145406634D01*
X63993914Y-145406632D01*
X64157782Y-145297139D01*
X64297139Y-145157782D01*
X64406632Y-144993914D01*
X64482051Y-144811835D01*
X64518034Y-144630937D01*
X64550419Y-144569027D01*
X64611134Y-144534453D01*
X64680904Y-144538192D01*
X64737576Y-144579059D01*
X64762124Y-144635731D01*
X64792009Y-144824417D01*
X64855244Y-145019031D01*
X64948140Y-145201349D01*
X65068417Y-145366894D01*
X65068417Y-145366895D01*
X65213104Y-145511582D01*
X65378650Y-145631859D01*
X65560968Y-145724754D01*
X65755578Y-145787988D01*
X65810000Y-145796607D01*
X65810000Y-144753012D01*
X65867007Y-144785925D01*
X65994174Y-144820000D01*
X66125826Y-144820000D01*
X66252993Y-144785925D01*
X66310000Y-144753012D01*
X66310000Y-145796606D01*
X66364421Y-145787988D01*
X66559031Y-145724754D01*
X66741349Y-145631859D01*
X66906894Y-145511582D01*
X66906895Y-145511582D01*
X67051582Y-145366895D01*
X67051582Y-145366894D01*
X67171859Y-145201349D01*
X67264755Y-145019031D01*
X67327990Y-144824417D01*
X67357875Y-144635731D01*
X67387804Y-144572596D01*
X67447116Y-144535665D01*
X67516978Y-144536663D01*
X67575211Y-144575273D01*
X67601965Y-144630937D01*
X67637947Y-144811829D01*
X67637950Y-144811839D01*
X67713364Y-144993907D01*
X67713371Y-144993920D01*
X67822860Y-145157781D01*
X67822863Y-145157785D01*
X67962214Y-145297136D01*
X67962218Y-145297139D01*
X68126079Y-145406628D01*
X68126092Y-145406635D01*
X68285814Y-145472793D01*
X68308165Y-145482051D01*
X68308169Y-145482051D01*
X68308170Y-145482052D01*
X68501456Y-145520500D01*
X68501459Y-145520500D01*
X68698543Y-145520500D01*
X68844332Y-145491500D01*
X68891835Y-145482051D01*
X69069547Y-145408441D01*
X69073907Y-145406635D01*
X69073907Y-145406634D01*
X69073914Y-145406632D01*
X69237782Y-145297139D01*
X69377139Y-145157782D01*
X69486632Y-144993914D01*
X69562051Y-144811835D01*
X69585847Y-144692206D01*
X69600500Y-144618543D01*
X70139499Y-144618543D01*
X70177947Y-144811829D01*
X70177950Y-144811839D01*
X70253364Y-144993907D01*
X70253371Y-144993920D01*
X70362860Y-145157781D01*
X70362863Y-145157785D01*
X70502214Y-145297136D01*
X70502218Y-145297139D01*
X70666079Y-145406628D01*
X70666092Y-145406635D01*
X70825814Y-145472793D01*
X70848165Y-145482051D01*
X70848169Y-145482051D01*
X70848170Y-145482052D01*
X71041456Y-145520500D01*
X71041459Y-145520500D01*
X71238543Y-145520500D01*
X71384332Y-145491500D01*
X71431835Y-145482051D01*
X71609547Y-145408441D01*
X71613907Y-145406635D01*
X71613907Y-145406634D01*
X71613914Y-145406632D01*
X71777782Y-145297139D01*
X71917139Y-145157782D01*
X72026632Y-144993914D01*
X72102051Y-144811835D01*
X72125847Y-144692206D01*
X72140500Y-144618543D01*
X72679499Y-144618543D01*
X72717947Y-144811829D01*
X72717950Y-144811839D01*
X72793364Y-144993907D01*
X72793371Y-144993920D01*
X72902860Y-145157781D01*
X72902863Y-145157785D01*
X73042214Y-145297136D01*
X73042218Y-145297139D01*
X73206079Y-145406628D01*
X73206092Y-145406635D01*
X73365814Y-145472793D01*
X73388165Y-145482051D01*
X73388169Y-145482051D01*
X73388170Y-145482052D01*
X73581456Y-145520500D01*
X73581459Y-145520500D01*
X73778543Y-145520500D01*
X73924332Y-145491500D01*
X73971835Y-145482051D01*
X74149547Y-145408441D01*
X74153907Y-145406635D01*
X74153907Y-145406634D01*
X74153914Y-145406632D01*
X74317782Y-145297139D01*
X74457139Y-145157782D01*
X74566632Y-144993914D01*
X74642051Y-144811835D01*
X74665847Y-144692206D01*
X74680500Y-144618543D01*
X75219499Y-144618543D01*
X75257947Y-144811829D01*
X75257950Y-144811839D01*
X75333364Y-144993907D01*
X75333371Y-144993920D01*
X75442860Y-145157781D01*
X75442863Y-145157785D01*
X75582214Y-145297136D01*
X75582218Y-145297139D01*
X75746079Y-145406628D01*
X75746092Y-145406635D01*
X75905814Y-145472793D01*
X75928165Y-145482051D01*
X75928169Y-145482051D01*
X75928170Y-145482052D01*
X76121456Y-145520500D01*
X76121459Y-145520500D01*
X76318543Y-145520500D01*
X76464332Y-145491500D01*
X76511835Y-145482051D01*
X76689547Y-145408441D01*
X76693907Y-145406635D01*
X76693907Y-145406634D01*
X76693914Y-145406632D01*
X76857782Y-145297139D01*
X76997139Y-145157782D01*
X77106632Y-144993914D01*
X77182051Y-144811835D01*
X77205847Y-144692206D01*
X77220500Y-144618543D01*
X77759499Y-144618543D01*
X77797947Y-144811829D01*
X77797950Y-144811839D01*
X77873364Y-144993907D01*
X77873371Y-144993920D01*
X77982860Y-145157781D01*
X77982863Y-145157785D01*
X78122214Y-145297136D01*
X78122218Y-145297139D01*
X78286079Y-145406628D01*
X78286092Y-145406635D01*
X78445814Y-145472793D01*
X78468165Y-145482051D01*
X78468169Y-145482051D01*
X78468170Y-145482052D01*
X78661456Y-145520500D01*
X78661459Y-145520500D01*
X78858543Y-145520500D01*
X79004332Y-145491500D01*
X79051835Y-145482051D01*
X79229547Y-145408441D01*
X79233907Y-145406635D01*
X79233907Y-145406634D01*
X79233914Y-145406632D01*
X79397782Y-145297139D01*
X79537139Y-145157782D01*
X79646632Y-144993914D01*
X79722051Y-144811835D01*
X79745847Y-144692206D01*
X79760500Y-144618543D01*
X80299499Y-144618543D01*
X80337947Y-144811829D01*
X80337950Y-144811839D01*
X80413364Y-144993907D01*
X80413371Y-144993920D01*
X80522860Y-145157781D01*
X80522863Y-145157785D01*
X80662214Y-145297136D01*
X80662218Y-145297139D01*
X80826079Y-145406628D01*
X80826092Y-145406635D01*
X80985814Y-145472793D01*
X81008165Y-145482051D01*
X81008169Y-145482051D01*
X81008170Y-145482052D01*
X81201456Y-145520500D01*
X81201459Y-145520500D01*
X81398543Y-145520500D01*
X81544332Y-145491500D01*
X81591835Y-145482051D01*
X81769547Y-145408441D01*
X81773907Y-145406635D01*
X81773907Y-145406634D01*
X81773914Y-145406632D01*
X81937782Y-145297139D01*
X82077139Y-145157782D01*
X82186632Y-144993914D01*
X82262051Y-144811835D01*
X82285847Y-144692206D01*
X82300500Y-144618543D01*
X82839499Y-144618543D01*
X82877947Y-144811829D01*
X82877950Y-144811839D01*
X82953364Y-144993907D01*
X82953371Y-144993920D01*
X83062860Y-145157781D01*
X83062863Y-145157785D01*
X83202214Y-145297136D01*
X83202218Y-145297139D01*
X83366079Y-145406628D01*
X83366092Y-145406635D01*
X83525814Y-145472793D01*
X83548165Y-145482051D01*
X83548169Y-145482051D01*
X83548170Y-145482052D01*
X83741456Y-145520500D01*
X83741459Y-145520500D01*
X83938543Y-145520500D01*
X84084332Y-145491500D01*
X84131835Y-145482051D01*
X84309547Y-145408441D01*
X84313907Y-145406635D01*
X84313907Y-145406634D01*
X84313914Y-145406632D01*
X84477782Y-145297139D01*
X84617139Y-145157782D01*
X84726632Y-144993914D01*
X84802051Y-144811835D01*
X84825847Y-144692206D01*
X84840500Y-144618543D01*
X85379499Y-144618543D01*
X85417947Y-144811829D01*
X85417950Y-144811839D01*
X85493364Y-144993907D01*
X85493371Y-144993920D01*
X85602860Y-145157781D01*
X85602863Y-145157785D01*
X85742214Y-145297136D01*
X85742218Y-145297139D01*
X85906079Y-145406628D01*
X85906092Y-145406635D01*
X86065814Y-145472793D01*
X86088165Y-145482051D01*
X86088169Y-145482051D01*
X86088170Y-145482052D01*
X86281456Y-145520500D01*
X86281459Y-145520500D01*
X86478543Y-145520500D01*
X86624332Y-145491500D01*
X86671835Y-145482051D01*
X86849547Y-145408441D01*
X86853907Y-145406635D01*
X86853907Y-145406634D01*
X86853914Y-145406632D01*
X87017782Y-145297139D01*
X87157139Y-145157782D01*
X87266632Y-144993914D01*
X87342051Y-144811835D01*
X87365847Y-144692206D01*
X87380500Y-144618543D01*
X87380500Y-143421456D01*
X87342052Y-143228170D01*
X87342051Y-143228169D01*
X87342051Y-143228165D01*
X87287963Y-143097583D01*
X87266635Y-143046092D01*
X87266628Y-143046079D01*
X87157139Y-142882218D01*
X87157136Y-142882214D01*
X87017785Y-142742863D01*
X87017781Y-142742860D01*
X86853920Y-142633371D01*
X86853907Y-142633364D01*
X86671839Y-142557950D01*
X86671829Y-142557947D01*
X86478543Y-142519500D01*
X86478541Y-142519500D01*
X86281459Y-142519500D01*
X86281457Y-142519500D01*
X86088170Y-142557947D01*
X86088160Y-142557950D01*
X85906092Y-142633364D01*
X85906079Y-142633371D01*
X85742218Y-142742860D01*
X85742214Y-142742863D01*
X85602863Y-142882214D01*
X85602860Y-142882218D01*
X85493371Y-143046079D01*
X85493364Y-143046092D01*
X85417950Y-143228160D01*
X85417947Y-143228170D01*
X85379500Y-143421456D01*
X85379500Y-143421459D01*
X85379500Y-144618541D01*
X85379500Y-144618543D01*
X85379499Y-144618543D01*
X84840500Y-144618543D01*
X84840500Y-143421456D01*
X84802052Y-143228170D01*
X84802051Y-143228169D01*
X84802051Y-143228165D01*
X84747963Y-143097583D01*
X84726635Y-143046092D01*
X84726628Y-143046079D01*
X84617139Y-142882218D01*
X84617136Y-142882214D01*
X84477785Y-142742863D01*
X84477781Y-142742860D01*
X84313920Y-142633371D01*
X84313907Y-142633364D01*
X84131839Y-142557950D01*
X84131829Y-142557947D01*
X83938543Y-142519500D01*
X83938541Y-142519500D01*
X83741459Y-142519500D01*
X83741457Y-142519500D01*
X83548170Y-142557947D01*
X83548160Y-142557950D01*
X83366092Y-142633364D01*
X83366079Y-142633371D01*
X83202218Y-142742860D01*
X83202214Y-142742863D01*
X83062863Y-142882214D01*
X83062860Y-142882218D01*
X82953371Y-143046079D01*
X82953364Y-143046092D01*
X82877950Y-143228160D01*
X82877947Y-143228170D01*
X82839500Y-143421456D01*
X82839500Y-143421459D01*
X82839500Y-144618541D01*
X82839500Y-144618543D01*
X82839499Y-144618543D01*
X82300500Y-144618543D01*
X82300500Y-143421456D01*
X82262052Y-143228170D01*
X82262051Y-143228169D01*
X82262051Y-143228165D01*
X82207963Y-143097583D01*
X82186635Y-143046092D01*
X82186628Y-143046079D01*
X82077139Y-142882218D01*
X82077136Y-142882214D01*
X81937785Y-142742863D01*
X81937781Y-142742860D01*
X81773920Y-142633371D01*
X81773907Y-142633364D01*
X81591839Y-142557950D01*
X81591829Y-142557947D01*
X81398543Y-142519500D01*
X81398541Y-142519500D01*
X81201459Y-142519500D01*
X81201457Y-142519500D01*
X81008170Y-142557947D01*
X81008160Y-142557950D01*
X80826092Y-142633364D01*
X80826079Y-142633371D01*
X80662218Y-142742860D01*
X80662214Y-142742863D01*
X80522863Y-142882214D01*
X80522860Y-142882218D01*
X80413371Y-143046079D01*
X80413364Y-143046092D01*
X80337950Y-143228160D01*
X80337947Y-143228170D01*
X80299500Y-143421456D01*
X80299500Y-143421459D01*
X80299500Y-144618541D01*
X80299500Y-144618543D01*
X80299499Y-144618543D01*
X79760500Y-144618543D01*
X79760500Y-143421456D01*
X79722052Y-143228170D01*
X79722051Y-143228169D01*
X79722051Y-143228165D01*
X79667963Y-143097583D01*
X79646635Y-143046092D01*
X79646628Y-143046079D01*
X79537139Y-142882218D01*
X79537136Y-142882214D01*
X79397785Y-142742863D01*
X79397781Y-142742860D01*
X79233920Y-142633371D01*
X79233907Y-142633364D01*
X79051839Y-142557950D01*
X79051829Y-142557947D01*
X78858543Y-142519500D01*
X78858541Y-142519500D01*
X78661459Y-142519500D01*
X78661457Y-142519500D01*
X78468170Y-142557947D01*
X78468160Y-142557950D01*
X78286092Y-142633364D01*
X78286079Y-142633371D01*
X78122218Y-142742860D01*
X78122214Y-142742863D01*
X77982863Y-142882214D01*
X77982860Y-142882218D01*
X77873371Y-143046079D01*
X77873364Y-143046092D01*
X77797950Y-143228160D01*
X77797947Y-143228170D01*
X77759500Y-143421456D01*
X77759500Y-143421459D01*
X77759500Y-144618541D01*
X77759500Y-144618543D01*
X77759499Y-144618543D01*
X77220500Y-144618543D01*
X77220500Y-143421456D01*
X77182052Y-143228170D01*
X77182051Y-143228169D01*
X77182051Y-143228165D01*
X77127963Y-143097583D01*
X77106635Y-143046092D01*
X77106628Y-143046079D01*
X76997139Y-142882218D01*
X76997136Y-142882214D01*
X76857785Y-142742863D01*
X76857781Y-142742860D01*
X76693920Y-142633371D01*
X76693907Y-142633364D01*
X76511839Y-142557950D01*
X76511829Y-142557947D01*
X76318543Y-142519500D01*
X76318541Y-142519500D01*
X76121459Y-142519500D01*
X76121457Y-142519500D01*
X75928170Y-142557947D01*
X75928160Y-142557950D01*
X75746092Y-142633364D01*
X75746079Y-142633371D01*
X75582218Y-142742860D01*
X75582214Y-142742863D01*
X75442863Y-142882214D01*
X75442860Y-142882218D01*
X75333371Y-143046079D01*
X75333364Y-143046092D01*
X75257950Y-143228160D01*
X75257947Y-143228170D01*
X75219500Y-143421456D01*
X75219500Y-143421459D01*
X75219500Y-144618541D01*
X75219500Y-144618543D01*
X75219499Y-144618543D01*
X74680500Y-144618543D01*
X74680500Y-143421456D01*
X74642052Y-143228170D01*
X74642051Y-143228169D01*
X74642051Y-143228165D01*
X74587963Y-143097583D01*
X74566635Y-143046092D01*
X74566628Y-143046079D01*
X74457139Y-142882218D01*
X74457136Y-142882214D01*
X74317785Y-142742863D01*
X74317781Y-142742860D01*
X74153920Y-142633371D01*
X74153907Y-142633364D01*
X73971839Y-142557950D01*
X73971829Y-142557947D01*
X73778543Y-142519500D01*
X73778541Y-142519500D01*
X73581459Y-142519500D01*
X73581457Y-142519500D01*
X73388170Y-142557947D01*
X73388160Y-142557950D01*
X73206092Y-142633364D01*
X73206079Y-142633371D01*
X73042218Y-142742860D01*
X73042214Y-142742863D01*
X72902863Y-142882214D01*
X72902860Y-142882218D01*
X72793371Y-143046079D01*
X72793364Y-143046092D01*
X72717950Y-143228160D01*
X72717947Y-143228170D01*
X72679500Y-143421456D01*
X72679500Y-143421459D01*
X72679500Y-144618541D01*
X72679500Y-144618543D01*
X72679499Y-144618543D01*
X72140500Y-144618543D01*
X72140500Y-143421456D01*
X72102052Y-143228170D01*
X72102051Y-143228169D01*
X72102051Y-143228165D01*
X72047963Y-143097583D01*
X72026635Y-143046092D01*
X72026628Y-143046079D01*
X71917139Y-142882218D01*
X71917136Y-142882214D01*
X71777785Y-142742863D01*
X71777781Y-142742860D01*
X71613920Y-142633371D01*
X71613907Y-142633364D01*
X71431839Y-142557950D01*
X71431829Y-142557947D01*
X71238543Y-142519500D01*
X71238541Y-142519500D01*
X71041459Y-142519500D01*
X71041457Y-142519500D01*
X70848170Y-142557947D01*
X70848160Y-142557950D01*
X70666092Y-142633364D01*
X70666079Y-142633371D01*
X70502218Y-142742860D01*
X70502214Y-142742863D01*
X70362863Y-142882214D01*
X70362860Y-142882218D01*
X70253371Y-143046079D01*
X70253364Y-143046092D01*
X70177950Y-143228160D01*
X70177947Y-143228170D01*
X70139500Y-143421456D01*
X70139500Y-143421459D01*
X70139500Y-144618541D01*
X70139500Y-144618543D01*
X70139499Y-144618543D01*
X69600500Y-144618543D01*
X69600500Y-143421456D01*
X69562052Y-143228170D01*
X69562051Y-143228169D01*
X69562051Y-143228165D01*
X69507963Y-143097583D01*
X69486635Y-143046092D01*
X69486628Y-143046079D01*
X69377139Y-142882218D01*
X69377136Y-142882214D01*
X69237785Y-142742863D01*
X69237781Y-142742860D01*
X69073920Y-142633371D01*
X69073907Y-142633364D01*
X68891839Y-142557950D01*
X68891829Y-142557947D01*
X68698543Y-142519500D01*
X68698541Y-142519500D01*
X68501459Y-142519500D01*
X68501457Y-142519500D01*
X68308170Y-142557947D01*
X68308160Y-142557950D01*
X68126092Y-142633364D01*
X68126079Y-142633371D01*
X67962218Y-142742860D01*
X67962214Y-142742863D01*
X67822863Y-142882214D01*
X67822860Y-142882218D01*
X67713371Y-143046079D01*
X67713364Y-143046092D01*
X67637950Y-143228160D01*
X67637947Y-143228170D01*
X67601965Y-143409062D01*
X67569580Y-143470973D01*
X67508864Y-143505547D01*
X67439094Y-143501806D01*
X67382423Y-143460940D01*
X67357875Y-143404268D01*
X67327990Y-143215582D01*
X67264755Y-143020968D01*
X67171859Y-142838650D01*
X67051582Y-142673105D01*
X67051582Y-142673104D01*
X66906895Y-142528417D01*
X66741349Y-142408140D01*
X66559029Y-142315244D01*
X66364413Y-142252009D01*
X66310000Y-142243390D01*
X66310000Y-143886988D01*
X66252993Y-143854075D01*
X66125826Y-143820000D01*
X65994174Y-143820000D01*
X65867007Y-143854075D01*
X65810000Y-143886988D01*
X65810000Y-142243390D01*
X65755586Y-142252009D01*
X65560970Y-142315244D01*
X65378650Y-142408140D01*
X65213105Y-142528417D01*
X65213104Y-142528417D01*
X65068417Y-142673104D01*
X65068417Y-142673105D01*
X64948140Y-142838650D01*
X64855244Y-143020968D01*
X64792010Y-143215581D01*
X64762124Y-143404269D01*
X64732194Y-143467403D01*
X64672883Y-143504334D01*
X64603020Y-143503336D01*
X64544788Y-143464726D01*
X64518034Y-143409061D01*
X64508409Y-143360674D01*
X64482051Y-143228165D01*
X64427963Y-143097583D01*
X64406635Y-143046092D01*
X64406628Y-143046079D01*
X64297139Y-142882218D01*
X64297136Y-142882214D01*
X64157785Y-142742863D01*
X64157781Y-142742860D01*
X63993920Y-142633371D01*
X63993907Y-142633364D01*
X63811839Y-142557950D01*
X63811829Y-142557947D01*
X63618543Y-142519500D01*
X63618541Y-142519500D01*
X63421459Y-142519500D01*
X63421457Y-142519500D01*
X63228170Y-142557947D01*
X63228160Y-142557950D01*
X63046092Y-142633364D01*
X63046079Y-142633371D01*
X62882218Y-142742860D01*
X62882214Y-142742863D01*
X62742863Y-142882214D01*
X62742860Y-142882218D01*
X62633371Y-143046079D01*
X62633364Y-143046092D01*
X62557950Y-143228160D01*
X62557947Y-143228170D01*
X62519500Y-143421456D01*
X62519500Y-143421459D01*
X62519500Y-144618541D01*
X62519500Y-144618543D01*
X62519499Y-144618543D01*
X61980500Y-144618543D01*
X61980500Y-143421456D01*
X61942052Y-143228170D01*
X61942051Y-143228169D01*
X61942051Y-143228165D01*
X61887963Y-143097583D01*
X61866635Y-143046092D01*
X61866628Y-143046079D01*
X61757139Y-142882218D01*
X61757136Y-142882214D01*
X61617785Y-142742863D01*
X61617781Y-142742860D01*
X61453920Y-142633371D01*
X61453907Y-142633364D01*
X61271839Y-142557950D01*
X61271829Y-142557947D01*
X61078543Y-142519500D01*
X61078541Y-142519500D01*
X60881459Y-142519500D01*
X60881457Y-142519500D01*
X60688170Y-142557947D01*
X60688160Y-142557950D01*
X60506092Y-142633364D01*
X60506079Y-142633371D01*
X60342218Y-142742860D01*
X60342214Y-142742863D01*
X60202863Y-142882214D01*
X60202860Y-142882218D01*
X60093371Y-143046079D01*
X60093364Y-143046092D01*
X60017950Y-143228160D01*
X60017947Y-143228170D01*
X59979500Y-143421456D01*
X59979500Y-143421459D01*
X59979500Y-144618541D01*
X59979500Y-144618543D01*
X59979499Y-144618543D01*
X59440500Y-144618543D01*
X59440500Y-142915730D01*
X59437646Y-142885300D01*
X59437646Y-142885298D01*
X59396652Y-142768147D01*
X59392793Y-142757118D01*
X59312150Y-142647850D01*
X59202882Y-142567207D01*
X59202880Y-142567206D01*
X59074700Y-142522353D01*
X59044270Y-142519500D01*
X59044266Y-142519500D01*
X57835734Y-142519500D01*
X57835730Y-142519500D01*
X57805300Y-142522353D01*
X57805298Y-142522353D01*
X57677119Y-142567206D01*
X57677117Y-142567207D01*
X57567850Y-142647850D01*
X57487207Y-142757117D01*
X57487206Y-142757119D01*
X57442353Y-142885298D01*
X57442353Y-142885300D01*
X57439500Y-142915730D01*
X39000500Y-142915730D01*
X39000500Y-140717433D01*
X39020185Y-140650394D01*
X39072989Y-140604639D01*
X39137102Y-140594075D01*
X39199992Y-140600500D01*
X39199997Y-140600500D01*
X42200003Y-140600500D01*
X42200008Y-140600500D01*
X42302797Y-140589999D01*
X42469334Y-140534814D01*
X42618655Y-140442711D01*
X42742711Y-140318655D01*
X42834814Y-140169334D01*
X42889999Y-140002797D01*
X42900500Y-139900008D01*
X42900500Y-138799992D01*
X42889999Y-138697203D01*
X42834814Y-138530666D01*
X42742711Y-138381345D01*
X42618655Y-138257289D01*
X42618651Y-138257286D01*
X42469337Y-138165187D01*
X42469335Y-138165186D01*
X42386065Y-138137593D01*
X42302797Y-138110001D01*
X42302795Y-138110000D01*
X42200015Y-138099500D01*
X42200008Y-138099500D01*
X39199992Y-138099500D01*
X39199979Y-138099500D01*
X39137101Y-138105924D01*
X39068408Y-138093154D01*
X39017524Y-138045273D01*
X39000500Y-137982566D01*
X39000500Y-136699983D01*
X44199500Y-136699983D01*
X44199500Y-137300001D01*
X44199501Y-137300019D01*
X44210000Y-137402796D01*
X44210001Y-137402799D01*
X44210366Y-137403900D01*
X44265186Y-137569334D01*
X44357288Y-137718656D01*
X44481344Y-137842712D01*
X44630666Y-137934814D01*
X44797203Y-137989999D01*
X44899991Y-138000500D01*
X48000008Y-138000499D01*
X48102797Y-137989999D01*
X48269334Y-137934814D01*
X48376100Y-137868961D01*
X48441196Y-137850500D01*
X55683768Y-137850500D01*
X55683769Y-137850499D01*
X55738538Y-137839605D01*
X55848074Y-137817818D01*
X55848078Y-137817816D01*
X55848082Y-137817816D01*
X55893415Y-137799037D01*
X56002863Y-137753704D01*
X56142162Y-137660627D01*
X68060478Y-125742308D01*
X68121799Y-125708825D01*
X68191491Y-125713809D01*
X68195609Y-125715430D01*
X68308160Y-125762049D01*
X68308165Y-125762051D01*
X68308169Y-125762051D01*
X68308170Y-125762052D01*
X68501456Y-125800500D01*
X68501459Y-125800500D01*
X68698543Y-125800500D01*
X68828582Y-125774632D01*
X68891835Y-125762051D01*
X69073914Y-125686632D01*
X69237782Y-125577139D01*
X69377139Y-125437782D01*
X69486632Y-125273914D01*
X69562051Y-125091835D01*
X69600500Y-124898541D01*
X69600500Y-124041518D01*
X69620185Y-123974479D01*
X69636815Y-123953841D01*
X69927820Y-123662836D01*
X69989142Y-123629352D01*
X70058834Y-123634336D01*
X70114767Y-123676208D01*
X70139184Y-123741672D01*
X70139500Y-123750518D01*
X70139500Y-124898541D01*
X70139500Y-124898543D01*
X70139499Y-124898543D01*
X70177947Y-125091829D01*
X70177950Y-125091839D01*
X70253364Y-125273907D01*
X70253371Y-125273920D01*
X70362860Y-125437781D01*
X70362863Y-125437785D01*
X70502214Y-125577136D01*
X70502218Y-125577139D01*
X70666079Y-125686628D01*
X70666092Y-125686635D01*
X70810952Y-125746637D01*
X70848165Y-125762051D01*
X70848169Y-125762051D01*
X70848170Y-125762052D01*
X71041456Y-125800500D01*
X71041459Y-125800500D01*
X71238543Y-125800500D01*
X71368582Y-125774632D01*
X71431835Y-125762051D01*
X71613914Y-125686632D01*
X71777782Y-125577139D01*
X71917139Y-125437782D01*
X72026632Y-125273914D01*
X72102051Y-125091835D01*
X72140500Y-124898543D01*
X72679499Y-124898543D01*
X72717947Y-125091829D01*
X72717950Y-125091839D01*
X72793364Y-125273907D01*
X72793371Y-125273920D01*
X72902860Y-125437781D01*
X72902863Y-125437785D01*
X73042214Y-125577136D01*
X73042218Y-125577139D01*
X73206079Y-125686628D01*
X73206092Y-125686635D01*
X73350952Y-125746637D01*
X73388165Y-125762051D01*
X73388169Y-125762051D01*
X73388170Y-125762052D01*
X73581456Y-125800500D01*
X73581459Y-125800500D01*
X73778543Y-125800500D01*
X73908582Y-125774632D01*
X73971835Y-125762051D01*
X74153914Y-125686632D01*
X74317782Y-125577139D01*
X74457139Y-125437782D01*
X74566632Y-125273914D01*
X74642051Y-125091835D01*
X74680500Y-124898543D01*
X75219499Y-124898543D01*
X75257947Y-125091829D01*
X75257950Y-125091839D01*
X75333364Y-125273907D01*
X75333371Y-125273920D01*
X75442860Y-125437781D01*
X75442863Y-125437785D01*
X75582214Y-125577136D01*
X75582218Y-125577139D01*
X75746079Y-125686628D01*
X75746092Y-125686635D01*
X75890952Y-125746637D01*
X75928165Y-125762051D01*
X75928169Y-125762051D01*
X75928170Y-125762052D01*
X76121456Y-125800500D01*
X76121459Y-125800500D01*
X76318543Y-125800500D01*
X76448582Y-125774632D01*
X76511835Y-125762051D01*
X76693914Y-125686632D01*
X76857782Y-125577139D01*
X76997139Y-125437782D01*
X77106632Y-125273914D01*
X77182051Y-125091835D01*
X77220500Y-124898543D01*
X77759499Y-124898543D01*
X77797947Y-125091829D01*
X77797950Y-125091839D01*
X77873364Y-125273907D01*
X77873371Y-125273920D01*
X77982860Y-125437781D01*
X77982863Y-125437785D01*
X78122214Y-125577136D01*
X78122218Y-125577139D01*
X78286079Y-125686628D01*
X78286092Y-125686635D01*
X78430952Y-125746637D01*
X78468165Y-125762051D01*
X78468169Y-125762051D01*
X78468170Y-125762052D01*
X78661456Y-125800500D01*
X78661459Y-125800500D01*
X78858543Y-125800500D01*
X78988582Y-125774632D01*
X79051835Y-125762051D01*
X79233914Y-125686632D01*
X79397782Y-125577139D01*
X79537139Y-125437782D01*
X79646632Y-125273914D01*
X79722051Y-125091835D01*
X79760500Y-124898543D01*
X80299499Y-124898543D01*
X80337947Y-125091829D01*
X80337950Y-125091839D01*
X80413364Y-125273907D01*
X80413371Y-125273920D01*
X80522860Y-125437781D01*
X80522863Y-125437785D01*
X80662214Y-125577136D01*
X80662218Y-125577139D01*
X80826079Y-125686628D01*
X80826092Y-125686635D01*
X80970952Y-125746637D01*
X81008165Y-125762051D01*
X81008169Y-125762051D01*
X81008170Y-125762052D01*
X81201456Y-125800500D01*
X81201459Y-125800500D01*
X81398543Y-125800500D01*
X81528582Y-125774632D01*
X81591835Y-125762051D01*
X81773914Y-125686632D01*
X81937782Y-125577139D01*
X82077139Y-125437782D01*
X82186632Y-125273914D01*
X82262051Y-125091835D01*
X82300500Y-124898543D01*
X82839499Y-124898543D01*
X82877947Y-125091829D01*
X82877950Y-125091839D01*
X82953364Y-125273907D01*
X82953371Y-125273920D01*
X83062860Y-125437781D01*
X83062863Y-125437785D01*
X83202214Y-125577136D01*
X83202218Y-125577139D01*
X83366079Y-125686628D01*
X83366092Y-125686635D01*
X83510952Y-125746637D01*
X83548165Y-125762051D01*
X83548169Y-125762051D01*
X83548170Y-125762052D01*
X83741456Y-125800500D01*
X83741459Y-125800500D01*
X83938543Y-125800500D01*
X84068582Y-125774632D01*
X84131835Y-125762051D01*
X84313914Y-125686632D01*
X84477782Y-125577139D01*
X84617139Y-125437782D01*
X84726632Y-125273914D01*
X84802051Y-125091835D01*
X84840500Y-124898543D01*
X85379499Y-124898543D01*
X85417947Y-125091829D01*
X85417950Y-125091839D01*
X85493364Y-125273907D01*
X85493371Y-125273920D01*
X85602860Y-125437781D01*
X85602863Y-125437785D01*
X85742214Y-125577136D01*
X85742218Y-125577139D01*
X85906079Y-125686628D01*
X85906092Y-125686635D01*
X86050952Y-125746637D01*
X86088165Y-125762051D01*
X86088169Y-125762051D01*
X86088170Y-125762052D01*
X86281456Y-125800500D01*
X86281459Y-125800500D01*
X86478543Y-125800500D01*
X86608582Y-125774632D01*
X86671835Y-125762051D01*
X86853914Y-125686632D01*
X87017782Y-125577139D01*
X87157139Y-125437782D01*
X87266632Y-125273914D01*
X87342051Y-125091835D01*
X87380500Y-124898541D01*
X87380500Y-123701459D01*
X87380500Y-123701456D01*
X87342052Y-123508170D01*
X87342051Y-123508169D01*
X87342051Y-123508165D01*
X87325426Y-123468029D01*
X87266635Y-123326092D01*
X87266628Y-123326079D01*
X87157139Y-123162218D01*
X87157136Y-123162214D01*
X87017785Y-123022863D01*
X87017781Y-123022860D01*
X86853920Y-122913371D01*
X86853907Y-122913364D01*
X86671839Y-122837950D01*
X86671829Y-122837947D01*
X86478543Y-122799500D01*
X86478541Y-122799500D01*
X86281459Y-122799500D01*
X86281457Y-122799500D01*
X86088170Y-122837947D01*
X86088160Y-122837950D01*
X85906092Y-122913364D01*
X85906079Y-122913371D01*
X85742218Y-123022860D01*
X85742214Y-123022863D01*
X85602863Y-123162214D01*
X85602860Y-123162218D01*
X85493371Y-123326079D01*
X85493364Y-123326092D01*
X85417950Y-123508160D01*
X85417947Y-123508170D01*
X85379500Y-123701456D01*
X85379500Y-123701459D01*
X85379500Y-124898541D01*
X85379500Y-124898543D01*
X85379499Y-124898543D01*
X84840500Y-124898543D01*
X84840500Y-124898541D01*
X84840500Y-123701459D01*
X84840500Y-123701456D01*
X84802052Y-123508170D01*
X84802051Y-123508169D01*
X84802051Y-123508165D01*
X84785426Y-123468029D01*
X84726635Y-123326092D01*
X84726628Y-123326079D01*
X84617139Y-123162218D01*
X84617136Y-123162214D01*
X84477785Y-123022863D01*
X84477781Y-123022860D01*
X84313920Y-122913371D01*
X84313907Y-122913364D01*
X84131839Y-122837950D01*
X84131829Y-122837947D01*
X83938543Y-122799500D01*
X83938541Y-122799500D01*
X83741459Y-122799500D01*
X83741457Y-122799500D01*
X83548170Y-122837947D01*
X83548160Y-122837950D01*
X83366092Y-122913364D01*
X83366079Y-122913371D01*
X83202218Y-123022860D01*
X83202214Y-123022863D01*
X83062863Y-123162214D01*
X83062860Y-123162218D01*
X82953371Y-123326079D01*
X82953364Y-123326092D01*
X82877950Y-123508160D01*
X82877947Y-123508170D01*
X82839500Y-123701456D01*
X82839500Y-123701459D01*
X82839500Y-124898541D01*
X82839500Y-124898543D01*
X82839499Y-124898543D01*
X82300500Y-124898543D01*
X82300500Y-124898541D01*
X82300500Y-123701459D01*
X82300500Y-123701456D01*
X82262052Y-123508170D01*
X82262051Y-123508169D01*
X82262051Y-123508165D01*
X82245426Y-123468029D01*
X82186635Y-123326092D01*
X82186628Y-123326079D01*
X82077139Y-123162218D01*
X82077136Y-123162214D01*
X81937785Y-123022863D01*
X81937781Y-123022860D01*
X81773920Y-122913371D01*
X81773907Y-122913364D01*
X81591839Y-122837950D01*
X81591829Y-122837947D01*
X81398543Y-122799500D01*
X81398541Y-122799500D01*
X81201459Y-122799500D01*
X81201457Y-122799500D01*
X81008170Y-122837947D01*
X81008160Y-122837950D01*
X80826092Y-122913364D01*
X80826079Y-122913371D01*
X80662218Y-123022860D01*
X80662214Y-123022863D01*
X80522863Y-123162214D01*
X80522860Y-123162218D01*
X80413371Y-123326079D01*
X80413364Y-123326092D01*
X80337950Y-123508160D01*
X80337947Y-123508170D01*
X80299500Y-123701456D01*
X80299500Y-123701459D01*
X80299500Y-124898541D01*
X80299500Y-124898543D01*
X80299499Y-124898543D01*
X79760500Y-124898543D01*
X79760500Y-124898541D01*
X79760500Y-123701459D01*
X79760500Y-123701456D01*
X79722052Y-123508170D01*
X79722051Y-123508169D01*
X79722051Y-123508165D01*
X79705426Y-123468029D01*
X79646635Y-123326092D01*
X79646628Y-123326079D01*
X79537139Y-123162218D01*
X79537136Y-123162214D01*
X79397785Y-123022863D01*
X79397781Y-123022860D01*
X79233920Y-122913371D01*
X79233907Y-122913364D01*
X79051839Y-122837950D01*
X79051829Y-122837947D01*
X78858543Y-122799500D01*
X78858541Y-122799500D01*
X78661459Y-122799500D01*
X78661457Y-122799500D01*
X78468170Y-122837947D01*
X78468160Y-122837950D01*
X78286092Y-122913364D01*
X78286079Y-122913371D01*
X78122218Y-123022860D01*
X78122214Y-123022863D01*
X77982863Y-123162214D01*
X77982860Y-123162218D01*
X77873371Y-123326079D01*
X77873364Y-123326092D01*
X77797950Y-123508160D01*
X77797947Y-123508170D01*
X77759500Y-123701456D01*
X77759500Y-123701459D01*
X77759500Y-124898541D01*
X77759500Y-124898543D01*
X77759499Y-124898543D01*
X77220500Y-124898543D01*
X77220500Y-124898541D01*
X77220500Y-123701459D01*
X77220500Y-123701456D01*
X77182052Y-123508170D01*
X77182051Y-123508169D01*
X77182051Y-123508165D01*
X77165426Y-123468029D01*
X77106635Y-123326092D01*
X77106628Y-123326079D01*
X76997139Y-123162218D01*
X76997136Y-123162214D01*
X76857785Y-123022863D01*
X76857781Y-123022860D01*
X76693920Y-122913371D01*
X76693907Y-122913364D01*
X76511839Y-122837950D01*
X76511829Y-122837947D01*
X76318543Y-122799500D01*
X76318541Y-122799500D01*
X76121459Y-122799500D01*
X76121457Y-122799500D01*
X75928170Y-122837947D01*
X75928160Y-122837950D01*
X75746092Y-122913364D01*
X75746079Y-122913371D01*
X75582218Y-123022860D01*
X75582214Y-123022863D01*
X75442863Y-123162214D01*
X75442860Y-123162218D01*
X75333371Y-123326079D01*
X75333364Y-123326092D01*
X75257950Y-123508160D01*
X75257947Y-123508170D01*
X75219500Y-123701456D01*
X75219500Y-123701459D01*
X75219500Y-124898541D01*
X75219500Y-124898543D01*
X75219499Y-124898543D01*
X74680500Y-124898543D01*
X74680500Y-124898541D01*
X74680500Y-123701459D01*
X74680500Y-123701456D01*
X74642052Y-123508170D01*
X74642051Y-123508169D01*
X74642051Y-123508165D01*
X74625426Y-123468029D01*
X74566635Y-123326092D01*
X74566628Y-123326079D01*
X74457139Y-123162218D01*
X74457136Y-123162214D01*
X74317785Y-123022863D01*
X74317781Y-123022860D01*
X74153920Y-122913371D01*
X74153907Y-122913364D01*
X73971839Y-122837950D01*
X73971829Y-122837947D01*
X73778543Y-122799500D01*
X73778541Y-122799500D01*
X73581459Y-122799500D01*
X73581457Y-122799500D01*
X73388170Y-122837947D01*
X73388160Y-122837950D01*
X73206092Y-122913364D01*
X73206079Y-122913371D01*
X73042218Y-123022860D01*
X73042214Y-123022863D01*
X72902863Y-123162214D01*
X72902860Y-123162218D01*
X72793371Y-123326079D01*
X72793364Y-123326092D01*
X72717950Y-123508160D01*
X72717947Y-123508170D01*
X72679500Y-123701456D01*
X72679500Y-123701459D01*
X72679500Y-124898541D01*
X72679500Y-124898543D01*
X72679499Y-124898543D01*
X72140500Y-124898543D01*
X72140500Y-124898541D01*
X72140500Y-123701459D01*
X72140500Y-123701456D01*
X72102052Y-123508170D01*
X72102051Y-123508169D01*
X72102051Y-123508165D01*
X72085426Y-123468029D01*
X72026635Y-123326092D01*
X72026628Y-123326079D01*
X71917139Y-123162218D01*
X71917136Y-123162214D01*
X71777785Y-123022863D01*
X71777781Y-123022860D01*
X71613920Y-122913371D01*
X71613907Y-122913364D01*
X71431839Y-122837950D01*
X71431829Y-122837947D01*
X71238543Y-122799500D01*
X71238541Y-122799500D01*
X71090518Y-122799500D01*
X71023479Y-122779815D01*
X70977724Y-122727011D01*
X70967780Y-122657853D01*
X70996805Y-122594297D01*
X71002837Y-122587819D01*
X79366618Y-114224038D01*
X83749500Y-114224038D01*
X83749500Y-114475961D01*
X83788910Y-114724785D01*
X83866760Y-114964383D01*
X83981132Y-115188848D01*
X84129201Y-115392649D01*
X84129205Y-115392654D01*
X84307345Y-115570794D01*
X84307350Y-115570798D01*
X84385664Y-115627696D01*
X84511155Y-115718870D01*
X84654184Y-115791747D01*
X84735616Y-115833239D01*
X84735618Y-115833239D01*
X84735621Y-115833241D01*
X84975215Y-115911090D01*
X85224038Y-115950500D01*
X85224039Y-115950500D01*
X85475961Y-115950500D01*
X85475962Y-115950500D01*
X85724785Y-115911090D01*
X85964379Y-115833241D01*
X86188845Y-115718870D01*
X86392656Y-115570793D01*
X86570793Y-115392656D01*
X86718870Y-115188845D01*
X86833241Y-114964379D01*
X86911090Y-114724785D01*
X86950500Y-114475962D01*
X86950500Y-114224038D01*
X86911090Y-113975215D01*
X86833241Y-113735621D01*
X86833239Y-113735618D01*
X86833239Y-113735616D01*
X86791747Y-113654184D01*
X86718870Y-113511155D01*
X86699952Y-113485117D01*
X86570798Y-113307350D01*
X86570794Y-113307345D01*
X86392654Y-113129205D01*
X86392649Y-113129201D01*
X86188848Y-112981132D01*
X86188847Y-112981131D01*
X86188845Y-112981130D01*
X86118747Y-112945413D01*
X85964383Y-112866760D01*
X85724785Y-112788910D01*
X85541479Y-112759877D01*
X85475962Y-112749500D01*
X85224038Y-112749500D01*
X85158521Y-112759877D01*
X84975214Y-112788910D01*
X84735616Y-112866760D01*
X84511151Y-112981132D01*
X84307350Y-113129201D01*
X84307345Y-113129205D01*
X84129205Y-113307345D01*
X84129201Y-113307350D01*
X83981132Y-113511151D01*
X83866760Y-113735616D01*
X83788910Y-113975214D01*
X83749500Y-114224038D01*
X79366618Y-114224038D01*
X79459171Y-114131485D01*
X81792760Y-111797897D01*
X92779838Y-100810819D01*
X92841161Y-100777334D01*
X92867519Y-100774500D01*
X103051902Y-100774500D01*
X103118941Y-100794185D01*
X103164696Y-100846989D01*
X103174640Y-100916147D01*
X103145615Y-100979703D01*
X103139583Y-100986181D01*
X89878481Y-114247282D01*
X89878479Y-114247285D01*
X89828361Y-114334094D01*
X89828359Y-114334096D01*
X89799425Y-114384209D01*
X89799424Y-114384210D01*
X89783544Y-114443472D01*
X89758499Y-114536943D01*
X89758499Y-114536945D01*
X89758499Y-114705046D01*
X89758500Y-114705059D01*
X89758500Y-122925409D01*
X89738815Y-122992448D01*
X89686011Y-123038203D01*
X89616853Y-123048147D01*
X89563821Y-123024785D01*
X89562847Y-123026245D01*
X89393920Y-122913371D01*
X89393907Y-122913364D01*
X89211839Y-122837950D01*
X89211829Y-122837947D01*
X89018543Y-122799500D01*
X89018541Y-122799500D01*
X88821459Y-122799500D01*
X88821457Y-122799500D01*
X88628170Y-122837947D01*
X88628160Y-122837950D01*
X88446092Y-122913364D01*
X88446079Y-122913371D01*
X88282218Y-123022860D01*
X88282214Y-123022863D01*
X88142863Y-123162214D01*
X88142860Y-123162218D01*
X88033371Y-123326079D01*
X88033364Y-123326092D01*
X87957950Y-123508160D01*
X87957947Y-123508170D01*
X87919500Y-123701456D01*
X87919500Y-123701459D01*
X87919500Y-124898541D01*
X87919500Y-124898543D01*
X87919499Y-124898543D01*
X87957947Y-125091829D01*
X87957950Y-125091839D01*
X88033364Y-125273907D01*
X88033371Y-125273920D01*
X88142860Y-125437781D01*
X88142863Y-125437785D01*
X88282214Y-125577136D01*
X88282218Y-125577139D01*
X88446079Y-125686628D01*
X88446092Y-125686635D01*
X88590952Y-125746637D01*
X88628165Y-125762051D01*
X88628169Y-125762051D01*
X88628170Y-125762052D01*
X88821456Y-125800500D01*
X88821459Y-125800500D01*
X89018543Y-125800500D01*
X89148582Y-125774632D01*
X89211835Y-125762051D01*
X89393914Y-125686632D01*
X89508062Y-125610361D01*
X89562847Y-125573755D01*
X89563890Y-125575317D01*
X89620138Y-125551425D01*
X89689006Y-125563212D01*
X89740569Y-125610361D01*
X89758500Y-125674590D01*
X89758500Y-142645409D01*
X89738815Y-142712448D01*
X89686011Y-142758203D01*
X89616853Y-142768147D01*
X89563821Y-142744785D01*
X89562847Y-142746245D01*
X89393920Y-142633371D01*
X89393907Y-142633364D01*
X89211839Y-142557950D01*
X89211829Y-142557947D01*
X89018543Y-142519500D01*
X89018541Y-142519500D01*
X88821459Y-142519500D01*
X88821457Y-142519500D01*
X88628170Y-142557947D01*
X88628160Y-142557950D01*
X88446092Y-142633364D01*
X88446079Y-142633371D01*
X88282218Y-142742860D01*
X88282214Y-142742863D01*
X88142863Y-142882214D01*
X88142860Y-142882218D01*
X88033371Y-143046079D01*
X88033364Y-143046092D01*
X87957950Y-143228160D01*
X87957947Y-143228170D01*
X87919500Y-143421456D01*
X87919500Y-143421459D01*
X87919500Y-144618541D01*
X87919500Y-144618543D01*
X87919499Y-144618543D01*
X87957947Y-144811829D01*
X87957950Y-144811839D01*
X88033364Y-144993907D01*
X88033371Y-144993920D01*
X88142860Y-145157781D01*
X88142863Y-145157785D01*
X88282214Y-145297136D01*
X88282218Y-145297139D01*
X88446079Y-145406628D01*
X88446092Y-145406635D01*
X88605814Y-145472793D01*
X88628165Y-145482051D01*
X88628169Y-145482051D01*
X88628170Y-145482052D01*
X88821456Y-145520500D01*
X88821459Y-145520500D01*
X89018542Y-145520500D01*
X89063374Y-145511582D01*
X89164330Y-145491500D01*
X89233919Y-145497727D01*
X89276201Y-145525436D01*
X89736139Y-145985374D01*
X89736149Y-145985385D01*
X89740479Y-145989715D01*
X89740480Y-145989716D01*
X89852284Y-146101520D01*
X89939095Y-146151639D01*
X89939097Y-146151641D01*
X89977151Y-146173611D01*
X89989215Y-146180577D01*
X90141943Y-146221501D01*
X90141946Y-146221501D01*
X90307653Y-146221501D01*
X90307669Y-146221500D01*
X96695952Y-146221500D01*
X96762991Y-146241185D01*
X96783633Y-146257819D01*
X98390188Y-147864374D01*
X98390198Y-147864385D01*
X98394528Y-147868715D01*
X98394529Y-147868716D01*
X98506333Y-147980520D01*
X98593144Y-148030639D01*
X98593146Y-148030641D01*
X98643262Y-148059576D01*
X98643264Y-148059577D01*
X98795991Y-148100500D01*
X98795992Y-148100500D01*
X126263331Y-148100500D01*
X126263347Y-148100501D01*
X126270943Y-148100501D01*
X126429054Y-148100501D01*
X126429057Y-148100501D01*
X126581785Y-148059577D01*
X126631904Y-148030639D01*
X126718716Y-147980520D01*
X126830520Y-147868716D01*
X126830520Y-147868714D01*
X126840728Y-147858507D01*
X126840730Y-147858504D01*
X127552128Y-147147105D01*
X127613449Y-147113622D01*
X127661221Y-147114133D01*
X127661425Y-147112848D01*
X127861264Y-147144500D01*
X127861269Y-147144500D01*
X128058736Y-147144500D01*
X128253763Y-147113610D01*
X128256108Y-147112848D01*
X128441561Y-147052591D01*
X128617501Y-146962944D01*
X128740716Y-146873424D01*
X128777246Y-146846884D01*
X128777248Y-146846881D01*
X128777252Y-146846879D01*
X128916879Y-146707252D01*
X128916881Y-146707248D01*
X128916884Y-146707246D01*
X129032941Y-146547505D01*
X129032942Y-146547504D01*
X129032944Y-146547501D01*
X129119517Y-146377593D01*
X129167490Y-146326800D01*
X129235311Y-146310005D01*
X129301446Y-146332542D01*
X129340482Y-146377593D01*
X129414249Y-146522366D01*
X129427058Y-146547505D01*
X129543115Y-146707246D01*
X129682753Y-146846884D01*
X129802809Y-146934108D01*
X129842499Y-146962944D01*
X130018439Y-147052591D01*
X130143637Y-147093270D01*
X130206236Y-147113610D01*
X130401264Y-147144500D01*
X130401269Y-147144500D01*
X130598736Y-147144500D01*
X130793763Y-147113610D01*
X130796108Y-147112848D01*
X130981561Y-147052591D01*
X131157501Y-146962944D01*
X131280716Y-146873424D01*
X131317246Y-146846884D01*
X131317248Y-146846881D01*
X131317252Y-146846879D01*
X131456879Y-146707252D01*
X131456881Y-146707248D01*
X131456884Y-146707246D01*
X131572941Y-146547505D01*
X131572942Y-146547504D01*
X131572944Y-146547501D01*
X131659517Y-146377593D01*
X131707490Y-146326800D01*
X131775311Y-146310005D01*
X131841446Y-146332542D01*
X131880482Y-146377593D01*
X131954249Y-146522366D01*
X131967058Y-146547505D01*
X132083115Y-146707246D01*
X132222753Y-146846884D01*
X132342809Y-146934108D01*
X132382499Y-146962944D01*
X132558439Y-147052591D01*
X132683637Y-147093270D01*
X132746236Y-147113610D01*
X132941264Y-147144500D01*
X132941269Y-147144500D01*
X133138736Y-147144500D01*
X133333763Y-147113610D01*
X133336108Y-147112848D01*
X133521561Y-147052591D01*
X133697501Y-146962944D01*
X133820716Y-146873424D01*
X133857246Y-146846884D01*
X133857248Y-146846881D01*
X133857252Y-146846879D01*
X133996879Y-146707252D01*
X133996881Y-146707248D01*
X133996884Y-146707246D01*
X134112941Y-146547505D01*
X134112942Y-146547504D01*
X134112944Y-146547501D01*
X134199517Y-146377593D01*
X134247490Y-146326800D01*
X134315311Y-146310005D01*
X134381446Y-146332542D01*
X134420482Y-146377593D01*
X134494249Y-146522366D01*
X134507058Y-146547505D01*
X134623115Y-146707246D01*
X134762753Y-146846884D01*
X134882809Y-146934108D01*
X134922499Y-146962944D01*
X135098439Y-147052591D01*
X135223637Y-147093270D01*
X135286236Y-147113610D01*
X135481264Y-147144500D01*
X135481269Y-147144500D01*
X135678736Y-147144500D01*
X135873763Y-147113610D01*
X135876108Y-147112848D01*
X136061561Y-147052591D01*
X136237501Y-146962944D01*
X136360716Y-146873424D01*
X136397246Y-146846884D01*
X136397248Y-146846881D01*
X136397252Y-146846879D01*
X136536879Y-146707252D01*
X136536881Y-146707248D01*
X136536884Y-146707246D01*
X136652941Y-146547505D01*
X136652942Y-146547504D01*
X136652944Y-146547501D01*
X136739517Y-146377593D01*
X136787490Y-146326800D01*
X136855311Y-146310005D01*
X136921446Y-146332542D01*
X136960482Y-146377593D01*
X137034249Y-146522366D01*
X137047058Y-146547505D01*
X137163115Y-146707246D01*
X137302753Y-146846884D01*
X137422809Y-146934108D01*
X137462499Y-146962944D01*
X137638439Y-147052591D01*
X137763637Y-147093270D01*
X137826236Y-147113610D01*
X138021264Y-147144500D01*
X138021269Y-147144500D01*
X138218736Y-147144500D01*
X138413763Y-147113610D01*
X138416108Y-147112848D01*
X138601561Y-147052591D01*
X138777501Y-146962944D01*
X138900716Y-146873424D01*
X138937246Y-146846884D01*
X138937248Y-146846881D01*
X138937252Y-146846879D01*
X139076879Y-146707252D01*
X139076881Y-146707248D01*
X139076884Y-146707246D01*
X139192941Y-146547505D01*
X139192942Y-146547504D01*
X139192944Y-146547501D01*
X139279517Y-146377593D01*
X139327490Y-146326800D01*
X139395311Y-146310005D01*
X139461446Y-146332542D01*
X139500482Y-146377593D01*
X139574249Y-146522366D01*
X139587058Y-146547505D01*
X139703115Y-146707246D01*
X139842753Y-146846884D01*
X139962809Y-146934108D01*
X140002499Y-146962944D01*
X140178439Y-147052591D01*
X140303637Y-147093270D01*
X140366236Y-147113610D01*
X140561264Y-147144500D01*
X140561269Y-147144500D01*
X140758736Y-147144500D01*
X140953763Y-147113610D01*
X140956108Y-147112848D01*
X141141561Y-147052591D01*
X141317501Y-146962944D01*
X141440716Y-146873424D01*
X141477246Y-146846884D01*
X141477248Y-146846881D01*
X141477252Y-146846879D01*
X141616879Y-146707252D01*
X141616881Y-146707248D01*
X141616884Y-146707246D01*
X141695764Y-146598675D01*
X141732944Y-146547501D01*
X141822591Y-146371561D01*
X141883610Y-146183763D01*
X141896636Y-146101520D01*
X141914500Y-145988736D01*
X141914500Y-145791263D01*
X141883610Y-145596236D01*
X141844512Y-145475905D01*
X141822591Y-145408439D01*
X141732944Y-145232499D01*
X141721799Y-145217159D01*
X141616884Y-145072753D01*
X141477246Y-144933115D01*
X141317504Y-144817058D01*
X141317503Y-144817057D01*
X141317501Y-144817056D01*
X141141561Y-144727409D01*
X141119063Y-144720099D01*
X140953763Y-144666389D01*
X140758736Y-144635500D01*
X140758731Y-144635500D01*
X140561269Y-144635500D01*
X140561264Y-144635500D01*
X140366236Y-144666389D01*
X140178441Y-144727408D01*
X140002495Y-144817058D01*
X139842753Y-144933115D01*
X139703115Y-145072753D01*
X139587058Y-145232495D01*
X139587056Y-145232499D01*
X139505710Y-145392149D01*
X139500485Y-145402403D01*
X139452510Y-145453199D01*
X139384689Y-145469994D01*
X139318554Y-145447456D01*
X139279515Y-145402403D01*
X139274291Y-145392150D01*
X139192944Y-145232499D01*
X139181799Y-145217159D01*
X139076884Y-145072753D01*
X138937246Y-144933115D01*
X138777504Y-144817058D01*
X138777503Y-144817057D01*
X138777501Y-144817056D01*
X138601561Y-144727409D01*
X138579063Y-144720099D01*
X138413763Y-144666389D01*
X138218736Y-144635500D01*
X138218731Y-144635500D01*
X138021269Y-144635500D01*
X138021264Y-144635500D01*
X137826236Y-144666389D01*
X137638441Y-144727408D01*
X137462495Y-144817058D01*
X137302753Y-144933115D01*
X137163115Y-145072753D01*
X137047058Y-145232495D01*
X137047056Y-145232499D01*
X136965710Y-145392149D01*
X136960485Y-145402403D01*
X136912510Y-145453199D01*
X136844689Y-145469994D01*
X136778554Y-145447456D01*
X136739515Y-145402403D01*
X136734291Y-145392150D01*
X136652944Y-145232499D01*
X136641799Y-145217159D01*
X136536884Y-145072753D01*
X136397246Y-144933115D01*
X136237504Y-144817058D01*
X136237503Y-144817057D01*
X136237501Y-144817056D01*
X136061561Y-144727409D01*
X136039063Y-144720099D01*
X135873763Y-144666389D01*
X135678736Y-144635500D01*
X135678731Y-144635500D01*
X135481269Y-144635500D01*
X135481264Y-144635500D01*
X135286236Y-144666389D01*
X135098441Y-144727408D01*
X134922495Y-144817058D01*
X134762753Y-144933115D01*
X134623115Y-145072753D01*
X134507058Y-145232495D01*
X134507056Y-145232499D01*
X134425710Y-145392149D01*
X134420485Y-145402403D01*
X134372510Y-145453199D01*
X134304689Y-145469994D01*
X134238554Y-145447456D01*
X134199515Y-145402403D01*
X134194291Y-145392150D01*
X134112944Y-145232499D01*
X134101799Y-145217159D01*
X133996884Y-145072753D01*
X133857246Y-144933115D01*
X133697504Y-144817058D01*
X133697503Y-144817057D01*
X133697501Y-144817056D01*
X133521561Y-144727409D01*
X133499063Y-144720099D01*
X133333763Y-144666389D01*
X133138736Y-144635500D01*
X133138731Y-144635500D01*
X132941269Y-144635500D01*
X132941264Y-144635500D01*
X132746236Y-144666389D01*
X132558441Y-144727408D01*
X132382495Y-144817058D01*
X132222753Y-144933115D01*
X132083115Y-145072753D01*
X131967058Y-145232495D01*
X131967056Y-145232499D01*
X131885710Y-145392149D01*
X131880485Y-145402403D01*
X131832510Y-145453199D01*
X131764689Y-145469994D01*
X131698554Y-145447456D01*
X131659515Y-145402403D01*
X131654291Y-145392150D01*
X131572944Y-145232499D01*
X131561799Y-145217159D01*
X131456884Y-145072753D01*
X131317246Y-144933115D01*
X131157504Y-144817058D01*
X131157503Y-144817057D01*
X131157501Y-144817056D01*
X130981561Y-144727409D01*
X130959063Y-144720099D01*
X130793763Y-144666389D01*
X130598736Y-144635500D01*
X130598731Y-144635500D01*
X130401269Y-144635500D01*
X130401266Y-144635500D01*
X130377144Y-144639320D01*
X130307851Y-144630363D01*
X130254400Y-144585366D01*
X130233762Y-144518614D01*
X130252488Y-144451300D01*
X130270064Y-144429169D01*
X138878713Y-135820521D01*
X138878716Y-135820520D01*
X138990520Y-135708716D01*
X139040639Y-135621904D01*
X139069577Y-135571785D01*
X139110500Y-135419057D01*
X139110500Y-135260943D01*
X139110500Y-130019251D01*
X139130185Y-129952212D01*
X139182989Y-129906457D01*
X139252147Y-129896513D01*
X139309986Y-129920875D01*
X139402552Y-129991903D01*
X139658939Y-130139928D01*
X139658940Y-130139929D01*
X139658943Y-130139930D01*
X139658948Y-130139933D01*
X139932471Y-130253231D01*
X140218443Y-130329856D01*
X140511970Y-130368500D01*
X140511977Y-130368500D01*
X140808023Y-130368500D01*
X140808030Y-130368500D01*
X141101557Y-130329856D01*
X141387529Y-130253231D01*
X141661052Y-130139933D01*
X141917448Y-129991903D01*
X142152328Y-129811674D01*
X142361674Y-129602328D01*
X142541903Y-129367448D01*
X142689933Y-129111052D01*
X142803231Y-128837529D01*
X142879856Y-128551557D01*
X142918500Y-128258030D01*
X142918500Y-127961970D01*
X142879856Y-127668443D01*
X142803231Y-127382471D01*
X142689933Y-127108948D01*
X142689930Y-127108943D01*
X142689929Y-127108940D01*
X142689928Y-127108939D01*
X142541903Y-126852552D01*
X142361675Y-126617673D01*
X142361669Y-126617666D01*
X142152333Y-126408330D01*
X142152326Y-126408324D01*
X141917447Y-126228096D01*
X141661060Y-126080071D01*
X141661059Y-126080070D01*
X141661052Y-126080067D01*
X141387529Y-125966769D01*
X141365386Y-125960836D01*
X141327082Y-125950572D01*
X141101557Y-125890144D01*
X141052503Y-125883685D01*
X140808037Y-125851500D01*
X140808030Y-125851500D01*
X140511970Y-125851500D01*
X140511962Y-125851500D01*
X140232571Y-125888283D01*
X140218443Y-125890144D01*
X140123119Y-125915685D01*
X139932477Y-125966767D01*
X139932473Y-125966768D01*
X139932471Y-125966769D01*
X139932464Y-125966772D01*
X139658940Y-126080070D01*
X139658939Y-126080071D01*
X139402552Y-126228096D01*
X139309986Y-126299124D01*
X139244816Y-126324318D01*
X139176372Y-126310279D01*
X139126382Y-126261465D01*
X139110500Y-126200748D01*
X139110500Y-119129068D01*
X139130185Y-119062029D01*
X139182989Y-119016274D01*
X139252147Y-119006330D01*
X139315703Y-119035355D01*
X139339492Y-119063094D01*
X139412477Y-119179248D01*
X139587584Y-119398825D01*
X139786175Y-119597416D01*
X140005752Y-119772523D01*
X140243555Y-119921945D01*
X140496592Y-120043801D01*
X140695680Y-120113465D01*
X140761670Y-120136556D01*
X140761682Y-120136560D01*
X141035491Y-120199055D01*
X141035497Y-120199055D01*
X141035505Y-120199057D01*
X141221547Y-120220018D01*
X141314569Y-120230499D01*
X141314572Y-120230500D01*
X141314575Y-120230500D01*
X141595428Y-120230500D01*
X141595429Y-120230499D01*
X141738055Y-120214429D01*
X141874494Y-120199057D01*
X141874499Y-120199056D01*
X141874509Y-120199055D01*
X142148318Y-120136560D01*
X142413408Y-120043801D01*
X142666445Y-119921945D01*
X142904248Y-119772523D01*
X143123825Y-119597416D01*
X143322416Y-119398825D01*
X143497523Y-119179248D01*
X143646945Y-118941445D01*
X143768801Y-118688408D01*
X143861560Y-118423318D01*
X143924055Y-118149509D01*
X143927746Y-118116756D01*
X143939429Y-118013055D01*
X143955500Y-117870425D01*
X143955500Y-117589575D01*
X143932331Y-117383942D01*
X143924057Y-117310505D01*
X143924054Y-117310487D01*
X143861560Y-117036682D01*
X143861556Y-117036670D01*
X143838465Y-116970680D01*
X143768801Y-116771592D01*
X143646945Y-116518555D01*
X143497523Y-116280752D01*
X143322416Y-116061175D01*
X143123825Y-115862584D01*
X142904248Y-115687477D01*
X142666445Y-115538055D01*
X142666442Y-115538053D01*
X142413411Y-115416200D01*
X142148329Y-115323443D01*
X142148317Y-115323439D01*
X141874512Y-115260945D01*
X141874494Y-115260942D01*
X141595431Y-115229500D01*
X141595425Y-115229500D01*
X141314575Y-115229500D01*
X141314568Y-115229500D01*
X141035505Y-115260942D01*
X141035487Y-115260945D01*
X140761682Y-115323439D01*
X140761670Y-115323443D01*
X140496588Y-115416200D01*
X140243557Y-115538053D01*
X140005753Y-115687476D01*
X139786175Y-115862583D01*
X139587583Y-116061175D01*
X139412476Y-116280753D01*
X139339494Y-116396903D01*
X139287159Y-116443194D01*
X139218105Y-116453842D01*
X139154257Y-116425467D01*
X139115885Y-116367077D01*
X139110500Y-116330931D01*
X139110500Y-103889068D01*
X139130185Y-103822029D01*
X139182989Y-103776274D01*
X139252147Y-103766330D01*
X139315703Y-103795355D01*
X139339492Y-103823094D01*
X139412477Y-103939248D01*
X139587584Y-104158825D01*
X139786175Y-104357416D01*
X140005752Y-104532523D01*
X140243555Y-104681945D01*
X140496592Y-104803801D01*
X140695680Y-104873465D01*
X140761670Y-104896556D01*
X140761682Y-104896560D01*
X141035491Y-104959055D01*
X141035497Y-104959055D01*
X141035505Y-104959057D01*
X141221547Y-104980018D01*
X141314569Y-104990499D01*
X141314572Y-104990500D01*
X141314575Y-104990500D01*
X141595428Y-104990500D01*
X141595429Y-104990499D01*
X141738055Y-104974429D01*
X141874494Y-104959057D01*
X141874499Y-104959056D01*
X141874509Y-104959055D01*
X142148318Y-104896560D01*
X142413408Y-104803801D01*
X142666445Y-104681945D01*
X142904248Y-104532523D01*
X143123825Y-104357416D01*
X143322416Y-104158825D01*
X143497523Y-103939248D01*
X143646945Y-103701445D01*
X143768801Y-103448408D01*
X143861560Y-103183318D01*
X143924055Y-102909509D01*
X143926773Y-102885391D01*
X143955499Y-102630431D01*
X143955500Y-102630427D01*
X143955500Y-102349572D01*
X143955499Y-102349568D01*
X143924057Y-102070505D01*
X143924054Y-102070487D01*
X143920524Y-102055023D01*
X143861560Y-101796682D01*
X143856645Y-101782637D01*
X143838465Y-101730680D01*
X143768801Y-101531592D01*
X143646945Y-101278555D01*
X143497523Y-101040752D01*
X143322416Y-100821175D01*
X143123825Y-100622584D01*
X142904248Y-100447477D01*
X142666445Y-100298055D01*
X142666442Y-100298053D01*
X142413411Y-100176200D01*
X142148329Y-100083443D01*
X142148317Y-100083439D01*
X141874512Y-100020945D01*
X141874494Y-100020942D01*
X141595431Y-99989500D01*
X141595425Y-99989500D01*
X141314575Y-99989500D01*
X141314568Y-99989500D01*
X141035505Y-100020942D01*
X141035487Y-100020945D01*
X140761682Y-100083439D01*
X140761670Y-100083443D01*
X140496588Y-100176200D01*
X140243557Y-100298053D01*
X140005753Y-100447476D01*
X139786175Y-100622583D01*
X139587583Y-100821175D01*
X139412476Y-101040753D01*
X139339494Y-101156903D01*
X139287159Y-101203194D01*
X139218105Y-101213842D01*
X139154257Y-101185467D01*
X139115885Y-101127077D01*
X139110500Y-101090931D01*
X139110500Y-82069097D01*
X139130185Y-82002058D01*
X139146819Y-81981416D01*
X139777416Y-81350819D01*
X139838739Y-81317334D01*
X139865097Y-81314500D01*
X140322682Y-81314500D01*
X140389721Y-81334185D01*
X140423139Y-81368324D01*
X140424192Y-81367560D01*
X140543115Y-81531246D01*
X140682753Y-81670884D01*
X140832234Y-81779486D01*
X140842499Y-81786944D01*
X141012404Y-81873516D01*
X141063199Y-81921490D01*
X141079994Y-81989311D01*
X141057456Y-82055446D01*
X141012404Y-82094483D01*
X140855321Y-82174522D01*
X140842495Y-82181058D01*
X140682753Y-82297115D01*
X140543115Y-82436753D01*
X140427058Y-82596495D01*
X140337408Y-82772441D01*
X140276389Y-82960236D01*
X140245500Y-83155263D01*
X140245500Y-83352736D01*
X140276389Y-83547763D01*
X140337408Y-83735558D01*
X140337409Y-83735561D01*
X140427056Y-83911501D01*
X140427058Y-83911504D01*
X140543115Y-84071246D01*
X140682753Y-84210884D01*
X140832234Y-84319486D01*
X140842499Y-84326944D01*
X141012404Y-84413516D01*
X141063199Y-84461490D01*
X141079994Y-84529311D01*
X141057456Y-84595446D01*
X141012404Y-84634483D01*
X140855321Y-84714522D01*
X140842495Y-84721058D01*
X140682753Y-84837115D01*
X140543115Y-84976753D01*
X140427058Y-85136495D01*
X140337408Y-85312441D01*
X140276389Y-85500236D01*
X140245500Y-85695263D01*
X140245500Y-85892736D01*
X140276389Y-86087763D01*
X140337408Y-86275558D01*
X140337409Y-86275561D01*
X140427056Y-86451501D01*
X140427058Y-86451504D01*
X140543115Y-86611246D01*
X140682753Y-86750884D01*
X140832234Y-86859486D01*
X140842499Y-86866944D01*
X141012404Y-86953516D01*
X141063199Y-87001490D01*
X141079994Y-87069311D01*
X141057456Y-87135446D01*
X141012404Y-87174483D01*
X140855321Y-87254522D01*
X140842495Y-87261058D01*
X140682753Y-87377115D01*
X140543115Y-87516753D01*
X140427058Y-87676495D01*
X140337408Y-87852441D01*
X140276389Y-88040236D01*
X140245500Y-88235263D01*
X140245500Y-88432736D01*
X140276389Y-88627763D01*
X140337408Y-88815558D01*
X140337409Y-88815561D01*
X140427056Y-88991501D01*
X140427058Y-88991504D01*
X140543115Y-89151246D01*
X140682753Y-89290884D01*
X140842494Y-89406941D01*
X140842496Y-89406942D01*
X140842499Y-89406944D01*
X141012956Y-89493797D01*
X141063749Y-89541768D01*
X141080544Y-89609589D01*
X141058007Y-89675724D01*
X141012954Y-89714763D01*
X140842767Y-89801479D01*
X140842760Y-89801483D01*
X140807010Y-89827456D01*
X140807010Y-89827457D01*
X141370591Y-90391037D01*
X141307007Y-90408075D01*
X141192993Y-90473901D01*
X141099901Y-90566993D01*
X141034075Y-90681007D01*
X141017037Y-90744590D01*
X140453457Y-90181010D01*
X140453456Y-90181010D01*
X140427483Y-90216760D01*
X140427482Y-90216762D01*
X140337873Y-90392626D01*
X140276876Y-90580353D01*
X140246000Y-90775302D01*
X140246000Y-90972697D01*
X140276876Y-91167646D01*
X140337873Y-91355373D01*
X140427483Y-91531239D01*
X140453457Y-91566988D01*
X140453457Y-91566989D01*
X141017037Y-91003408D01*
X141034075Y-91066993D01*
X141099901Y-91181007D01*
X141192993Y-91274099D01*
X141307007Y-91339925D01*
X141370590Y-91356962D01*
X140807009Y-91920541D01*
X140807010Y-91920542D01*
X140842755Y-91946512D01*
X140842768Y-91946520D01*
X141012953Y-92033235D01*
X141063749Y-92081210D01*
X141080544Y-92149031D01*
X141058006Y-92215166D01*
X141012954Y-92254203D01*
X140851189Y-92336627D01*
X140842495Y-92341058D01*
X140682753Y-92457115D01*
X140543115Y-92596753D01*
X140427058Y-92756495D01*
X140337408Y-92932441D01*
X140276389Y-93120236D01*
X140245500Y-93315263D01*
X140245500Y-93512736D01*
X140276389Y-93707763D01*
X140337408Y-93895558D01*
X140337409Y-93895561D01*
X140427056Y-94071501D01*
X140427058Y-94071504D01*
X140543115Y-94231246D01*
X140682753Y-94370884D01*
X140832234Y-94479486D01*
X140842499Y-94486944D01*
X141018439Y-94576591D01*
X141143637Y-94617270D01*
X141206236Y-94637610D01*
X141401264Y-94668500D01*
X141401269Y-94668500D01*
X141598736Y-94668500D01*
X141793763Y-94637610D01*
X141981561Y-94576591D01*
X142157501Y-94486944D01*
X142247192Y-94421779D01*
X142317246Y-94370884D01*
X142317248Y-94370881D01*
X142317252Y-94370879D01*
X142456879Y-94231252D01*
X142456881Y-94231248D01*
X142456884Y-94231246D01*
X142507779Y-94161192D01*
X142572944Y-94071501D01*
X142662591Y-93895561D01*
X142723610Y-93707763D01*
X142754500Y-93512736D01*
X142754500Y-93315263D01*
X142723610Y-93120236D01*
X142703270Y-93057637D01*
X142662591Y-92932439D01*
X142572944Y-92756499D01*
X142544762Y-92717709D01*
X142456884Y-92596753D01*
X142317246Y-92457115D01*
X142157505Y-92341058D01*
X142152334Y-92338423D01*
X141987043Y-92254202D01*
X141936250Y-92206230D01*
X141919455Y-92138409D01*
X141941992Y-92072275D01*
X141987046Y-92033235D01*
X142157241Y-91946516D01*
X142192988Y-91920543D01*
X142192988Y-91920541D01*
X141629410Y-91356962D01*
X141692993Y-91339925D01*
X141807007Y-91274099D01*
X141900099Y-91181007D01*
X141965925Y-91066993D01*
X141982962Y-91003409D01*
X142546541Y-91566988D01*
X142546543Y-91566988D01*
X142572516Y-91531241D01*
X142662126Y-91355373D01*
X142723123Y-91167646D01*
X142754000Y-90972697D01*
X142754000Y-90775302D01*
X142723123Y-90580353D01*
X142662126Y-90392626D01*
X142572520Y-90216768D01*
X142572512Y-90216755D01*
X142546542Y-90181010D01*
X142546541Y-90181009D01*
X141982962Y-90744589D01*
X141965925Y-90681007D01*
X141900099Y-90566993D01*
X141807007Y-90473901D01*
X141692993Y-90408075D01*
X141629409Y-90391037D01*
X142192989Y-89827457D01*
X142157236Y-89801481D01*
X141987045Y-89714763D01*
X141936250Y-89666789D01*
X141919455Y-89598968D01*
X141941993Y-89532833D01*
X141987042Y-89493798D01*
X142157501Y-89406944D01*
X142205283Y-89372228D01*
X142317246Y-89290884D01*
X142317248Y-89290881D01*
X142317252Y-89290879D01*
X142456879Y-89151252D01*
X142456881Y-89151248D01*
X142456884Y-89151246D01*
X142507779Y-89081192D01*
X142572944Y-88991501D01*
X142662591Y-88815561D01*
X142723610Y-88627763D01*
X142754500Y-88432736D01*
X142754500Y-88235263D01*
X142723610Y-88040236D01*
X142703270Y-87977637D01*
X142662591Y-87852439D01*
X142572944Y-87676499D01*
X142565486Y-87666234D01*
X142456884Y-87516753D01*
X142317246Y-87377115D01*
X142157505Y-87261058D01*
X142151119Y-87257804D01*
X141987593Y-87174482D01*
X141936800Y-87126510D01*
X141920005Y-87058689D01*
X141942542Y-86992554D01*
X141987593Y-86953517D01*
X142157501Y-86866944D01*
X142177912Y-86852114D01*
X142317246Y-86750884D01*
X142317248Y-86750881D01*
X142317252Y-86750879D01*
X142456879Y-86611252D01*
X142456881Y-86611248D01*
X142456884Y-86611246D01*
X142507779Y-86541192D01*
X142572944Y-86451501D01*
X142662591Y-86275561D01*
X142723610Y-86087763D01*
X142754500Y-85892736D01*
X142754500Y-85695263D01*
X142723610Y-85500236D01*
X142703270Y-85437637D01*
X142662591Y-85312439D01*
X142572944Y-85136499D01*
X142565486Y-85126234D01*
X142456884Y-84976753D01*
X142317246Y-84837115D01*
X142157505Y-84721058D01*
X142151119Y-84717804D01*
X141987593Y-84634482D01*
X141936800Y-84586510D01*
X141920005Y-84518689D01*
X141942542Y-84452554D01*
X141987593Y-84413517D01*
X142157501Y-84326944D01*
X142177912Y-84312114D01*
X142317246Y-84210884D01*
X142317248Y-84210881D01*
X142317252Y-84210879D01*
X142456879Y-84071252D01*
X142456881Y-84071248D01*
X142456884Y-84071246D01*
X142507779Y-84001192D01*
X142572944Y-83911501D01*
X142662591Y-83735561D01*
X142723610Y-83547763D01*
X142754500Y-83352736D01*
X142754500Y-83155263D01*
X142723610Y-82960236D01*
X142703270Y-82897637D01*
X142662591Y-82772439D01*
X142572944Y-82596499D01*
X142565486Y-82586234D01*
X142456884Y-82436753D01*
X142317246Y-82297115D01*
X142157505Y-82181058D01*
X142151119Y-82177804D01*
X141987593Y-82094482D01*
X141936800Y-82046510D01*
X141920005Y-81978689D01*
X141942542Y-81912554D01*
X141987593Y-81873517D01*
X142157501Y-81786944D01*
X142291010Y-81689945D01*
X142317246Y-81670884D01*
X142317248Y-81670881D01*
X142317252Y-81670879D01*
X142456879Y-81531252D01*
X142456881Y-81531248D01*
X142456884Y-81531246D01*
X142552032Y-81400284D01*
X142572944Y-81371501D01*
X142662591Y-81195561D01*
X142723610Y-81007763D01*
X142754500Y-80812736D01*
X142754500Y-80615263D01*
X142723610Y-80420236D01*
X142699256Y-80345284D01*
X142662591Y-80232439D01*
X142572944Y-80056499D01*
X142565486Y-80046234D01*
X142456884Y-79896753D01*
X142317246Y-79757115D01*
X142157505Y-79641058D01*
X142151119Y-79637804D01*
X141987593Y-79554482D01*
X141936800Y-79506510D01*
X141920005Y-79438689D01*
X141942542Y-79372554D01*
X141987593Y-79333517D01*
X142157501Y-79246944D01*
X142177912Y-79232114D01*
X142317246Y-79130884D01*
X142317248Y-79130881D01*
X142317252Y-79130879D01*
X142456879Y-78991252D01*
X142456881Y-78991248D01*
X142456884Y-78991246D01*
X142507779Y-78921192D01*
X142572944Y-78831501D01*
X142662591Y-78655561D01*
X142723610Y-78467763D01*
X142754500Y-78272736D01*
X142754500Y-78075263D01*
X142723610Y-77880236D01*
X142703270Y-77817637D01*
X142662591Y-77692439D01*
X142572944Y-77516499D01*
X142565486Y-77506234D01*
X142456884Y-77356753D01*
X142317246Y-77217115D01*
X142157505Y-77101058D01*
X142151119Y-77097804D01*
X141987593Y-77014482D01*
X141936800Y-76966510D01*
X141920005Y-76898689D01*
X141942542Y-76832554D01*
X141987593Y-76793517D01*
X142157501Y-76706944D01*
X142177912Y-76692114D01*
X142317246Y-76590884D01*
X142317248Y-76590881D01*
X142317252Y-76590879D01*
X142456879Y-76451252D01*
X142456881Y-76451248D01*
X142456884Y-76451246D01*
X142530079Y-76350500D01*
X142572944Y-76291501D01*
X142662591Y-76115561D01*
X142723610Y-75927763D01*
X142754500Y-75732736D01*
X142754500Y-75535263D01*
X142723610Y-75340236D01*
X142703270Y-75277637D01*
X142662591Y-75152439D01*
X142572944Y-74976499D01*
X142565486Y-74966234D01*
X142456884Y-74816753D01*
X142317246Y-74677115D01*
X142157505Y-74561058D01*
X142151119Y-74557804D01*
X141987593Y-74474482D01*
X141936800Y-74426510D01*
X141920005Y-74358689D01*
X141942542Y-74292554D01*
X141987593Y-74253517D01*
X142157501Y-74166944D01*
X142197049Y-74138211D01*
X142317246Y-74050884D01*
X142317248Y-74050881D01*
X142317252Y-74050879D01*
X142456879Y-73911252D01*
X142456881Y-73911248D01*
X142456884Y-73911246D01*
X142507779Y-73841192D01*
X142572944Y-73751501D01*
X142662591Y-73575561D01*
X142723610Y-73387763D01*
X142754500Y-73192736D01*
X142754500Y-72995263D01*
X142723610Y-72800236D01*
X142694588Y-72710917D01*
X142662591Y-72612439D01*
X142572944Y-72436499D01*
X142539310Y-72390205D01*
X142456884Y-72276753D01*
X142317246Y-72137115D01*
X142157504Y-72021058D01*
X142157503Y-72021057D01*
X142157501Y-72021056D01*
X141981561Y-71931409D01*
X141981558Y-71931408D01*
X141793763Y-71870389D01*
X141598736Y-71839500D01*
X141598731Y-71839500D01*
X141401269Y-71839500D01*
X141401264Y-71839500D01*
X141206236Y-71870389D01*
X141018441Y-71931408D01*
X140842495Y-72021058D01*
X140682753Y-72137115D01*
X140543115Y-72276753D01*
X140427058Y-72436495D01*
X140337408Y-72612441D01*
X140276389Y-72800236D01*
X140245500Y-72995263D01*
X140245500Y-73192736D01*
X140276389Y-73387763D01*
X140303016Y-73469711D01*
X140337409Y-73575561D01*
X140427056Y-73751501D01*
X140427058Y-73751504D01*
X140543115Y-73911246D01*
X140682753Y-74050884D01*
X140802951Y-74138211D01*
X140842499Y-74166944D01*
X141012404Y-74253516D01*
X141063199Y-74301490D01*
X141079994Y-74369311D01*
X141057456Y-74435446D01*
X141012404Y-74474483D01*
X140855321Y-74554522D01*
X140842495Y-74561058D01*
X140682753Y-74677115D01*
X140543115Y-74816753D01*
X140427058Y-74976495D01*
X140337408Y-75152441D01*
X140276389Y-75340236D01*
X140245500Y-75535263D01*
X140245500Y-75732736D01*
X140276389Y-75927763D01*
X140337408Y-76115558D01*
X140337409Y-76115561D01*
X140361694Y-76163222D01*
X140427058Y-76291504D01*
X140543115Y-76451246D01*
X140682753Y-76590884D01*
X140832234Y-76699486D01*
X140842499Y-76706944D01*
X141012404Y-76793516D01*
X141063199Y-76841490D01*
X141079994Y-76909311D01*
X141057456Y-76975446D01*
X141012404Y-77014483D01*
X140855321Y-77094522D01*
X140842495Y-77101058D01*
X140682753Y-77217115D01*
X140543115Y-77356753D01*
X140427058Y-77516495D01*
X140337408Y-77692441D01*
X140276389Y-77880236D01*
X140245500Y-78075263D01*
X140245500Y-78272736D01*
X140276389Y-78467763D01*
X140337408Y-78655558D01*
X140337409Y-78655561D01*
X140427056Y-78831501D01*
X140427058Y-78831504D01*
X140543115Y-78991246D01*
X140682753Y-79130884D01*
X140832234Y-79239486D01*
X140842499Y-79246944D01*
X141012404Y-79333516D01*
X141063199Y-79381490D01*
X141079994Y-79449311D01*
X141057456Y-79515446D01*
X141012404Y-79554483D01*
X140855321Y-79634522D01*
X140842495Y-79641058D01*
X140682753Y-79757115D01*
X140543115Y-79896753D01*
X140424192Y-80060440D01*
X140422761Y-80059400D01*
X140376593Y-80101167D01*
X140322682Y-80113500D01*
X139644057Y-80113500D01*
X139485942Y-80113500D01*
X139333215Y-80154423D01*
X139333214Y-80154423D01*
X139333212Y-80154424D01*
X139333209Y-80154425D01*
X139283096Y-80183359D01*
X139283095Y-80183360D01*
X139239689Y-80208420D01*
X139196285Y-80233479D01*
X139196282Y-80233481D01*
X138029481Y-81400282D01*
X138029479Y-81400285D01*
X137979361Y-81487094D01*
X137979359Y-81487096D01*
X137950425Y-81537209D01*
X137950424Y-81537210D01*
X137950423Y-81537215D01*
X137909499Y-81689943D01*
X137909499Y-81689945D01*
X137909499Y-81858046D01*
X137909500Y-81858059D01*
X137909500Y-117610975D01*
X137889815Y-117678014D01*
X137837011Y-117723769D01*
X137767853Y-117733713D01*
X137729205Y-117721460D01*
X137572637Y-117641685D01*
X137572636Y-117641684D01*
X137572633Y-117641683D01*
X137459944Y-117605068D01*
X137353219Y-117570390D01*
X137156508Y-117539234D01*
X137125353Y-117534300D01*
X136894647Y-117534300D01*
X136867239Y-117538641D01*
X136666780Y-117570390D01*
X136512629Y-117620478D01*
X136447367Y-117641683D01*
X136447364Y-117641684D01*
X136447362Y-117641685D01*
X136241805Y-117746421D01*
X136141779Y-117819095D01*
X136055161Y-117882027D01*
X136055159Y-117882029D01*
X136055158Y-117882029D01*
X135892028Y-118045159D01*
X135840318Y-118116332D01*
X135784987Y-118158998D01*
X135715374Y-118164976D01*
X135653579Y-118132370D01*
X135639682Y-118116332D01*
X135587977Y-118045167D01*
X135587973Y-118045161D01*
X135424839Y-117882027D01*
X135238194Y-117746421D01*
X135032633Y-117641683D01*
X134919944Y-117605068D01*
X134813219Y-117570390D01*
X134616508Y-117539234D01*
X134585353Y-117534300D01*
X134354647Y-117534300D01*
X134278691Y-117546330D01*
X134126779Y-117570391D01*
X134126772Y-117570392D01*
X134020051Y-117605068D01*
X133950210Y-117607063D01*
X133894053Y-117574818D01*
X131386590Y-115067355D01*
X131386588Y-115067352D01*
X131267717Y-114948481D01*
X131267716Y-114948480D01*
X131180904Y-114898360D01*
X131180904Y-114898359D01*
X131180900Y-114898358D01*
X131130785Y-114869423D01*
X130978057Y-114828499D01*
X130819943Y-114828499D01*
X130812347Y-114828499D01*
X130812331Y-114828500D01*
X118990951Y-114828500D01*
X118832836Y-114828500D01*
X118680109Y-114869423D01*
X118680108Y-114869423D01*
X118680106Y-114869424D01*
X118680103Y-114869425D01*
X118629990Y-114898359D01*
X118629989Y-114898360D01*
X118586583Y-114923420D01*
X118543179Y-114948479D01*
X118543176Y-114948481D01*
X118431372Y-115060286D01*
X117602478Y-115889181D01*
X117541155Y-115922666D01*
X117514797Y-115925500D01*
X110100620Y-115925500D01*
X110033581Y-115905815D01*
X110000304Y-115874388D01*
X109915690Y-115757927D01*
X109782073Y-115624310D01*
X109629199Y-115513240D01*
X109460836Y-115427454D01*
X109281118Y-115369059D01*
X109094486Y-115339500D01*
X109094481Y-115339500D01*
X108905519Y-115339500D01*
X108905514Y-115339500D01*
X108718881Y-115369059D01*
X108539163Y-115427454D01*
X108370800Y-115513240D01*
X108336646Y-115538055D01*
X108217927Y-115624310D01*
X108217925Y-115624312D01*
X108217924Y-115624312D01*
X108084312Y-115757924D01*
X108084310Y-115757927D01*
X107999696Y-115874387D01*
X107944368Y-115917051D01*
X107899380Y-115925500D01*
X104062543Y-115925500D01*
X103995504Y-115905815D01*
X103949749Y-115853011D01*
X103939805Y-115783853D01*
X103944837Y-115762496D01*
X103989505Y-115627696D01*
X103989506Y-115627689D01*
X103999999Y-115524985D01*
X104000000Y-115524972D01*
X104000000Y-114925000D01*
X100000000Y-114925000D01*
X100000000Y-115524985D01*
X100010493Y-115627689D01*
X100010494Y-115627696D01*
X100065641Y-115794118D01*
X100065643Y-115794123D01*
X100157684Y-115943344D01*
X100281657Y-116067317D01*
X100334838Y-116100119D01*
X100381563Y-116152067D01*
X100392786Y-116221029D01*
X100364943Y-116285111D01*
X100357423Y-116293339D01*
X98131286Y-118519478D01*
X98019481Y-118631282D01*
X98019480Y-118631284D01*
X97975093Y-118708165D01*
X97940423Y-118768215D01*
X97899499Y-118920943D01*
X97899499Y-118920945D01*
X97899499Y-119089046D01*
X97899500Y-119089059D01*
X97899500Y-119199902D01*
X97879815Y-119266941D01*
X97863181Y-119287583D01*
X94356201Y-122794562D01*
X94294878Y-122828047D01*
X94244329Y-122828498D01*
X94098545Y-122799500D01*
X94098541Y-122799500D01*
X93901459Y-122799500D01*
X93901457Y-122799500D01*
X93708170Y-122837947D01*
X93708164Y-122837949D01*
X93670951Y-122853363D01*
X93601481Y-122860830D01*
X93539003Y-122829554D01*
X93503351Y-122769465D01*
X93499500Y-122738801D01*
X93499500Y-118401097D01*
X93519185Y-118334058D01*
X93535819Y-118313416D01*
X98024221Y-113825014D01*
X100000000Y-113825014D01*
X100000000Y-114425000D01*
X101750000Y-114425000D01*
X102250000Y-114425000D01*
X104000000Y-114425000D01*
X104000000Y-113825027D01*
X103999999Y-113825014D01*
X103989506Y-113722310D01*
X103989505Y-113722303D01*
X103934358Y-113555881D01*
X103934356Y-113555876D01*
X103842315Y-113406655D01*
X103718344Y-113282684D01*
X103569123Y-113190643D01*
X103569118Y-113190641D01*
X103402696Y-113135494D01*
X103402689Y-113135493D01*
X103299985Y-113125000D01*
X102250000Y-113125000D01*
X102250000Y-114425000D01*
X101750000Y-114425000D01*
X101750000Y-113125000D01*
X100700014Y-113125000D01*
X100597310Y-113135493D01*
X100597303Y-113135494D01*
X100430881Y-113190641D01*
X100430876Y-113190643D01*
X100281655Y-113282684D01*
X100157684Y-113406655D01*
X100065643Y-113555876D01*
X100065641Y-113555881D01*
X100010494Y-113722303D01*
X100010493Y-113722310D01*
X100000000Y-113825014D01*
X98024221Y-113825014D01*
X99467653Y-112381582D01*
X103600001Y-112381582D01*
X103606408Y-112452102D01*
X103606409Y-112452107D01*
X103656981Y-112614396D01*
X103744927Y-112759877D01*
X103865122Y-112880072D01*
X104010604Y-112968019D01*
X104010603Y-112968019D01*
X104172894Y-113018590D01*
X104172893Y-113018590D01*
X104243427Y-113024999D01*
X104499999Y-113024999D01*
X105000000Y-113024999D01*
X105256581Y-113024999D01*
X105327102Y-113018591D01*
X105327107Y-113018590D01*
X105489396Y-112968018D01*
X105634877Y-112880072D01*
X105755072Y-112759877D01*
X105843019Y-112614395D01*
X105893590Y-112452106D01*
X105900000Y-112381572D01*
X105900000Y-112375000D01*
X105000000Y-112375000D01*
X105000000Y-113024999D01*
X104499999Y-113024999D01*
X104500000Y-113024998D01*
X104500000Y-112375000D01*
X103600001Y-112375000D01*
X103600001Y-112381582D01*
X99467653Y-112381582D01*
X103387819Y-108461416D01*
X103449142Y-108427931D01*
X103518834Y-108432915D01*
X103574767Y-108474787D01*
X103599184Y-108540251D01*
X103599500Y-108549097D01*
X103599500Y-108631613D01*
X103605913Y-108702192D01*
X103656523Y-108864608D01*
X103699590Y-108935851D01*
X103717426Y-109003406D01*
X103699590Y-109064149D01*
X103656523Y-109135391D01*
X103605913Y-109297807D01*
X103599500Y-109368386D01*
X103599500Y-109881613D01*
X103605913Y-109952192D01*
X103656523Y-110114608D01*
X103699590Y-110185851D01*
X103717426Y-110253406D01*
X103699590Y-110314149D01*
X103656523Y-110385391D01*
X103605913Y-110547807D01*
X103599500Y-110618386D01*
X103599500Y-111131613D01*
X103605913Y-111202192D01*
X103656522Y-111364606D01*
X103699883Y-111436333D01*
X103717719Y-111503888D01*
X103699884Y-111564632D01*
X103656980Y-111635605D01*
X103606409Y-111797893D01*
X103600000Y-111868427D01*
X103600000Y-111875000D01*
X105899999Y-111875000D01*
X105899999Y-111868417D01*
X105893591Y-111797897D01*
X105893590Y-111797892D01*
X105843018Y-111635603D01*
X105800116Y-111564633D01*
X105797823Y-111555949D01*
X105792124Y-111549012D01*
X105789043Y-111522695D01*
X105782280Y-111497078D01*
X105784830Y-111486703D01*
X105784001Y-111479616D01*
X105791573Y-111459277D01*
X105794832Y-111446024D01*
X105797254Y-111441069D01*
X105842930Y-111365513D01*
X107799500Y-111365513D01*
X107799500Y-111554486D01*
X107829059Y-111741118D01*
X107887454Y-111920836D01*
X107973240Y-112089199D01*
X108084310Y-112242073D01*
X108217927Y-112375690D01*
X108370801Y-112486760D01*
X108450347Y-112527290D01*
X108539163Y-112572545D01*
X108539165Y-112572545D01*
X108539168Y-112572547D01*
X108635497Y-112603846D01*
X108718881Y-112630940D01*
X108905514Y-112660500D01*
X108905519Y-112660500D01*
X109094486Y-112660500D01*
X109281118Y-112630940D01*
X109460832Y-112572547D01*
X109629199Y-112486760D01*
X109782073Y-112375690D01*
X109915690Y-112242073D01*
X110026760Y-112089199D01*
X110112547Y-111920832D01*
X110170940Y-111741118D01*
X110174526Y-111718478D01*
X110200500Y-111554486D01*
X110200500Y-111365513D01*
X110170940Y-111178881D01*
X110112545Y-110999163D01*
X110026759Y-110830800D01*
X109915690Y-110677927D01*
X109782073Y-110544310D01*
X109629199Y-110433240D01*
X109460836Y-110347454D01*
X109281118Y-110289059D01*
X109094486Y-110259500D01*
X109094481Y-110259500D01*
X108905519Y-110259500D01*
X108905514Y-110259500D01*
X108718881Y-110289059D01*
X108539163Y-110347454D01*
X108370800Y-110433240D01*
X108283579Y-110496610D01*
X108217927Y-110544310D01*
X108217925Y-110544312D01*
X108217924Y-110544312D01*
X108084312Y-110677924D01*
X108084312Y-110677925D01*
X108084310Y-110677927D01*
X108036610Y-110743579D01*
X107973240Y-110830800D01*
X107887454Y-110999163D01*
X107829059Y-111178881D01*
X107799500Y-111365513D01*
X105842930Y-111365513D01*
X105843478Y-111364606D01*
X105894086Y-111202196D01*
X105900500Y-111131616D01*
X105900500Y-110618384D01*
X105894086Y-110547804D01*
X105843478Y-110385394D01*
X105800408Y-110314149D01*
X105782573Y-110246595D01*
X105800409Y-110185850D01*
X105843478Y-110114606D01*
X105894086Y-109952196D01*
X105900500Y-109881616D01*
X105900500Y-109772003D01*
X105920185Y-109704964D01*
X105936819Y-109684322D01*
X106345112Y-109276029D01*
X106345114Y-109276027D01*
X106421775Y-109161295D01*
X106474580Y-109033812D01*
X106501500Y-108898477D01*
X106501500Y-108760490D01*
X106501500Y-102349568D01*
X117364500Y-102349568D01*
X117364500Y-102630431D01*
X117395942Y-102909494D01*
X117395945Y-102909512D01*
X117458439Y-103183317D01*
X117458443Y-103183329D01*
X117551200Y-103448411D01*
X117673053Y-103701442D01*
X117673055Y-103701445D01*
X117822477Y-103939248D01*
X117997584Y-104158825D01*
X118196175Y-104357416D01*
X118415752Y-104532523D01*
X118653555Y-104681945D01*
X118906592Y-104803801D01*
X119105680Y-104873465D01*
X119171670Y-104896556D01*
X119171682Y-104896560D01*
X119445491Y-104959055D01*
X119445497Y-104959055D01*
X119445505Y-104959057D01*
X119631547Y-104980018D01*
X119724569Y-104990499D01*
X119724572Y-104990500D01*
X119724575Y-104990500D01*
X120005428Y-104990500D01*
X120005429Y-104990499D01*
X120148055Y-104974429D01*
X120284494Y-104959057D01*
X120284499Y-104959056D01*
X120284509Y-104959055D01*
X120558318Y-104896560D01*
X120823408Y-104803801D01*
X121076445Y-104681945D01*
X121314248Y-104532523D01*
X121533825Y-104357416D01*
X121732416Y-104158825D01*
X121907523Y-103939248D01*
X122056945Y-103701445D01*
X122178801Y-103448408D01*
X122271560Y-103183318D01*
X122334055Y-102909509D01*
X122336773Y-102885391D01*
X122365499Y-102630431D01*
X122365500Y-102630427D01*
X122365500Y-102349572D01*
X122365499Y-102349568D01*
X122334057Y-102070505D01*
X122334054Y-102070487D01*
X122330524Y-102055023D01*
X122271560Y-101796682D01*
X122266645Y-101782637D01*
X122248465Y-101730680D01*
X122178801Y-101531592D01*
X122056945Y-101278555D01*
X121947671Y-101104647D01*
X125384300Y-101104647D01*
X125384300Y-101335352D01*
X125420390Y-101563219D01*
X125462320Y-101692264D01*
X125491683Y-101782633D01*
X125596421Y-101988194D01*
X125732027Y-102174839D01*
X125895161Y-102337973D01*
X126081806Y-102473579D01*
X126287367Y-102578317D01*
X126464850Y-102635984D01*
X126506780Y-102649609D01*
X126620714Y-102667654D01*
X126734647Y-102685700D01*
X126734648Y-102685700D01*
X126965352Y-102685700D01*
X126965353Y-102685700D01*
X127193219Y-102649609D01*
X127412633Y-102578317D01*
X127618194Y-102473579D01*
X127804839Y-102337973D01*
X127967973Y-102174839D01*
X128019683Y-102103665D01*
X128075012Y-102061002D01*
X128144625Y-102055023D01*
X128206420Y-102087629D01*
X128220313Y-102103662D01*
X128272027Y-102174839D01*
X128435161Y-102337973D01*
X128621806Y-102473579D01*
X128827367Y-102578317D01*
X129004850Y-102635984D01*
X129046780Y-102649609D01*
X129160714Y-102667654D01*
X129274647Y-102685700D01*
X129274648Y-102685700D01*
X129505352Y-102685700D01*
X129505353Y-102685700D01*
X129733219Y-102649609D01*
X129952633Y-102578317D01*
X130158194Y-102473579D01*
X130344839Y-102337973D01*
X130507973Y-102174839D01*
X130559683Y-102103665D01*
X130615012Y-102061002D01*
X130684625Y-102055023D01*
X130746420Y-102087629D01*
X130760313Y-102103662D01*
X130812027Y-102174839D01*
X130975161Y-102337973D01*
X131161806Y-102473579D01*
X131367367Y-102578317D01*
X131544850Y-102635984D01*
X131586780Y-102649609D01*
X131700714Y-102667654D01*
X131814647Y-102685700D01*
X131814648Y-102685700D01*
X132045352Y-102685700D01*
X132045353Y-102685700D01*
X132273219Y-102649609D01*
X132492633Y-102578317D01*
X132698194Y-102473579D01*
X132884839Y-102337973D01*
X133047973Y-102174839D01*
X133099683Y-102103665D01*
X133155012Y-102061002D01*
X133224625Y-102055023D01*
X133286420Y-102087629D01*
X133300313Y-102103662D01*
X133352027Y-102174839D01*
X133515161Y-102337973D01*
X133701806Y-102473579D01*
X133907367Y-102578317D01*
X134084850Y-102635984D01*
X134126780Y-102649609D01*
X134240714Y-102667654D01*
X134354647Y-102685700D01*
X134354648Y-102685700D01*
X134585352Y-102685700D01*
X134585353Y-102685700D01*
X134813219Y-102649609D01*
X135032633Y-102578317D01*
X135238194Y-102473579D01*
X135424839Y-102337973D01*
X135587973Y-102174839D01*
X135723579Y-101988194D01*
X135828317Y-101782633D01*
X135899609Y-101563219D01*
X135935700Y-101335353D01*
X135935700Y-101104647D01*
X135899609Y-100876781D01*
X135828317Y-100657367D01*
X135723579Y-100451806D01*
X135587973Y-100265161D01*
X135424839Y-100102027D01*
X135238194Y-99966421D01*
X135032633Y-99861683D01*
X134942264Y-99832320D01*
X134813219Y-99790390D01*
X134616508Y-99759234D01*
X134585353Y-99754300D01*
X134354647Y-99754300D01*
X134327239Y-99758641D01*
X134126780Y-99790390D01*
X133955805Y-99845944D01*
X133907367Y-99861683D01*
X133907364Y-99861684D01*
X133907362Y-99861685D01*
X133701805Y-99966421D01*
X133626760Y-100020945D01*
X133515161Y-100102027D01*
X133515159Y-100102029D01*
X133515158Y-100102029D01*
X133352028Y-100265159D01*
X133300318Y-100336332D01*
X133244987Y-100378998D01*
X133175374Y-100384976D01*
X133113579Y-100352370D01*
X133099682Y-100336332D01*
X133094373Y-100329024D01*
X133047973Y-100265161D01*
X132884839Y-100102027D01*
X132698194Y-99966421D01*
X132492633Y-99861683D01*
X132402264Y-99832320D01*
X132273219Y-99790390D01*
X132076508Y-99759234D01*
X132045353Y-99754300D01*
X131814647Y-99754300D01*
X131787239Y-99758641D01*
X131586780Y-99790390D01*
X131415805Y-99845944D01*
X131367367Y-99861683D01*
X131367364Y-99861684D01*
X131367362Y-99861685D01*
X131161805Y-99966421D01*
X131086760Y-100020945D01*
X130975161Y-100102027D01*
X130975159Y-100102029D01*
X130975158Y-100102029D01*
X130812028Y-100265159D01*
X130760318Y-100336332D01*
X130704987Y-100378998D01*
X130635374Y-100384976D01*
X130573579Y-100352370D01*
X130559682Y-100336332D01*
X130554373Y-100329024D01*
X130507973Y-100265161D01*
X130344839Y-100102027D01*
X130158194Y-99966421D01*
X129952633Y-99861683D01*
X129862264Y-99832320D01*
X129733219Y-99790390D01*
X129536508Y-99759234D01*
X129505353Y-99754300D01*
X129274647Y-99754300D01*
X129247239Y-99758641D01*
X129046780Y-99790390D01*
X128875805Y-99845944D01*
X128827367Y-99861683D01*
X128827364Y-99861684D01*
X128827362Y-99861685D01*
X128621805Y-99966421D01*
X128546760Y-100020945D01*
X128435161Y-100102027D01*
X128435159Y-100102029D01*
X128435158Y-100102029D01*
X128272028Y-100265159D01*
X128220318Y-100336332D01*
X128164987Y-100378998D01*
X128095374Y-100384976D01*
X128033579Y-100352370D01*
X128019682Y-100336332D01*
X128014373Y-100329024D01*
X127967973Y-100265161D01*
X127804839Y-100102027D01*
X127618194Y-99966421D01*
X127412633Y-99861683D01*
X127322264Y-99832320D01*
X127193219Y-99790390D01*
X126996508Y-99759234D01*
X126965353Y-99754300D01*
X126734647Y-99754300D01*
X126707239Y-99758641D01*
X126506780Y-99790390D01*
X126335805Y-99845944D01*
X126287367Y-99861683D01*
X126287364Y-99861684D01*
X126287362Y-99861685D01*
X126081805Y-99966421D01*
X126006760Y-100020945D01*
X125895161Y-100102027D01*
X125895159Y-100102029D01*
X125895158Y-100102029D01*
X125732029Y-100265158D01*
X125732029Y-100265159D01*
X125732027Y-100265161D01*
X125680318Y-100336332D01*
X125596421Y-100451805D01*
X125491685Y-100657362D01*
X125420390Y-100876780D01*
X125384300Y-101104647D01*
X121947671Y-101104647D01*
X121907523Y-101040752D01*
X121732416Y-100821175D01*
X121533825Y-100622584D01*
X121314248Y-100447477D01*
X121076445Y-100298055D01*
X121076442Y-100298053D01*
X120823411Y-100176200D01*
X120558329Y-100083443D01*
X120558317Y-100083439D01*
X120284512Y-100020945D01*
X120284494Y-100020942D01*
X120005431Y-99989500D01*
X120005425Y-99989500D01*
X119724575Y-99989500D01*
X119724568Y-99989500D01*
X119445505Y-100020942D01*
X119445487Y-100020945D01*
X119171682Y-100083439D01*
X119171670Y-100083443D01*
X118906588Y-100176200D01*
X118653557Y-100298053D01*
X118415753Y-100447476D01*
X118196175Y-100622583D01*
X117997583Y-100821175D01*
X117822476Y-101040753D01*
X117673053Y-101278557D01*
X117551200Y-101531588D01*
X117458443Y-101796670D01*
X117458439Y-101796682D01*
X117395945Y-102070487D01*
X117395942Y-102070505D01*
X117364500Y-102349568D01*
X106501500Y-102349568D01*
X106501500Y-100351523D01*
X106490864Y-100298055D01*
X106474580Y-100216188D01*
X106421775Y-100088705D01*
X106345114Y-99973973D01*
X106345112Y-99973970D01*
X105901029Y-99529887D01*
X105786291Y-99453222D01*
X105658816Y-99400421D01*
X105658806Y-99400418D01*
X105523480Y-99373500D01*
X105523478Y-99373500D01*
X105523477Y-99373500D01*
X104117032Y-99373500D01*
X104049993Y-99353815D01*
X104004238Y-99301011D01*
X103993674Y-99236897D01*
X103999999Y-99174985D01*
X104000000Y-99174972D01*
X104000000Y-98575000D01*
X100000000Y-98575000D01*
X100000000Y-99174985D01*
X100006326Y-99236897D01*
X99993557Y-99305590D01*
X99945677Y-99356475D01*
X99882968Y-99373500D01*
X92457004Y-99373500D01*
X92321677Y-99400418D01*
X92321667Y-99400421D01*
X92194192Y-99453222D01*
X92079454Y-99529887D01*
X68838242Y-122771099D01*
X68776919Y-122804584D01*
X68726370Y-122805035D01*
X68698545Y-122799500D01*
X68698541Y-122799500D01*
X68501459Y-122799500D01*
X68501457Y-122799500D01*
X68308170Y-122837947D01*
X68308160Y-122837950D01*
X68126092Y-122913364D01*
X68126079Y-122913371D01*
X67962218Y-123022860D01*
X67962214Y-123022863D01*
X67822863Y-123162214D01*
X67822860Y-123162218D01*
X67713371Y-123326079D01*
X67713364Y-123326092D01*
X67637950Y-123508160D01*
X67637947Y-123508170D01*
X67599500Y-123701456D01*
X67599500Y-123746349D01*
X67579815Y-123813388D01*
X67563181Y-123834030D01*
X55284030Y-136113181D01*
X55222707Y-136146666D01*
X55196349Y-136149500D01*
X48441196Y-136149500D01*
X48424639Y-136144804D01*
X48408470Y-136145104D01*
X48376100Y-136131039D01*
X48334281Y-136105245D01*
X48287556Y-136053297D01*
X48276333Y-135984335D01*
X48304177Y-135920252D01*
X48334281Y-135894167D01*
X48418343Y-135842317D01*
X48542315Y-135718345D01*
X48634356Y-135569124D01*
X48634358Y-135569119D01*
X48689505Y-135402697D01*
X48689506Y-135402690D01*
X48699999Y-135299986D01*
X48700000Y-135299973D01*
X48700000Y-135250000D01*
X44200001Y-135250000D01*
X44200001Y-135299986D01*
X44210494Y-135402697D01*
X44265641Y-135569119D01*
X44265643Y-135569124D01*
X44357684Y-135718345D01*
X44481654Y-135842315D01*
X44565719Y-135894167D01*
X44612443Y-135946115D01*
X44623666Y-136015078D01*
X44595822Y-136079160D01*
X44565719Y-136105244D01*
X44481347Y-136157285D01*
X44481343Y-136157288D01*
X44357289Y-136281342D01*
X44265187Y-136430663D01*
X44265186Y-136430666D01*
X44210001Y-136597203D01*
X44210001Y-136597204D01*
X44210000Y-136597204D01*
X44199500Y-136699983D01*
X39000500Y-136699983D01*
X39000500Y-134700013D01*
X44200000Y-134700013D01*
X44200000Y-134750000D01*
X46200000Y-134750000D01*
X46700000Y-134750000D01*
X48699999Y-134750000D01*
X48699999Y-134700028D01*
X48699998Y-134700013D01*
X48689505Y-134597302D01*
X48634358Y-134430880D01*
X48634356Y-134430875D01*
X48542315Y-134281654D01*
X48418345Y-134157684D01*
X48269124Y-134065643D01*
X48269119Y-134065641D01*
X48102697Y-134010494D01*
X48102690Y-134010493D01*
X47999986Y-134000000D01*
X46700000Y-134000000D01*
X46700000Y-134750000D01*
X46200000Y-134750000D01*
X46200000Y-134000000D01*
X44900028Y-134000000D01*
X44900012Y-134000001D01*
X44797302Y-134010494D01*
X44630880Y-134065641D01*
X44630875Y-134065643D01*
X44481654Y-134157684D01*
X44357684Y-134281654D01*
X44265643Y-134430875D01*
X44265641Y-134430880D01*
X44210494Y-134597302D01*
X44210493Y-134597309D01*
X44200000Y-134700013D01*
X39000500Y-134700013D01*
X39000500Y-134017433D01*
X39020185Y-133950394D01*
X39072989Y-133904639D01*
X39137102Y-133894075D01*
X39199992Y-133900500D01*
X39199997Y-133900500D01*
X42200003Y-133900500D01*
X42200008Y-133900500D01*
X42302797Y-133889999D01*
X42469334Y-133834814D01*
X42618655Y-133742711D01*
X42742711Y-133618655D01*
X42834814Y-133469334D01*
X42889999Y-133302797D01*
X42900500Y-133200008D01*
X42900500Y-132099992D01*
X42889999Y-131997203D01*
X42834814Y-131830666D01*
X42742711Y-131681345D01*
X42618655Y-131557289D01*
X42618651Y-131557286D01*
X42469337Y-131465187D01*
X42469335Y-131465186D01*
X42386065Y-131437593D01*
X42302797Y-131410001D01*
X42302795Y-131410000D01*
X42200015Y-131399500D01*
X42200008Y-131399500D01*
X39199992Y-131399500D01*
X39199979Y-131399500D01*
X39137101Y-131405924D01*
X39068408Y-131393154D01*
X39017524Y-131345273D01*
X39000500Y-131282566D01*
X39000500Y-123378711D01*
X42149500Y-123378711D01*
X42149500Y-123621288D01*
X42181161Y-123861785D01*
X42243947Y-124096104D01*
X42328197Y-124299500D01*
X42336776Y-124320212D01*
X42458064Y-124530289D01*
X42458066Y-124530292D01*
X42458067Y-124530293D01*
X42605733Y-124722736D01*
X42605739Y-124722743D01*
X42777256Y-124894260D01*
X42777263Y-124894266D01*
X42782837Y-124898543D01*
X42969711Y-125041936D01*
X43179788Y-125163224D01*
X43403900Y-125256054D01*
X43638211Y-125318838D01*
X43818586Y-125342584D01*
X43878711Y-125350500D01*
X43878712Y-125350500D01*
X44121289Y-125350500D01*
X44169388Y-125344167D01*
X44361789Y-125318838D01*
X44596100Y-125256054D01*
X44820212Y-125163224D01*
X45030289Y-125041936D01*
X45222738Y-124894265D01*
X45394265Y-124722738D01*
X45541936Y-124530289D01*
X45663224Y-124320212D01*
X45756054Y-124096100D01*
X45818838Y-123861789D01*
X45850500Y-123621288D01*
X45850500Y-123378712D01*
X45846089Y-123345210D01*
X45834088Y-123254051D01*
X45818838Y-123138211D01*
X45756054Y-122903900D01*
X45663224Y-122679788D01*
X45541936Y-122469711D01*
X45394265Y-122277262D01*
X45394260Y-122277256D01*
X45222743Y-122105739D01*
X45222736Y-122105733D01*
X45030293Y-121958067D01*
X45030292Y-121958066D01*
X45030289Y-121958064D01*
X44820212Y-121836776D01*
X44748184Y-121806941D01*
X44596104Y-121743947D01*
X44361785Y-121681161D01*
X44121289Y-121649500D01*
X44121288Y-121649500D01*
X43878712Y-121649500D01*
X43878711Y-121649500D01*
X43638214Y-121681161D01*
X43403895Y-121743947D01*
X43179794Y-121836773D01*
X43179785Y-121836777D01*
X42969706Y-121958067D01*
X42777263Y-122105733D01*
X42777256Y-122105739D01*
X42605739Y-122277256D01*
X42605733Y-122277263D01*
X42458067Y-122469706D01*
X42336777Y-122679785D01*
X42336773Y-122679794D01*
X42243947Y-122903895D01*
X42181161Y-123138214D01*
X42149500Y-123378711D01*
X39000500Y-123378711D01*
X39000500Y-114224038D01*
X45049500Y-114224038D01*
X45049500Y-114475961D01*
X45088910Y-114724785D01*
X45166760Y-114964383D01*
X45281132Y-115188848D01*
X45429201Y-115392649D01*
X45429205Y-115392654D01*
X45607345Y-115570794D01*
X45607350Y-115570798D01*
X45685664Y-115627696D01*
X45811155Y-115718870D01*
X45954184Y-115791747D01*
X46035616Y-115833239D01*
X46035618Y-115833239D01*
X46035621Y-115833241D01*
X46275215Y-115911090D01*
X46524038Y-115950500D01*
X46524039Y-115950500D01*
X46775961Y-115950500D01*
X46775962Y-115950500D01*
X47024785Y-115911090D01*
X47264379Y-115833241D01*
X47488845Y-115718870D01*
X47692656Y-115570793D01*
X47870793Y-115392656D01*
X48018870Y-115188845D01*
X48133241Y-114964379D01*
X48211090Y-114724785D01*
X48250500Y-114475962D01*
X48250500Y-114224038D01*
X48211090Y-113975215D01*
X48133241Y-113735621D01*
X48133239Y-113735618D01*
X48133239Y-113735616D01*
X48091747Y-113654184D01*
X48018870Y-113511155D01*
X47999952Y-113485117D01*
X47870798Y-113307350D01*
X47870794Y-113307345D01*
X47692654Y-113129205D01*
X47692649Y-113129201D01*
X47488848Y-112981132D01*
X47488847Y-112981131D01*
X47488845Y-112981130D01*
X47418747Y-112945413D01*
X47264383Y-112866760D01*
X47024785Y-112788910D01*
X46841479Y-112759877D01*
X46775962Y-112749500D01*
X46524038Y-112749500D01*
X46458521Y-112759877D01*
X46275214Y-112788910D01*
X46035616Y-112866760D01*
X45811151Y-112981132D01*
X45607350Y-113129201D01*
X45607345Y-113129205D01*
X45429205Y-113307345D01*
X45429201Y-113307350D01*
X45281132Y-113511151D01*
X45166760Y-113735616D01*
X45088910Y-113975214D01*
X45049500Y-114224038D01*
X39000500Y-114224038D01*
X39000500Y-97475014D01*
X100000000Y-97475014D01*
X100000000Y-98075000D01*
X101750000Y-98075000D01*
X102250000Y-98075000D01*
X104000000Y-98075000D01*
X104000000Y-97475027D01*
X103999999Y-97475014D01*
X103989506Y-97372310D01*
X103989505Y-97372303D01*
X103934358Y-97205881D01*
X103934356Y-97205876D01*
X103842315Y-97056655D01*
X103718344Y-96932684D01*
X103569123Y-96840643D01*
X103569118Y-96840641D01*
X103402696Y-96785494D01*
X103402689Y-96785493D01*
X103299985Y-96775000D01*
X102250000Y-96775000D01*
X102250000Y-98075000D01*
X101750000Y-98075000D01*
X101750000Y-96775000D01*
X100700014Y-96775000D01*
X100597310Y-96785493D01*
X100597303Y-96785494D01*
X100430881Y-96840641D01*
X100430876Y-96840643D01*
X100281655Y-96932684D01*
X100157684Y-97056655D01*
X100065643Y-97205876D01*
X100065641Y-97205881D01*
X100010494Y-97372303D01*
X100010493Y-97372310D01*
X100000000Y-97475014D01*
X39000500Y-97475014D01*
X39000500Y-91172135D01*
X93489500Y-91172135D01*
X93489500Y-92967870D01*
X93489501Y-92967876D01*
X93495908Y-93027483D01*
X93546202Y-93162328D01*
X93546206Y-93162335D01*
X93632452Y-93277544D01*
X93632455Y-93277547D01*
X93747664Y-93363793D01*
X93747671Y-93363797D01*
X93882517Y-93414091D01*
X93882516Y-93414091D01*
X93889444Y-93414835D01*
X93942127Y-93420500D01*
X95737872Y-93420499D01*
X95797483Y-93414091D01*
X95932331Y-93363796D01*
X96047546Y-93277546D01*
X96133796Y-93162331D01*
X96184091Y-93027483D01*
X96190500Y-92967873D01*
X96190499Y-92943979D01*
X96193330Y-92930963D01*
X96203940Y-92911525D01*
X96210179Y-92890275D01*
X96226803Y-92869643D01*
X96226808Y-92869636D01*
X96226811Y-92869634D01*
X96226818Y-92869626D01*
X96897037Y-92199408D01*
X96914075Y-92262993D01*
X96979901Y-92377007D01*
X97072993Y-92470099D01*
X97187007Y-92535925D01*
X97250590Y-92552962D01*
X96618282Y-93185269D01*
X96618282Y-93185270D01*
X96672449Y-93224624D01*
X96861782Y-93321095D01*
X97063870Y-93386757D01*
X97273754Y-93420000D01*
X97486246Y-93420000D01*
X97696127Y-93386757D01*
X97696130Y-93386757D01*
X97898217Y-93321095D01*
X98087554Y-93224622D01*
X98141716Y-93185270D01*
X98141717Y-93185270D01*
X97509408Y-92552962D01*
X97572993Y-92535925D01*
X97687007Y-92470099D01*
X97780099Y-92377007D01*
X97845925Y-92262993D01*
X97862962Y-92199409D01*
X98495270Y-92831717D01*
X98495270Y-92831716D01*
X98534622Y-92777555D01*
X98539232Y-92768507D01*
X98587205Y-92717709D01*
X98655025Y-92700912D01*
X98721161Y-92723447D01*
X98760204Y-92768504D01*
X98764949Y-92777817D01*
X98889890Y-92949786D01*
X99040213Y-93100109D01*
X99212179Y-93225048D01*
X99212181Y-93225049D01*
X99212184Y-93225051D01*
X99401588Y-93321557D01*
X99603757Y-93387246D01*
X99813713Y-93420500D01*
X99813714Y-93420500D01*
X100026286Y-93420500D01*
X100026287Y-93420500D01*
X100236243Y-93387246D01*
X100438412Y-93321557D01*
X100627816Y-93225051D01*
X100714138Y-93162335D01*
X100799786Y-93100109D01*
X100799788Y-93100106D01*
X100799792Y-93100104D01*
X100950104Y-92949792D01*
X100950106Y-92949788D01*
X100950109Y-92949786D01*
X101075048Y-92777820D01*
X101075050Y-92777817D01*
X101075051Y-92777816D01*
X101079514Y-92769054D01*
X101127488Y-92718259D01*
X101195308Y-92701463D01*
X101261444Y-92723999D01*
X101300486Y-92769056D01*
X101304951Y-92777820D01*
X101429890Y-92949786D01*
X101580213Y-93100109D01*
X101752179Y-93225048D01*
X101752181Y-93225049D01*
X101752184Y-93225051D01*
X101941588Y-93321557D01*
X102143757Y-93387246D01*
X102353713Y-93420500D01*
X102353714Y-93420500D01*
X102566286Y-93420500D01*
X102566287Y-93420500D01*
X102776243Y-93387246D01*
X102978412Y-93321557D01*
X103167816Y-93225051D01*
X103254138Y-93162335D01*
X103339786Y-93100109D01*
X103339788Y-93100106D01*
X103339792Y-93100104D01*
X103490104Y-92949792D01*
X103490106Y-92949788D01*
X103490109Y-92949786D01*
X103615048Y-92777820D01*
X103615050Y-92777817D01*
X103615051Y-92777816D01*
X103619514Y-92769054D01*
X103667488Y-92718259D01*
X103735308Y-92701463D01*
X103801444Y-92723999D01*
X103840486Y-92769056D01*
X103844951Y-92777820D01*
X103969890Y-92949786D01*
X104120213Y-93100109D01*
X104292179Y-93225048D01*
X104292181Y-93225049D01*
X104292184Y-93225051D01*
X104481588Y-93321557D01*
X104683757Y-93387246D01*
X104893713Y-93420500D01*
X104893714Y-93420500D01*
X105106286Y-93420500D01*
X105106287Y-93420500D01*
X105316243Y-93387246D01*
X105518412Y-93321557D01*
X105707816Y-93225051D01*
X105794138Y-93162335D01*
X105879786Y-93100109D01*
X105879788Y-93100106D01*
X105879792Y-93100104D01*
X106030104Y-92949792D01*
X106030106Y-92949788D01*
X106030109Y-92949786D01*
X106155048Y-92777820D01*
X106155050Y-92777817D01*
X106155051Y-92777816D01*
X106159514Y-92769054D01*
X106207488Y-92718259D01*
X106275308Y-92701463D01*
X106341444Y-92723999D01*
X106380486Y-92769056D01*
X106384951Y-92777820D01*
X106509890Y-92949786D01*
X106660213Y-93100109D01*
X106832179Y-93225048D01*
X106832181Y-93225049D01*
X106832184Y-93225051D01*
X107021588Y-93321557D01*
X107223757Y-93387246D01*
X107433713Y-93420500D01*
X107433714Y-93420500D01*
X107646286Y-93420500D01*
X107646287Y-93420500D01*
X107856243Y-93387246D01*
X108058412Y-93321557D01*
X108247816Y-93225051D01*
X108334138Y-93162335D01*
X108419786Y-93100109D01*
X108419788Y-93100106D01*
X108419792Y-93100104D01*
X108570104Y-92949792D01*
X108570106Y-92949788D01*
X108570109Y-92949786D01*
X108695048Y-92777820D01*
X108695050Y-92777817D01*
X108695051Y-92777816D01*
X108791557Y-92588412D01*
X108857246Y-92386243D01*
X108890500Y-92176287D01*
X108890500Y-91963713D01*
X108857246Y-91753757D01*
X108791557Y-91551588D01*
X108695051Y-91362184D01*
X108695049Y-91362181D01*
X108695048Y-91362179D01*
X108570109Y-91190213D01*
X108419786Y-91039890D01*
X108247820Y-90914951D01*
X108058414Y-90818444D01*
X108058413Y-90818443D01*
X108058412Y-90818443D01*
X107856243Y-90752754D01*
X107856241Y-90752753D01*
X107856240Y-90752753D01*
X107694957Y-90727208D01*
X107646287Y-90719500D01*
X107433713Y-90719500D01*
X107385042Y-90727208D01*
X107223760Y-90752753D01*
X107021585Y-90818444D01*
X106832179Y-90914951D01*
X106660213Y-91039890D01*
X106509890Y-91190213D01*
X106384949Y-91362182D01*
X106380484Y-91370946D01*
X106332509Y-91421742D01*
X106264688Y-91438536D01*
X106198553Y-91415998D01*
X106159516Y-91370946D01*
X106155050Y-91362182D01*
X106030109Y-91190213D01*
X105879786Y-91039890D01*
X105707820Y-90914951D01*
X105518414Y-90818444D01*
X105518413Y-90818443D01*
X105518412Y-90818443D01*
X105316243Y-90752754D01*
X105316241Y-90752753D01*
X105316240Y-90752753D01*
X105154957Y-90727208D01*
X105106287Y-90719500D01*
X104893713Y-90719500D01*
X104845042Y-90727208D01*
X104683760Y-90752753D01*
X104481585Y-90818444D01*
X104292179Y-90914951D01*
X104120213Y-91039890D01*
X103969890Y-91190213D01*
X103844949Y-91362182D01*
X103840484Y-91370946D01*
X103792509Y-91421742D01*
X103724688Y-91438536D01*
X103658553Y-91415998D01*
X103619516Y-91370946D01*
X103615050Y-91362182D01*
X103490109Y-91190213D01*
X103339786Y-91039890D01*
X103167820Y-90914951D01*
X102978414Y-90818444D01*
X102978413Y-90818443D01*
X102978412Y-90818443D01*
X102776243Y-90752754D01*
X102776241Y-90752753D01*
X102776240Y-90752753D01*
X102614957Y-90727208D01*
X102566287Y-90719500D01*
X102353713Y-90719500D01*
X102305042Y-90727208D01*
X102143760Y-90752753D01*
X101941585Y-90818444D01*
X101752179Y-90914951D01*
X101580213Y-91039890D01*
X101429890Y-91190213D01*
X101304949Y-91362182D01*
X101300484Y-91370946D01*
X101252509Y-91421742D01*
X101184688Y-91438536D01*
X101118553Y-91415998D01*
X101079516Y-91370946D01*
X101075050Y-91362182D01*
X100950109Y-91190213D01*
X100799786Y-91039890D01*
X100627820Y-90914951D01*
X100438414Y-90818444D01*
X100438413Y-90818443D01*
X100438412Y-90818443D01*
X100236243Y-90752754D01*
X100236241Y-90752753D01*
X100236240Y-90752753D01*
X100074957Y-90727208D01*
X100026287Y-90719500D01*
X99813713Y-90719500D01*
X99765042Y-90727208D01*
X99603760Y-90752753D01*
X99401585Y-90818444D01*
X99212179Y-90914951D01*
X99040213Y-91039890D01*
X98889890Y-91190213D01*
X98764949Y-91362182D01*
X98760202Y-91371499D01*
X98712227Y-91422293D01*
X98644405Y-91439087D01*
X98578271Y-91416548D01*
X98539234Y-91371495D01*
X98534626Y-91362452D01*
X98495270Y-91308282D01*
X98495269Y-91308282D01*
X97862962Y-91940590D01*
X97845925Y-91877007D01*
X97780099Y-91762993D01*
X97687007Y-91669901D01*
X97572993Y-91604075D01*
X97509409Y-91587037D01*
X98141716Y-90954728D01*
X98087550Y-90915375D01*
X97898217Y-90818904D01*
X97696129Y-90753242D01*
X97486246Y-90720000D01*
X97273754Y-90720000D01*
X97063872Y-90753242D01*
X97063869Y-90753242D01*
X96861782Y-90818904D01*
X96672439Y-90915380D01*
X96618282Y-90954727D01*
X96618282Y-90954728D01*
X97250591Y-91587037D01*
X97187007Y-91604075D01*
X97072993Y-91669901D01*
X96979901Y-91762993D01*
X96914075Y-91877007D01*
X96897037Y-91940591D01*
X96226818Y-91270372D01*
X96193333Y-91209049D01*
X96193330Y-91209036D01*
X96190499Y-91196015D01*
X96190499Y-91172128D01*
X96184091Y-91112517D01*
X96155926Y-91037002D01*
X96133798Y-90977673D01*
X96133793Y-90977664D01*
X96047547Y-90862455D01*
X96047544Y-90862452D01*
X95932335Y-90776206D01*
X95932328Y-90776202D01*
X95797482Y-90725908D01*
X95797483Y-90725908D01*
X95737883Y-90719501D01*
X95737881Y-90719500D01*
X95737873Y-90719500D01*
X95737864Y-90719500D01*
X93942129Y-90719500D01*
X93942123Y-90719501D01*
X93882516Y-90725908D01*
X93747671Y-90776202D01*
X93747664Y-90776206D01*
X93632455Y-90862452D01*
X93632452Y-90862455D01*
X93546206Y-90977664D01*
X93546202Y-90977671D01*
X93495908Y-91112517D01*
X93489501Y-91172116D01*
X93489500Y-91172135D01*
X39000500Y-91172135D01*
X39000500Y-83155263D01*
X114845500Y-83155263D01*
X114845500Y-83352736D01*
X114876389Y-83547763D01*
X114937408Y-83735558D01*
X114937409Y-83735561D01*
X115027056Y-83911501D01*
X115027058Y-83911504D01*
X115143115Y-84071246D01*
X115282753Y-84210884D01*
X115432234Y-84319486D01*
X115442499Y-84326944D01*
X115612404Y-84413516D01*
X115663199Y-84461490D01*
X115679994Y-84529311D01*
X115657456Y-84595446D01*
X115612404Y-84634483D01*
X115455321Y-84714522D01*
X115442495Y-84721058D01*
X115282753Y-84837115D01*
X115143115Y-84976753D01*
X115027058Y-85136495D01*
X114937408Y-85312441D01*
X114876389Y-85500236D01*
X114845500Y-85695263D01*
X114845500Y-85892736D01*
X114876389Y-86087763D01*
X114937408Y-86275558D01*
X114937409Y-86275561D01*
X115027056Y-86451501D01*
X115027058Y-86451504D01*
X115143115Y-86611246D01*
X115282753Y-86750884D01*
X115432234Y-86859486D01*
X115442499Y-86866944D01*
X115612404Y-86953516D01*
X115663199Y-87001490D01*
X115679994Y-87069311D01*
X115657456Y-87135446D01*
X115612404Y-87174483D01*
X115455321Y-87254522D01*
X115442495Y-87261058D01*
X115282753Y-87377115D01*
X115143115Y-87516753D01*
X115027058Y-87676495D01*
X114937408Y-87852441D01*
X114876389Y-88040236D01*
X114845500Y-88235263D01*
X114845500Y-88432736D01*
X114876389Y-88627763D01*
X114937408Y-88815558D01*
X114937409Y-88815561D01*
X115027056Y-88991501D01*
X115027058Y-88991504D01*
X115143115Y-89151246D01*
X115282753Y-89290884D01*
X115432234Y-89399486D01*
X115442499Y-89406944D01*
X115612404Y-89493516D01*
X115663199Y-89541490D01*
X115679994Y-89609311D01*
X115657456Y-89675446D01*
X115612404Y-89714483D01*
X115455321Y-89794522D01*
X115442495Y-89801058D01*
X115282753Y-89917115D01*
X115143115Y-90056753D01*
X115027058Y-90216495D01*
X114937408Y-90392441D01*
X114876389Y-90580236D01*
X114845500Y-90775263D01*
X114845500Y-90972736D01*
X114876389Y-91167763D01*
X114937348Y-91355373D01*
X114937409Y-91355561D01*
X115026923Y-91531239D01*
X115027058Y-91531504D01*
X115143115Y-91691246D01*
X115282753Y-91830884D01*
X115406158Y-91920541D01*
X115442499Y-91946944D01*
X115612404Y-92033516D01*
X115663199Y-92081490D01*
X115679994Y-92149311D01*
X115657456Y-92215446D01*
X115612404Y-92254483D01*
X115455321Y-92334522D01*
X115442495Y-92341058D01*
X115282753Y-92457115D01*
X115143115Y-92596753D01*
X115027058Y-92756495D01*
X114937408Y-92932441D01*
X114876389Y-93120236D01*
X114845500Y-93315263D01*
X114845500Y-93512736D01*
X114876389Y-93707763D01*
X114937408Y-93895558D01*
X114937409Y-93895561D01*
X115027056Y-94071501D01*
X115027058Y-94071504D01*
X115143115Y-94231246D01*
X115282753Y-94370884D01*
X115432234Y-94479486D01*
X115442499Y-94486944D01*
X115618439Y-94576591D01*
X115743637Y-94617270D01*
X115806236Y-94637610D01*
X116001264Y-94668500D01*
X116001269Y-94668500D01*
X116198736Y-94668500D01*
X116393763Y-94637610D01*
X116581561Y-94576591D01*
X116757501Y-94486944D01*
X116847192Y-94421779D01*
X116917246Y-94370884D01*
X116917248Y-94370881D01*
X116917252Y-94370879D01*
X117056879Y-94231252D01*
X117056881Y-94231248D01*
X117056884Y-94231246D01*
X117107779Y-94161192D01*
X117172944Y-94071501D01*
X117262591Y-93895561D01*
X117323610Y-93707763D01*
X117354500Y-93512736D01*
X117354500Y-93315263D01*
X117323610Y-93120236D01*
X117303270Y-93057637D01*
X117262591Y-92932439D01*
X117172944Y-92756499D01*
X117144762Y-92717709D01*
X117056884Y-92596753D01*
X116917246Y-92457115D01*
X116757505Y-92341058D01*
X116751119Y-92337804D01*
X116587593Y-92254482D01*
X116536800Y-92206510D01*
X116520005Y-92138689D01*
X116542542Y-92072554D01*
X116587593Y-92033517D01*
X116757501Y-91946944D01*
X116853762Y-91877007D01*
X116917246Y-91830884D01*
X116917248Y-91830881D01*
X116917252Y-91830879D01*
X117056879Y-91691252D01*
X117056881Y-91691248D01*
X117056884Y-91691246D01*
X117144973Y-91570000D01*
X117172944Y-91531501D01*
X117262591Y-91355561D01*
X117323610Y-91167763D01*
X117332360Y-91112517D01*
X117354500Y-90972736D01*
X117354500Y-90775263D01*
X117323610Y-90580236D01*
X117267671Y-90408075D01*
X117262591Y-90392439D01*
X117172944Y-90216499D01*
X117147159Y-90181009D01*
X117056884Y-90056753D01*
X116917246Y-89917115D01*
X116757505Y-89801058D01*
X116751119Y-89797804D01*
X116587593Y-89714482D01*
X116536800Y-89666510D01*
X116520005Y-89598689D01*
X116542542Y-89532554D01*
X116587593Y-89493517D01*
X116757501Y-89406944D01*
X116777912Y-89392114D01*
X116917246Y-89290884D01*
X116917248Y-89290881D01*
X116917252Y-89290879D01*
X117056879Y-89151252D01*
X117056881Y-89151248D01*
X117056884Y-89151246D01*
X117107779Y-89081192D01*
X117172944Y-88991501D01*
X117262591Y-88815561D01*
X117323610Y-88627763D01*
X117354500Y-88432736D01*
X117354500Y-88235263D01*
X117323610Y-88040236D01*
X117303270Y-87977637D01*
X117262591Y-87852439D01*
X117172944Y-87676499D01*
X117165486Y-87666234D01*
X117056884Y-87516753D01*
X116917246Y-87377115D01*
X116757505Y-87261058D01*
X116751119Y-87257804D01*
X116587593Y-87174482D01*
X116536800Y-87126510D01*
X116520005Y-87058689D01*
X116542542Y-86992554D01*
X116587593Y-86953517D01*
X116757501Y-86866944D01*
X116777912Y-86852114D01*
X116917246Y-86750884D01*
X116917248Y-86750881D01*
X116917252Y-86750879D01*
X117056879Y-86611252D01*
X117056881Y-86611248D01*
X117056884Y-86611246D01*
X117107779Y-86541192D01*
X117172944Y-86451501D01*
X117262591Y-86275561D01*
X117323610Y-86087763D01*
X117354500Y-85892736D01*
X117354500Y-85695263D01*
X117323610Y-85500236D01*
X117303270Y-85437637D01*
X117262591Y-85312439D01*
X117172944Y-85136499D01*
X117165486Y-85126234D01*
X117056884Y-84976753D01*
X116917246Y-84837115D01*
X116757505Y-84721058D01*
X116751119Y-84717804D01*
X116587593Y-84634482D01*
X116536800Y-84586510D01*
X116520005Y-84518689D01*
X116542542Y-84452554D01*
X116587593Y-84413517D01*
X116757501Y-84326944D01*
X116777912Y-84312114D01*
X116917246Y-84210884D01*
X116917248Y-84210881D01*
X116917252Y-84210879D01*
X117056879Y-84071252D01*
X117056881Y-84071248D01*
X117056884Y-84071246D01*
X117107779Y-84001192D01*
X117172944Y-83911501D01*
X117262591Y-83735561D01*
X117323610Y-83547763D01*
X117354500Y-83352736D01*
X117354500Y-83155263D01*
X117323610Y-82960236D01*
X117303270Y-82897637D01*
X117262591Y-82772439D01*
X117172944Y-82596499D01*
X117165486Y-82586234D01*
X117056884Y-82436753D01*
X116917246Y-82297115D01*
X116757504Y-82181058D01*
X116757503Y-82181057D01*
X116757501Y-82181056D01*
X116581561Y-82091409D01*
X116581558Y-82091408D01*
X116393763Y-82030389D01*
X116198736Y-81999500D01*
X116198731Y-81999500D01*
X116001269Y-81999500D01*
X116001264Y-81999500D01*
X115806236Y-82030389D01*
X115618441Y-82091408D01*
X115442495Y-82181058D01*
X115282753Y-82297115D01*
X115143115Y-82436753D01*
X115027058Y-82596495D01*
X114937408Y-82772441D01*
X114876389Y-82960236D01*
X114845500Y-83155263D01*
X39000500Y-83155263D01*
X39000500Y-74378711D01*
X43649500Y-74378711D01*
X43649500Y-74621288D01*
X43681161Y-74861785D01*
X43743947Y-75096104D01*
X43767282Y-75152439D01*
X43836776Y-75320212D01*
X43958064Y-75530289D01*
X43958066Y-75530292D01*
X43958067Y-75530293D01*
X44105733Y-75722736D01*
X44105739Y-75722743D01*
X44277256Y-75894260D01*
X44277263Y-75894266D01*
X44390321Y-75981018D01*
X44469711Y-76041936D01*
X44679788Y-76163224D01*
X44903900Y-76256054D01*
X45138211Y-76318838D01*
X45318586Y-76342584D01*
X45378711Y-76350500D01*
X45378712Y-76350500D01*
X45621289Y-76350500D01*
X45669388Y-76344167D01*
X45861789Y-76318838D01*
X46096100Y-76256054D01*
X46320212Y-76163224D01*
X46530289Y-76041936D01*
X46722738Y-75894265D01*
X46894265Y-75722738D01*
X47041936Y-75530289D01*
X47163224Y-75320212D01*
X47256054Y-75096100D01*
X47318838Y-74861789D01*
X47350500Y-74621288D01*
X47350500Y-74378712D01*
X47318838Y-74138211D01*
X47256054Y-73903900D01*
X47163224Y-73679788D01*
X47041936Y-73469711D01*
X46894265Y-73277262D01*
X46894260Y-73277256D01*
X46722743Y-73105739D01*
X46722736Y-73105733D01*
X46530293Y-72958067D01*
X46530292Y-72958066D01*
X46530289Y-72958064D01*
X46358661Y-72858974D01*
X46320214Y-72836777D01*
X46320205Y-72836773D01*
X46096104Y-72743947D01*
X45861785Y-72681161D01*
X45621289Y-72649500D01*
X45621288Y-72649500D01*
X45378712Y-72649500D01*
X45378711Y-72649500D01*
X45138214Y-72681161D01*
X44903895Y-72743947D01*
X44679794Y-72836773D01*
X44679785Y-72836777D01*
X44561537Y-72905048D01*
X44470607Y-72957547D01*
X44469706Y-72958067D01*
X44277263Y-73105733D01*
X44277256Y-73105739D01*
X44105739Y-73277256D01*
X44105733Y-73277263D01*
X43958067Y-73469706D01*
X43836777Y-73679785D01*
X43836773Y-73679794D01*
X43743947Y-73903895D01*
X43681161Y-74138214D01*
X43649500Y-74378711D01*
X39000500Y-74378711D01*
X39000500Y-71002706D01*
X39000618Y-70997298D01*
X39003377Y-70934108D01*
X39006956Y-70852135D01*
X93489500Y-70852135D01*
X93489500Y-72647870D01*
X93489501Y-72647876D01*
X93495908Y-72707483D01*
X93546202Y-72842328D01*
X93546206Y-72842335D01*
X93632452Y-72957544D01*
X93632455Y-72957547D01*
X93747664Y-73043793D01*
X93747671Y-73043797D01*
X93882517Y-73094091D01*
X93882516Y-73094091D01*
X93889444Y-73094835D01*
X93942127Y-73100500D01*
X95737872Y-73100499D01*
X95797483Y-73094091D01*
X95932331Y-73043796D01*
X96047546Y-72957546D01*
X96133796Y-72842331D01*
X96182810Y-72710916D01*
X96224681Y-72654984D01*
X96290145Y-72630566D01*
X96358418Y-72645417D01*
X96386673Y-72666569D01*
X96500213Y-72780109D01*
X96672179Y-72905048D01*
X96672181Y-72905049D01*
X96672184Y-72905051D01*
X96861588Y-73001557D01*
X97063757Y-73067246D01*
X97273713Y-73100500D01*
X97273714Y-73100500D01*
X97486286Y-73100500D01*
X97486287Y-73100500D01*
X97696243Y-73067246D01*
X97898412Y-73001557D01*
X98087816Y-72905051D01*
X98174138Y-72842335D01*
X98259786Y-72780109D01*
X98259788Y-72780106D01*
X98259792Y-72780104D01*
X98410104Y-72629792D01*
X98410106Y-72629788D01*
X98410109Y-72629786D01*
X98535048Y-72457820D01*
X98535047Y-72457820D01*
X98535051Y-72457816D01*
X98539514Y-72449054D01*
X98587488Y-72398259D01*
X98655308Y-72381463D01*
X98721444Y-72403999D01*
X98760486Y-72449056D01*
X98764951Y-72457820D01*
X98889890Y-72629786D01*
X99040213Y-72780109D01*
X99212179Y-72905048D01*
X99212181Y-72905049D01*
X99212184Y-72905051D01*
X99401588Y-73001557D01*
X99603757Y-73067246D01*
X99813713Y-73100500D01*
X99813714Y-73100500D01*
X100026286Y-73100500D01*
X100026287Y-73100500D01*
X100236243Y-73067246D01*
X100438412Y-73001557D01*
X100627816Y-72905051D01*
X100714138Y-72842335D01*
X100799786Y-72780109D01*
X100799788Y-72780106D01*
X100799792Y-72780104D01*
X100950104Y-72629792D01*
X100950106Y-72629788D01*
X100950109Y-72629786D01*
X101075048Y-72457820D01*
X101075047Y-72457820D01*
X101075051Y-72457816D01*
X101079514Y-72449054D01*
X101127488Y-72398259D01*
X101195308Y-72381463D01*
X101261444Y-72403999D01*
X101300486Y-72449056D01*
X101304951Y-72457820D01*
X101429890Y-72629786D01*
X101580213Y-72780109D01*
X101752179Y-72905048D01*
X101752181Y-72905049D01*
X101752184Y-72905051D01*
X101941588Y-73001557D01*
X102143757Y-73067246D01*
X102353713Y-73100500D01*
X102353714Y-73100500D01*
X102566286Y-73100500D01*
X102566287Y-73100500D01*
X102776243Y-73067246D01*
X102978412Y-73001557D01*
X103167816Y-72905051D01*
X103254138Y-72842335D01*
X103339786Y-72780109D01*
X103339788Y-72780106D01*
X103339792Y-72780104D01*
X103490104Y-72629792D01*
X103490106Y-72629788D01*
X103490109Y-72629786D01*
X103615048Y-72457820D01*
X103615047Y-72457820D01*
X103615051Y-72457816D01*
X103619514Y-72449054D01*
X103667488Y-72398259D01*
X103735308Y-72381463D01*
X103801444Y-72403999D01*
X103840486Y-72449056D01*
X103844951Y-72457820D01*
X103969890Y-72629786D01*
X104120213Y-72780109D01*
X104292179Y-72905048D01*
X104292181Y-72905049D01*
X104292184Y-72905051D01*
X104481588Y-73001557D01*
X104683757Y-73067246D01*
X104893713Y-73100500D01*
X104893714Y-73100500D01*
X105106286Y-73100500D01*
X105106287Y-73100500D01*
X105316243Y-73067246D01*
X105518412Y-73001557D01*
X105707816Y-72905051D01*
X105794138Y-72842335D01*
X105879786Y-72780109D01*
X105879788Y-72780106D01*
X105879792Y-72780104D01*
X106030104Y-72629792D01*
X106030106Y-72629788D01*
X106030109Y-72629786D01*
X106155048Y-72457820D01*
X106155047Y-72457820D01*
X106155051Y-72457816D01*
X106159514Y-72449054D01*
X106207488Y-72398259D01*
X106275308Y-72381463D01*
X106341444Y-72403999D01*
X106380486Y-72449056D01*
X106384951Y-72457820D01*
X106509890Y-72629786D01*
X106660213Y-72780109D01*
X106832179Y-72905048D01*
X106832181Y-72905049D01*
X106832184Y-72905051D01*
X107021588Y-73001557D01*
X107223757Y-73067246D01*
X107433713Y-73100500D01*
X107433714Y-73100500D01*
X107646286Y-73100500D01*
X107646287Y-73100500D01*
X107856243Y-73067246D01*
X108058412Y-73001557D01*
X108247816Y-72905051D01*
X108334138Y-72842335D01*
X108419786Y-72780109D01*
X108419788Y-72780106D01*
X108419792Y-72780104D01*
X108570104Y-72629792D01*
X108570106Y-72629788D01*
X108570109Y-72629786D01*
X108695048Y-72457820D01*
X108695047Y-72457820D01*
X108695051Y-72457816D01*
X108791557Y-72268412D01*
X108857246Y-72066243D01*
X108890500Y-71856287D01*
X108890500Y-71643713D01*
X108857246Y-71433757D01*
X108791557Y-71231588D01*
X108695051Y-71042184D01*
X108695049Y-71042181D01*
X108695048Y-71042179D01*
X108570109Y-70870213D01*
X108419786Y-70719890D01*
X108247820Y-70594951D01*
X108058414Y-70498444D01*
X108058413Y-70498443D01*
X108058412Y-70498443D01*
X107856243Y-70432754D01*
X107856241Y-70432753D01*
X107856240Y-70432753D01*
X107694957Y-70407208D01*
X107646287Y-70399500D01*
X107433713Y-70399500D01*
X107385042Y-70407208D01*
X107223760Y-70432753D01*
X107021585Y-70498444D01*
X106832179Y-70594951D01*
X106660213Y-70719890D01*
X106509890Y-70870213D01*
X106384949Y-71042182D01*
X106380484Y-71050946D01*
X106332509Y-71101742D01*
X106264688Y-71118536D01*
X106198553Y-71095998D01*
X106159516Y-71050946D01*
X106155050Y-71042182D01*
X106030109Y-70870213D01*
X105879786Y-70719890D01*
X105707820Y-70594951D01*
X105518414Y-70498444D01*
X105518413Y-70498443D01*
X105518412Y-70498443D01*
X105316243Y-70432754D01*
X105316241Y-70432753D01*
X105316240Y-70432753D01*
X105154957Y-70407208D01*
X105106287Y-70399500D01*
X104893713Y-70399500D01*
X104845042Y-70407208D01*
X104683760Y-70432753D01*
X104481585Y-70498444D01*
X104292179Y-70594951D01*
X104120213Y-70719890D01*
X103969890Y-70870213D01*
X103844949Y-71042182D01*
X103840484Y-71050946D01*
X103792509Y-71101742D01*
X103724688Y-71118536D01*
X103658553Y-71095998D01*
X103619516Y-71050946D01*
X103615050Y-71042182D01*
X103490109Y-70870213D01*
X103339786Y-70719890D01*
X103167820Y-70594951D01*
X102978414Y-70498444D01*
X102978413Y-70498443D01*
X102978412Y-70498443D01*
X102776243Y-70432754D01*
X102776241Y-70432753D01*
X102776240Y-70432753D01*
X102614957Y-70407208D01*
X102566287Y-70399500D01*
X102353713Y-70399500D01*
X102305042Y-70407208D01*
X102143760Y-70432753D01*
X101941585Y-70498444D01*
X101752179Y-70594951D01*
X101580213Y-70719890D01*
X101429890Y-70870213D01*
X101304949Y-71042182D01*
X101300484Y-71050946D01*
X101252509Y-71101742D01*
X101184688Y-71118536D01*
X101118553Y-71095998D01*
X101079516Y-71050946D01*
X101075050Y-71042182D01*
X100950109Y-70870213D01*
X100799786Y-70719890D01*
X100627820Y-70594951D01*
X100438414Y-70498444D01*
X100438413Y-70498443D01*
X100438412Y-70498443D01*
X100236243Y-70432754D01*
X100236241Y-70432753D01*
X100236240Y-70432753D01*
X100074957Y-70407208D01*
X100026287Y-70399500D01*
X99813713Y-70399500D01*
X99765042Y-70407208D01*
X99603760Y-70432753D01*
X99401585Y-70498444D01*
X99212179Y-70594951D01*
X99040213Y-70719890D01*
X98889890Y-70870213D01*
X98764949Y-71042182D01*
X98760484Y-71050946D01*
X98712509Y-71101742D01*
X98644688Y-71118536D01*
X98578553Y-71095998D01*
X98539516Y-71050946D01*
X98535050Y-71042182D01*
X98410109Y-70870213D01*
X98259786Y-70719890D01*
X98087820Y-70594951D01*
X97898414Y-70498444D01*
X97898413Y-70498443D01*
X97898412Y-70498443D01*
X97696243Y-70432754D01*
X97696241Y-70432753D01*
X97696240Y-70432753D01*
X97534957Y-70407208D01*
X97486287Y-70399500D01*
X97273713Y-70399500D01*
X97225042Y-70407208D01*
X97063760Y-70432753D01*
X96861585Y-70498444D01*
X96672179Y-70594951D01*
X96500215Y-70719889D01*
X96386673Y-70833431D01*
X96325350Y-70866915D01*
X96255658Y-70861931D01*
X96199725Y-70820059D01*
X96182810Y-70789082D01*
X96133797Y-70657671D01*
X96133793Y-70657664D01*
X96047547Y-70542455D01*
X96047544Y-70542452D01*
X95932335Y-70456206D01*
X95932328Y-70456202D01*
X95797482Y-70405908D01*
X95797483Y-70405908D01*
X95737883Y-70399501D01*
X95737881Y-70399500D01*
X95737873Y-70399500D01*
X95737864Y-70399500D01*
X93942129Y-70399500D01*
X93942123Y-70399501D01*
X93882516Y-70405908D01*
X93747671Y-70456202D01*
X93747664Y-70456206D01*
X93632455Y-70542452D01*
X93632452Y-70542455D01*
X93546206Y-70657664D01*
X93546202Y-70657671D01*
X93495908Y-70792517D01*
X93489501Y-70852116D01*
X93489500Y-70852135D01*
X39006956Y-70852135D01*
X39017386Y-70613226D01*
X39018326Y-70602495D01*
X39068152Y-70224025D01*
X39070025Y-70213405D01*
X39152649Y-69840709D01*
X39155440Y-69830295D01*
X39270230Y-69466227D01*
X39273917Y-69456095D01*
X39420003Y-69103412D01*
X39424561Y-69093638D01*
X39600822Y-68755045D01*
X39606217Y-68745700D01*
X39811325Y-68423744D01*
X39817515Y-68414905D01*
X40049896Y-68112060D01*
X40056834Y-68103791D01*
X40314726Y-67822352D01*
X40322352Y-67814726D01*
X40603791Y-67556834D01*
X40612060Y-67549896D01*
X40914905Y-67317515D01*
X40923744Y-67311325D01*
X41245700Y-67106217D01*
X41255045Y-67100822D01*
X41593638Y-66924561D01*
X41603412Y-66920003D01*
X41956095Y-66773917D01*
X41966227Y-66770230D01*
X42330295Y-66655440D01*
X42340709Y-66652649D01*
X42713405Y-66570025D01*
X42724025Y-66568152D01*
X43102495Y-66518326D01*
X43113226Y-66517386D01*
X43497297Y-66500617D01*
X43502706Y-66500500D01*
X43565892Y-66500500D01*
X141934108Y-66500500D01*
X141997294Y-66500500D01*
X142002702Y-66500617D01*
G37*
%TD.AperFunction*%
%TD*%
M02*
