M48
; DRILL file {KiCad 9.0.3} date 2025-10-01T09:47:46-0700
; FORMAT={-:-/ absolute / metric / decimal}
; #@! TF.CreationDate,2025-10-01T09:47:46-07:00
; #@! TF.GenerationSoftware,Kicad,Pcbnew,9.0.3
; #@! TF.FileFunction,Plated,1,4,PTH
FMAT,2
METRIC
; #@! TA.AperFunction,Plated,PTH,ViaDrill
T1C0.300
; #@! TA.AperFunction,Plated,PTH,ComponentDrill
T2C0.700
; #@! TA.AperFunction,Plated,PTH,ComponentDrill
T3C1.000
; #@! TA.AperFunction,Plated,PTH,ComponentDrill
T4C2.500
%
G90
G05
T1
X128.0Y-140.5
T2
X108.0Y-120.42
X108.0Y-125.5
X109.0Y-111.46
X109.0Y-116.54
T3
X58.44Y-144.32
X60.98Y-144.32
X63.52Y-144.32
X66.06Y-144.32
X68.6Y-124.0
X68.6Y-144.32
X71.14Y-124.0
X71.14Y-144.32
X73.68Y-124.0
X73.68Y-144.32
X76.22Y-124.0
X76.22Y-144.32
X78.76Y-124.0
X78.76Y-144.32
X81.3Y-124.0
X81.3Y-144.32
X83.84Y-124.0
X83.84Y-144.32
X86.38Y-124.0
X86.38Y-144.32
X88.92Y-124.0
X88.92Y-144.32
X91.46Y-124.0
X91.46Y-144.32
X94.0Y-124.0
X94.0Y-144.32
X94.84Y-71.75
X94.84Y-92.07
X96.54Y-124.0
X96.54Y-144.32
X97.38Y-71.75
X97.38Y-92.07
X99.92Y-71.75
X99.92Y-92.07
X102.46Y-71.75
X102.46Y-92.07
X105.0Y-71.75
X105.0Y-92.07
X107.54Y-71.75
X107.54Y-92.07
X116.1Y-83.254
X116.1Y-85.794
X116.1Y-88.334
X116.1Y-90.874
X116.1Y-93.414
X120.34Y-145.89
X122.88Y-145.89
X124.31Y-119.0
X125.42Y-145.89
X126.85Y-101.22
X126.85Y-119.0
X127.96Y-145.89
X129.39Y-101.22
X129.39Y-119.0
X130.5Y-145.89
X131.93Y-101.22
X131.93Y-119.0
X133.04Y-145.89
X134.47Y-101.22
X134.47Y-119.0
X135.58Y-145.89
X137.01Y-119.0
X138.12Y-145.89
X140.66Y-145.89
X141.5Y-73.094
X141.5Y-75.634
X141.5Y-78.174
X141.5Y-80.714
X141.5Y-83.254
X141.5Y-85.794
X141.5Y-88.334
X141.5Y-90.874
X141.5Y-93.414
T4
X119.865Y-102.49
X119.865Y-117.73
X120.34Y-128.11
X140.66Y-128.11
X141.455Y-102.49
X141.455Y-117.73
M30
