%TF.GenerationSoftware,KiCad,Pcbnew,9.0.3*%
%TF.CreationDate,2025-10-01T09:47:41-07:00*%
%TF.ProjectId,ballin balloon bayload,62616c6c-696e-4206-9261-6c6c6f6f6e20,rev?*%
%TF.SameCoordinates,Original*%
%TF.FileFunction,Copper,L2,Inr*%
%TF.FilePolarity,Positive*%
%FSLAX46Y46*%
G04 Gerber Fmt 4.6, Leading zero omitted, Abs format (unit mm)*
G04 Created by KiCad (PCBNEW 9.0.3) date 2025-10-01 09:47:41*
%MOMM*%
%LPD*%
G01*
G04 APERTURE LIST*
G04 Aperture macros list*
%AMRoundRect*
0 Rectangle with rounded corners*
0 $1 Rounding radius*
0 $2 $3 $4 $5 $6 $7 $8 $9 X,Y pos of 4 corners*
0 Add a 4 corners polygon primitive as box body*
4,1,4,$2,$3,$4,$5,$6,$7,$8,$9,$2,$3,0*
0 Add four circle primitives for the rounded corners*
1,1,$1+$1,$2,$3*
1,1,$1+$1,$4,$5*
1,1,$1+$1,$6,$7*
1,1,$1+$1,$8,$9*
0 Add four rect primitives between the rounded corners*
20,1,$1+$1,$2,$3,$4,$5,0*
20,1,$1+$1,$4,$5,$6,$7,0*
20,1,$1+$1,$6,$7,$8,$9,0*
20,1,$1+$1,$8,$9,$2,$3,0*%
G04 Aperture macros list end*
%TA.AperFunction,ComponentPad*%
%ADD10C,1.400000*%
%TD*%
%TA.AperFunction,ComponentPad*%
%ADD11C,4.000000*%
%TD*%
%TA.AperFunction,ComponentPad*%
%ADD12C,1.930400*%
%TD*%
%TA.AperFunction,ComponentPad*%
%ADD13C,3.516000*%
%TD*%
%TA.AperFunction,ComponentPad*%
%ADD14C,1.508000*%
%TD*%
%TA.AperFunction,ComponentPad*%
%ADD15R,1.508000X1.508000*%
%TD*%
%TA.AperFunction,ComponentPad*%
%ADD16R,1.700000X1.700000*%
%TD*%
%TA.AperFunction,ComponentPad*%
%ADD17C,1.700000*%
%TD*%
%TA.AperFunction,ComponentPad*%
%ADD18RoundRect,0.250000X0.550000X-1.050000X0.550000X1.050000X-0.550000X1.050000X-0.550000X-1.050000X0*%
%TD*%
%TA.AperFunction,ComponentPad*%
%ADD19O,1.600000X2.600000*%
%TD*%
%TA.AperFunction,ViaPad*%
%ADD20C,0.600000*%
%TD*%
G04 APERTURE END LIST*
D10*
%TO.N,/inside/SDA*%
%TO.C,R1*%
X108000000Y-120420000D03*
%TO.N,+3V3*%
X108000000Y-125500000D03*
%TD*%
%TO.N,/inside/SCL*%
%TO.C,R2*%
X109000000Y-116540000D03*
%TO.N,+3V3*%
X109000000Y-111460000D03*
%TD*%
D11*
%TO.N,N/C*%
%TO.C,U3*%
X119865000Y-102490000D03*
X141455000Y-102490000D03*
X141455000Y-117730000D03*
X119865000Y-117730000D03*
D12*
%TO.N,unconnected-(U3-PS0-Pad10)*%
X126850000Y-101220000D03*
%TO.N,unconnected-(U3-PS1-Pad9)*%
X129390000Y-101220000D03*
%TO.N,unconnected-(U3-INT-Pad8)*%
X131930000Y-101220000D03*
%TO.N,unconnected-(U3-ADR-Pad7)*%
X134470000Y-101220000D03*
%TO.N,unconnected-(U3-RST-Pad6)*%
X137010000Y-119000000D03*
%TO.N,/inside/SCL*%
X134470000Y-119000000D03*
%TO.N,/inside/SDA*%
X131930000Y-119000000D03*
%TO.N,GND*%
X129390000Y-119000000D03*
%TO.N,unconnected-(U3-3VO-Pad2)*%
X126850000Y-119000000D03*
%TO.N,+3V3*%
X124310000Y-119000000D03*
%TD*%
D13*
%TO.N,N/C*%
%TO.C,U1*%
X140660000Y-128110000D03*
X120340000Y-128110000D03*
D14*
%TO.N,unconnected-(U1-DET-Pad9)*%
X140660000Y-145890000D03*
%TO.N,unconnected-(U1-DAT2-Pad8)*%
X138120000Y-145890000D03*
%TO.N,unconnected-(U1-DAT1-Pad7)*%
X135580000Y-145890000D03*
%TO.N,/inside/CS_microSD*%
X133040000Y-145890000D03*
%TO.N,/inside/MOSI*%
X130500000Y-145890000D03*
%TO.N,/inside/MISO*%
X127960000Y-145890000D03*
%TO.N,/inside/SCK*%
X125420000Y-145890000D03*
%TO.N,GND*%
X122880000Y-145890000D03*
D15*
%TO.N,+3V3*%
X120340000Y-145890000D03*
%TD*%
D14*
%TO.N,unconnected-(U2-G1-PadJP1_1)*%
%TO.C,U2*%
X116100000Y-93414000D03*
%TO.N,unconnected-(U2-G2-PadJP1_2)*%
X116100000Y-90874000D03*
%TO.N,unconnected-(U2-G3-PadJP1_3)*%
X116100000Y-88334000D03*
%TO.N,unconnected-(U2-G4-PadJP1_4)*%
X116100000Y-85794000D03*
%TO.N,unconnected-(U2-G5-PadJP1_5)*%
X116100000Y-83254000D03*
%TO.N,+3V3*%
X141500000Y-93414000D03*
%TO.N,GND*%
X141500000Y-90874000D03*
%TO.N,unconnected-(U2-EN-PadJP3_3)*%
X141500000Y-88334000D03*
%TO.N,unconnected-(U2-G0-PadJP3_4)*%
X141500000Y-85794000D03*
%TO.N,/inside/SCK*%
X141500000Y-83254000D03*
%TO.N,/inside/MISO*%
X141500000Y-80714000D03*
%TO.N,/inside/MOSI*%
X141500000Y-78174000D03*
%TO.N,/inside/CS_LoRa*%
X141500000Y-75634000D03*
%TO.N,unconnected-(U2-RST-PadJP3_9)*%
X141500000Y-73094000D03*
%TD*%
D16*
%TO.N,unconnected-(J5-Pin_1-Pad1)*%
%TO.C,J5*%
X94840000Y-71750000D03*
D17*
%TO.N,unconnected-(J5-Pin_2-Pad2)*%
X97380000Y-71750000D03*
%TO.N,unconnected-(J5-Pin_3-Pad3)*%
X99920000Y-71750000D03*
%TO.N,unconnected-(J5-Pin_4-Pad4)*%
X102460000Y-71750000D03*
%TO.N,unconnected-(J5-Pin_5-Pad5)*%
X105000000Y-71750000D03*
%TO.N,unconnected-(J5-Pin_6-Pad6)*%
X107540000Y-71750000D03*
%TD*%
D18*
%TO.N,unconnected-(A1-~{RESET}-Pad1)*%
%TO.C,A1*%
X58440000Y-144020000D03*
D19*
%TO.N,+3V3*%
X60980000Y-144020000D03*
%TO.N,unconnected-(A1-NC-Pad3)*%
X63520000Y-144020000D03*
%TO.N,GND*%
X66060000Y-144020000D03*
%TO.N,unconnected-(A1-DAC2{slash}A0-Pad5)*%
X68600000Y-144020000D03*
%TO.N,unconnected-(A1-DAC1{slash}A1-Pad6)*%
X71140000Y-144020000D03*
%TO.N,unconnected-(A1-I34{slash}A2-Pad7)*%
X73680000Y-144020000D03*
%TO.N,unconnected-(A1-I39{slash}A3-Pad8)*%
X76220000Y-144020000D03*
%TO.N,unconnected-(A1-IO36{slash}A4-Pad9)*%
X78760000Y-144020000D03*
%TO.N,unconnected-(A1-IO4{slash}A5-Pad10)*%
X81300000Y-144020000D03*
%TO.N,/inside/SCK*%
X83840000Y-144020000D03*
%TO.N,/inside/MOSI*%
X86380000Y-144020000D03*
%TO.N,/inside/MISO*%
X88920000Y-144020000D03*
%TO.N,/inside/RX_MCU*%
X91460000Y-144020000D03*
%TO.N,/inside/TX_MCU*%
X94000000Y-144020000D03*
%TO.N,unconnected-(A1-IO21-Pad16)*%
X96540000Y-144020000D03*
%TO.N,/inside/SDA*%
X96540000Y-124300000D03*
%TO.N,/inside/SCL*%
X94000000Y-124300000D03*
%TO.N,/inside/CS_LoRa*%
X91460000Y-124300000D03*
%TO.N,/inside/CS_microSD*%
X88920000Y-124300000D03*
%TO.N,unconnected-(A1-A8{slash}IO15-Pad21)*%
X86380000Y-124300000D03*
%TO.N,unconnected-(A1-A9{slash}IO33-Pad22)*%
X83840000Y-124300000D03*
%TO.N,unconnected-(A1-A10{slash}IO27-Pad23)*%
X81300000Y-124300000D03*
%TO.N,unconnected-(A1-A11{slash}IO12-Pad24)*%
X78760000Y-124300000D03*
%TO.N,unconnected-(A1-A12{slash}IO13-Pad25)*%
X76220000Y-124300000D03*
%TO.N,unconnected-(A1-USB-Pad26)*%
X73680000Y-124300000D03*
%TO.N,unconnected-(A1-EN-Pad27)*%
X71140000Y-124300000D03*
%TO.N,+5V*%
X68600000Y-124300000D03*
%TD*%
D16*
%TO.N,+3V3*%
%TO.C,J4*%
X94840000Y-92070000D03*
D17*
%TO.N,GND*%
X97380000Y-92070000D03*
%TO.N,unconnected-(J4-Pin_3-Pad3)*%
X99920000Y-92070000D03*
%TO.N,/inside/SCL*%
X102460000Y-92070000D03*
%TO.N,/inside/SDA*%
X105000000Y-92070000D03*
%TO.N,unconnected-(J4-Pin_6-Pad6)*%
X107540000Y-92070000D03*
%TD*%
D20*
%TO.N,/inside/SCK*%
X128000000Y-140500000D03*
%TD*%
%TA.AperFunction,Conductor*%
%TO.N,+3V3*%
G36*
X142002702Y-66500617D02*
G01*
X142386771Y-66517386D01*
X142397506Y-66518326D01*
X142775971Y-66568152D01*
X142786597Y-66570025D01*
X143159284Y-66652648D01*
X143169710Y-66655442D01*
X143533765Y-66770227D01*
X143543911Y-66773920D01*
X143896578Y-66920000D01*
X143906369Y-66924566D01*
X144244942Y-67100816D01*
X144254310Y-67106224D01*
X144576244Y-67311318D01*
X144585105Y-67317523D01*
X144887930Y-67549889D01*
X144896217Y-67556843D01*
X145177635Y-67814715D01*
X145185284Y-67822364D01*
X145443156Y-68103782D01*
X145450110Y-68112069D01*
X145682476Y-68414894D01*
X145688681Y-68423755D01*
X145893775Y-68745689D01*
X145899183Y-68755057D01*
X146075430Y-69093623D01*
X146080002Y-69103427D01*
X146226075Y-69456078D01*
X146229775Y-69466244D01*
X146344554Y-69830278D01*
X146347354Y-69840727D01*
X146429971Y-70213389D01*
X146431849Y-70224042D01*
X146481671Y-70602473D01*
X146482614Y-70613249D01*
X146499382Y-70997297D01*
X146499500Y-71002706D01*
X146499500Y-146997293D01*
X146499382Y-147002702D01*
X146482614Y-147386750D01*
X146481671Y-147397526D01*
X146431849Y-147775957D01*
X146429971Y-147786610D01*
X146347354Y-148159272D01*
X146344554Y-148169721D01*
X146229775Y-148533755D01*
X146226075Y-148543921D01*
X146080002Y-148896572D01*
X146075430Y-148906376D01*
X145899183Y-149244942D01*
X145893775Y-149254310D01*
X145688681Y-149576244D01*
X145682476Y-149585105D01*
X145450110Y-149887930D01*
X145443156Y-149896217D01*
X145185284Y-150177635D01*
X145177635Y-150185284D01*
X144896217Y-150443156D01*
X144887930Y-150450110D01*
X144585105Y-150682476D01*
X144576244Y-150688681D01*
X144254310Y-150893775D01*
X144244942Y-150899183D01*
X143906376Y-151075430D01*
X143896572Y-151080002D01*
X143543921Y-151226075D01*
X143533755Y-151229775D01*
X143169721Y-151344554D01*
X143159272Y-151347354D01*
X142786610Y-151429971D01*
X142775957Y-151431849D01*
X142397526Y-151481671D01*
X142386750Y-151482614D01*
X142002703Y-151499382D01*
X141997294Y-151499500D01*
X43502706Y-151499500D01*
X43497297Y-151499382D01*
X43113249Y-151482614D01*
X43102473Y-151481671D01*
X42724042Y-151431849D01*
X42713389Y-151429971D01*
X42340727Y-151347354D01*
X42330278Y-151344554D01*
X41966244Y-151229775D01*
X41956078Y-151226075D01*
X41603427Y-151080002D01*
X41593623Y-151075430D01*
X41255057Y-150899183D01*
X41245689Y-150893775D01*
X40923755Y-150688681D01*
X40914894Y-150682476D01*
X40612069Y-150450110D01*
X40603782Y-150443156D01*
X40322364Y-150185284D01*
X40314715Y-150177635D01*
X40056843Y-149896217D01*
X40049889Y-149887930D01*
X39817523Y-149585105D01*
X39811318Y-149576244D01*
X39606224Y-149254310D01*
X39600816Y-149244942D01*
X39424569Y-148906376D01*
X39419997Y-148896572D01*
X39273924Y-148543921D01*
X39270224Y-148533755D01*
X39155442Y-148169710D01*
X39152648Y-148159284D01*
X39070025Y-147786597D01*
X39068152Y-147775971D01*
X39018326Y-147397506D01*
X39017386Y-147386771D01*
X39000618Y-147002702D01*
X39000500Y-146997293D01*
X39000500Y-142915730D01*
X57439500Y-142915730D01*
X57439500Y-145124269D01*
X57442353Y-145154699D01*
X57442353Y-145154701D01*
X57479082Y-145259663D01*
X57487207Y-145282882D01*
X57567850Y-145392150D01*
X57677118Y-145472793D01*
X57703576Y-145482051D01*
X57805299Y-145517646D01*
X57835730Y-145520500D01*
X57835734Y-145520500D01*
X59044270Y-145520500D01*
X59074699Y-145517646D01*
X59074701Y-145517646D01*
X59138790Y-145495219D01*
X59202882Y-145472793D01*
X59312150Y-145392150D01*
X59392793Y-145282882D01*
X59431523Y-145172198D01*
X59437646Y-145154701D01*
X59437646Y-145154699D01*
X59440500Y-145124269D01*
X59440500Y-144685740D01*
X59460185Y-144618701D01*
X59512989Y-144572946D01*
X59582147Y-144563002D01*
X59645703Y-144592027D01*
X59683477Y-144650805D01*
X59686973Y-144666342D01*
X59712009Y-144824417D01*
X59775244Y-145019031D01*
X59868140Y-145201349D01*
X59988417Y-145366894D01*
X59988417Y-145366895D01*
X60133104Y-145511582D01*
X60298650Y-145631859D01*
X60480968Y-145724754D01*
X60675578Y-145787988D01*
X60730000Y-145796607D01*
X60730000Y-144753012D01*
X60787007Y-144785925D01*
X60914174Y-144820000D01*
X61045826Y-144820000D01*
X61172993Y-144785925D01*
X61230000Y-144753012D01*
X61230000Y-145796606D01*
X61284421Y-145787988D01*
X61479031Y-145724754D01*
X61661349Y-145631859D01*
X61826894Y-145511582D01*
X61826895Y-145511582D01*
X61971582Y-145366895D01*
X61971582Y-145366894D01*
X62091859Y-145201349D01*
X62184755Y-145019031D01*
X62247990Y-144824417D01*
X62277875Y-144635731D01*
X62307804Y-144572596D01*
X62367116Y-144535665D01*
X62436978Y-144536663D01*
X62495211Y-144575273D01*
X62521965Y-144630937D01*
X62557947Y-144811829D01*
X62557950Y-144811839D01*
X62633364Y-144993907D01*
X62633371Y-144993920D01*
X62742860Y-145157781D01*
X62742863Y-145157785D01*
X62882214Y-145297136D01*
X62882218Y-145297139D01*
X63046079Y-145406628D01*
X63046092Y-145406635D01*
X63205814Y-145472793D01*
X63228165Y-145482051D01*
X63228169Y-145482051D01*
X63228170Y-145482052D01*
X63421456Y-145520500D01*
X63421459Y-145520500D01*
X63618543Y-145520500D01*
X63748582Y-145494632D01*
X63811835Y-145482051D01*
X63989547Y-145408441D01*
X63993907Y-145406635D01*
X63993907Y-145406634D01*
X63993914Y-145406632D01*
X64157782Y-145297139D01*
X64297139Y-145157782D01*
X64406632Y-144993914D01*
X64482051Y-144811835D01*
X64510982Y-144666390D01*
X64520500Y-144618543D01*
X65059499Y-144618543D01*
X65097947Y-144811829D01*
X65097950Y-144811839D01*
X65173364Y-144993907D01*
X65173371Y-144993920D01*
X65282860Y-145157781D01*
X65282863Y-145157785D01*
X65422214Y-145297136D01*
X65422218Y-145297139D01*
X65586079Y-145406628D01*
X65586092Y-145406635D01*
X65745814Y-145472793D01*
X65768165Y-145482051D01*
X65768169Y-145482051D01*
X65768170Y-145482052D01*
X65961456Y-145520500D01*
X65961459Y-145520500D01*
X66158543Y-145520500D01*
X66288582Y-145494632D01*
X66351835Y-145482051D01*
X66529547Y-145408441D01*
X66533907Y-145406635D01*
X66533907Y-145406634D01*
X66533914Y-145406632D01*
X66697782Y-145297139D01*
X66837139Y-145157782D01*
X66946632Y-144993914D01*
X67022051Y-144811835D01*
X67050982Y-144666390D01*
X67060500Y-144618543D01*
X67599499Y-144618543D01*
X67637947Y-144811829D01*
X67637950Y-144811839D01*
X67713364Y-144993907D01*
X67713371Y-144993920D01*
X67822860Y-145157781D01*
X67822863Y-145157785D01*
X67962214Y-145297136D01*
X67962218Y-145297139D01*
X68126079Y-145406628D01*
X68126092Y-145406635D01*
X68285814Y-145472793D01*
X68308165Y-145482051D01*
X68308169Y-145482051D01*
X68308170Y-145482052D01*
X68501456Y-145520500D01*
X68501459Y-145520500D01*
X68698543Y-145520500D01*
X68828582Y-145494632D01*
X68891835Y-145482051D01*
X69069547Y-145408441D01*
X69073907Y-145406635D01*
X69073907Y-145406634D01*
X69073914Y-145406632D01*
X69237782Y-145297139D01*
X69377139Y-145157782D01*
X69486632Y-144993914D01*
X69562051Y-144811835D01*
X69590982Y-144666390D01*
X69600500Y-144618543D01*
X70139499Y-144618543D01*
X70177947Y-144811829D01*
X70177950Y-144811839D01*
X70253364Y-144993907D01*
X70253371Y-144993920D01*
X70362860Y-145157781D01*
X70362863Y-145157785D01*
X70502214Y-145297136D01*
X70502218Y-145297139D01*
X70666079Y-145406628D01*
X70666092Y-145406635D01*
X70825814Y-145472793D01*
X70848165Y-145482051D01*
X70848169Y-145482051D01*
X70848170Y-145482052D01*
X71041456Y-145520500D01*
X71041459Y-145520500D01*
X71238543Y-145520500D01*
X71368582Y-145494632D01*
X71431835Y-145482051D01*
X71609547Y-145408441D01*
X71613907Y-145406635D01*
X71613907Y-145406634D01*
X71613914Y-145406632D01*
X71777782Y-145297139D01*
X71917139Y-145157782D01*
X72026632Y-144993914D01*
X72102051Y-144811835D01*
X72130982Y-144666390D01*
X72140500Y-144618543D01*
X72679499Y-144618543D01*
X72717947Y-144811829D01*
X72717950Y-144811839D01*
X72793364Y-144993907D01*
X72793371Y-144993920D01*
X72902860Y-145157781D01*
X72902863Y-145157785D01*
X73042214Y-145297136D01*
X73042218Y-145297139D01*
X73206079Y-145406628D01*
X73206092Y-145406635D01*
X73365814Y-145472793D01*
X73388165Y-145482051D01*
X73388169Y-145482051D01*
X73388170Y-145482052D01*
X73581456Y-145520500D01*
X73581459Y-145520500D01*
X73778543Y-145520500D01*
X73908582Y-145494632D01*
X73971835Y-145482051D01*
X74149547Y-145408441D01*
X74153907Y-145406635D01*
X74153907Y-145406634D01*
X74153914Y-145406632D01*
X74317782Y-145297139D01*
X74457139Y-145157782D01*
X74566632Y-144993914D01*
X74642051Y-144811835D01*
X74670982Y-144666390D01*
X74680500Y-144618543D01*
X75219499Y-144618543D01*
X75257947Y-144811829D01*
X75257950Y-144811839D01*
X75333364Y-144993907D01*
X75333371Y-144993920D01*
X75442860Y-145157781D01*
X75442863Y-145157785D01*
X75582214Y-145297136D01*
X75582218Y-145297139D01*
X75746079Y-145406628D01*
X75746092Y-145406635D01*
X75905814Y-145472793D01*
X75928165Y-145482051D01*
X75928169Y-145482051D01*
X75928170Y-145482052D01*
X76121456Y-145520500D01*
X76121459Y-145520500D01*
X76318543Y-145520500D01*
X76448582Y-145494632D01*
X76511835Y-145482051D01*
X76689547Y-145408441D01*
X76693907Y-145406635D01*
X76693907Y-145406634D01*
X76693914Y-145406632D01*
X76857782Y-145297139D01*
X76997139Y-145157782D01*
X77106632Y-144993914D01*
X77182051Y-144811835D01*
X77210982Y-144666390D01*
X77220500Y-144618543D01*
X77759499Y-144618543D01*
X77797947Y-144811829D01*
X77797950Y-144811839D01*
X77873364Y-144993907D01*
X77873371Y-144993920D01*
X77982860Y-145157781D01*
X77982863Y-145157785D01*
X78122214Y-145297136D01*
X78122218Y-145297139D01*
X78286079Y-145406628D01*
X78286092Y-145406635D01*
X78445814Y-145472793D01*
X78468165Y-145482051D01*
X78468169Y-145482051D01*
X78468170Y-145482052D01*
X78661456Y-145520500D01*
X78661459Y-145520500D01*
X78858543Y-145520500D01*
X78988582Y-145494632D01*
X79051835Y-145482051D01*
X79229547Y-145408441D01*
X79233907Y-145406635D01*
X79233907Y-145406634D01*
X79233914Y-145406632D01*
X79397782Y-145297139D01*
X79537139Y-145157782D01*
X79646632Y-144993914D01*
X79722051Y-144811835D01*
X79750982Y-144666390D01*
X79760500Y-144618543D01*
X80299499Y-144618543D01*
X80337947Y-144811829D01*
X80337950Y-144811839D01*
X80413364Y-144993907D01*
X80413371Y-144993920D01*
X80522860Y-145157781D01*
X80522863Y-145157785D01*
X80662214Y-145297136D01*
X80662218Y-145297139D01*
X80826079Y-145406628D01*
X80826092Y-145406635D01*
X80985814Y-145472793D01*
X81008165Y-145482051D01*
X81008169Y-145482051D01*
X81008170Y-145482052D01*
X81201456Y-145520500D01*
X81201459Y-145520500D01*
X81398543Y-145520500D01*
X81528582Y-145494632D01*
X81591835Y-145482051D01*
X81769547Y-145408441D01*
X81773907Y-145406635D01*
X81773907Y-145406634D01*
X81773914Y-145406632D01*
X81937782Y-145297139D01*
X82077139Y-145157782D01*
X82186632Y-144993914D01*
X82262051Y-144811835D01*
X82290982Y-144666390D01*
X82300500Y-144618543D01*
X82839499Y-144618543D01*
X82877947Y-144811829D01*
X82877950Y-144811839D01*
X82953364Y-144993907D01*
X82953371Y-144993920D01*
X83062860Y-145157781D01*
X83062863Y-145157785D01*
X83202214Y-145297136D01*
X83202218Y-145297139D01*
X83366079Y-145406628D01*
X83366092Y-145406635D01*
X83525814Y-145472793D01*
X83548165Y-145482051D01*
X83548169Y-145482051D01*
X83548170Y-145482052D01*
X83741456Y-145520500D01*
X83741459Y-145520500D01*
X83938543Y-145520500D01*
X84068582Y-145494632D01*
X84131835Y-145482051D01*
X84309547Y-145408441D01*
X84313907Y-145406635D01*
X84313907Y-145406634D01*
X84313914Y-145406632D01*
X84477782Y-145297139D01*
X84617139Y-145157782D01*
X84726632Y-144993914D01*
X84802051Y-144811835D01*
X84830982Y-144666390D01*
X84840500Y-144618543D01*
X85379499Y-144618543D01*
X85417947Y-144811829D01*
X85417950Y-144811839D01*
X85493364Y-144993907D01*
X85493371Y-144993920D01*
X85602860Y-145157781D01*
X85602863Y-145157785D01*
X85742214Y-145297136D01*
X85742218Y-145297139D01*
X85906079Y-145406628D01*
X85906092Y-145406635D01*
X86065814Y-145472793D01*
X86088165Y-145482051D01*
X86088169Y-145482051D01*
X86088170Y-145482052D01*
X86281456Y-145520500D01*
X86281459Y-145520500D01*
X86478543Y-145520500D01*
X86608582Y-145494632D01*
X86671835Y-145482051D01*
X86849547Y-145408441D01*
X86853907Y-145406635D01*
X86853907Y-145406634D01*
X86853914Y-145406632D01*
X87017782Y-145297139D01*
X87157139Y-145157782D01*
X87266632Y-144993914D01*
X87342051Y-144811835D01*
X87370982Y-144666390D01*
X87380500Y-144618543D01*
X87919499Y-144618543D01*
X87957947Y-144811829D01*
X87957950Y-144811839D01*
X88033364Y-144993907D01*
X88033371Y-144993920D01*
X88142860Y-145157781D01*
X88142863Y-145157785D01*
X88282214Y-145297136D01*
X88282218Y-145297139D01*
X88446079Y-145406628D01*
X88446092Y-145406635D01*
X88605814Y-145472793D01*
X88628165Y-145482051D01*
X88628169Y-145482051D01*
X88628170Y-145482052D01*
X88821456Y-145520500D01*
X88821459Y-145520500D01*
X89018543Y-145520500D01*
X89148582Y-145494632D01*
X89211835Y-145482051D01*
X89389547Y-145408441D01*
X89393907Y-145406635D01*
X89393907Y-145406634D01*
X89393914Y-145406632D01*
X89557782Y-145297139D01*
X89697139Y-145157782D01*
X89806632Y-144993914D01*
X89882051Y-144811835D01*
X89910982Y-144666390D01*
X89920500Y-144618543D01*
X90459499Y-144618543D01*
X90497947Y-144811829D01*
X90497950Y-144811839D01*
X90573364Y-144993907D01*
X90573371Y-144993920D01*
X90682860Y-145157781D01*
X90682863Y-145157785D01*
X90822214Y-145297136D01*
X90822218Y-145297139D01*
X90986079Y-145406628D01*
X90986092Y-145406635D01*
X91145814Y-145472793D01*
X91168165Y-145482051D01*
X91168169Y-145482051D01*
X91168170Y-145482052D01*
X91361456Y-145520500D01*
X91361459Y-145520500D01*
X91558543Y-145520500D01*
X91688582Y-145494632D01*
X91751835Y-145482051D01*
X91929547Y-145408441D01*
X91933907Y-145406635D01*
X91933907Y-145406634D01*
X91933914Y-145406632D01*
X92097782Y-145297139D01*
X92237139Y-145157782D01*
X92346632Y-144993914D01*
X92422051Y-144811835D01*
X92450982Y-144666390D01*
X92460500Y-144618543D01*
X92999499Y-144618543D01*
X93037947Y-144811829D01*
X93037950Y-144811839D01*
X93113364Y-144993907D01*
X93113371Y-144993920D01*
X93222860Y-145157781D01*
X93222863Y-145157785D01*
X93362214Y-145297136D01*
X93362218Y-145297139D01*
X93526079Y-145406628D01*
X93526092Y-145406635D01*
X93685814Y-145472793D01*
X93708165Y-145482051D01*
X93708169Y-145482051D01*
X93708170Y-145482052D01*
X93901456Y-145520500D01*
X93901459Y-145520500D01*
X94098543Y-145520500D01*
X94228582Y-145494632D01*
X94291835Y-145482051D01*
X94469547Y-145408441D01*
X94473907Y-145406635D01*
X94473907Y-145406634D01*
X94473914Y-145406632D01*
X94637782Y-145297139D01*
X94777139Y-145157782D01*
X94886632Y-144993914D01*
X94962051Y-144811835D01*
X94990982Y-144666390D01*
X95000500Y-144618543D01*
X95539499Y-144618543D01*
X95577947Y-144811829D01*
X95577950Y-144811839D01*
X95653364Y-144993907D01*
X95653371Y-144993920D01*
X95762860Y-145157781D01*
X95762863Y-145157785D01*
X95902214Y-145297136D01*
X95902218Y-145297139D01*
X96066079Y-145406628D01*
X96066092Y-145406635D01*
X96225814Y-145472793D01*
X96248165Y-145482051D01*
X96248169Y-145482051D01*
X96248170Y-145482052D01*
X96441456Y-145520500D01*
X96441459Y-145520500D01*
X96638543Y-145520500D01*
X96768582Y-145494632D01*
X96831835Y-145482051D01*
X97009547Y-145408441D01*
X97013907Y-145406635D01*
X97013907Y-145406634D01*
X97013914Y-145406632D01*
X97177782Y-145297139D01*
X97317139Y-145157782D01*
X97363662Y-145088155D01*
X119086000Y-145088155D01*
X119086000Y-145640000D01*
X119906988Y-145640000D01*
X119874075Y-145697007D01*
X119840000Y-145824174D01*
X119840000Y-145955826D01*
X119874075Y-146082993D01*
X119906988Y-146140000D01*
X119086000Y-146140000D01*
X119086000Y-146691844D01*
X119092401Y-146751372D01*
X119092403Y-146751379D01*
X119142645Y-146886086D01*
X119142649Y-146886093D01*
X119228809Y-147001187D01*
X119228812Y-147001190D01*
X119343906Y-147087350D01*
X119343913Y-147087354D01*
X119478620Y-147137596D01*
X119478627Y-147137598D01*
X119538155Y-147143999D01*
X119538172Y-147144000D01*
X120090000Y-147144000D01*
X120090000Y-146323012D01*
X120147007Y-146355925D01*
X120274174Y-146390000D01*
X120405826Y-146390000D01*
X120532993Y-146355925D01*
X120590000Y-146323012D01*
X120590000Y-147144000D01*
X121141828Y-147144000D01*
X121141844Y-147143999D01*
X121201372Y-147137598D01*
X121201379Y-147137596D01*
X121336086Y-147087354D01*
X121336093Y-147087350D01*
X121451187Y-147001190D01*
X121451190Y-147001187D01*
X121537350Y-146886093D01*
X121537354Y-146886086D01*
X121587596Y-146751379D01*
X121587598Y-146751372D01*
X121593999Y-146691844D01*
X121594000Y-146691827D01*
X121594000Y-146635887D01*
X121613685Y-146568848D01*
X121666489Y-146523093D01*
X121735647Y-146513149D01*
X121799203Y-146542174D01*
X121818314Y-146562997D01*
X121871272Y-146635887D01*
X121923121Y-146707252D01*
X122062753Y-146846884D01*
X122182809Y-146934108D01*
X122222499Y-146962944D01*
X122398439Y-147052591D01*
X122505417Y-147087350D01*
X122586236Y-147113610D01*
X122781264Y-147144500D01*
X122781269Y-147144500D01*
X122978736Y-147144500D01*
X123173763Y-147113610D01*
X123361561Y-147052591D01*
X123537501Y-146962944D01*
X123643288Y-146886086D01*
X123697246Y-146846884D01*
X123697248Y-146846881D01*
X123697252Y-146846879D01*
X123836879Y-146707252D01*
X123836881Y-146707248D01*
X123836884Y-146707246D01*
X123952941Y-146547505D01*
X123952942Y-146547504D01*
X123952944Y-146547501D01*
X124039517Y-146377593D01*
X124087490Y-146326800D01*
X124155311Y-146310005D01*
X124221446Y-146332542D01*
X124260482Y-146377593D01*
X124329553Y-146513149D01*
X124347058Y-146547505D01*
X124463115Y-146707246D01*
X124602753Y-146846884D01*
X124722809Y-146934108D01*
X124762499Y-146962944D01*
X124938439Y-147052591D01*
X125045417Y-147087350D01*
X125126236Y-147113610D01*
X125321264Y-147144500D01*
X125321269Y-147144500D01*
X125518736Y-147144500D01*
X125713763Y-147113610D01*
X125901561Y-147052591D01*
X126077501Y-146962944D01*
X126183288Y-146886086D01*
X126237246Y-146846884D01*
X126237248Y-146846881D01*
X126237252Y-146846879D01*
X126376879Y-146707252D01*
X126376881Y-146707248D01*
X126376884Y-146707246D01*
X126492941Y-146547505D01*
X126492942Y-146547504D01*
X126492944Y-146547501D01*
X126579517Y-146377593D01*
X126627490Y-146326800D01*
X126695311Y-146310005D01*
X126761446Y-146332542D01*
X126800482Y-146377593D01*
X126869553Y-146513149D01*
X126887058Y-146547505D01*
X127003115Y-146707246D01*
X127142753Y-146846884D01*
X127262809Y-146934108D01*
X127302499Y-146962944D01*
X127478439Y-147052591D01*
X127585417Y-147087350D01*
X127666236Y-147113610D01*
X127861264Y-147144500D01*
X127861269Y-147144500D01*
X128058736Y-147144500D01*
X128253763Y-147113610D01*
X128441561Y-147052591D01*
X128617501Y-146962944D01*
X128723288Y-146886086D01*
X128777246Y-146846884D01*
X128777248Y-146846881D01*
X128777252Y-146846879D01*
X128916879Y-146707252D01*
X128916881Y-146707248D01*
X128916884Y-146707246D01*
X129032941Y-146547505D01*
X129032942Y-146547504D01*
X129032944Y-146547501D01*
X129119517Y-146377593D01*
X129167490Y-146326800D01*
X129235311Y-146310005D01*
X129301446Y-146332542D01*
X129340482Y-146377593D01*
X129409553Y-146513149D01*
X129427058Y-146547505D01*
X129543115Y-146707246D01*
X129682753Y-146846884D01*
X129802809Y-146934108D01*
X129842499Y-146962944D01*
X130018439Y-147052591D01*
X130125417Y-147087350D01*
X130206236Y-147113610D01*
X130401264Y-147144500D01*
X130401269Y-147144500D01*
X130598736Y-147144500D01*
X130793763Y-147113610D01*
X130981561Y-147052591D01*
X131157501Y-146962944D01*
X131263288Y-146886086D01*
X131317246Y-146846884D01*
X131317248Y-146846881D01*
X131317252Y-146846879D01*
X131456879Y-146707252D01*
X131456881Y-146707248D01*
X131456884Y-146707246D01*
X131572941Y-146547505D01*
X131572942Y-146547504D01*
X131572944Y-146547501D01*
X131659517Y-146377593D01*
X131707490Y-146326800D01*
X131775311Y-146310005D01*
X131841446Y-146332542D01*
X131880482Y-146377593D01*
X131949553Y-146513149D01*
X131967058Y-146547505D01*
X132083115Y-146707246D01*
X132222753Y-146846884D01*
X132342809Y-146934108D01*
X132382499Y-146962944D01*
X132558439Y-147052591D01*
X132665417Y-147087350D01*
X132746236Y-147113610D01*
X132941264Y-147144500D01*
X132941269Y-147144500D01*
X133138736Y-147144500D01*
X133333763Y-147113610D01*
X133521561Y-147052591D01*
X133697501Y-146962944D01*
X133803288Y-146886086D01*
X133857246Y-146846884D01*
X133857248Y-146846881D01*
X133857252Y-146846879D01*
X133996879Y-146707252D01*
X133996881Y-146707248D01*
X133996884Y-146707246D01*
X134112941Y-146547505D01*
X134112942Y-146547504D01*
X134112944Y-146547501D01*
X134199517Y-146377593D01*
X134247490Y-146326800D01*
X134315311Y-146310005D01*
X134381446Y-146332542D01*
X134420482Y-146377593D01*
X134489553Y-146513149D01*
X134507058Y-146547505D01*
X134623115Y-146707246D01*
X134762753Y-146846884D01*
X134882809Y-146934108D01*
X134922499Y-146962944D01*
X135098439Y-147052591D01*
X135205417Y-147087350D01*
X135286236Y-147113610D01*
X135481264Y-147144500D01*
X135481269Y-147144500D01*
X135678736Y-147144500D01*
X135873763Y-147113610D01*
X136061561Y-147052591D01*
X136237501Y-146962944D01*
X136343288Y-146886086D01*
X136397246Y-146846884D01*
X136397248Y-146846881D01*
X136397252Y-146846879D01*
X136536879Y-146707252D01*
X136536881Y-146707248D01*
X136536884Y-146707246D01*
X136652941Y-146547505D01*
X136652942Y-146547504D01*
X136652944Y-146547501D01*
X136739517Y-146377593D01*
X136787490Y-146326800D01*
X136855311Y-146310005D01*
X136921446Y-146332542D01*
X136960482Y-146377593D01*
X137029553Y-146513149D01*
X137047058Y-146547505D01*
X137163115Y-146707246D01*
X137302753Y-146846884D01*
X137422809Y-146934108D01*
X137462499Y-146962944D01*
X137638439Y-147052591D01*
X137745417Y-147087350D01*
X137826236Y-147113610D01*
X138021264Y-147144500D01*
X138021269Y-147144500D01*
X138218736Y-147144500D01*
X138413763Y-147113610D01*
X138601561Y-147052591D01*
X138777501Y-146962944D01*
X138883288Y-146886086D01*
X138937246Y-146846884D01*
X138937248Y-146846881D01*
X138937252Y-146846879D01*
X139076879Y-146707252D01*
X139076881Y-146707248D01*
X139076884Y-146707246D01*
X139192941Y-146547505D01*
X139192942Y-146547504D01*
X139192944Y-146547501D01*
X139279517Y-146377593D01*
X139327490Y-146326800D01*
X139395311Y-146310005D01*
X139461446Y-146332542D01*
X139500482Y-146377593D01*
X139569553Y-146513149D01*
X139587058Y-146547505D01*
X139703115Y-146707246D01*
X139842753Y-146846884D01*
X139962809Y-146934108D01*
X140002499Y-146962944D01*
X140178439Y-147052591D01*
X140285417Y-147087350D01*
X140366236Y-147113610D01*
X140561264Y-147144500D01*
X140561269Y-147144500D01*
X140758736Y-147144500D01*
X140953763Y-147113610D01*
X141141561Y-147052591D01*
X141317501Y-146962944D01*
X141423288Y-146886086D01*
X141477246Y-146846884D01*
X141477248Y-146846881D01*
X141477252Y-146846879D01*
X141616879Y-146707252D01*
X141616881Y-146707248D01*
X141616884Y-146707246D01*
X141668728Y-146635887D01*
X141732944Y-146547501D01*
X141822591Y-146371561D01*
X141883610Y-146183763D01*
X141914500Y-145988736D01*
X141914500Y-145791263D01*
X141883610Y-145596236D01*
X141846508Y-145482049D01*
X141822591Y-145408439D01*
X141732944Y-145232499D01*
X141721681Y-145216997D01*
X141616884Y-145072753D01*
X141477246Y-144933115D01*
X141317504Y-144817058D01*
X141317503Y-144817057D01*
X141317501Y-144817056D01*
X141141561Y-144727409D01*
X141119063Y-144720099D01*
X140953763Y-144666389D01*
X140758736Y-144635500D01*
X140758731Y-144635500D01*
X140561269Y-144635500D01*
X140561264Y-144635500D01*
X140366236Y-144666389D01*
X140178441Y-144727408D01*
X140002495Y-144817058D01*
X139842753Y-144933115D01*
X139703115Y-145072753D01*
X139587058Y-145232495D01*
X139587056Y-145232499D01*
X139505710Y-145392149D01*
X139500485Y-145402403D01*
X139452510Y-145453199D01*
X139384689Y-145469994D01*
X139318554Y-145447456D01*
X139279515Y-145402403D01*
X139274291Y-145392150D01*
X139192944Y-145232499D01*
X139181681Y-145216997D01*
X139076884Y-145072753D01*
X138937246Y-144933115D01*
X138777504Y-144817058D01*
X138777503Y-144817057D01*
X138777501Y-144817056D01*
X138601561Y-144727409D01*
X138579063Y-144720099D01*
X138413763Y-144666389D01*
X138218736Y-144635500D01*
X138218731Y-144635500D01*
X138021269Y-144635500D01*
X138021264Y-144635500D01*
X137826236Y-144666389D01*
X137638441Y-144727408D01*
X137462495Y-144817058D01*
X137302753Y-144933115D01*
X137163115Y-145072753D01*
X137047058Y-145232495D01*
X137047056Y-145232499D01*
X136965710Y-145392149D01*
X136960485Y-145402403D01*
X136912510Y-145453199D01*
X136844689Y-145469994D01*
X136778554Y-145447456D01*
X136739515Y-145402403D01*
X136734291Y-145392150D01*
X136652944Y-145232499D01*
X136641681Y-145216997D01*
X136536884Y-145072753D01*
X136397246Y-144933115D01*
X136237504Y-144817058D01*
X136237503Y-144817057D01*
X136237501Y-144817056D01*
X136061561Y-144727409D01*
X136039063Y-144720099D01*
X135873763Y-144666389D01*
X135678736Y-144635500D01*
X135678731Y-144635500D01*
X135481269Y-144635500D01*
X135481264Y-144635500D01*
X135286236Y-144666389D01*
X135098441Y-144727408D01*
X134922495Y-144817058D01*
X134762753Y-144933115D01*
X134623115Y-145072753D01*
X134507058Y-145232495D01*
X134507056Y-145232499D01*
X134425710Y-145392149D01*
X134420485Y-145402403D01*
X134372510Y-145453199D01*
X134304689Y-145469994D01*
X134238554Y-145447456D01*
X134199515Y-145402403D01*
X134194291Y-145392150D01*
X134112944Y-145232499D01*
X134101681Y-145216997D01*
X133996884Y-145072753D01*
X133857246Y-144933115D01*
X133697504Y-144817058D01*
X133697503Y-144817057D01*
X133697501Y-144817056D01*
X133521561Y-144727409D01*
X133499063Y-144720099D01*
X133333763Y-144666389D01*
X133138736Y-144635500D01*
X133138731Y-144635500D01*
X132941269Y-144635500D01*
X132941264Y-144635500D01*
X132746236Y-144666389D01*
X132558441Y-144727408D01*
X132382495Y-144817058D01*
X132222753Y-144933115D01*
X132083115Y-145072753D01*
X131967058Y-145232495D01*
X131967056Y-145232499D01*
X131885710Y-145392149D01*
X131880485Y-145402403D01*
X131832510Y-145453199D01*
X131764689Y-145469994D01*
X131698554Y-145447456D01*
X131659515Y-145402403D01*
X131654291Y-145392150D01*
X131572944Y-145232499D01*
X131561681Y-145216997D01*
X131456884Y-145072753D01*
X131317246Y-144933115D01*
X131157504Y-144817058D01*
X131157503Y-144817057D01*
X131157501Y-144817056D01*
X130981561Y-144727409D01*
X130959063Y-144720099D01*
X130793763Y-144666389D01*
X130598736Y-144635500D01*
X130598731Y-144635500D01*
X130401269Y-144635500D01*
X130401264Y-144635500D01*
X130206236Y-144666389D01*
X130018441Y-144727408D01*
X129842495Y-144817058D01*
X129682753Y-144933115D01*
X129543115Y-145072753D01*
X129427058Y-145232495D01*
X129427056Y-145232499D01*
X129345710Y-145392149D01*
X129340485Y-145402403D01*
X129292510Y-145453199D01*
X129224689Y-145469994D01*
X129158554Y-145447456D01*
X129119515Y-145402403D01*
X129114291Y-145392150D01*
X129032944Y-145232499D01*
X129021681Y-145216997D01*
X128916884Y-145072753D01*
X128777246Y-144933115D01*
X128617504Y-144817058D01*
X128617503Y-144817057D01*
X128617501Y-144817056D01*
X128441561Y-144727409D01*
X128419063Y-144720099D01*
X128253763Y-144666389D01*
X128058736Y-144635500D01*
X128058731Y-144635500D01*
X127861269Y-144635500D01*
X127861264Y-144635500D01*
X127666236Y-144666389D01*
X127478441Y-144727408D01*
X127302495Y-144817058D01*
X127142753Y-144933115D01*
X127003115Y-145072753D01*
X126887058Y-145232495D01*
X126887056Y-145232499D01*
X126805710Y-145392149D01*
X126800485Y-145402403D01*
X126752510Y-145453199D01*
X126684689Y-145469994D01*
X126618554Y-145447456D01*
X126579515Y-145402403D01*
X126574291Y-145392150D01*
X126492944Y-145232499D01*
X126481681Y-145216997D01*
X126376884Y-145072753D01*
X126237246Y-144933115D01*
X126077504Y-144817058D01*
X126077503Y-144817057D01*
X126077501Y-144817056D01*
X125901561Y-144727409D01*
X125879063Y-144720099D01*
X125713763Y-144666389D01*
X125518736Y-144635500D01*
X125518731Y-144635500D01*
X125321269Y-144635500D01*
X125321264Y-144635500D01*
X125126236Y-144666389D01*
X124938441Y-144727408D01*
X124762495Y-144817058D01*
X124602753Y-144933115D01*
X124463115Y-145072753D01*
X124347058Y-145232495D01*
X124347056Y-145232499D01*
X124265710Y-145392149D01*
X124260485Y-145402403D01*
X124212510Y-145453199D01*
X124144689Y-145469994D01*
X124078554Y-145447456D01*
X124039515Y-145402403D01*
X124034291Y-145392150D01*
X123952944Y-145232499D01*
X123941681Y-145216997D01*
X123836884Y-145072753D01*
X123697246Y-144933115D01*
X123537504Y-144817058D01*
X123537503Y-144817057D01*
X123537501Y-144817056D01*
X123361561Y-144727409D01*
X123339063Y-144720099D01*
X123173763Y-144666389D01*
X122978736Y-144635500D01*
X122978731Y-144635500D01*
X122781269Y-144635500D01*
X122781264Y-144635500D01*
X122586236Y-144666389D01*
X122398441Y-144727408D01*
X122222495Y-144817058D01*
X122062753Y-144933115D01*
X121923115Y-145072753D01*
X121818318Y-145216997D01*
X121762989Y-145259663D01*
X121693375Y-145265642D01*
X121631580Y-145233037D01*
X121597223Y-145172198D01*
X121594000Y-145144112D01*
X121594000Y-145088172D01*
X121593999Y-145088155D01*
X121587598Y-145028627D01*
X121587596Y-145028620D01*
X121537354Y-144893913D01*
X121537350Y-144893906D01*
X121451190Y-144778812D01*
X121451187Y-144778809D01*
X121336093Y-144692649D01*
X121336086Y-144692645D01*
X121201379Y-144642403D01*
X121201372Y-144642401D01*
X121141844Y-144636000D01*
X120590000Y-144636000D01*
X120590000Y-145456988D01*
X120532993Y-145424075D01*
X120405826Y-145390000D01*
X120274174Y-145390000D01*
X120147007Y-145424075D01*
X120090000Y-145456988D01*
X120090000Y-144636000D01*
X119538155Y-144636000D01*
X119478627Y-144642401D01*
X119478620Y-144642403D01*
X119343913Y-144692645D01*
X119343906Y-144692649D01*
X119228812Y-144778809D01*
X119228809Y-144778812D01*
X119142649Y-144893906D01*
X119142645Y-144893913D01*
X119092403Y-145028620D01*
X119092401Y-145028627D01*
X119086000Y-145088155D01*
X97363662Y-145088155D01*
X97403438Y-145028627D01*
X97411902Y-145015960D01*
X97426628Y-144993920D01*
X97426628Y-144993919D01*
X97426632Y-144993914D01*
X97502051Y-144811835D01*
X97530982Y-144666390D01*
X97540500Y-144618543D01*
X97540500Y-143421456D01*
X97502052Y-143228170D01*
X97502051Y-143228169D01*
X97502051Y-143228165D01*
X97496839Y-143215582D01*
X97426635Y-143046092D01*
X97426628Y-143046079D01*
X97317139Y-142882218D01*
X97317136Y-142882214D01*
X97177785Y-142742863D01*
X97177781Y-142742860D01*
X97013920Y-142633371D01*
X97013907Y-142633364D01*
X96831839Y-142557950D01*
X96831829Y-142557947D01*
X96638543Y-142519500D01*
X96638541Y-142519500D01*
X96441459Y-142519500D01*
X96441457Y-142519500D01*
X96248170Y-142557947D01*
X96248160Y-142557950D01*
X96066092Y-142633364D01*
X96066079Y-142633371D01*
X95902218Y-142742860D01*
X95902214Y-142742863D01*
X95762863Y-142882214D01*
X95762860Y-142882218D01*
X95653371Y-143046079D01*
X95653364Y-143046092D01*
X95577950Y-143228160D01*
X95577947Y-143228170D01*
X95539500Y-143421456D01*
X95539500Y-143421459D01*
X95539500Y-144618541D01*
X95539500Y-144618543D01*
X95539499Y-144618543D01*
X95000500Y-144618543D01*
X95000500Y-143421456D01*
X94962052Y-143228170D01*
X94962051Y-143228169D01*
X94962051Y-143228165D01*
X94956839Y-143215582D01*
X94886635Y-143046092D01*
X94886628Y-143046079D01*
X94777139Y-142882218D01*
X94777136Y-142882214D01*
X94637785Y-142742863D01*
X94637781Y-142742860D01*
X94473920Y-142633371D01*
X94473907Y-142633364D01*
X94291839Y-142557950D01*
X94291829Y-142557947D01*
X94098543Y-142519500D01*
X94098541Y-142519500D01*
X93901459Y-142519500D01*
X93901457Y-142519500D01*
X93708170Y-142557947D01*
X93708160Y-142557950D01*
X93526092Y-142633364D01*
X93526079Y-142633371D01*
X93362218Y-142742860D01*
X93362214Y-142742863D01*
X93222863Y-142882214D01*
X93222860Y-142882218D01*
X93113371Y-143046079D01*
X93113364Y-143046092D01*
X93037950Y-143228160D01*
X93037947Y-143228170D01*
X92999500Y-143421456D01*
X92999500Y-143421459D01*
X92999500Y-144618541D01*
X92999500Y-144618543D01*
X92999499Y-144618543D01*
X92460500Y-144618543D01*
X92460500Y-143421456D01*
X92422052Y-143228170D01*
X92422051Y-143228169D01*
X92422051Y-143228165D01*
X92416839Y-143215582D01*
X92346635Y-143046092D01*
X92346628Y-143046079D01*
X92237139Y-142882218D01*
X92237136Y-142882214D01*
X92097785Y-142742863D01*
X92097781Y-142742860D01*
X91933920Y-142633371D01*
X91933907Y-142633364D01*
X91751839Y-142557950D01*
X91751829Y-142557947D01*
X91558543Y-142519500D01*
X91558541Y-142519500D01*
X91361459Y-142519500D01*
X91361457Y-142519500D01*
X91168170Y-142557947D01*
X91168160Y-142557950D01*
X90986092Y-142633364D01*
X90986079Y-142633371D01*
X90822218Y-142742860D01*
X90822214Y-142742863D01*
X90682863Y-142882214D01*
X90682860Y-142882218D01*
X90573371Y-143046079D01*
X90573364Y-143046092D01*
X90497950Y-143228160D01*
X90497947Y-143228170D01*
X90459500Y-143421456D01*
X90459500Y-143421459D01*
X90459500Y-144618541D01*
X90459500Y-144618543D01*
X90459499Y-144618543D01*
X89920500Y-144618543D01*
X89920500Y-143421456D01*
X89882052Y-143228170D01*
X89882051Y-143228169D01*
X89882051Y-143228165D01*
X89876839Y-143215582D01*
X89806635Y-143046092D01*
X89806628Y-143046079D01*
X89697139Y-142882218D01*
X89697136Y-142882214D01*
X89557785Y-142742863D01*
X89557781Y-142742860D01*
X89393920Y-142633371D01*
X89393907Y-142633364D01*
X89211839Y-142557950D01*
X89211829Y-142557947D01*
X89018543Y-142519500D01*
X89018541Y-142519500D01*
X88821459Y-142519500D01*
X88821457Y-142519500D01*
X88628170Y-142557947D01*
X88628160Y-142557950D01*
X88446092Y-142633364D01*
X88446079Y-142633371D01*
X88282218Y-142742860D01*
X88282214Y-142742863D01*
X88142863Y-142882214D01*
X88142860Y-142882218D01*
X88033371Y-143046079D01*
X88033364Y-143046092D01*
X87957950Y-143228160D01*
X87957947Y-143228170D01*
X87919500Y-143421456D01*
X87919500Y-143421459D01*
X87919500Y-144618541D01*
X87919500Y-144618543D01*
X87919499Y-144618543D01*
X87380500Y-144618543D01*
X87380500Y-143421456D01*
X87342052Y-143228170D01*
X87342051Y-143228169D01*
X87342051Y-143228165D01*
X87336839Y-143215582D01*
X87266635Y-143046092D01*
X87266628Y-143046079D01*
X87157139Y-142882218D01*
X87157136Y-142882214D01*
X87017785Y-142742863D01*
X87017781Y-142742860D01*
X86853920Y-142633371D01*
X86853907Y-142633364D01*
X86671839Y-142557950D01*
X86671829Y-142557947D01*
X86478543Y-142519500D01*
X86478541Y-142519500D01*
X86281459Y-142519500D01*
X86281457Y-142519500D01*
X86088170Y-142557947D01*
X86088160Y-142557950D01*
X85906092Y-142633364D01*
X85906079Y-142633371D01*
X85742218Y-142742860D01*
X85742214Y-142742863D01*
X85602863Y-142882214D01*
X85602860Y-142882218D01*
X85493371Y-143046079D01*
X85493364Y-143046092D01*
X85417950Y-143228160D01*
X85417947Y-143228170D01*
X85379500Y-143421456D01*
X85379500Y-143421459D01*
X85379500Y-144618541D01*
X85379500Y-144618543D01*
X85379499Y-144618543D01*
X84840500Y-144618543D01*
X84840500Y-143421456D01*
X84802052Y-143228170D01*
X84802051Y-143228169D01*
X84802051Y-143228165D01*
X84796839Y-143215582D01*
X84726635Y-143046092D01*
X84726628Y-143046079D01*
X84617139Y-142882218D01*
X84617136Y-142882214D01*
X84477785Y-142742863D01*
X84477781Y-142742860D01*
X84313920Y-142633371D01*
X84313907Y-142633364D01*
X84131839Y-142557950D01*
X84131829Y-142557947D01*
X83938543Y-142519500D01*
X83938541Y-142519500D01*
X83741459Y-142519500D01*
X83741457Y-142519500D01*
X83548170Y-142557947D01*
X83548160Y-142557950D01*
X83366092Y-142633364D01*
X83366079Y-142633371D01*
X83202218Y-142742860D01*
X83202214Y-142742863D01*
X83062863Y-142882214D01*
X83062860Y-142882218D01*
X82953371Y-143046079D01*
X82953364Y-143046092D01*
X82877950Y-143228160D01*
X82877947Y-143228170D01*
X82839500Y-143421456D01*
X82839500Y-143421459D01*
X82839500Y-144618541D01*
X82839500Y-144618543D01*
X82839499Y-144618543D01*
X82300500Y-144618543D01*
X82300500Y-143421456D01*
X82262052Y-143228170D01*
X82262051Y-143228169D01*
X82262051Y-143228165D01*
X82256839Y-143215582D01*
X82186635Y-143046092D01*
X82186628Y-143046079D01*
X82077139Y-142882218D01*
X82077136Y-142882214D01*
X81937785Y-142742863D01*
X81937781Y-142742860D01*
X81773920Y-142633371D01*
X81773907Y-142633364D01*
X81591839Y-142557950D01*
X81591829Y-142557947D01*
X81398543Y-142519500D01*
X81398541Y-142519500D01*
X81201459Y-142519500D01*
X81201457Y-142519500D01*
X81008170Y-142557947D01*
X81008160Y-142557950D01*
X80826092Y-142633364D01*
X80826079Y-142633371D01*
X80662218Y-142742860D01*
X80662214Y-142742863D01*
X80522863Y-142882214D01*
X80522860Y-142882218D01*
X80413371Y-143046079D01*
X80413364Y-143046092D01*
X80337950Y-143228160D01*
X80337947Y-143228170D01*
X80299500Y-143421456D01*
X80299500Y-143421459D01*
X80299500Y-144618541D01*
X80299500Y-144618543D01*
X80299499Y-144618543D01*
X79760500Y-144618543D01*
X79760500Y-143421456D01*
X79722052Y-143228170D01*
X79722051Y-143228169D01*
X79722051Y-143228165D01*
X79716839Y-143215582D01*
X79646635Y-143046092D01*
X79646628Y-143046079D01*
X79537139Y-142882218D01*
X79537136Y-142882214D01*
X79397785Y-142742863D01*
X79397781Y-142742860D01*
X79233920Y-142633371D01*
X79233907Y-142633364D01*
X79051839Y-142557950D01*
X79051829Y-142557947D01*
X78858543Y-142519500D01*
X78858541Y-142519500D01*
X78661459Y-142519500D01*
X78661457Y-142519500D01*
X78468170Y-142557947D01*
X78468160Y-142557950D01*
X78286092Y-142633364D01*
X78286079Y-142633371D01*
X78122218Y-142742860D01*
X78122214Y-142742863D01*
X77982863Y-142882214D01*
X77982860Y-142882218D01*
X77873371Y-143046079D01*
X77873364Y-143046092D01*
X77797950Y-143228160D01*
X77797947Y-143228170D01*
X77759500Y-143421456D01*
X77759500Y-143421459D01*
X77759500Y-144618541D01*
X77759500Y-144618543D01*
X77759499Y-144618543D01*
X77220500Y-144618543D01*
X77220500Y-143421456D01*
X77182052Y-143228170D01*
X77182051Y-143228169D01*
X77182051Y-143228165D01*
X77176839Y-143215582D01*
X77106635Y-143046092D01*
X77106628Y-143046079D01*
X76997139Y-142882218D01*
X76997136Y-142882214D01*
X76857785Y-142742863D01*
X76857781Y-142742860D01*
X76693920Y-142633371D01*
X76693907Y-142633364D01*
X76511839Y-142557950D01*
X76511829Y-142557947D01*
X76318543Y-142519500D01*
X76318541Y-142519500D01*
X76121459Y-142519500D01*
X76121457Y-142519500D01*
X75928170Y-142557947D01*
X75928160Y-142557950D01*
X75746092Y-142633364D01*
X75746079Y-142633371D01*
X75582218Y-142742860D01*
X75582214Y-142742863D01*
X75442863Y-142882214D01*
X75442860Y-142882218D01*
X75333371Y-143046079D01*
X75333364Y-143046092D01*
X75257950Y-143228160D01*
X75257947Y-143228170D01*
X75219500Y-143421456D01*
X75219500Y-143421459D01*
X75219500Y-144618541D01*
X75219500Y-144618543D01*
X75219499Y-144618543D01*
X74680500Y-144618543D01*
X74680500Y-143421456D01*
X74642052Y-143228170D01*
X74642051Y-143228169D01*
X74642051Y-143228165D01*
X74636839Y-143215582D01*
X74566635Y-143046092D01*
X74566628Y-143046079D01*
X74457139Y-142882218D01*
X74457136Y-142882214D01*
X74317785Y-142742863D01*
X74317781Y-142742860D01*
X74153920Y-142633371D01*
X74153907Y-142633364D01*
X73971839Y-142557950D01*
X73971829Y-142557947D01*
X73778543Y-142519500D01*
X73778541Y-142519500D01*
X73581459Y-142519500D01*
X73581457Y-142519500D01*
X73388170Y-142557947D01*
X73388160Y-142557950D01*
X73206092Y-142633364D01*
X73206079Y-142633371D01*
X73042218Y-142742860D01*
X73042214Y-142742863D01*
X72902863Y-142882214D01*
X72902860Y-142882218D01*
X72793371Y-143046079D01*
X72793364Y-143046092D01*
X72717950Y-143228160D01*
X72717947Y-143228170D01*
X72679500Y-143421456D01*
X72679500Y-143421459D01*
X72679500Y-144618541D01*
X72679500Y-144618543D01*
X72679499Y-144618543D01*
X72140500Y-144618543D01*
X72140500Y-143421456D01*
X72102052Y-143228170D01*
X72102051Y-143228169D01*
X72102051Y-143228165D01*
X72096839Y-143215582D01*
X72026635Y-143046092D01*
X72026628Y-143046079D01*
X71917139Y-142882218D01*
X71917136Y-142882214D01*
X71777785Y-142742863D01*
X71777781Y-142742860D01*
X71613920Y-142633371D01*
X71613907Y-142633364D01*
X71431839Y-142557950D01*
X71431829Y-142557947D01*
X71238543Y-142519500D01*
X71238541Y-142519500D01*
X71041459Y-142519500D01*
X71041457Y-142519500D01*
X70848170Y-142557947D01*
X70848160Y-142557950D01*
X70666092Y-142633364D01*
X70666079Y-142633371D01*
X70502218Y-142742860D01*
X70502214Y-142742863D01*
X70362863Y-142882214D01*
X70362860Y-142882218D01*
X70253371Y-143046079D01*
X70253364Y-143046092D01*
X70177950Y-143228160D01*
X70177947Y-143228170D01*
X70139500Y-143421456D01*
X70139500Y-143421459D01*
X70139500Y-144618541D01*
X70139500Y-144618543D01*
X70139499Y-144618543D01*
X69600500Y-144618543D01*
X69600500Y-143421456D01*
X69562052Y-143228170D01*
X69562051Y-143228169D01*
X69562051Y-143228165D01*
X69556839Y-143215582D01*
X69486635Y-143046092D01*
X69486628Y-143046079D01*
X69377139Y-142882218D01*
X69377136Y-142882214D01*
X69237785Y-142742863D01*
X69237781Y-142742860D01*
X69073920Y-142633371D01*
X69073907Y-142633364D01*
X68891839Y-142557950D01*
X68891829Y-142557947D01*
X68698543Y-142519500D01*
X68698541Y-142519500D01*
X68501459Y-142519500D01*
X68501457Y-142519500D01*
X68308170Y-142557947D01*
X68308160Y-142557950D01*
X68126092Y-142633364D01*
X68126079Y-142633371D01*
X67962218Y-142742860D01*
X67962214Y-142742863D01*
X67822863Y-142882214D01*
X67822860Y-142882218D01*
X67713371Y-143046079D01*
X67713364Y-143046092D01*
X67637950Y-143228160D01*
X67637947Y-143228170D01*
X67599500Y-143421456D01*
X67599500Y-143421459D01*
X67599500Y-144618541D01*
X67599500Y-144618543D01*
X67599499Y-144618543D01*
X67060500Y-144618543D01*
X67060500Y-143421456D01*
X67022052Y-143228170D01*
X67022051Y-143228169D01*
X67022051Y-143228165D01*
X67016839Y-143215582D01*
X66946635Y-143046092D01*
X66946628Y-143046079D01*
X66837139Y-142882218D01*
X66837136Y-142882214D01*
X66697785Y-142742863D01*
X66697781Y-142742860D01*
X66533920Y-142633371D01*
X66533907Y-142633364D01*
X66351839Y-142557950D01*
X66351829Y-142557947D01*
X66158543Y-142519500D01*
X66158541Y-142519500D01*
X65961459Y-142519500D01*
X65961457Y-142519500D01*
X65768170Y-142557947D01*
X65768160Y-142557950D01*
X65586092Y-142633364D01*
X65586079Y-142633371D01*
X65422218Y-142742860D01*
X65422214Y-142742863D01*
X65282863Y-142882214D01*
X65282860Y-142882218D01*
X65173371Y-143046079D01*
X65173364Y-143046092D01*
X65097950Y-143228160D01*
X65097947Y-143228170D01*
X65059500Y-143421456D01*
X65059500Y-143421459D01*
X65059500Y-144618541D01*
X65059500Y-144618543D01*
X65059499Y-144618543D01*
X64520500Y-144618543D01*
X64520500Y-143421456D01*
X64482052Y-143228170D01*
X64482051Y-143228169D01*
X64482051Y-143228165D01*
X64476839Y-143215582D01*
X64406635Y-143046092D01*
X64406628Y-143046079D01*
X64297139Y-142882218D01*
X64297136Y-142882214D01*
X64157785Y-142742863D01*
X64157781Y-142742860D01*
X63993920Y-142633371D01*
X63993907Y-142633364D01*
X63811839Y-142557950D01*
X63811829Y-142557947D01*
X63618543Y-142519500D01*
X63618541Y-142519500D01*
X63421459Y-142519500D01*
X63421457Y-142519500D01*
X63228170Y-142557947D01*
X63228160Y-142557950D01*
X63046092Y-142633364D01*
X63046079Y-142633371D01*
X62882218Y-142742860D01*
X62882214Y-142742863D01*
X62742863Y-142882214D01*
X62742860Y-142882218D01*
X62633371Y-143046079D01*
X62633364Y-143046092D01*
X62557950Y-143228160D01*
X62557947Y-143228170D01*
X62521965Y-143409062D01*
X62489580Y-143470973D01*
X62428864Y-143505547D01*
X62359094Y-143501806D01*
X62302423Y-143460940D01*
X62277875Y-143404268D01*
X62247990Y-143215582D01*
X62184755Y-143020968D01*
X62091859Y-142838650D01*
X61971582Y-142673105D01*
X61971582Y-142673104D01*
X61826895Y-142528417D01*
X61661349Y-142408140D01*
X61479029Y-142315244D01*
X61284413Y-142252009D01*
X61230000Y-142243390D01*
X61230000Y-143886988D01*
X61172993Y-143854075D01*
X61045826Y-143820000D01*
X60914174Y-143820000D01*
X60787007Y-143854075D01*
X60730000Y-143886988D01*
X60730000Y-142243390D01*
X60675586Y-142252009D01*
X60480970Y-142315244D01*
X60298650Y-142408140D01*
X60133105Y-142528417D01*
X60133104Y-142528417D01*
X59988417Y-142673104D01*
X59988417Y-142673105D01*
X59868140Y-142838650D01*
X59775244Y-143020968D01*
X59712009Y-143215582D01*
X59686973Y-143373657D01*
X59657044Y-143436792D01*
X59597732Y-143473723D01*
X59527870Y-143472725D01*
X59469637Y-143434115D01*
X59441523Y-143370151D01*
X59440500Y-143354259D01*
X59440500Y-142915730D01*
X59437646Y-142885300D01*
X59437646Y-142885298D01*
X59392793Y-142757119D01*
X59392792Y-142757117D01*
X59382270Y-142742860D01*
X59312150Y-142647850D01*
X59202882Y-142567207D01*
X59202880Y-142567206D01*
X59074700Y-142522353D01*
X59044270Y-142519500D01*
X59044266Y-142519500D01*
X57835734Y-142519500D01*
X57835730Y-142519500D01*
X57805300Y-142522353D01*
X57805298Y-142522353D01*
X57677119Y-142567206D01*
X57677117Y-142567207D01*
X57567850Y-142647850D01*
X57487207Y-142757117D01*
X57487206Y-142757119D01*
X57442353Y-142885298D01*
X57442353Y-142885300D01*
X57439500Y-142915730D01*
X39000500Y-142915730D01*
X39000500Y-140421153D01*
X127199500Y-140421153D01*
X127199500Y-140578846D01*
X127230261Y-140733489D01*
X127230264Y-140733501D01*
X127290602Y-140879172D01*
X127290609Y-140879185D01*
X127378210Y-141010288D01*
X127378213Y-141010292D01*
X127489707Y-141121786D01*
X127489711Y-141121789D01*
X127620814Y-141209390D01*
X127620827Y-141209397D01*
X127766498Y-141269735D01*
X127766503Y-141269737D01*
X127921153Y-141300499D01*
X127921156Y-141300500D01*
X127921158Y-141300500D01*
X128078844Y-141300500D01*
X128078845Y-141300499D01*
X128233497Y-141269737D01*
X128379179Y-141209394D01*
X128510289Y-141121789D01*
X128621789Y-141010289D01*
X128709394Y-140879179D01*
X128769737Y-140733497D01*
X128800500Y-140578842D01*
X128800500Y-140421158D01*
X128800500Y-140421155D01*
X128800499Y-140421153D01*
X128769738Y-140266510D01*
X128769737Y-140266503D01*
X128769735Y-140266498D01*
X128709397Y-140120827D01*
X128709390Y-140120814D01*
X128621789Y-139989711D01*
X128621786Y-139989707D01*
X128510292Y-139878213D01*
X128510288Y-139878210D01*
X128379185Y-139790609D01*
X128379172Y-139790602D01*
X128233501Y-139730264D01*
X128233489Y-139730261D01*
X128078845Y-139699500D01*
X128078842Y-139699500D01*
X127921158Y-139699500D01*
X127921155Y-139699500D01*
X127766510Y-139730261D01*
X127766498Y-139730264D01*
X127620827Y-139790602D01*
X127620814Y-139790609D01*
X127489711Y-139878210D01*
X127489707Y-139878213D01*
X127378213Y-139989707D01*
X127378210Y-139989711D01*
X127290609Y-140120814D01*
X127290602Y-140120827D01*
X127230264Y-140266498D01*
X127230261Y-140266510D01*
X127199500Y-140421153D01*
X39000500Y-140421153D01*
X39000500Y-137878711D01*
X109149500Y-137878711D01*
X109149500Y-138121288D01*
X109181161Y-138361785D01*
X109243947Y-138596104D01*
X109336773Y-138820205D01*
X109336776Y-138820212D01*
X109458064Y-139030289D01*
X109458066Y-139030292D01*
X109458067Y-139030293D01*
X109605733Y-139222736D01*
X109605739Y-139222743D01*
X109777256Y-139394260D01*
X109777262Y-139394265D01*
X109969711Y-139541936D01*
X110179788Y-139663224D01*
X110403900Y-139756054D01*
X110638211Y-139818838D01*
X110818586Y-139842584D01*
X110878711Y-139850500D01*
X110878712Y-139850500D01*
X111121289Y-139850500D01*
X111169388Y-139844167D01*
X111361789Y-139818838D01*
X111596100Y-139756054D01*
X111820212Y-139663224D01*
X112030289Y-139541936D01*
X112222738Y-139394265D01*
X112394265Y-139222738D01*
X112541936Y-139030289D01*
X112663224Y-138820212D01*
X112756054Y-138596100D01*
X112818838Y-138361789D01*
X112850500Y-138121288D01*
X112850500Y-137878712D01*
X112818838Y-137638211D01*
X112756054Y-137403900D01*
X112663224Y-137179788D01*
X112541936Y-136969711D01*
X112394265Y-136777262D01*
X112394260Y-136777256D01*
X112222743Y-136605739D01*
X112222736Y-136605733D01*
X112030293Y-136458067D01*
X112030292Y-136458066D01*
X112030289Y-136458064D01*
X111820212Y-136336776D01*
X111820205Y-136336773D01*
X111596104Y-136243947D01*
X111361785Y-136181161D01*
X111121289Y-136149500D01*
X111121288Y-136149500D01*
X110878712Y-136149500D01*
X110878711Y-136149500D01*
X110638214Y-136181161D01*
X110403895Y-136243947D01*
X110179794Y-136336773D01*
X110179785Y-136336777D01*
X109969706Y-136458067D01*
X109777263Y-136605733D01*
X109777256Y-136605739D01*
X109605739Y-136777256D01*
X109605733Y-136777263D01*
X109458067Y-136969706D01*
X109336777Y-137179785D01*
X109336773Y-137179794D01*
X109243947Y-137403895D01*
X109181161Y-137638214D01*
X109149500Y-137878711D01*
X39000500Y-137878711D01*
X39000500Y-127961962D01*
X118081500Y-127961962D01*
X118081500Y-128258037D01*
X118113685Y-128502503D01*
X118120144Y-128551557D01*
X118196769Y-128837529D01*
X118310067Y-129111052D01*
X118310070Y-129111059D01*
X118310071Y-129111060D01*
X118458096Y-129367447D01*
X118638324Y-129602326D01*
X118638330Y-129602333D01*
X118847666Y-129811669D01*
X118847673Y-129811675D01*
X119082552Y-129991903D01*
X119338939Y-130139928D01*
X119338940Y-130139929D01*
X119338943Y-130139930D01*
X119338948Y-130139933D01*
X119612471Y-130253231D01*
X119898443Y-130329856D01*
X120191970Y-130368500D01*
X120191977Y-130368500D01*
X120488023Y-130368500D01*
X120488030Y-130368500D01*
X120781557Y-130329856D01*
X121067529Y-130253231D01*
X121341052Y-130139933D01*
X121597448Y-129991903D01*
X121832328Y-129811674D01*
X122041674Y-129602328D01*
X122221903Y-129367448D01*
X122369933Y-129111052D01*
X122483231Y-128837529D01*
X122559856Y-128551557D01*
X122598500Y-128258030D01*
X122598500Y-127961970D01*
X122598499Y-127961962D01*
X138401500Y-127961962D01*
X138401500Y-128258037D01*
X138433685Y-128502503D01*
X138440144Y-128551557D01*
X138516769Y-128837529D01*
X138630067Y-129111052D01*
X138630070Y-129111059D01*
X138630071Y-129111060D01*
X138778096Y-129367447D01*
X138958324Y-129602326D01*
X138958330Y-129602333D01*
X139167666Y-129811669D01*
X139167673Y-129811675D01*
X139402552Y-129991903D01*
X139658939Y-130139928D01*
X139658940Y-130139929D01*
X139658943Y-130139930D01*
X139658948Y-130139933D01*
X139932471Y-130253231D01*
X140218443Y-130329856D01*
X140511970Y-130368500D01*
X140511977Y-130368500D01*
X140808023Y-130368500D01*
X140808030Y-130368500D01*
X141101557Y-130329856D01*
X141387529Y-130253231D01*
X141661052Y-130139933D01*
X141917448Y-129991903D01*
X142152328Y-129811674D01*
X142361674Y-129602328D01*
X142541903Y-129367448D01*
X142689933Y-129111052D01*
X142803231Y-128837529D01*
X142879856Y-128551557D01*
X142918500Y-128258030D01*
X142918500Y-127961970D01*
X142879856Y-127668443D01*
X142803231Y-127382471D01*
X142689933Y-127108948D01*
X142689930Y-127108943D01*
X142689929Y-127108940D01*
X142689928Y-127108939D01*
X142541903Y-126852552D01*
X142361675Y-126617673D01*
X142361669Y-126617666D01*
X142152333Y-126408330D01*
X142152326Y-126408324D01*
X141917447Y-126228096D01*
X141661060Y-126080071D01*
X141661059Y-126080070D01*
X141661052Y-126080067D01*
X141387529Y-125966769D01*
X141101557Y-125890144D01*
X141052503Y-125883685D01*
X140808037Y-125851500D01*
X140808030Y-125851500D01*
X140511970Y-125851500D01*
X140511962Y-125851500D01*
X140232571Y-125888283D01*
X140218443Y-125890144D01*
X140123119Y-125915685D01*
X139932477Y-125966767D01*
X139932473Y-125966768D01*
X139932471Y-125966769D01*
X139932464Y-125966772D01*
X139658940Y-126080070D01*
X139658939Y-126080071D01*
X139402552Y-126228096D01*
X139167673Y-126408324D01*
X139167666Y-126408330D01*
X138958330Y-126617666D01*
X138958324Y-126617673D01*
X138778096Y-126852552D01*
X138630071Y-127108939D01*
X138630070Y-127108940D01*
X138516772Y-127382464D01*
X138516767Y-127382477D01*
X138440145Y-127668440D01*
X138440143Y-127668451D01*
X138401500Y-127961962D01*
X122598499Y-127961962D01*
X122559856Y-127668443D01*
X122483231Y-127382471D01*
X122369933Y-127108948D01*
X122369930Y-127108943D01*
X122369929Y-127108940D01*
X122369928Y-127108939D01*
X122221903Y-126852552D01*
X122041675Y-126617673D01*
X122041669Y-126617666D01*
X121832333Y-126408330D01*
X121832326Y-126408324D01*
X121597447Y-126228096D01*
X121341060Y-126080071D01*
X121341059Y-126080070D01*
X121341052Y-126080067D01*
X121067529Y-125966769D01*
X120781557Y-125890144D01*
X120732503Y-125883685D01*
X120488037Y-125851500D01*
X120488030Y-125851500D01*
X120191970Y-125851500D01*
X120191962Y-125851500D01*
X119912571Y-125888283D01*
X119898443Y-125890144D01*
X119803119Y-125915685D01*
X119612477Y-125966767D01*
X119612473Y-125966768D01*
X119612471Y-125966769D01*
X119612464Y-125966772D01*
X119338940Y-126080070D01*
X119338939Y-126080071D01*
X119082552Y-126228096D01*
X118847673Y-126408324D01*
X118847666Y-126408330D01*
X118638330Y-126617666D01*
X118638324Y-126617673D01*
X118458096Y-126852552D01*
X118310071Y-127108939D01*
X118310070Y-127108940D01*
X118196772Y-127382464D01*
X118196767Y-127382477D01*
X118120145Y-127668440D01*
X118120143Y-127668451D01*
X118081500Y-127961962D01*
X39000500Y-127961962D01*
X39000500Y-126507882D01*
X107345669Y-126507882D01*
X107345670Y-126507883D01*
X107371059Y-126526329D01*
X107539362Y-126612085D01*
X107718997Y-126670451D01*
X107905553Y-126700000D01*
X108094447Y-126700000D01*
X108281002Y-126670451D01*
X108460637Y-126612085D01*
X108628937Y-126526331D01*
X108654328Y-126507883D01*
X108654328Y-126507882D01*
X108000001Y-125853554D01*
X108000000Y-125853554D01*
X107345669Y-126507882D01*
X39000500Y-126507882D01*
X39000500Y-123378711D01*
X42149500Y-123378711D01*
X42149500Y-123621288D01*
X42181161Y-123861785D01*
X42243947Y-124096104D01*
X42328404Y-124300000D01*
X42336776Y-124320212D01*
X42458064Y-124530289D01*
X42458066Y-124530292D01*
X42458067Y-124530293D01*
X42605733Y-124722736D01*
X42605739Y-124722743D01*
X42777256Y-124894260D01*
X42777263Y-124894266D01*
X42782837Y-124898543D01*
X42969711Y-125041936D01*
X43179788Y-125163224D01*
X43403900Y-125256054D01*
X43638211Y-125318838D01*
X43818586Y-125342584D01*
X43878711Y-125350500D01*
X43878712Y-125350500D01*
X44121289Y-125350500D01*
X44169388Y-125344167D01*
X44361789Y-125318838D01*
X44596100Y-125256054D01*
X44820212Y-125163224D01*
X45030289Y-125041936D01*
X45217163Y-124898543D01*
X67599499Y-124898543D01*
X67637947Y-125091829D01*
X67637950Y-125091839D01*
X67713364Y-125273907D01*
X67713371Y-125273920D01*
X67822860Y-125437781D01*
X67822863Y-125437785D01*
X67962214Y-125577136D01*
X67962218Y-125577139D01*
X68126079Y-125686628D01*
X68126092Y-125686635D01*
X68308160Y-125762049D01*
X68308165Y-125762051D01*
X68308169Y-125762051D01*
X68308170Y-125762052D01*
X68501456Y-125800500D01*
X68501459Y-125800500D01*
X68698543Y-125800500D01*
X68828582Y-125774632D01*
X68891835Y-125762051D01*
X69073914Y-125686632D01*
X69237782Y-125577139D01*
X69377139Y-125437782D01*
X69486632Y-125273914D01*
X69562051Y-125091835D01*
X69600500Y-124898543D01*
X70139499Y-124898543D01*
X70177947Y-125091829D01*
X70177950Y-125091839D01*
X70253364Y-125273907D01*
X70253371Y-125273920D01*
X70362860Y-125437781D01*
X70362863Y-125437785D01*
X70502214Y-125577136D01*
X70502218Y-125577139D01*
X70666079Y-125686628D01*
X70666092Y-125686635D01*
X70848160Y-125762049D01*
X70848165Y-125762051D01*
X70848169Y-125762051D01*
X70848170Y-125762052D01*
X71041456Y-125800500D01*
X71041459Y-125800500D01*
X71238543Y-125800500D01*
X71368582Y-125774632D01*
X71431835Y-125762051D01*
X71613914Y-125686632D01*
X71777782Y-125577139D01*
X71917139Y-125437782D01*
X72026632Y-125273914D01*
X72102051Y-125091835D01*
X72140500Y-124898543D01*
X72679499Y-124898543D01*
X72717947Y-125091829D01*
X72717950Y-125091839D01*
X72793364Y-125273907D01*
X72793371Y-125273920D01*
X72902860Y-125437781D01*
X72902863Y-125437785D01*
X73042214Y-125577136D01*
X73042218Y-125577139D01*
X73206079Y-125686628D01*
X73206092Y-125686635D01*
X73388160Y-125762049D01*
X73388165Y-125762051D01*
X73388169Y-125762051D01*
X73388170Y-125762052D01*
X73581456Y-125800500D01*
X73581459Y-125800500D01*
X73778543Y-125800500D01*
X73908582Y-125774632D01*
X73971835Y-125762051D01*
X74153914Y-125686632D01*
X74317782Y-125577139D01*
X74457139Y-125437782D01*
X74566632Y-125273914D01*
X74642051Y-125091835D01*
X74680500Y-124898543D01*
X75219499Y-124898543D01*
X75257947Y-125091829D01*
X75257950Y-125091839D01*
X75333364Y-125273907D01*
X75333371Y-125273920D01*
X75442860Y-125437781D01*
X75442863Y-125437785D01*
X75582214Y-125577136D01*
X75582218Y-125577139D01*
X75746079Y-125686628D01*
X75746092Y-125686635D01*
X75928160Y-125762049D01*
X75928165Y-125762051D01*
X75928169Y-125762051D01*
X75928170Y-125762052D01*
X76121456Y-125800500D01*
X76121459Y-125800500D01*
X76318543Y-125800500D01*
X76448582Y-125774632D01*
X76511835Y-125762051D01*
X76693914Y-125686632D01*
X76857782Y-125577139D01*
X76997139Y-125437782D01*
X77106632Y-125273914D01*
X77182051Y-125091835D01*
X77220500Y-124898543D01*
X77759499Y-124898543D01*
X77797947Y-125091829D01*
X77797950Y-125091839D01*
X77873364Y-125273907D01*
X77873371Y-125273920D01*
X77982860Y-125437781D01*
X77982863Y-125437785D01*
X78122214Y-125577136D01*
X78122218Y-125577139D01*
X78286079Y-125686628D01*
X78286092Y-125686635D01*
X78468160Y-125762049D01*
X78468165Y-125762051D01*
X78468169Y-125762051D01*
X78468170Y-125762052D01*
X78661456Y-125800500D01*
X78661459Y-125800500D01*
X78858543Y-125800500D01*
X78988582Y-125774632D01*
X79051835Y-125762051D01*
X79233914Y-125686632D01*
X79397782Y-125577139D01*
X79537139Y-125437782D01*
X79646632Y-125273914D01*
X79722051Y-125091835D01*
X79760500Y-124898543D01*
X80299499Y-124898543D01*
X80337947Y-125091829D01*
X80337950Y-125091839D01*
X80413364Y-125273907D01*
X80413371Y-125273920D01*
X80522860Y-125437781D01*
X80522863Y-125437785D01*
X80662214Y-125577136D01*
X80662218Y-125577139D01*
X80826079Y-125686628D01*
X80826092Y-125686635D01*
X81008160Y-125762049D01*
X81008165Y-125762051D01*
X81008169Y-125762051D01*
X81008170Y-125762052D01*
X81201456Y-125800500D01*
X81201459Y-125800500D01*
X81398543Y-125800500D01*
X81528582Y-125774632D01*
X81591835Y-125762051D01*
X81773914Y-125686632D01*
X81937782Y-125577139D01*
X82077139Y-125437782D01*
X82186632Y-125273914D01*
X82262051Y-125091835D01*
X82300500Y-124898543D01*
X82839499Y-124898543D01*
X82877947Y-125091829D01*
X82877950Y-125091839D01*
X82953364Y-125273907D01*
X82953371Y-125273920D01*
X83062860Y-125437781D01*
X83062863Y-125437785D01*
X83202214Y-125577136D01*
X83202218Y-125577139D01*
X83366079Y-125686628D01*
X83366092Y-125686635D01*
X83548160Y-125762049D01*
X83548165Y-125762051D01*
X83548169Y-125762051D01*
X83548170Y-125762052D01*
X83741456Y-125800500D01*
X83741459Y-125800500D01*
X83938543Y-125800500D01*
X84068582Y-125774632D01*
X84131835Y-125762051D01*
X84313914Y-125686632D01*
X84477782Y-125577139D01*
X84617139Y-125437782D01*
X84726632Y-125273914D01*
X84802051Y-125091835D01*
X84840500Y-124898543D01*
X85379499Y-124898543D01*
X85417947Y-125091829D01*
X85417950Y-125091839D01*
X85493364Y-125273907D01*
X85493371Y-125273920D01*
X85602860Y-125437781D01*
X85602863Y-125437785D01*
X85742214Y-125577136D01*
X85742218Y-125577139D01*
X85906079Y-125686628D01*
X85906092Y-125686635D01*
X86088160Y-125762049D01*
X86088165Y-125762051D01*
X86088169Y-125762051D01*
X86088170Y-125762052D01*
X86281456Y-125800500D01*
X86281459Y-125800500D01*
X86478543Y-125800500D01*
X86608582Y-125774632D01*
X86671835Y-125762051D01*
X86853914Y-125686632D01*
X87017782Y-125577139D01*
X87157139Y-125437782D01*
X87266632Y-125273914D01*
X87342051Y-125091835D01*
X87380500Y-124898543D01*
X87919499Y-124898543D01*
X87957947Y-125091829D01*
X87957950Y-125091839D01*
X88033364Y-125273907D01*
X88033371Y-125273920D01*
X88142860Y-125437781D01*
X88142863Y-125437785D01*
X88282214Y-125577136D01*
X88282218Y-125577139D01*
X88446079Y-125686628D01*
X88446092Y-125686635D01*
X88628160Y-125762049D01*
X88628165Y-125762051D01*
X88628169Y-125762051D01*
X88628170Y-125762052D01*
X88821456Y-125800500D01*
X88821459Y-125800500D01*
X89018543Y-125800500D01*
X89148582Y-125774632D01*
X89211835Y-125762051D01*
X89393914Y-125686632D01*
X89557782Y-125577139D01*
X89697139Y-125437782D01*
X89806632Y-125273914D01*
X89882051Y-125091835D01*
X89920500Y-124898543D01*
X90459499Y-124898543D01*
X90497947Y-125091829D01*
X90497950Y-125091839D01*
X90573364Y-125273907D01*
X90573371Y-125273920D01*
X90682860Y-125437781D01*
X90682863Y-125437785D01*
X90822214Y-125577136D01*
X90822218Y-125577139D01*
X90986079Y-125686628D01*
X90986092Y-125686635D01*
X91168160Y-125762049D01*
X91168165Y-125762051D01*
X91168169Y-125762051D01*
X91168170Y-125762052D01*
X91361456Y-125800500D01*
X91361459Y-125800500D01*
X91558543Y-125800500D01*
X91688582Y-125774632D01*
X91751835Y-125762051D01*
X91933914Y-125686632D01*
X92097782Y-125577139D01*
X92237139Y-125437782D01*
X92346632Y-125273914D01*
X92422051Y-125091835D01*
X92460500Y-124898543D01*
X92999499Y-124898543D01*
X93037947Y-125091829D01*
X93037950Y-125091839D01*
X93113364Y-125273907D01*
X93113371Y-125273920D01*
X93222860Y-125437781D01*
X93222863Y-125437785D01*
X93362214Y-125577136D01*
X93362218Y-125577139D01*
X93526079Y-125686628D01*
X93526092Y-125686635D01*
X93708160Y-125762049D01*
X93708165Y-125762051D01*
X93708169Y-125762051D01*
X93708170Y-125762052D01*
X93901456Y-125800500D01*
X93901459Y-125800500D01*
X94098543Y-125800500D01*
X94228582Y-125774632D01*
X94291835Y-125762051D01*
X94473914Y-125686632D01*
X94637782Y-125577139D01*
X94777139Y-125437782D01*
X94886632Y-125273914D01*
X94962051Y-125091835D01*
X95000500Y-124898543D01*
X95539499Y-124898543D01*
X95577947Y-125091829D01*
X95577950Y-125091839D01*
X95653364Y-125273907D01*
X95653371Y-125273920D01*
X95762860Y-125437781D01*
X95762863Y-125437785D01*
X95902214Y-125577136D01*
X95902218Y-125577139D01*
X96066079Y-125686628D01*
X96066092Y-125686635D01*
X96248160Y-125762049D01*
X96248165Y-125762051D01*
X96248169Y-125762051D01*
X96248170Y-125762052D01*
X96441456Y-125800500D01*
X96441459Y-125800500D01*
X96638543Y-125800500D01*
X96768582Y-125774632D01*
X96831835Y-125762051D01*
X97013914Y-125686632D01*
X97177782Y-125577139D01*
X97317139Y-125437782D01*
X97338674Y-125405552D01*
X106800000Y-125405552D01*
X106800000Y-125594447D01*
X106829548Y-125781002D01*
X106887914Y-125960637D01*
X106973666Y-126128933D01*
X106992116Y-126154328D01*
X107646446Y-125500000D01*
X107646446Y-125499999D01*
X107600369Y-125453922D01*
X107650000Y-125453922D01*
X107650000Y-125546078D01*
X107673852Y-125635095D01*
X107719930Y-125714905D01*
X107785095Y-125780070D01*
X107864905Y-125826148D01*
X107953922Y-125850000D01*
X108046078Y-125850000D01*
X108135095Y-125826148D01*
X108214905Y-125780070D01*
X108280070Y-125714905D01*
X108326148Y-125635095D01*
X108350000Y-125546078D01*
X108350000Y-125499999D01*
X108353554Y-125499999D01*
X108353554Y-125500000D01*
X109007882Y-126154328D01*
X109007883Y-126154328D01*
X109026331Y-126128937D01*
X109112085Y-125960637D01*
X109170451Y-125781002D01*
X109200000Y-125594447D01*
X109200000Y-125405552D01*
X109170451Y-125218997D01*
X109112085Y-125039362D01*
X109026329Y-124871059D01*
X109007883Y-124845670D01*
X109007882Y-124845669D01*
X108353554Y-125499999D01*
X108350000Y-125499999D01*
X108350000Y-125453922D01*
X108326148Y-125364905D01*
X108280070Y-125285095D01*
X108214905Y-125219930D01*
X108135095Y-125173852D01*
X108046078Y-125150000D01*
X107953922Y-125150000D01*
X107864905Y-125173852D01*
X107785095Y-125219930D01*
X107719930Y-125285095D01*
X107673852Y-125364905D01*
X107650000Y-125453922D01*
X107600369Y-125453922D01*
X106992116Y-124845669D01*
X106992116Y-124845670D01*
X106973669Y-124871060D01*
X106887914Y-125039362D01*
X106829548Y-125218997D01*
X106800000Y-125405552D01*
X97338674Y-125405552D01*
X97375459Y-125350500D01*
X97387958Y-125331795D01*
X97426628Y-125273920D01*
X97426628Y-125273919D01*
X97426632Y-125273914D01*
X97502051Y-125091835D01*
X97540500Y-124898541D01*
X97540500Y-124492116D01*
X107345669Y-124492116D01*
X108000000Y-125146446D01*
X108000001Y-125146446D01*
X108654328Y-124492116D01*
X108628933Y-124473666D01*
X108460637Y-124387914D01*
X108281002Y-124329548D01*
X108094447Y-124300000D01*
X107905553Y-124300000D01*
X107718997Y-124329548D01*
X107539362Y-124387914D01*
X107371060Y-124473669D01*
X107345670Y-124492116D01*
X107345669Y-124492116D01*
X97540500Y-124492116D01*
X97540500Y-123701459D01*
X97540500Y-123701456D01*
X97502052Y-123508170D01*
X97502051Y-123508169D01*
X97502051Y-123508165D01*
X97502049Y-123508160D01*
X97426635Y-123326092D01*
X97426628Y-123326079D01*
X97317139Y-123162218D01*
X97317136Y-123162214D01*
X97177785Y-123022863D01*
X97177781Y-123022860D01*
X97013920Y-122913371D01*
X97013907Y-122913364D01*
X96831839Y-122837950D01*
X96831829Y-122837947D01*
X96638543Y-122799500D01*
X96638541Y-122799500D01*
X96441459Y-122799500D01*
X96441457Y-122799500D01*
X96248170Y-122837947D01*
X96248160Y-122837950D01*
X96066092Y-122913364D01*
X96066079Y-122913371D01*
X95902218Y-123022860D01*
X95902214Y-123022863D01*
X95762863Y-123162214D01*
X95762860Y-123162218D01*
X95653371Y-123326079D01*
X95653364Y-123326092D01*
X95577950Y-123508160D01*
X95577947Y-123508170D01*
X95539500Y-123701456D01*
X95539500Y-123701459D01*
X95539500Y-124898541D01*
X95539500Y-124898543D01*
X95539499Y-124898543D01*
X95000500Y-124898543D01*
X95000500Y-124898541D01*
X95000500Y-123701459D01*
X95000500Y-123701456D01*
X94962052Y-123508170D01*
X94962051Y-123508169D01*
X94962051Y-123508165D01*
X94962049Y-123508160D01*
X94886635Y-123326092D01*
X94886628Y-123326079D01*
X94777139Y-123162218D01*
X94777136Y-123162214D01*
X94637785Y-123022863D01*
X94637781Y-123022860D01*
X94473920Y-122913371D01*
X94473907Y-122913364D01*
X94291839Y-122837950D01*
X94291829Y-122837947D01*
X94098543Y-122799500D01*
X94098541Y-122799500D01*
X93901459Y-122799500D01*
X93901457Y-122799500D01*
X93708170Y-122837947D01*
X93708160Y-122837950D01*
X93526092Y-122913364D01*
X93526079Y-122913371D01*
X93362218Y-123022860D01*
X93362214Y-123022863D01*
X93222863Y-123162214D01*
X93222860Y-123162218D01*
X93113371Y-123326079D01*
X93113364Y-123326092D01*
X93037950Y-123508160D01*
X93037947Y-123508170D01*
X92999500Y-123701456D01*
X92999500Y-123701459D01*
X92999500Y-124898541D01*
X92999500Y-124898543D01*
X92999499Y-124898543D01*
X92460500Y-124898543D01*
X92460500Y-124898541D01*
X92460500Y-123701459D01*
X92460500Y-123701456D01*
X92422052Y-123508170D01*
X92422051Y-123508169D01*
X92422051Y-123508165D01*
X92422049Y-123508160D01*
X92346635Y-123326092D01*
X92346628Y-123326079D01*
X92237139Y-123162218D01*
X92237136Y-123162214D01*
X92097785Y-123022863D01*
X92097781Y-123022860D01*
X91933920Y-122913371D01*
X91933907Y-122913364D01*
X91751839Y-122837950D01*
X91751829Y-122837947D01*
X91558543Y-122799500D01*
X91558541Y-122799500D01*
X91361459Y-122799500D01*
X91361457Y-122799500D01*
X91168170Y-122837947D01*
X91168160Y-122837950D01*
X90986092Y-122913364D01*
X90986079Y-122913371D01*
X90822218Y-123022860D01*
X90822214Y-123022863D01*
X90682863Y-123162214D01*
X90682860Y-123162218D01*
X90573371Y-123326079D01*
X90573364Y-123326092D01*
X90497950Y-123508160D01*
X90497947Y-123508170D01*
X90459500Y-123701456D01*
X90459500Y-123701459D01*
X90459500Y-124898541D01*
X90459500Y-124898543D01*
X90459499Y-124898543D01*
X89920500Y-124898543D01*
X89920500Y-124898541D01*
X89920500Y-123701459D01*
X89920500Y-123701456D01*
X89882052Y-123508170D01*
X89882051Y-123508169D01*
X89882051Y-123508165D01*
X89882049Y-123508160D01*
X89806635Y-123326092D01*
X89806628Y-123326079D01*
X89697139Y-123162218D01*
X89697136Y-123162214D01*
X89557785Y-123022863D01*
X89557781Y-123022860D01*
X89393920Y-122913371D01*
X89393907Y-122913364D01*
X89211839Y-122837950D01*
X89211829Y-122837947D01*
X89018543Y-122799500D01*
X89018541Y-122799500D01*
X88821459Y-122799500D01*
X88821457Y-122799500D01*
X88628170Y-122837947D01*
X88628160Y-122837950D01*
X88446092Y-122913364D01*
X88446079Y-122913371D01*
X88282218Y-123022860D01*
X88282214Y-123022863D01*
X88142863Y-123162214D01*
X88142860Y-123162218D01*
X88033371Y-123326079D01*
X88033364Y-123326092D01*
X87957950Y-123508160D01*
X87957947Y-123508170D01*
X87919500Y-123701456D01*
X87919500Y-123701459D01*
X87919500Y-124898541D01*
X87919500Y-124898543D01*
X87919499Y-124898543D01*
X87380500Y-124898543D01*
X87380500Y-124898541D01*
X87380500Y-123701459D01*
X87380500Y-123701456D01*
X87342052Y-123508170D01*
X87342051Y-123508169D01*
X87342051Y-123508165D01*
X87342049Y-123508160D01*
X87266635Y-123326092D01*
X87266628Y-123326079D01*
X87157139Y-123162218D01*
X87157136Y-123162214D01*
X87017785Y-123022863D01*
X87017781Y-123022860D01*
X86853920Y-122913371D01*
X86853907Y-122913364D01*
X86671839Y-122837950D01*
X86671829Y-122837947D01*
X86478543Y-122799500D01*
X86478541Y-122799500D01*
X86281459Y-122799500D01*
X86281457Y-122799500D01*
X86088170Y-122837947D01*
X86088160Y-122837950D01*
X85906092Y-122913364D01*
X85906079Y-122913371D01*
X85742218Y-123022860D01*
X85742214Y-123022863D01*
X85602863Y-123162214D01*
X85602860Y-123162218D01*
X85493371Y-123326079D01*
X85493364Y-123326092D01*
X85417950Y-123508160D01*
X85417947Y-123508170D01*
X85379500Y-123701456D01*
X85379500Y-123701459D01*
X85379500Y-124898541D01*
X85379500Y-124898543D01*
X85379499Y-124898543D01*
X84840500Y-124898543D01*
X84840500Y-124898541D01*
X84840500Y-123701459D01*
X84840500Y-123701456D01*
X84802052Y-123508170D01*
X84802051Y-123508169D01*
X84802051Y-123508165D01*
X84802049Y-123508160D01*
X84726635Y-123326092D01*
X84726628Y-123326079D01*
X84617139Y-123162218D01*
X84617136Y-123162214D01*
X84477785Y-123022863D01*
X84477781Y-123022860D01*
X84313920Y-122913371D01*
X84313907Y-122913364D01*
X84131839Y-122837950D01*
X84131829Y-122837947D01*
X83938543Y-122799500D01*
X83938541Y-122799500D01*
X83741459Y-122799500D01*
X83741457Y-122799500D01*
X83548170Y-122837947D01*
X83548160Y-122837950D01*
X83366092Y-122913364D01*
X83366079Y-122913371D01*
X83202218Y-123022860D01*
X83202214Y-123022863D01*
X83062863Y-123162214D01*
X83062860Y-123162218D01*
X82953371Y-123326079D01*
X82953364Y-123326092D01*
X82877950Y-123508160D01*
X82877947Y-123508170D01*
X82839500Y-123701456D01*
X82839500Y-123701459D01*
X82839500Y-124898541D01*
X82839500Y-124898543D01*
X82839499Y-124898543D01*
X82300500Y-124898543D01*
X82300500Y-124898541D01*
X82300500Y-123701459D01*
X82300500Y-123701456D01*
X82262052Y-123508170D01*
X82262051Y-123508169D01*
X82262051Y-123508165D01*
X82262049Y-123508160D01*
X82186635Y-123326092D01*
X82186628Y-123326079D01*
X82077139Y-123162218D01*
X82077136Y-123162214D01*
X81937785Y-123022863D01*
X81937781Y-123022860D01*
X81773920Y-122913371D01*
X81773907Y-122913364D01*
X81591839Y-122837950D01*
X81591829Y-122837947D01*
X81398543Y-122799500D01*
X81398541Y-122799500D01*
X81201459Y-122799500D01*
X81201457Y-122799500D01*
X81008170Y-122837947D01*
X81008160Y-122837950D01*
X80826092Y-122913364D01*
X80826079Y-122913371D01*
X80662218Y-123022860D01*
X80662214Y-123022863D01*
X80522863Y-123162214D01*
X80522860Y-123162218D01*
X80413371Y-123326079D01*
X80413364Y-123326092D01*
X80337950Y-123508160D01*
X80337947Y-123508170D01*
X80299500Y-123701456D01*
X80299500Y-123701459D01*
X80299500Y-124898541D01*
X80299500Y-124898543D01*
X80299499Y-124898543D01*
X79760500Y-124898543D01*
X79760500Y-124898541D01*
X79760500Y-123701459D01*
X79760500Y-123701456D01*
X79722052Y-123508170D01*
X79722051Y-123508169D01*
X79722051Y-123508165D01*
X79722049Y-123508160D01*
X79646635Y-123326092D01*
X79646628Y-123326079D01*
X79537139Y-123162218D01*
X79537136Y-123162214D01*
X79397785Y-123022863D01*
X79397781Y-123022860D01*
X79233920Y-122913371D01*
X79233907Y-122913364D01*
X79051839Y-122837950D01*
X79051829Y-122837947D01*
X78858543Y-122799500D01*
X78858541Y-122799500D01*
X78661459Y-122799500D01*
X78661457Y-122799500D01*
X78468170Y-122837947D01*
X78468160Y-122837950D01*
X78286092Y-122913364D01*
X78286079Y-122913371D01*
X78122218Y-123022860D01*
X78122214Y-123022863D01*
X77982863Y-123162214D01*
X77982860Y-123162218D01*
X77873371Y-123326079D01*
X77873364Y-123326092D01*
X77797950Y-123508160D01*
X77797947Y-123508170D01*
X77759500Y-123701456D01*
X77759500Y-123701459D01*
X77759500Y-124898541D01*
X77759500Y-124898543D01*
X77759499Y-124898543D01*
X77220500Y-124898543D01*
X77220500Y-124898541D01*
X77220500Y-123701459D01*
X77220500Y-123701456D01*
X77182052Y-123508170D01*
X77182051Y-123508169D01*
X77182051Y-123508165D01*
X77182049Y-123508160D01*
X77106635Y-123326092D01*
X77106628Y-123326079D01*
X76997139Y-123162218D01*
X76997136Y-123162214D01*
X76857785Y-123022863D01*
X76857781Y-123022860D01*
X76693920Y-122913371D01*
X76693907Y-122913364D01*
X76511839Y-122837950D01*
X76511829Y-122837947D01*
X76318543Y-122799500D01*
X76318541Y-122799500D01*
X76121459Y-122799500D01*
X76121457Y-122799500D01*
X75928170Y-122837947D01*
X75928160Y-122837950D01*
X75746092Y-122913364D01*
X75746079Y-122913371D01*
X75582218Y-123022860D01*
X75582214Y-123022863D01*
X75442863Y-123162214D01*
X75442860Y-123162218D01*
X75333371Y-123326079D01*
X75333364Y-123326092D01*
X75257950Y-123508160D01*
X75257947Y-123508170D01*
X75219500Y-123701456D01*
X75219500Y-123701459D01*
X75219500Y-124898541D01*
X75219500Y-124898543D01*
X75219499Y-124898543D01*
X74680500Y-124898543D01*
X74680500Y-124898541D01*
X74680500Y-123701459D01*
X74680500Y-123701456D01*
X74642052Y-123508170D01*
X74642051Y-123508169D01*
X74642051Y-123508165D01*
X74642049Y-123508160D01*
X74566635Y-123326092D01*
X74566628Y-123326079D01*
X74457139Y-123162218D01*
X74457136Y-123162214D01*
X74317785Y-123022863D01*
X74317781Y-123022860D01*
X74153920Y-122913371D01*
X74153907Y-122913364D01*
X73971839Y-122837950D01*
X73971829Y-122837947D01*
X73778543Y-122799500D01*
X73778541Y-122799500D01*
X73581459Y-122799500D01*
X73581457Y-122799500D01*
X73388170Y-122837947D01*
X73388160Y-122837950D01*
X73206092Y-122913364D01*
X73206079Y-122913371D01*
X73042218Y-123022860D01*
X73042214Y-123022863D01*
X72902863Y-123162214D01*
X72902860Y-123162218D01*
X72793371Y-123326079D01*
X72793364Y-123326092D01*
X72717950Y-123508160D01*
X72717947Y-123508170D01*
X72679500Y-123701456D01*
X72679500Y-123701459D01*
X72679500Y-124898541D01*
X72679500Y-124898543D01*
X72679499Y-124898543D01*
X72140500Y-124898543D01*
X72140500Y-124898541D01*
X72140500Y-123701459D01*
X72140500Y-123701456D01*
X72102052Y-123508170D01*
X72102051Y-123508169D01*
X72102051Y-123508165D01*
X72102049Y-123508160D01*
X72026635Y-123326092D01*
X72026628Y-123326079D01*
X71917139Y-123162218D01*
X71917136Y-123162214D01*
X71777785Y-123022863D01*
X71777781Y-123022860D01*
X71613920Y-122913371D01*
X71613907Y-122913364D01*
X71431839Y-122837950D01*
X71431829Y-122837947D01*
X71238543Y-122799500D01*
X71238541Y-122799500D01*
X71041459Y-122799500D01*
X71041457Y-122799500D01*
X70848170Y-122837947D01*
X70848160Y-122837950D01*
X70666092Y-122913364D01*
X70666079Y-122913371D01*
X70502218Y-123022860D01*
X70502214Y-123022863D01*
X70362863Y-123162214D01*
X70362860Y-123162218D01*
X70253371Y-123326079D01*
X70253364Y-123326092D01*
X70177950Y-123508160D01*
X70177947Y-123508170D01*
X70139500Y-123701456D01*
X70139500Y-123701459D01*
X70139500Y-124898541D01*
X70139500Y-124898543D01*
X70139499Y-124898543D01*
X69600500Y-124898543D01*
X69600500Y-124898541D01*
X69600500Y-123701459D01*
X69600500Y-123701456D01*
X69562052Y-123508170D01*
X69562051Y-123508169D01*
X69562051Y-123508165D01*
X69562049Y-123508160D01*
X69486635Y-123326092D01*
X69486628Y-123326079D01*
X69377139Y-123162218D01*
X69377136Y-123162214D01*
X69237785Y-123022863D01*
X69237781Y-123022860D01*
X69073920Y-122913371D01*
X69073907Y-122913364D01*
X68891839Y-122837950D01*
X68891829Y-122837947D01*
X68698543Y-122799500D01*
X68698541Y-122799500D01*
X68501459Y-122799500D01*
X68501457Y-122799500D01*
X68308170Y-122837947D01*
X68308160Y-122837950D01*
X68126092Y-122913364D01*
X68126079Y-122913371D01*
X67962218Y-123022860D01*
X67962214Y-123022863D01*
X67822863Y-123162214D01*
X67822860Y-123162218D01*
X67713371Y-123326079D01*
X67713364Y-123326092D01*
X67637950Y-123508160D01*
X67637947Y-123508170D01*
X67599500Y-123701456D01*
X67599500Y-123701459D01*
X67599500Y-124898541D01*
X67599500Y-124898543D01*
X67599499Y-124898543D01*
X45217163Y-124898543D01*
X45222738Y-124894265D01*
X45394265Y-124722738D01*
X45541936Y-124530289D01*
X45663224Y-124320212D01*
X45756054Y-124096100D01*
X45818838Y-123861789D01*
X45850500Y-123621288D01*
X45850500Y-123378712D01*
X45818838Y-123138211D01*
X45756054Y-122903900D01*
X45663224Y-122679788D01*
X45541936Y-122469711D01*
X45394265Y-122277262D01*
X45394260Y-122277256D01*
X45222743Y-122105739D01*
X45222736Y-122105733D01*
X45030293Y-121958067D01*
X45030292Y-121958066D01*
X45030289Y-121958064D01*
X44820212Y-121836776D01*
X44820205Y-121836773D01*
X44596104Y-121743947D01*
X44361785Y-121681161D01*
X44121289Y-121649500D01*
X44121288Y-121649500D01*
X43878712Y-121649500D01*
X43878711Y-121649500D01*
X43638214Y-121681161D01*
X43403895Y-121743947D01*
X43179794Y-121836773D01*
X43179785Y-121836777D01*
X42969706Y-121958067D01*
X42777263Y-122105733D01*
X42777256Y-122105739D01*
X42605739Y-122277256D01*
X42605733Y-122277263D01*
X42458067Y-122469706D01*
X42336777Y-122679785D01*
X42336773Y-122679794D01*
X42243947Y-122903895D01*
X42181161Y-123138214D01*
X42149500Y-123378711D01*
X39000500Y-123378711D01*
X39000500Y-120325513D01*
X106799500Y-120325513D01*
X106799500Y-120514486D01*
X106829059Y-120701118D01*
X106887454Y-120880836D01*
X106973240Y-121049199D01*
X107084310Y-121202073D01*
X107217927Y-121335690D01*
X107370801Y-121446760D01*
X107450347Y-121487290D01*
X107539163Y-121532545D01*
X107539165Y-121532545D01*
X107539168Y-121532547D01*
X107635497Y-121563846D01*
X107718881Y-121590940D01*
X107905514Y-121620500D01*
X107905519Y-121620500D01*
X108094486Y-121620500D01*
X108281118Y-121590940D01*
X108460832Y-121532547D01*
X108629199Y-121446760D01*
X108782073Y-121335690D01*
X108915690Y-121202073D01*
X109026760Y-121049199D01*
X109112547Y-120880832D01*
X109170940Y-120701118D01*
X109200500Y-120514486D01*
X109200500Y-120325513D01*
X109170940Y-120138881D01*
X109112545Y-119959163D01*
X109052969Y-119842240D01*
X109026760Y-119790801D01*
X108915690Y-119637927D01*
X108782073Y-119504310D01*
X108629199Y-119393240D01*
X108460836Y-119307454D01*
X108281118Y-119249059D01*
X108094486Y-119219500D01*
X108094481Y-119219500D01*
X107905519Y-119219500D01*
X107905514Y-119219500D01*
X107718881Y-119249059D01*
X107539163Y-119307454D01*
X107370800Y-119393240D01*
X107361360Y-119400099D01*
X107217927Y-119504310D01*
X107217925Y-119504312D01*
X107217924Y-119504312D01*
X107084312Y-119637924D01*
X107084312Y-119637925D01*
X107084310Y-119637927D01*
X107036610Y-119703579D01*
X106973240Y-119790800D01*
X106887454Y-119959163D01*
X106829059Y-120138881D01*
X106799500Y-120325513D01*
X39000500Y-120325513D01*
X39000500Y-116445513D01*
X107799500Y-116445513D01*
X107799500Y-116634486D01*
X107829059Y-116821118D01*
X107887454Y-117000836D01*
X107905719Y-117036682D01*
X107973240Y-117169199D01*
X108084310Y-117322073D01*
X108217927Y-117455690D01*
X108370801Y-117566760D01*
X108450347Y-117607290D01*
X108539163Y-117652545D01*
X108539165Y-117652545D01*
X108539168Y-117652547D01*
X108635497Y-117683846D01*
X108718881Y-117710940D01*
X108905514Y-117740500D01*
X108905519Y-117740500D01*
X109094486Y-117740500D01*
X109281118Y-117710940D01*
X109325310Y-117696581D01*
X109460832Y-117652547D01*
X109584436Y-117589568D01*
X117364500Y-117589568D01*
X117364500Y-117870431D01*
X117395942Y-118149494D01*
X117395945Y-118149512D01*
X117458439Y-118423317D01*
X117458443Y-118423329D01*
X117551200Y-118688411D01*
X117673053Y-118941442D01*
X117673055Y-118941445D01*
X117822477Y-119179248D01*
X117997584Y-119398825D01*
X118196175Y-119597416D01*
X118415752Y-119772523D01*
X118653555Y-119921945D01*
X118906592Y-120043801D01*
X119105680Y-120113465D01*
X119171670Y-120136556D01*
X119171682Y-120136560D01*
X119445491Y-120199055D01*
X119445497Y-120199055D01*
X119445505Y-120199057D01*
X119631547Y-120220018D01*
X119724569Y-120230499D01*
X119724572Y-120230500D01*
X119724575Y-120230500D01*
X120005428Y-120230500D01*
X120005429Y-120230499D01*
X120148055Y-120214429D01*
X120284494Y-120199057D01*
X120284499Y-120199056D01*
X120284509Y-120199055D01*
X120558318Y-120136560D01*
X120823408Y-120043801D01*
X120823416Y-120043797D01*
X120823419Y-120043796D01*
X120833864Y-120038766D01*
X120833866Y-120038765D01*
X120931434Y-119991778D01*
X121076445Y-119921945D01*
X121314248Y-119772523D01*
X121533825Y-119597416D01*
X121732416Y-119398825D01*
X121907523Y-119179248D01*
X122056945Y-118941445D01*
X122084282Y-118884680D01*
X122844800Y-118884680D01*
X122844800Y-119115319D01*
X122880877Y-119343102D01*
X122952147Y-119562446D01*
X123056850Y-119767935D01*
X123112253Y-119844191D01*
X123112254Y-119844192D01*
X123827037Y-119129409D01*
X123844075Y-119192993D01*
X123909901Y-119307007D01*
X124002993Y-119400099D01*
X124117007Y-119465925D01*
X124180590Y-119482962D01*
X123465806Y-120197744D01*
X123542067Y-120253151D01*
X123747553Y-120357852D01*
X123966897Y-120429122D01*
X124194681Y-120465200D01*
X124425319Y-120465200D01*
X124653102Y-120429122D01*
X124872446Y-120357852D01*
X125077924Y-120253155D01*
X125077930Y-120253151D01*
X125154191Y-120197744D01*
X125154192Y-120197744D01*
X124439409Y-119482962D01*
X124502993Y-119465925D01*
X124617007Y-119400099D01*
X124710099Y-119307007D01*
X124775925Y-119192993D01*
X124792962Y-119129410D01*
X125507744Y-119844192D01*
X125532540Y-119842240D01*
X125534692Y-119840581D01*
X125604305Y-119834596D01*
X125666103Y-119867196D01*
X125680007Y-119883241D01*
X125732026Y-119954838D01*
X125732027Y-119954839D01*
X125895161Y-120117973D01*
X126081806Y-120253579D01*
X126287367Y-120358317D01*
X126464850Y-120415984D01*
X126506780Y-120429609D01*
X126620714Y-120447654D01*
X126734647Y-120465700D01*
X126734648Y-120465700D01*
X126965352Y-120465700D01*
X126965353Y-120465700D01*
X127193219Y-120429609D01*
X127412633Y-120358317D01*
X127618194Y-120253579D01*
X127804839Y-120117973D01*
X127967973Y-119954839D01*
X128019683Y-119883665D01*
X128075012Y-119841002D01*
X128144625Y-119835023D01*
X128206420Y-119867629D01*
X128220313Y-119883662D01*
X128272027Y-119954839D01*
X128435161Y-120117973D01*
X128621806Y-120253579D01*
X128827367Y-120358317D01*
X129004850Y-120415984D01*
X129046780Y-120429609D01*
X129160714Y-120447654D01*
X129274647Y-120465700D01*
X129274648Y-120465700D01*
X129505352Y-120465700D01*
X129505353Y-120465700D01*
X129733219Y-120429609D01*
X129952633Y-120358317D01*
X130158194Y-120253579D01*
X130344839Y-120117973D01*
X130507973Y-119954839D01*
X130559683Y-119883665D01*
X130615012Y-119841002D01*
X130684625Y-119835023D01*
X130746420Y-119867629D01*
X130760313Y-119883662D01*
X130812027Y-119954839D01*
X130975161Y-120117973D01*
X131161806Y-120253579D01*
X131367367Y-120358317D01*
X131544850Y-120415984D01*
X131586780Y-120429609D01*
X131700714Y-120447654D01*
X131814647Y-120465700D01*
X131814648Y-120465700D01*
X132045352Y-120465700D01*
X132045353Y-120465700D01*
X132273219Y-120429609D01*
X132492633Y-120358317D01*
X132698194Y-120253579D01*
X132884839Y-120117973D01*
X133047973Y-119954839D01*
X133099683Y-119883665D01*
X133155012Y-119841002D01*
X133224625Y-119835023D01*
X133286420Y-119867629D01*
X133300313Y-119883662D01*
X133352027Y-119954839D01*
X133515161Y-120117973D01*
X133701806Y-120253579D01*
X133907367Y-120358317D01*
X134084850Y-120415984D01*
X134126780Y-120429609D01*
X134240714Y-120447654D01*
X134354647Y-120465700D01*
X134354648Y-120465700D01*
X134585352Y-120465700D01*
X134585353Y-120465700D01*
X134813219Y-120429609D01*
X135032633Y-120358317D01*
X135238194Y-120253579D01*
X135424839Y-120117973D01*
X135587973Y-119954839D01*
X135639683Y-119883665D01*
X135695012Y-119841002D01*
X135764625Y-119835023D01*
X135826420Y-119867629D01*
X135840313Y-119883662D01*
X135892027Y-119954839D01*
X136055161Y-120117973D01*
X136241806Y-120253579D01*
X136447367Y-120358317D01*
X136624850Y-120415984D01*
X136666780Y-120429609D01*
X136780714Y-120447654D01*
X136894647Y-120465700D01*
X136894648Y-120465700D01*
X137125352Y-120465700D01*
X137125353Y-120465700D01*
X137353219Y-120429609D01*
X137572633Y-120358317D01*
X137778194Y-120253579D01*
X137964839Y-120117973D01*
X138127973Y-119954839D01*
X138263579Y-119768194D01*
X138368317Y-119562633D01*
X138439609Y-119343219D01*
X138475700Y-119115353D01*
X138475700Y-118884647D01*
X138444618Y-118688408D01*
X138439609Y-118656780D01*
X138425984Y-118614850D01*
X138368317Y-118437367D01*
X138263579Y-118231806D01*
X138127973Y-118045161D01*
X137964839Y-117882027D01*
X137778194Y-117746421D01*
X137572633Y-117641683D01*
X137482264Y-117612320D01*
X137412242Y-117589568D01*
X138954500Y-117589568D01*
X138954500Y-117870431D01*
X138985942Y-118149494D01*
X138985945Y-118149512D01*
X139048439Y-118423317D01*
X139048443Y-118423329D01*
X139141200Y-118688411D01*
X139263053Y-118941442D01*
X139263055Y-118941445D01*
X139412477Y-119179248D01*
X139587584Y-119398825D01*
X139786175Y-119597416D01*
X140005752Y-119772523D01*
X140243555Y-119921945D01*
X140496592Y-120043801D01*
X140695680Y-120113465D01*
X140761670Y-120136556D01*
X140761682Y-120136560D01*
X141035491Y-120199055D01*
X141035497Y-120199055D01*
X141035505Y-120199057D01*
X141221547Y-120220018D01*
X141314569Y-120230499D01*
X141314572Y-120230500D01*
X141314575Y-120230500D01*
X141595428Y-120230500D01*
X141595429Y-120230499D01*
X141738055Y-120214429D01*
X141874494Y-120199057D01*
X141874499Y-120199056D01*
X141874509Y-120199055D01*
X142148318Y-120136560D01*
X142413408Y-120043801D01*
X142666445Y-119921945D01*
X142904248Y-119772523D01*
X143123825Y-119597416D01*
X143322416Y-119398825D01*
X143497523Y-119179248D01*
X143646945Y-118941445D01*
X143768801Y-118688408D01*
X143861560Y-118423318D01*
X143924055Y-118149509D01*
X143935812Y-118045167D01*
X143939429Y-118013055D01*
X143955500Y-117870425D01*
X143955500Y-117589575D01*
X143940415Y-117455687D01*
X143924057Y-117310505D01*
X143924054Y-117310487D01*
X143861560Y-117036682D01*
X143861556Y-117036670D01*
X143838465Y-116970680D01*
X143768801Y-116771592D01*
X143646945Y-116518555D01*
X143497523Y-116280752D01*
X143322416Y-116061175D01*
X143123825Y-115862584D01*
X142904248Y-115687477D01*
X142666445Y-115538055D01*
X142666442Y-115538053D01*
X142413411Y-115416200D01*
X142148329Y-115323443D01*
X142148317Y-115323439D01*
X141874512Y-115260945D01*
X141874494Y-115260942D01*
X141595431Y-115229500D01*
X141595425Y-115229500D01*
X141314575Y-115229500D01*
X141314568Y-115229500D01*
X141035505Y-115260942D01*
X141035487Y-115260945D01*
X140761682Y-115323439D01*
X140761670Y-115323443D01*
X140496588Y-115416200D01*
X140243557Y-115538053D01*
X140005753Y-115687476D01*
X139786175Y-115862583D01*
X139587583Y-116061175D01*
X139412476Y-116280753D01*
X139263053Y-116518557D01*
X139141200Y-116771588D01*
X139048443Y-117036670D01*
X139048439Y-117036682D01*
X138985945Y-117310487D01*
X138985942Y-117310505D01*
X138954500Y-117589568D01*
X137412242Y-117589568D01*
X137353219Y-117570390D01*
X137156508Y-117539234D01*
X137125353Y-117534300D01*
X136894647Y-117534300D01*
X136867239Y-117538641D01*
X136666780Y-117570390D01*
X136495805Y-117625944D01*
X136447367Y-117641683D01*
X136447364Y-117641684D01*
X136447362Y-117641685D01*
X136241805Y-117746421D01*
X136135317Y-117823789D01*
X136055161Y-117882027D01*
X136055159Y-117882029D01*
X136055158Y-117882029D01*
X135892028Y-118045159D01*
X135840318Y-118116332D01*
X135784987Y-118158998D01*
X135715374Y-118164976D01*
X135653579Y-118132370D01*
X135639682Y-118116332D01*
X135587977Y-118045167D01*
X135587973Y-118045161D01*
X135424839Y-117882027D01*
X135238194Y-117746421D01*
X135032633Y-117641683D01*
X134942264Y-117612320D01*
X134813219Y-117570390D01*
X134616508Y-117539234D01*
X134585353Y-117534300D01*
X134354647Y-117534300D01*
X134327239Y-117538641D01*
X134126780Y-117570390D01*
X133955805Y-117625944D01*
X133907367Y-117641683D01*
X133907364Y-117641684D01*
X133907362Y-117641685D01*
X133701805Y-117746421D01*
X133595317Y-117823789D01*
X133515161Y-117882027D01*
X133515159Y-117882029D01*
X133515158Y-117882029D01*
X133352028Y-118045159D01*
X133300318Y-118116332D01*
X133244987Y-118158998D01*
X133175374Y-118164976D01*
X133113579Y-118132370D01*
X133099682Y-118116332D01*
X133047977Y-118045167D01*
X133047973Y-118045161D01*
X132884839Y-117882027D01*
X132698194Y-117746421D01*
X132492633Y-117641683D01*
X132402264Y-117612320D01*
X132273219Y-117570390D01*
X132076508Y-117539234D01*
X132045353Y-117534300D01*
X131814647Y-117534300D01*
X131787239Y-117538641D01*
X131586780Y-117570390D01*
X131415805Y-117625944D01*
X131367367Y-117641683D01*
X131367364Y-117641684D01*
X131367362Y-117641685D01*
X131161805Y-117746421D01*
X131055317Y-117823789D01*
X130975161Y-117882027D01*
X130975159Y-117882029D01*
X130975158Y-117882029D01*
X130812028Y-118045159D01*
X130760318Y-118116332D01*
X130704987Y-118158998D01*
X130635374Y-118164976D01*
X130573579Y-118132370D01*
X130559682Y-118116332D01*
X130507977Y-118045167D01*
X130507973Y-118045161D01*
X130344839Y-117882027D01*
X130158194Y-117746421D01*
X129952633Y-117641683D01*
X129862264Y-117612320D01*
X129733219Y-117570390D01*
X129536508Y-117539234D01*
X129505353Y-117534300D01*
X129274647Y-117534300D01*
X129247239Y-117538641D01*
X129046780Y-117570390D01*
X128875805Y-117625944D01*
X128827367Y-117641683D01*
X128827364Y-117641684D01*
X128827362Y-117641685D01*
X128621805Y-117746421D01*
X128515317Y-117823789D01*
X128435161Y-117882027D01*
X128435159Y-117882029D01*
X128435158Y-117882029D01*
X128272028Y-118045159D01*
X128220318Y-118116332D01*
X128164987Y-118158998D01*
X128095374Y-118164976D01*
X128033579Y-118132370D01*
X128019682Y-118116332D01*
X127967977Y-118045167D01*
X127967973Y-118045161D01*
X127804839Y-117882027D01*
X127618194Y-117746421D01*
X127412633Y-117641683D01*
X127322264Y-117612320D01*
X127193219Y-117570390D01*
X126996508Y-117539234D01*
X126965353Y-117534300D01*
X126734647Y-117534300D01*
X126707239Y-117538641D01*
X126506780Y-117570390D01*
X126335805Y-117625944D01*
X126287367Y-117641683D01*
X126287364Y-117641684D01*
X126287362Y-117641685D01*
X126081805Y-117746421D01*
X125975317Y-117823789D01*
X125895161Y-117882027D01*
X125895159Y-117882029D01*
X125895158Y-117882029D01*
X125732029Y-118045158D01*
X125732022Y-118045167D01*
X125680008Y-118116757D01*
X125624678Y-118159423D01*
X125555065Y-118165401D01*
X125541990Y-118158502D01*
X125507744Y-118155806D01*
X124792962Y-118870589D01*
X124775925Y-118807007D01*
X124710099Y-118692993D01*
X124617007Y-118599901D01*
X124502993Y-118534075D01*
X124439408Y-118517037D01*
X125154192Y-117802254D01*
X125154191Y-117802253D01*
X125077935Y-117746850D01*
X124872446Y-117642147D01*
X124653102Y-117570877D01*
X124425319Y-117534800D01*
X124194681Y-117534800D01*
X123966897Y-117570877D01*
X123747553Y-117642147D01*
X123542069Y-117746847D01*
X123465807Y-117802254D01*
X124180591Y-118517037D01*
X124117007Y-118534075D01*
X124002993Y-118599901D01*
X123909901Y-118692993D01*
X123844075Y-118807007D01*
X123827037Y-118870590D01*
X123112254Y-118155807D01*
X123056847Y-118232069D01*
X122952147Y-118437553D01*
X122880877Y-118656897D01*
X122844800Y-118884680D01*
X122084282Y-118884680D01*
X122112535Y-118826012D01*
X122112536Y-118826010D01*
X122178796Y-118688419D01*
X122178797Y-118688416D01*
X122178801Y-118688408D01*
X122271560Y-118423318D01*
X122334055Y-118149509D01*
X122345812Y-118045167D01*
X122349429Y-118013055D01*
X122365500Y-117870425D01*
X122365500Y-117589575D01*
X122350415Y-117455687D01*
X122334057Y-117310505D01*
X122334054Y-117310487D01*
X122271560Y-117036682D01*
X122271556Y-117036670D01*
X122248465Y-116970680D01*
X122178801Y-116771592D01*
X122056945Y-116518555D01*
X121907523Y-116280752D01*
X121732416Y-116061175D01*
X121533825Y-115862584D01*
X121314248Y-115687477D01*
X121076445Y-115538055D01*
X121076442Y-115538053D01*
X120823411Y-115416200D01*
X120558329Y-115323443D01*
X120558317Y-115323439D01*
X120284512Y-115260945D01*
X120284494Y-115260942D01*
X120005431Y-115229500D01*
X120005425Y-115229500D01*
X119724575Y-115229500D01*
X119724568Y-115229500D01*
X119445505Y-115260942D01*
X119445487Y-115260945D01*
X119171682Y-115323439D01*
X119171670Y-115323443D01*
X118906588Y-115416200D01*
X118653557Y-115538053D01*
X118415753Y-115687476D01*
X118196175Y-115862583D01*
X117997583Y-116061175D01*
X117822476Y-116280753D01*
X117673053Y-116518557D01*
X117551200Y-116771588D01*
X117458443Y-117036670D01*
X117458439Y-117036682D01*
X117395945Y-117310487D01*
X117395942Y-117310505D01*
X117364500Y-117589568D01*
X109584436Y-117589568D01*
X109629199Y-117566760D01*
X109782073Y-117455690D01*
X109915690Y-117322073D01*
X110026760Y-117169199D01*
X110112547Y-117000832D01*
X110170940Y-116821118D01*
X110178785Y-116771588D01*
X110200500Y-116634486D01*
X110200500Y-116445513D01*
X110170940Y-116258881D01*
X110112545Y-116079163D01*
X110067290Y-115990347D01*
X110026760Y-115910801D01*
X109915690Y-115757927D01*
X109782073Y-115624310D01*
X109629199Y-115513240D01*
X109460836Y-115427454D01*
X109281118Y-115369059D01*
X109094486Y-115339500D01*
X109094481Y-115339500D01*
X108905519Y-115339500D01*
X108905514Y-115339500D01*
X108718881Y-115369059D01*
X108539163Y-115427454D01*
X108370800Y-115513240D01*
X108336646Y-115538055D01*
X108217927Y-115624310D01*
X108217925Y-115624312D01*
X108217924Y-115624312D01*
X108084312Y-115757924D01*
X108084312Y-115757925D01*
X108084310Y-115757927D01*
X108036610Y-115823579D01*
X107973240Y-115910800D01*
X107887454Y-116079163D01*
X107829059Y-116258881D01*
X107799500Y-116445513D01*
X39000500Y-116445513D01*
X39000500Y-114224038D01*
X45049500Y-114224038D01*
X45049500Y-114475961D01*
X45088910Y-114724785D01*
X45166760Y-114964383D01*
X45281132Y-115188848D01*
X45429201Y-115392649D01*
X45429205Y-115392654D01*
X45607345Y-115570794D01*
X45607350Y-115570798D01*
X45767945Y-115687476D01*
X45811155Y-115718870D01*
X45954184Y-115791747D01*
X46035616Y-115833239D01*
X46035618Y-115833239D01*
X46035621Y-115833241D01*
X46275215Y-115911090D01*
X46524038Y-115950500D01*
X46524039Y-115950500D01*
X46775961Y-115950500D01*
X46775962Y-115950500D01*
X47024785Y-115911090D01*
X47264379Y-115833241D01*
X47488845Y-115718870D01*
X47692656Y-115570793D01*
X47870793Y-115392656D01*
X48018870Y-115188845D01*
X48133241Y-114964379D01*
X48211090Y-114724785D01*
X48250500Y-114475962D01*
X48250500Y-114224038D01*
X83749500Y-114224038D01*
X83749500Y-114475961D01*
X83788910Y-114724785D01*
X83866760Y-114964383D01*
X83981132Y-115188848D01*
X84129201Y-115392649D01*
X84129205Y-115392654D01*
X84307345Y-115570794D01*
X84307350Y-115570798D01*
X84467945Y-115687476D01*
X84511155Y-115718870D01*
X84654184Y-115791747D01*
X84735616Y-115833239D01*
X84735618Y-115833239D01*
X84735621Y-115833241D01*
X84975215Y-115911090D01*
X85224038Y-115950500D01*
X85224039Y-115950500D01*
X85475961Y-115950500D01*
X85475962Y-115950500D01*
X85724785Y-115911090D01*
X85964379Y-115833241D01*
X86188845Y-115718870D01*
X86392656Y-115570793D01*
X86570793Y-115392656D01*
X86718870Y-115188845D01*
X86833241Y-114964379D01*
X86911090Y-114724785D01*
X86950500Y-114475962D01*
X86950500Y-114224038D01*
X86911090Y-113975215D01*
X86833241Y-113735621D01*
X86833239Y-113735618D01*
X86833239Y-113735616D01*
X86791747Y-113654184D01*
X86718870Y-113511155D01*
X86699952Y-113485117D01*
X86570798Y-113307350D01*
X86570794Y-113307345D01*
X86392654Y-113129205D01*
X86392649Y-113129201D01*
X86188848Y-112981132D01*
X86188847Y-112981131D01*
X86188845Y-112981130D01*
X86118747Y-112945413D01*
X85964383Y-112866760D01*
X85724785Y-112788910D01*
X85475962Y-112749500D01*
X85224038Y-112749500D01*
X85099626Y-112769205D01*
X84975214Y-112788910D01*
X84735616Y-112866760D01*
X84511151Y-112981132D01*
X84307350Y-113129201D01*
X84307345Y-113129205D01*
X84129205Y-113307345D01*
X84129201Y-113307350D01*
X83981132Y-113511151D01*
X83866760Y-113735616D01*
X83788910Y-113975214D01*
X83749500Y-114224038D01*
X48250500Y-114224038D01*
X48211090Y-113975215D01*
X48133241Y-113735621D01*
X48133239Y-113735618D01*
X48133239Y-113735616D01*
X48091747Y-113654184D01*
X48018870Y-113511155D01*
X47999952Y-113485117D01*
X47870798Y-113307350D01*
X47870794Y-113307345D01*
X47692654Y-113129205D01*
X47692649Y-113129201D01*
X47488848Y-112981132D01*
X47488847Y-112981131D01*
X47488845Y-112981130D01*
X47418747Y-112945413D01*
X47264383Y-112866760D01*
X47024785Y-112788910D01*
X46775962Y-112749500D01*
X46524038Y-112749500D01*
X46399626Y-112769205D01*
X46275214Y-112788910D01*
X46035616Y-112866760D01*
X45811151Y-112981132D01*
X45607350Y-113129201D01*
X45607345Y-113129205D01*
X45429205Y-113307345D01*
X45429201Y-113307350D01*
X45281132Y-113511151D01*
X45166760Y-113735616D01*
X45088910Y-113975214D01*
X45049500Y-114224038D01*
X39000500Y-114224038D01*
X39000500Y-112467882D01*
X108345669Y-112467882D01*
X108345670Y-112467883D01*
X108371059Y-112486329D01*
X108539362Y-112572085D01*
X108718997Y-112630451D01*
X108905553Y-112660000D01*
X109094447Y-112660000D01*
X109281002Y-112630451D01*
X109460637Y-112572085D01*
X109628937Y-112486331D01*
X109654328Y-112467883D01*
X109654328Y-112467882D01*
X109000001Y-111813554D01*
X109000000Y-111813554D01*
X108345669Y-112467882D01*
X39000500Y-112467882D01*
X39000500Y-111365552D01*
X107800000Y-111365552D01*
X107800000Y-111554447D01*
X107829548Y-111741002D01*
X107887914Y-111920637D01*
X107973666Y-112088933D01*
X107992116Y-112114328D01*
X108646446Y-111460000D01*
X108646446Y-111459999D01*
X108600369Y-111413922D01*
X108650000Y-111413922D01*
X108650000Y-111506078D01*
X108673852Y-111595095D01*
X108719930Y-111674905D01*
X108785095Y-111740070D01*
X108864905Y-111786148D01*
X108953922Y-111810000D01*
X109046078Y-111810000D01*
X109135095Y-111786148D01*
X109214905Y-111740070D01*
X109280070Y-111674905D01*
X109326148Y-111595095D01*
X109350000Y-111506078D01*
X109350000Y-111459999D01*
X109353554Y-111459999D01*
X109353554Y-111460000D01*
X110007882Y-112114328D01*
X110007883Y-112114328D01*
X110026331Y-112088937D01*
X110112085Y-111920637D01*
X110170451Y-111741002D01*
X110200000Y-111554447D01*
X110200000Y-111365552D01*
X110170451Y-111178997D01*
X110112085Y-110999362D01*
X110026329Y-110831059D01*
X110007883Y-110805670D01*
X110007882Y-110805669D01*
X109353554Y-111459999D01*
X109350000Y-111459999D01*
X109350000Y-111413922D01*
X109326148Y-111324905D01*
X109280070Y-111245095D01*
X109214905Y-111179930D01*
X109135095Y-111133852D01*
X109046078Y-111110000D01*
X108953922Y-111110000D01*
X108864905Y-111133852D01*
X108785095Y-111179930D01*
X108719930Y-111245095D01*
X108673852Y-111324905D01*
X108650000Y-111413922D01*
X108600369Y-111413922D01*
X107992116Y-110805669D01*
X107992116Y-110805670D01*
X107973669Y-110831060D01*
X107887914Y-110999362D01*
X107829548Y-111178997D01*
X107800000Y-111365552D01*
X39000500Y-111365552D01*
X39000500Y-110452116D01*
X108345669Y-110452116D01*
X109000000Y-111106446D01*
X109000001Y-111106446D01*
X109654328Y-110452116D01*
X109628933Y-110433666D01*
X109460637Y-110347914D01*
X109281002Y-110289548D01*
X109094447Y-110260000D01*
X108905553Y-110260000D01*
X108718997Y-110289548D01*
X108539362Y-110347914D01*
X108371060Y-110433669D01*
X108345670Y-110452116D01*
X108345669Y-110452116D01*
X39000500Y-110452116D01*
X39000500Y-102349568D01*
X117364500Y-102349568D01*
X117364500Y-102630431D01*
X117395942Y-102909494D01*
X117395945Y-102909512D01*
X117458439Y-103183317D01*
X117458443Y-103183329D01*
X117551200Y-103448411D01*
X117673053Y-103701442D01*
X117673055Y-103701445D01*
X117822477Y-103939248D01*
X117997584Y-104158825D01*
X118196175Y-104357416D01*
X118415752Y-104532523D01*
X118653555Y-104681945D01*
X118906592Y-104803801D01*
X119105680Y-104873465D01*
X119171670Y-104896556D01*
X119171682Y-104896560D01*
X119445491Y-104959055D01*
X119445497Y-104959055D01*
X119445505Y-104959057D01*
X119631547Y-104980018D01*
X119724569Y-104990499D01*
X119724572Y-104990500D01*
X119724575Y-104990500D01*
X120005428Y-104990500D01*
X120005429Y-104990499D01*
X120148055Y-104974429D01*
X120284494Y-104959057D01*
X120284499Y-104959056D01*
X120284509Y-104959055D01*
X120558318Y-104896560D01*
X120823408Y-104803801D01*
X121076445Y-104681945D01*
X121314248Y-104532523D01*
X121533825Y-104357416D01*
X121732416Y-104158825D01*
X121907523Y-103939248D01*
X122056945Y-103701445D01*
X122178801Y-103448408D01*
X122271560Y-103183318D01*
X122334055Y-102909509D01*
X122365500Y-102630425D01*
X122365500Y-102349575D01*
X122355018Y-102256547D01*
X122334057Y-102070505D01*
X122334054Y-102070487D01*
X122330524Y-102055023D01*
X122271560Y-101796682D01*
X122266645Y-101782637D01*
X122248465Y-101730680D01*
X122178801Y-101531592D01*
X122056945Y-101278555D01*
X121947671Y-101104647D01*
X125384300Y-101104647D01*
X125384300Y-101335352D01*
X125420390Y-101563219D01*
X125462320Y-101692264D01*
X125491683Y-101782633D01*
X125596421Y-101988194D01*
X125732027Y-102174839D01*
X125895161Y-102337973D01*
X126081806Y-102473579D01*
X126287367Y-102578317D01*
X126464850Y-102635984D01*
X126506780Y-102649609D01*
X126620714Y-102667654D01*
X126734647Y-102685700D01*
X126734648Y-102685700D01*
X126965352Y-102685700D01*
X126965353Y-102685700D01*
X127193219Y-102649609D01*
X127412633Y-102578317D01*
X127618194Y-102473579D01*
X127804839Y-102337973D01*
X127967973Y-102174839D01*
X128019683Y-102103665D01*
X128075012Y-102061002D01*
X128144625Y-102055023D01*
X128206420Y-102087629D01*
X128220313Y-102103662D01*
X128272027Y-102174839D01*
X128435161Y-102337973D01*
X128621806Y-102473579D01*
X128827367Y-102578317D01*
X129004850Y-102635984D01*
X129046780Y-102649609D01*
X129160714Y-102667654D01*
X129274647Y-102685700D01*
X129274648Y-102685700D01*
X129505352Y-102685700D01*
X129505353Y-102685700D01*
X129733219Y-102649609D01*
X129952633Y-102578317D01*
X130158194Y-102473579D01*
X130344839Y-102337973D01*
X130507973Y-102174839D01*
X130559683Y-102103665D01*
X130615012Y-102061002D01*
X130684625Y-102055023D01*
X130746420Y-102087629D01*
X130760313Y-102103662D01*
X130812027Y-102174839D01*
X130975161Y-102337973D01*
X131161806Y-102473579D01*
X131367367Y-102578317D01*
X131544850Y-102635984D01*
X131586780Y-102649609D01*
X131700714Y-102667654D01*
X131814647Y-102685700D01*
X131814648Y-102685700D01*
X132045352Y-102685700D01*
X132045353Y-102685700D01*
X132273219Y-102649609D01*
X132492633Y-102578317D01*
X132698194Y-102473579D01*
X132884839Y-102337973D01*
X133047973Y-102174839D01*
X133099683Y-102103665D01*
X133155012Y-102061002D01*
X133224625Y-102055023D01*
X133286420Y-102087629D01*
X133300313Y-102103662D01*
X133352027Y-102174839D01*
X133515161Y-102337973D01*
X133701806Y-102473579D01*
X133907367Y-102578317D01*
X134084850Y-102635984D01*
X134126780Y-102649609D01*
X134240714Y-102667654D01*
X134354647Y-102685700D01*
X134354648Y-102685700D01*
X134585352Y-102685700D01*
X134585353Y-102685700D01*
X134813219Y-102649609D01*
X135032633Y-102578317D01*
X135238194Y-102473579D01*
X135408880Y-102349568D01*
X138954500Y-102349568D01*
X138954500Y-102630431D01*
X138985942Y-102909494D01*
X138985945Y-102909512D01*
X139048439Y-103183317D01*
X139048443Y-103183329D01*
X139141200Y-103448411D01*
X139263053Y-103701442D01*
X139263055Y-103701445D01*
X139412477Y-103939248D01*
X139587584Y-104158825D01*
X139786175Y-104357416D01*
X140005752Y-104532523D01*
X140243555Y-104681945D01*
X140496592Y-104803801D01*
X140695680Y-104873465D01*
X140761670Y-104896556D01*
X140761682Y-104896560D01*
X141035491Y-104959055D01*
X141035497Y-104959055D01*
X141035505Y-104959057D01*
X141221547Y-104980018D01*
X141314569Y-104990499D01*
X141314572Y-104990500D01*
X141314575Y-104990500D01*
X141595428Y-104990500D01*
X141595429Y-104990499D01*
X141738055Y-104974429D01*
X141874494Y-104959057D01*
X141874499Y-104959056D01*
X141874509Y-104959055D01*
X142148318Y-104896560D01*
X142413408Y-104803801D01*
X142666445Y-104681945D01*
X142904248Y-104532523D01*
X143123825Y-104357416D01*
X143322416Y-104158825D01*
X143497523Y-103939248D01*
X143646945Y-103701445D01*
X143768801Y-103448408D01*
X143861560Y-103183318D01*
X143924055Y-102909509D01*
X143955500Y-102630425D01*
X143955500Y-102349575D01*
X143945018Y-102256547D01*
X143924057Y-102070505D01*
X143924054Y-102070487D01*
X143920524Y-102055023D01*
X143861560Y-101796682D01*
X143856645Y-101782637D01*
X143838465Y-101730680D01*
X143768801Y-101531592D01*
X143646945Y-101278555D01*
X143497523Y-101040752D01*
X143322416Y-100821175D01*
X143123825Y-100622584D01*
X142904248Y-100447477D01*
X142666445Y-100298055D01*
X142666442Y-100298053D01*
X142413411Y-100176200D01*
X142148329Y-100083443D01*
X142148317Y-100083439D01*
X141874512Y-100020945D01*
X141874494Y-100020942D01*
X141595431Y-99989500D01*
X141595425Y-99989500D01*
X141314575Y-99989500D01*
X141314568Y-99989500D01*
X141035505Y-100020942D01*
X141035487Y-100020945D01*
X140761682Y-100083439D01*
X140761670Y-100083443D01*
X140496588Y-100176200D01*
X140243557Y-100298053D01*
X140005753Y-100447476D01*
X139786175Y-100622583D01*
X139587583Y-100821175D01*
X139412476Y-101040753D01*
X139263053Y-101278557D01*
X139141200Y-101531588D01*
X139048443Y-101796670D01*
X139048439Y-101796682D01*
X138985945Y-102070487D01*
X138985942Y-102070505D01*
X138954500Y-102349568D01*
X135408880Y-102349568D01*
X135424839Y-102337973D01*
X135587973Y-102174839D01*
X135723579Y-101988194D01*
X135828317Y-101782633D01*
X135899609Y-101563219D01*
X135935700Y-101335353D01*
X135935700Y-101104647D01*
X135899609Y-100876781D01*
X135828317Y-100657367D01*
X135723579Y-100451806D01*
X135587973Y-100265161D01*
X135424839Y-100102027D01*
X135238194Y-99966421D01*
X135032633Y-99861683D01*
X134942264Y-99832320D01*
X134813219Y-99790390D01*
X134616508Y-99759234D01*
X134585353Y-99754300D01*
X134354647Y-99754300D01*
X134327239Y-99758641D01*
X134126780Y-99790390D01*
X133955805Y-99845944D01*
X133907367Y-99861683D01*
X133907364Y-99861684D01*
X133907362Y-99861685D01*
X133701805Y-99966421D01*
X133626760Y-100020945D01*
X133515161Y-100102027D01*
X133515159Y-100102029D01*
X133515158Y-100102029D01*
X133352028Y-100265159D01*
X133300318Y-100336332D01*
X133244987Y-100378998D01*
X133175374Y-100384976D01*
X133113579Y-100352370D01*
X133099682Y-100336332D01*
X133071872Y-100298055D01*
X133047973Y-100265161D01*
X132884839Y-100102027D01*
X132698194Y-99966421D01*
X132492633Y-99861683D01*
X132402264Y-99832320D01*
X132273219Y-99790390D01*
X132076508Y-99759234D01*
X132045353Y-99754300D01*
X131814647Y-99754300D01*
X131787239Y-99758641D01*
X131586780Y-99790390D01*
X131415805Y-99845944D01*
X131367367Y-99861683D01*
X131367364Y-99861684D01*
X131367362Y-99861685D01*
X131161805Y-99966421D01*
X131086760Y-100020945D01*
X130975161Y-100102027D01*
X130975159Y-100102029D01*
X130975158Y-100102029D01*
X130812028Y-100265159D01*
X130760318Y-100336332D01*
X130704987Y-100378998D01*
X130635374Y-100384976D01*
X130573579Y-100352370D01*
X130559682Y-100336332D01*
X130531872Y-100298055D01*
X130507973Y-100265161D01*
X130344839Y-100102027D01*
X130158194Y-99966421D01*
X129952633Y-99861683D01*
X129862264Y-99832320D01*
X129733219Y-99790390D01*
X129536508Y-99759234D01*
X129505353Y-99754300D01*
X129274647Y-99754300D01*
X129247239Y-99758641D01*
X129046780Y-99790390D01*
X128875805Y-99845944D01*
X128827367Y-99861683D01*
X128827364Y-99861684D01*
X128827362Y-99861685D01*
X128621805Y-99966421D01*
X128546760Y-100020945D01*
X128435161Y-100102027D01*
X128435159Y-100102029D01*
X128435158Y-100102029D01*
X128272028Y-100265159D01*
X128220318Y-100336332D01*
X128164987Y-100378998D01*
X128095374Y-100384976D01*
X128033579Y-100352370D01*
X128019682Y-100336332D01*
X127991872Y-100298055D01*
X127967973Y-100265161D01*
X127804839Y-100102027D01*
X127618194Y-99966421D01*
X127412633Y-99861683D01*
X127322264Y-99832320D01*
X127193219Y-99790390D01*
X126996508Y-99759234D01*
X126965353Y-99754300D01*
X126734647Y-99754300D01*
X126707239Y-99758641D01*
X126506780Y-99790390D01*
X126335805Y-99845944D01*
X126287367Y-99861683D01*
X126287364Y-99861684D01*
X126287362Y-99861685D01*
X126081805Y-99966421D01*
X126006760Y-100020945D01*
X125895161Y-100102027D01*
X125895159Y-100102029D01*
X125895158Y-100102029D01*
X125732029Y-100265158D01*
X125732029Y-100265159D01*
X125732027Y-100265161D01*
X125708128Y-100298055D01*
X125596421Y-100451805D01*
X125491685Y-100657362D01*
X125420390Y-100876780D01*
X125384300Y-101104647D01*
X121947671Y-101104647D01*
X121907523Y-101040752D01*
X121732416Y-100821175D01*
X121533825Y-100622584D01*
X121314248Y-100447477D01*
X121076445Y-100298055D01*
X121076442Y-100298053D01*
X120823411Y-100176200D01*
X120558329Y-100083443D01*
X120558317Y-100083439D01*
X120284512Y-100020945D01*
X120284494Y-100020942D01*
X120005431Y-99989500D01*
X120005425Y-99989500D01*
X119724575Y-99989500D01*
X119724568Y-99989500D01*
X119445505Y-100020942D01*
X119445487Y-100020945D01*
X119171682Y-100083439D01*
X119171670Y-100083443D01*
X118906588Y-100176200D01*
X118653557Y-100298053D01*
X118415753Y-100447476D01*
X118196175Y-100622583D01*
X117997583Y-100821175D01*
X117822476Y-101040753D01*
X117673053Y-101278557D01*
X117551200Y-101531588D01*
X117458443Y-101796670D01*
X117458439Y-101796682D01*
X117395945Y-102070487D01*
X117395942Y-102070505D01*
X117364500Y-102349568D01*
X39000500Y-102349568D01*
X39000500Y-91172155D01*
X93490000Y-91172155D01*
X93490000Y-91820000D01*
X94406988Y-91820000D01*
X94374075Y-91877007D01*
X94340000Y-92004174D01*
X94340000Y-92135826D01*
X94374075Y-92262993D01*
X94406988Y-92320000D01*
X93490000Y-92320000D01*
X93490000Y-92967844D01*
X93496401Y-93027372D01*
X93496403Y-93027379D01*
X93546645Y-93162086D01*
X93546649Y-93162093D01*
X93632809Y-93277187D01*
X93632812Y-93277190D01*
X93747906Y-93363350D01*
X93747913Y-93363354D01*
X93882620Y-93413596D01*
X93882627Y-93413598D01*
X93942155Y-93419999D01*
X93942172Y-93420000D01*
X94590000Y-93420000D01*
X94590000Y-92503012D01*
X94647007Y-92535925D01*
X94774174Y-92570000D01*
X94905826Y-92570000D01*
X95032993Y-92535925D01*
X95090000Y-92503012D01*
X95090000Y-93420000D01*
X95737828Y-93420000D01*
X95737844Y-93419999D01*
X95797372Y-93413598D01*
X95797379Y-93413596D01*
X95932086Y-93363354D01*
X95932093Y-93363350D01*
X96047187Y-93277190D01*
X96047190Y-93277187D01*
X96133350Y-93162093D01*
X96133354Y-93162086D01*
X96182422Y-93030529D01*
X96224293Y-92974595D01*
X96289757Y-92950178D01*
X96358030Y-92965030D01*
X96386285Y-92986181D01*
X96500213Y-93100109D01*
X96672179Y-93225048D01*
X96672181Y-93225049D01*
X96672184Y-93225051D01*
X96861588Y-93321557D01*
X97063757Y-93387246D01*
X97273713Y-93420500D01*
X97273714Y-93420500D01*
X97486286Y-93420500D01*
X97486287Y-93420500D01*
X97696243Y-93387246D01*
X97898412Y-93321557D01*
X98087816Y-93225051D01*
X98174471Y-93162093D01*
X98259786Y-93100109D01*
X98259788Y-93100106D01*
X98259792Y-93100104D01*
X98410104Y-92949792D01*
X98410106Y-92949788D01*
X98410109Y-92949786D01*
X98535048Y-92777820D01*
X98535047Y-92777820D01*
X98535051Y-92777816D01*
X98539514Y-92769054D01*
X98587488Y-92718259D01*
X98655308Y-92701463D01*
X98721444Y-92723999D01*
X98760486Y-92769056D01*
X98764951Y-92777820D01*
X98889890Y-92949786D01*
X99040213Y-93100109D01*
X99212179Y-93225048D01*
X99212181Y-93225049D01*
X99212184Y-93225051D01*
X99401588Y-93321557D01*
X99603757Y-93387246D01*
X99813713Y-93420500D01*
X99813714Y-93420500D01*
X100026286Y-93420500D01*
X100026287Y-93420500D01*
X100236243Y-93387246D01*
X100438412Y-93321557D01*
X100627816Y-93225051D01*
X100714471Y-93162093D01*
X100799786Y-93100109D01*
X100799788Y-93100106D01*
X100799792Y-93100104D01*
X100950104Y-92949792D01*
X100950106Y-92949788D01*
X100950109Y-92949786D01*
X101075048Y-92777820D01*
X101075047Y-92777820D01*
X101075051Y-92777816D01*
X101079514Y-92769054D01*
X101127488Y-92718259D01*
X101195308Y-92701463D01*
X101261444Y-92723999D01*
X101300486Y-92769056D01*
X101304951Y-92777820D01*
X101429890Y-92949786D01*
X101580213Y-93100109D01*
X101752179Y-93225048D01*
X101752181Y-93225049D01*
X101752184Y-93225051D01*
X101941588Y-93321557D01*
X102143757Y-93387246D01*
X102353713Y-93420500D01*
X102353714Y-93420500D01*
X102566286Y-93420500D01*
X102566287Y-93420500D01*
X102776243Y-93387246D01*
X102978412Y-93321557D01*
X103167816Y-93225051D01*
X103254471Y-93162093D01*
X103339786Y-93100109D01*
X103339788Y-93100106D01*
X103339792Y-93100104D01*
X103490104Y-92949792D01*
X103490106Y-92949788D01*
X103490109Y-92949786D01*
X103615048Y-92777820D01*
X103615047Y-92777820D01*
X103615051Y-92777816D01*
X103619514Y-92769054D01*
X103667488Y-92718259D01*
X103735308Y-92701463D01*
X103801444Y-92723999D01*
X103840486Y-92769056D01*
X103844951Y-92777820D01*
X103969890Y-92949786D01*
X104120213Y-93100109D01*
X104292179Y-93225048D01*
X104292181Y-93225049D01*
X104292184Y-93225051D01*
X104481588Y-93321557D01*
X104683757Y-93387246D01*
X104893713Y-93420500D01*
X104893714Y-93420500D01*
X105106286Y-93420500D01*
X105106287Y-93420500D01*
X105316243Y-93387246D01*
X105518412Y-93321557D01*
X105707816Y-93225051D01*
X105794471Y-93162093D01*
X105879786Y-93100109D01*
X105879788Y-93100106D01*
X105879792Y-93100104D01*
X106030104Y-92949792D01*
X106030106Y-92949788D01*
X106030109Y-92949786D01*
X106155048Y-92777820D01*
X106155047Y-92777820D01*
X106155051Y-92777816D01*
X106159514Y-92769054D01*
X106207488Y-92718259D01*
X106275308Y-92701463D01*
X106341444Y-92723999D01*
X106380486Y-92769056D01*
X106384951Y-92777820D01*
X106509890Y-92949786D01*
X106660213Y-93100109D01*
X106832179Y-93225048D01*
X106832181Y-93225049D01*
X106832184Y-93225051D01*
X107021588Y-93321557D01*
X107223757Y-93387246D01*
X107433713Y-93420500D01*
X107433714Y-93420500D01*
X107646286Y-93420500D01*
X107646287Y-93420500D01*
X107856243Y-93387246D01*
X108058412Y-93321557D01*
X108247816Y-93225051D01*
X108334471Y-93162093D01*
X108419786Y-93100109D01*
X108419788Y-93100106D01*
X108419792Y-93100104D01*
X108570104Y-92949792D01*
X108570106Y-92949788D01*
X108570109Y-92949786D01*
X108695048Y-92777820D01*
X108695047Y-92777820D01*
X108695051Y-92777816D01*
X108791557Y-92588412D01*
X108857246Y-92386243D01*
X108890500Y-92176287D01*
X108890500Y-91963713D01*
X108857246Y-91753757D01*
X108791557Y-91551588D01*
X108695051Y-91362184D01*
X108695049Y-91362181D01*
X108695048Y-91362179D01*
X108570109Y-91190213D01*
X108419786Y-91039890D01*
X108247820Y-90914951D01*
X108058414Y-90818444D01*
X108058413Y-90818443D01*
X108058412Y-90818443D01*
X107856243Y-90752754D01*
X107856241Y-90752753D01*
X107856240Y-90752753D01*
X107694957Y-90727208D01*
X107646287Y-90719500D01*
X107433713Y-90719500D01*
X107385042Y-90727208D01*
X107223760Y-90752753D01*
X107021585Y-90818444D01*
X106832179Y-90914951D01*
X106660213Y-91039890D01*
X106509890Y-91190213D01*
X106384949Y-91362182D01*
X106380484Y-91370946D01*
X106332509Y-91421742D01*
X106264688Y-91438536D01*
X106198553Y-91415998D01*
X106159516Y-91370946D01*
X106155050Y-91362182D01*
X106030109Y-91190213D01*
X105879786Y-91039890D01*
X105707820Y-90914951D01*
X105518414Y-90818444D01*
X105518413Y-90818443D01*
X105518412Y-90818443D01*
X105316243Y-90752754D01*
X105316241Y-90752753D01*
X105316240Y-90752753D01*
X105154957Y-90727208D01*
X105106287Y-90719500D01*
X104893713Y-90719500D01*
X104845042Y-90727208D01*
X104683760Y-90752753D01*
X104481585Y-90818444D01*
X104292179Y-90914951D01*
X104120213Y-91039890D01*
X103969890Y-91190213D01*
X103844949Y-91362182D01*
X103840484Y-91370946D01*
X103792509Y-91421742D01*
X103724688Y-91438536D01*
X103658553Y-91415998D01*
X103619516Y-91370946D01*
X103615050Y-91362182D01*
X103490109Y-91190213D01*
X103339786Y-91039890D01*
X103167820Y-90914951D01*
X102978414Y-90818444D01*
X102978413Y-90818443D01*
X102978412Y-90818443D01*
X102776243Y-90752754D01*
X102776241Y-90752753D01*
X102776240Y-90752753D01*
X102614957Y-90727208D01*
X102566287Y-90719500D01*
X102353713Y-90719500D01*
X102305042Y-90727208D01*
X102143760Y-90752753D01*
X101941585Y-90818444D01*
X101752179Y-90914951D01*
X101580213Y-91039890D01*
X101429890Y-91190213D01*
X101304949Y-91362182D01*
X101300484Y-91370946D01*
X101252509Y-91421742D01*
X101184688Y-91438536D01*
X101118553Y-91415998D01*
X101079516Y-91370946D01*
X101075050Y-91362182D01*
X100950109Y-91190213D01*
X100799786Y-91039890D01*
X100627820Y-90914951D01*
X100438414Y-90818444D01*
X100438413Y-90818443D01*
X100438412Y-90818443D01*
X100236243Y-90752754D01*
X100236241Y-90752753D01*
X100236240Y-90752753D01*
X100074957Y-90727208D01*
X100026287Y-90719500D01*
X99813713Y-90719500D01*
X99765042Y-90727208D01*
X99603760Y-90752753D01*
X99401585Y-90818444D01*
X99212179Y-90914951D01*
X99040213Y-91039890D01*
X98889890Y-91190213D01*
X98764949Y-91362182D01*
X98760484Y-91370946D01*
X98712509Y-91421742D01*
X98644688Y-91438536D01*
X98578553Y-91415998D01*
X98539516Y-91370946D01*
X98535050Y-91362182D01*
X98410109Y-91190213D01*
X98259786Y-91039890D01*
X98087820Y-90914951D01*
X97898414Y-90818444D01*
X97898413Y-90818443D01*
X97898412Y-90818443D01*
X97696243Y-90752754D01*
X97696241Y-90752753D01*
X97696240Y-90752753D01*
X97534957Y-90727208D01*
X97486287Y-90719500D01*
X97273713Y-90719500D01*
X97225042Y-90727208D01*
X97063760Y-90752753D01*
X96861585Y-90818444D01*
X96672179Y-90914951D01*
X96500215Y-91039889D01*
X96386285Y-91153819D01*
X96324962Y-91187303D01*
X96255270Y-91182319D01*
X96199337Y-91140447D01*
X96182422Y-91109470D01*
X96133354Y-90977913D01*
X96133350Y-90977906D01*
X96047190Y-90862812D01*
X96047187Y-90862809D01*
X95932093Y-90776649D01*
X95932086Y-90776645D01*
X95797379Y-90726403D01*
X95797372Y-90726401D01*
X95737844Y-90720000D01*
X95090000Y-90720000D01*
X95090000Y-91636988D01*
X95032993Y-91604075D01*
X94905826Y-91570000D01*
X94774174Y-91570000D01*
X94647007Y-91604075D01*
X94590000Y-91636988D01*
X94590000Y-90720000D01*
X93942155Y-90720000D01*
X93882627Y-90726401D01*
X93882620Y-90726403D01*
X93747913Y-90776645D01*
X93747906Y-90776649D01*
X93632812Y-90862809D01*
X93632809Y-90862812D01*
X93546649Y-90977906D01*
X93546645Y-90977913D01*
X93496403Y-91112620D01*
X93496401Y-91112627D01*
X93490000Y-91172155D01*
X39000500Y-91172155D01*
X39000500Y-83155263D01*
X114845500Y-83155263D01*
X114845500Y-83352736D01*
X114876389Y-83547763D01*
X114937408Y-83735558D01*
X114937409Y-83735561D01*
X115027056Y-83911501D01*
X115027058Y-83911504D01*
X115143115Y-84071246D01*
X115282753Y-84210884D01*
X115432234Y-84319486D01*
X115442499Y-84326944D01*
X115612404Y-84413516D01*
X115663199Y-84461490D01*
X115679994Y-84529311D01*
X115657456Y-84595446D01*
X115612404Y-84634483D01*
X115455321Y-84714522D01*
X115442495Y-84721058D01*
X115282753Y-84837115D01*
X115143115Y-84976753D01*
X115027058Y-85136495D01*
X114937408Y-85312441D01*
X114876389Y-85500236D01*
X114845500Y-85695263D01*
X114845500Y-85892736D01*
X114876389Y-86087763D01*
X114937408Y-86275558D01*
X114937409Y-86275561D01*
X115027056Y-86451501D01*
X115027058Y-86451504D01*
X115143115Y-86611246D01*
X115282753Y-86750884D01*
X115432234Y-86859486D01*
X115442499Y-86866944D01*
X115612404Y-86953516D01*
X115663199Y-87001490D01*
X115679994Y-87069311D01*
X115657456Y-87135446D01*
X115612404Y-87174483D01*
X115455321Y-87254522D01*
X115442495Y-87261058D01*
X115282753Y-87377115D01*
X115143115Y-87516753D01*
X115027058Y-87676495D01*
X114937408Y-87852441D01*
X114876389Y-88040236D01*
X114845500Y-88235263D01*
X114845500Y-88432736D01*
X114876389Y-88627763D01*
X114937408Y-88815558D01*
X114937409Y-88815561D01*
X115027056Y-88991501D01*
X115027058Y-88991504D01*
X115143115Y-89151246D01*
X115282753Y-89290884D01*
X115432234Y-89399486D01*
X115442499Y-89406944D01*
X115612404Y-89493516D01*
X115663199Y-89541490D01*
X115679994Y-89609311D01*
X115657456Y-89675446D01*
X115612404Y-89714483D01*
X115455321Y-89794522D01*
X115442495Y-89801058D01*
X115282753Y-89917115D01*
X115143115Y-90056753D01*
X115027058Y-90216495D01*
X114937408Y-90392441D01*
X114876389Y-90580236D01*
X114845500Y-90775263D01*
X114845500Y-90972736D01*
X114876389Y-91167763D01*
X114883684Y-91190213D01*
X114937409Y-91355561D01*
X115027056Y-91531501D01*
X115027058Y-91531504D01*
X115143115Y-91691246D01*
X115282753Y-91830884D01*
X115432234Y-91939486D01*
X115442499Y-91946944D01*
X115612404Y-92033516D01*
X115663199Y-92081490D01*
X115679994Y-92149311D01*
X115657456Y-92215446D01*
X115612404Y-92254483D01*
X115483823Y-92320000D01*
X115442495Y-92341058D01*
X115282753Y-92457115D01*
X115143115Y-92596753D01*
X115027058Y-92756495D01*
X114937408Y-92932441D01*
X114876389Y-93120236D01*
X114845500Y-93315263D01*
X114845500Y-93512736D01*
X114876389Y-93707763D01*
X114937348Y-93895373D01*
X114937409Y-93895561D01*
X115026923Y-94071239D01*
X115027058Y-94071504D01*
X115143115Y-94231246D01*
X115282753Y-94370884D01*
X115406158Y-94460541D01*
X115442499Y-94486944D01*
X115618439Y-94576591D01*
X115743637Y-94617270D01*
X115806236Y-94637610D01*
X116001264Y-94668500D01*
X116001269Y-94668500D01*
X116198736Y-94668500D01*
X116393763Y-94637610D01*
X116395262Y-94637123D01*
X116581561Y-94576591D01*
X116757501Y-94486944D01*
X116847192Y-94421779D01*
X116917246Y-94370884D01*
X116917248Y-94370881D01*
X116917252Y-94370879D01*
X117056879Y-94231252D01*
X117056881Y-94231248D01*
X117056884Y-94231246D01*
X117107779Y-94161192D01*
X117172944Y-94071501D01*
X117262591Y-93895561D01*
X117323610Y-93707763D01*
X117323629Y-93707646D01*
X117354500Y-93512736D01*
X117354500Y-93315263D01*
X117323610Y-93120236D01*
X117289059Y-93013901D01*
X117262591Y-92932439D01*
X117172944Y-92756499D01*
X117145161Y-92718259D01*
X117056884Y-92596753D01*
X116917246Y-92457115D01*
X116757505Y-92341058D01*
X116751119Y-92337804D01*
X116587593Y-92254482D01*
X116536800Y-92206510D01*
X116520005Y-92138689D01*
X116542542Y-92072554D01*
X116587593Y-92033517D01*
X116757501Y-91946944D01*
X116853762Y-91877007D01*
X116917246Y-91830884D01*
X116917248Y-91830881D01*
X116917252Y-91830879D01*
X117056879Y-91691252D01*
X117056881Y-91691248D01*
X117056884Y-91691246D01*
X117144973Y-91570000D01*
X117172944Y-91531501D01*
X117262591Y-91355561D01*
X117323610Y-91167763D01*
X117325819Y-91153819D01*
X117354500Y-90972736D01*
X117354500Y-90775263D01*
X117323610Y-90580236D01*
X117303270Y-90517637D01*
X117262591Y-90392439D01*
X117172944Y-90216499D01*
X117165486Y-90206234D01*
X117056884Y-90056753D01*
X116917246Y-89917115D01*
X116757505Y-89801058D01*
X116751119Y-89797804D01*
X116587593Y-89714482D01*
X116536800Y-89666510D01*
X116520005Y-89598689D01*
X116542542Y-89532554D01*
X116587593Y-89493517D01*
X116757501Y-89406944D01*
X116777912Y-89392114D01*
X116917246Y-89290884D01*
X116917248Y-89290881D01*
X116917252Y-89290879D01*
X117056879Y-89151252D01*
X117056881Y-89151248D01*
X117056884Y-89151246D01*
X117107779Y-89081192D01*
X117172944Y-88991501D01*
X117262591Y-88815561D01*
X117323610Y-88627763D01*
X117354500Y-88432736D01*
X117354500Y-88235263D01*
X117323610Y-88040236D01*
X117303270Y-87977637D01*
X117262591Y-87852439D01*
X117172944Y-87676499D01*
X117165486Y-87666234D01*
X117056884Y-87516753D01*
X116917246Y-87377115D01*
X116757505Y-87261058D01*
X116751119Y-87257804D01*
X116587593Y-87174482D01*
X116536800Y-87126510D01*
X116520005Y-87058689D01*
X116542542Y-86992554D01*
X116587593Y-86953517D01*
X116757501Y-86866944D01*
X116777912Y-86852114D01*
X116917246Y-86750884D01*
X116917248Y-86750881D01*
X116917252Y-86750879D01*
X117056879Y-86611252D01*
X117056881Y-86611248D01*
X117056884Y-86611246D01*
X117107779Y-86541192D01*
X117172944Y-86451501D01*
X117262591Y-86275561D01*
X117323610Y-86087763D01*
X117354500Y-85892736D01*
X117354500Y-85695263D01*
X117323610Y-85500236D01*
X117303270Y-85437637D01*
X117262591Y-85312439D01*
X117172944Y-85136499D01*
X117165486Y-85126234D01*
X117056884Y-84976753D01*
X116917246Y-84837115D01*
X116757505Y-84721058D01*
X116751119Y-84717804D01*
X116587593Y-84634482D01*
X116536800Y-84586510D01*
X116520005Y-84518689D01*
X116542542Y-84452554D01*
X116587593Y-84413517D01*
X116757501Y-84326944D01*
X116777912Y-84312114D01*
X116917246Y-84210884D01*
X116917248Y-84210881D01*
X116917252Y-84210879D01*
X117056879Y-84071252D01*
X117056881Y-84071248D01*
X117056884Y-84071246D01*
X117107779Y-84001192D01*
X117172944Y-83911501D01*
X117262591Y-83735561D01*
X117323610Y-83547763D01*
X117354500Y-83352736D01*
X117354500Y-83155263D01*
X117323610Y-82960236D01*
X117303270Y-82897637D01*
X117262591Y-82772439D01*
X117172944Y-82596499D01*
X117165486Y-82586234D01*
X117056884Y-82436753D01*
X116917246Y-82297115D01*
X116757504Y-82181058D01*
X116757503Y-82181057D01*
X116757501Y-82181056D01*
X116581561Y-82091409D01*
X116581558Y-82091408D01*
X116393763Y-82030389D01*
X116198736Y-81999500D01*
X116198731Y-81999500D01*
X116001269Y-81999500D01*
X116001264Y-81999500D01*
X115806236Y-82030389D01*
X115618441Y-82091408D01*
X115442495Y-82181058D01*
X115282753Y-82297115D01*
X115143115Y-82436753D01*
X115027058Y-82596495D01*
X114937408Y-82772441D01*
X114876389Y-82960236D01*
X114845500Y-83155263D01*
X39000500Y-83155263D01*
X39000500Y-74378711D01*
X43649500Y-74378711D01*
X43649500Y-74621288D01*
X43681161Y-74861785D01*
X43743947Y-75096104D01*
X43767282Y-75152439D01*
X43836776Y-75320212D01*
X43958064Y-75530289D01*
X43958066Y-75530292D01*
X43958067Y-75530293D01*
X44105733Y-75722736D01*
X44105739Y-75722743D01*
X44277256Y-75894260D01*
X44277263Y-75894266D01*
X44390321Y-75981018D01*
X44469711Y-76041936D01*
X44679788Y-76163224D01*
X44903900Y-76256054D01*
X45138211Y-76318838D01*
X45318586Y-76342584D01*
X45378711Y-76350500D01*
X45378712Y-76350500D01*
X45621289Y-76350500D01*
X45669388Y-76344167D01*
X45861789Y-76318838D01*
X46096100Y-76256054D01*
X46320212Y-76163224D01*
X46530289Y-76041936D01*
X46722738Y-75894265D01*
X46894265Y-75722738D01*
X47041936Y-75530289D01*
X47163224Y-75320212D01*
X47256054Y-75096100D01*
X47318838Y-74861789D01*
X47350500Y-74621288D01*
X47350500Y-74378712D01*
X47318838Y-74138211D01*
X47256054Y-73903900D01*
X47163224Y-73679788D01*
X47041936Y-73469711D01*
X46894265Y-73277262D01*
X46894260Y-73277256D01*
X46722743Y-73105739D01*
X46722736Y-73105733D01*
X46530293Y-72958067D01*
X46530292Y-72958066D01*
X46530289Y-72958064D01*
X46358661Y-72858974D01*
X46320214Y-72836777D01*
X46320205Y-72836773D01*
X46096104Y-72743947D01*
X45861785Y-72681161D01*
X45621289Y-72649500D01*
X45621288Y-72649500D01*
X45378712Y-72649500D01*
X45378711Y-72649500D01*
X45138214Y-72681161D01*
X44903895Y-72743947D01*
X44679794Y-72836773D01*
X44679785Y-72836777D01*
X44587466Y-72890078D01*
X44470607Y-72957547D01*
X44469706Y-72958067D01*
X44277263Y-73105733D01*
X44277256Y-73105739D01*
X44105739Y-73277256D01*
X44105733Y-73277263D01*
X43958067Y-73469706D01*
X43836777Y-73679785D01*
X43836773Y-73679794D01*
X43743947Y-73903895D01*
X43681161Y-74138214D01*
X43649500Y-74378711D01*
X39000500Y-74378711D01*
X39000500Y-71002706D01*
X39000618Y-70997298D01*
X39003377Y-70934108D01*
X39006956Y-70852135D01*
X93489500Y-70852135D01*
X93489500Y-72647870D01*
X93489501Y-72647876D01*
X93495908Y-72707483D01*
X93546202Y-72842328D01*
X93546206Y-72842335D01*
X93632452Y-72957544D01*
X93632455Y-72957547D01*
X93747664Y-73043793D01*
X93747671Y-73043797D01*
X93882517Y-73094091D01*
X93882516Y-73094091D01*
X93889444Y-73094835D01*
X93942127Y-73100500D01*
X95737872Y-73100499D01*
X95797483Y-73094091D01*
X95932331Y-73043796D01*
X96047546Y-72957546D01*
X96133796Y-72842331D01*
X96182810Y-72710916D01*
X96224681Y-72654984D01*
X96290145Y-72630566D01*
X96358418Y-72645417D01*
X96386673Y-72666569D01*
X96500213Y-72780109D01*
X96672179Y-72905048D01*
X96672181Y-72905049D01*
X96672184Y-72905051D01*
X96861588Y-73001557D01*
X97063757Y-73067246D01*
X97273713Y-73100500D01*
X97273714Y-73100500D01*
X97486286Y-73100500D01*
X97486287Y-73100500D01*
X97696243Y-73067246D01*
X97898412Y-73001557D01*
X98087816Y-72905051D01*
X98174138Y-72842335D01*
X98259786Y-72780109D01*
X98259788Y-72780106D01*
X98259792Y-72780104D01*
X98410104Y-72629792D01*
X98410106Y-72629788D01*
X98410109Y-72629786D01*
X98535048Y-72457820D01*
X98535047Y-72457820D01*
X98535051Y-72457816D01*
X98539514Y-72449054D01*
X98587488Y-72398259D01*
X98655308Y-72381463D01*
X98721444Y-72403999D01*
X98760486Y-72449056D01*
X98764951Y-72457820D01*
X98889890Y-72629786D01*
X99040213Y-72780109D01*
X99212179Y-72905048D01*
X99212181Y-72905049D01*
X99212184Y-72905051D01*
X99401588Y-73001557D01*
X99603757Y-73067246D01*
X99813713Y-73100500D01*
X99813714Y-73100500D01*
X100026286Y-73100500D01*
X100026287Y-73100500D01*
X100236243Y-73067246D01*
X100438412Y-73001557D01*
X100627816Y-72905051D01*
X100714138Y-72842335D01*
X100799786Y-72780109D01*
X100799788Y-72780106D01*
X100799792Y-72780104D01*
X100950104Y-72629792D01*
X100950106Y-72629788D01*
X100950109Y-72629786D01*
X101075048Y-72457820D01*
X101075047Y-72457820D01*
X101075051Y-72457816D01*
X101079514Y-72449054D01*
X101127488Y-72398259D01*
X101195308Y-72381463D01*
X101261444Y-72403999D01*
X101300486Y-72449056D01*
X101304951Y-72457820D01*
X101429890Y-72629786D01*
X101580213Y-72780109D01*
X101752179Y-72905048D01*
X101752181Y-72905049D01*
X101752184Y-72905051D01*
X101941588Y-73001557D01*
X102143757Y-73067246D01*
X102353713Y-73100500D01*
X102353714Y-73100500D01*
X102566286Y-73100500D01*
X102566287Y-73100500D01*
X102776243Y-73067246D01*
X102978412Y-73001557D01*
X103167816Y-72905051D01*
X103254138Y-72842335D01*
X103339786Y-72780109D01*
X103339788Y-72780106D01*
X103339792Y-72780104D01*
X103490104Y-72629792D01*
X103490106Y-72629788D01*
X103490109Y-72629786D01*
X103615048Y-72457820D01*
X103615047Y-72457820D01*
X103615051Y-72457816D01*
X103619514Y-72449054D01*
X103667488Y-72398259D01*
X103735308Y-72381463D01*
X103801444Y-72403999D01*
X103840486Y-72449056D01*
X103844951Y-72457820D01*
X103969890Y-72629786D01*
X104120213Y-72780109D01*
X104292179Y-72905048D01*
X104292181Y-72905049D01*
X104292184Y-72905051D01*
X104481588Y-73001557D01*
X104683757Y-73067246D01*
X104893713Y-73100500D01*
X104893714Y-73100500D01*
X105106286Y-73100500D01*
X105106287Y-73100500D01*
X105316243Y-73067246D01*
X105518412Y-73001557D01*
X105707816Y-72905051D01*
X105794138Y-72842335D01*
X105879786Y-72780109D01*
X105879788Y-72780106D01*
X105879792Y-72780104D01*
X106030104Y-72629792D01*
X106030106Y-72629788D01*
X106030109Y-72629786D01*
X106155048Y-72457820D01*
X106155047Y-72457820D01*
X106155051Y-72457816D01*
X106159514Y-72449054D01*
X106207488Y-72398259D01*
X106275308Y-72381463D01*
X106341444Y-72403999D01*
X106380486Y-72449056D01*
X106384951Y-72457820D01*
X106509890Y-72629786D01*
X106660213Y-72780109D01*
X106832179Y-72905048D01*
X106832181Y-72905049D01*
X106832184Y-72905051D01*
X107021588Y-73001557D01*
X107223757Y-73067246D01*
X107433713Y-73100500D01*
X107433714Y-73100500D01*
X107646286Y-73100500D01*
X107646287Y-73100500D01*
X107856243Y-73067246D01*
X108058412Y-73001557D01*
X108070765Y-72995263D01*
X140245500Y-72995263D01*
X140245500Y-73192736D01*
X140276389Y-73387763D01*
X140303016Y-73469711D01*
X140337409Y-73575561D01*
X140427056Y-73751501D01*
X140427058Y-73751504D01*
X140543115Y-73911246D01*
X140682753Y-74050884D01*
X140802951Y-74138211D01*
X140842499Y-74166944D01*
X141012404Y-74253516D01*
X141063199Y-74301490D01*
X141079994Y-74369311D01*
X141057456Y-74435446D01*
X141012404Y-74474483D01*
X140855321Y-74554522D01*
X140842495Y-74561058D01*
X140682753Y-74677115D01*
X140543115Y-74816753D01*
X140427058Y-74976495D01*
X140337408Y-75152441D01*
X140276389Y-75340236D01*
X140245500Y-75535263D01*
X140245500Y-75732736D01*
X140276389Y-75927763D01*
X140337408Y-76115558D01*
X140337409Y-76115561D01*
X140361694Y-76163222D01*
X140427058Y-76291504D01*
X140543115Y-76451246D01*
X140682753Y-76590884D01*
X140832234Y-76699486D01*
X140842499Y-76706944D01*
X141012404Y-76793516D01*
X141063199Y-76841490D01*
X141079994Y-76909311D01*
X141057456Y-76975446D01*
X141012404Y-77014483D01*
X140855321Y-77094522D01*
X140842495Y-77101058D01*
X140682753Y-77217115D01*
X140543115Y-77356753D01*
X140427058Y-77516495D01*
X140337408Y-77692441D01*
X140276389Y-77880236D01*
X140245500Y-78075263D01*
X140245500Y-78272736D01*
X140276389Y-78467763D01*
X140337408Y-78655558D01*
X140337409Y-78655561D01*
X140427056Y-78831501D01*
X140427058Y-78831504D01*
X140543115Y-78991246D01*
X140682753Y-79130884D01*
X140832234Y-79239486D01*
X140842499Y-79246944D01*
X141012404Y-79333516D01*
X141063199Y-79381490D01*
X141079994Y-79449311D01*
X141057456Y-79515446D01*
X141012404Y-79554483D01*
X140855321Y-79634522D01*
X140842495Y-79641058D01*
X140682753Y-79757115D01*
X140543115Y-79896753D01*
X140427058Y-80056495D01*
X140337408Y-80232441D01*
X140276389Y-80420236D01*
X140245500Y-80615263D01*
X140245500Y-80812736D01*
X140276389Y-81007763D01*
X140337408Y-81195558D01*
X140337409Y-81195561D01*
X140427056Y-81371501D01*
X140427058Y-81371504D01*
X140543115Y-81531246D01*
X140682753Y-81670884D01*
X140832234Y-81779486D01*
X140842499Y-81786944D01*
X141012404Y-81873516D01*
X141063199Y-81921490D01*
X141079994Y-81989311D01*
X141057456Y-82055446D01*
X141012404Y-82094483D01*
X140855321Y-82174522D01*
X140842495Y-82181058D01*
X140682753Y-82297115D01*
X140543115Y-82436753D01*
X140427058Y-82596495D01*
X140337408Y-82772441D01*
X140276389Y-82960236D01*
X140245500Y-83155263D01*
X140245500Y-83352736D01*
X140276389Y-83547763D01*
X140337408Y-83735558D01*
X140337409Y-83735561D01*
X140427056Y-83911501D01*
X140427058Y-83911504D01*
X140543115Y-84071246D01*
X140682753Y-84210884D01*
X140832234Y-84319486D01*
X140842499Y-84326944D01*
X141012404Y-84413516D01*
X141063199Y-84461490D01*
X141079994Y-84529311D01*
X141057456Y-84595446D01*
X141012404Y-84634483D01*
X140855321Y-84714522D01*
X140842495Y-84721058D01*
X140682753Y-84837115D01*
X140543115Y-84976753D01*
X140427058Y-85136495D01*
X140337408Y-85312441D01*
X140276389Y-85500236D01*
X140245500Y-85695263D01*
X140245500Y-85892736D01*
X140276389Y-86087763D01*
X140337408Y-86275558D01*
X140337409Y-86275561D01*
X140427056Y-86451501D01*
X140427058Y-86451504D01*
X140543115Y-86611246D01*
X140682753Y-86750884D01*
X140832234Y-86859486D01*
X140842499Y-86866944D01*
X141012404Y-86953516D01*
X141063199Y-87001490D01*
X141079994Y-87069311D01*
X141057456Y-87135446D01*
X141012404Y-87174483D01*
X140855321Y-87254522D01*
X140842495Y-87261058D01*
X140682753Y-87377115D01*
X140543115Y-87516753D01*
X140427058Y-87676495D01*
X140337408Y-87852441D01*
X140276389Y-88040236D01*
X140245500Y-88235263D01*
X140245500Y-88432736D01*
X140276389Y-88627763D01*
X140337408Y-88815558D01*
X140337409Y-88815561D01*
X140427056Y-88991501D01*
X140427058Y-88991504D01*
X140543115Y-89151246D01*
X140682753Y-89290884D01*
X140832234Y-89399486D01*
X140842499Y-89406944D01*
X141012404Y-89493516D01*
X141063199Y-89541490D01*
X141079994Y-89609311D01*
X141057456Y-89675446D01*
X141012404Y-89714483D01*
X140855321Y-89794522D01*
X140842495Y-89801058D01*
X140682753Y-89917115D01*
X140543115Y-90056753D01*
X140427058Y-90216495D01*
X140337408Y-90392441D01*
X140276389Y-90580236D01*
X140245500Y-90775263D01*
X140245500Y-90972736D01*
X140276389Y-91167763D01*
X140283684Y-91190213D01*
X140337409Y-91355561D01*
X140427056Y-91531501D01*
X140427058Y-91531504D01*
X140543115Y-91691246D01*
X140682753Y-91830884D01*
X140842494Y-91946941D01*
X140842496Y-91946942D01*
X140842499Y-91946944D01*
X141012956Y-92033797D01*
X141063749Y-92081768D01*
X141080544Y-92149589D01*
X141058007Y-92215724D01*
X141012954Y-92254763D01*
X140842767Y-92341479D01*
X140842760Y-92341483D01*
X140807010Y-92367456D01*
X140807010Y-92367457D01*
X141370591Y-92931037D01*
X141307007Y-92948075D01*
X141192993Y-93013901D01*
X141099901Y-93106993D01*
X141034075Y-93221007D01*
X141017037Y-93284590D01*
X140453457Y-92721010D01*
X140453456Y-92721010D01*
X140427483Y-92756760D01*
X140427482Y-92756762D01*
X140337873Y-92932626D01*
X140276876Y-93120353D01*
X140246000Y-93315302D01*
X140246000Y-93512697D01*
X140276876Y-93707646D01*
X140337873Y-93895373D01*
X140427483Y-94071239D01*
X140453457Y-94106988D01*
X140453457Y-94106989D01*
X141017037Y-93543408D01*
X141034075Y-93606993D01*
X141099901Y-93721007D01*
X141192993Y-93814099D01*
X141307007Y-93879925D01*
X141370590Y-93896962D01*
X140807009Y-94460541D01*
X140807010Y-94460542D01*
X140842755Y-94486512D01*
X140842768Y-94486520D01*
X141018626Y-94576126D01*
X141206353Y-94637123D01*
X141401303Y-94668000D01*
X141598697Y-94668000D01*
X141793646Y-94637123D01*
X141981373Y-94576126D01*
X142157241Y-94486516D01*
X142192988Y-94460543D01*
X142192988Y-94460541D01*
X141629410Y-93896962D01*
X141692993Y-93879925D01*
X141807007Y-93814099D01*
X141900099Y-93721007D01*
X141965925Y-93606993D01*
X141982962Y-93543409D01*
X142546541Y-94106988D01*
X142546543Y-94106988D01*
X142572516Y-94071241D01*
X142662126Y-93895373D01*
X142723123Y-93707646D01*
X142754000Y-93512697D01*
X142754000Y-93315302D01*
X142723123Y-93120353D01*
X142662126Y-92932626D01*
X142572520Y-92756768D01*
X142572512Y-92756755D01*
X142546542Y-92721010D01*
X142546541Y-92721009D01*
X141982962Y-93284589D01*
X141965925Y-93221007D01*
X141900099Y-93106993D01*
X141807007Y-93013901D01*
X141692993Y-92948075D01*
X141629409Y-92931037D01*
X142192989Y-92367457D01*
X142157236Y-92341481D01*
X141987045Y-92254763D01*
X141936250Y-92206789D01*
X141919455Y-92138968D01*
X141941993Y-92072833D01*
X141987042Y-92033798D01*
X142157501Y-91946944D01*
X142253762Y-91877007D01*
X142317246Y-91830884D01*
X142317248Y-91830881D01*
X142317252Y-91830879D01*
X142456879Y-91691252D01*
X142456881Y-91691248D01*
X142456884Y-91691246D01*
X142544973Y-91570000D01*
X142572944Y-91531501D01*
X142662591Y-91355561D01*
X142723610Y-91167763D01*
X142725819Y-91153819D01*
X142754500Y-90972736D01*
X142754500Y-90775263D01*
X142723610Y-90580236D01*
X142703270Y-90517637D01*
X142662591Y-90392439D01*
X142572944Y-90216499D01*
X142565486Y-90206234D01*
X142456884Y-90056753D01*
X142317246Y-89917115D01*
X142157505Y-89801058D01*
X142151119Y-89797804D01*
X141987593Y-89714482D01*
X141936800Y-89666510D01*
X141920005Y-89598689D01*
X141942542Y-89532554D01*
X141987593Y-89493517D01*
X142157501Y-89406944D01*
X142177912Y-89392114D01*
X142317246Y-89290884D01*
X142317248Y-89290881D01*
X142317252Y-89290879D01*
X142456879Y-89151252D01*
X142456881Y-89151248D01*
X142456884Y-89151246D01*
X142507779Y-89081192D01*
X142572944Y-88991501D01*
X142662591Y-88815561D01*
X142723610Y-88627763D01*
X142754500Y-88432736D01*
X142754500Y-88235263D01*
X142723610Y-88040236D01*
X142703270Y-87977637D01*
X142662591Y-87852439D01*
X142572944Y-87676499D01*
X142565486Y-87666234D01*
X142456884Y-87516753D01*
X142317246Y-87377115D01*
X142157505Y-87261058D01*
X142151119Y-87257804D01*
X141987593Y-87174482D01*
X141936800Y-87126510D01*
X141920005Y-87058689D01*
X141942542Y-86992554D01*
X141987593Y-86953517D01*
X142157501Y-86866944D01*
X142177912Y-86852114D01*
X142317246Y-86750884D01*
X142317248Y-86750881D01*
X142317252Y-86750879D01*
X142456879Y-86611252D01*
X142456881Y-86611248D01*
X142456884Y-86611246D01*
X142507779Y-86541192D01*
X142572944Y-86451501D01*
X142662591Y-86275561D01*
X142723610Y-86087763D01*
X142754500Y-85892736D01*
X142754500Y-85695263D01*
X142723610Y-85500236D01*
X142703270Y-85437637D01*
X142662591Y-85312439D01*
X142572944Y-85136499D01*
X142565486Y-85126234D01*
X142456884Y-84976753D01*
X142317246Y-84837115D01*
X142157505Y-84721058D01*
X142151119Y-84717804D01*
X141987593Y-84634482D01*
X141936800Y-84586510D01*
X141920005Y-84518689D01*
X141942542Y-84452554D01*
X141987593Y-84413517D01*
X142157501Y-84326944D01*
X142177912Y-84312114D01*
X142317246Y-84210884D01*
X142317248Y-84210881D01*
X142317252Y-84210879D01*
X142456879Y-84071252D01*
X142456881Y-84071248D01*
X142456884Y-84071246D01*
X142507779Y-84001192D01*
X142572944Y-83911501D01*
X142662591Y-83735561D01*
X142723610Y-83547763D01*
X142754500Y-83352736D01*
X142754500Y-83155263D01*
X142723610Y-82960236D01*
X142703270Y-82897637D01*
X142662591Y-82772439D01*
X142572944Y-82596499D01*
X142565486Y-82586234D01*
X142456884Y-82436753D01*
X142317246Y-82297115D01*
X142157505Y-82181058D01*
X142151119Y-82177804D01*
X141987593Y-82094482D01*
X141936800Y-82046510D01*
X141920005Y-81978689D01*
X141942542Y-81912554D01*
X141987593Y-81873517D01*
X142157501Y-81786944D01*
X142177912Y-81772114D01*
X142317246Y-81670884D01*
X142317248Y-81670881D01*
X142317252Y-81670879D01*
X142456879Y-81531252D01*
X142456881Y-81531248D01*
X142456884Y-81531246D01*
X142507779Y-81461192D01*
X142572944Y-81371501D01*
X142662591Y-81195561D01*
X142723610Y-81007763D01*
X142754500Y-80812736D01*
X142754500Y-80615263D01*
X142723610Y-80420236D01*
X142703270Y-80357637D01*
X142662591Y-80232439D01*
X142572944Y-80056499D01*
X142565486Y-80046234D01*
X142456884Y-79896753D01*
X142317246Y-79757115D01*
X142157505Y-79641058D01*
X142151119Y-79637804D01*
X141987593Y-79554482D01*
X141936800Y-79506510D01*
X141920005Y-79438689D01*
X141942542Y-79372554D01*
X141987593Y-79333517D01*
X142157501Y-79246944D01*
X142177912Y-79232114D01*
X142317246Y-79130884D01*
X142317248Y-79130881D01*
X142317252Y-79130879D01*
X142456879Y-78991252D01*
X142456881Y-78991248D01*
X142456884Y-78991246D01*
X142507779Y-78921192D01*
X142572944Y-78831501D01*
X142662591Y-78655561D01*
X142723610Y-78467763D01*
X142754500Y-78272736D01*
X142754500Y-78075263D01*
X142723610Y-77880236D01*
X142703270Y-77817637D01*
X142662591Y-77692439D01*
X142572944Y-77516499D01*
X142565486Y-77506234D01*
X142456884Y-77356753D01*
X142317246Y-77217115D01*
X142157505Y-77101058D01*
X142151119Y-77097804D01*
X141987593Y-77014482D01*
X141936800Y-76966510D01*
X141920005Y-76898689D01*
X141942542Y-76832554D01*
X141987593Y-76793517D01*
X142157501Y-76706944D01*
X142177912Y-76692114D01*
X142317246Y-76590884D01*
X142317248Y-76590881D01*
X142317252Y-76590879D01*
X142456879Y-76451252D01*
X142456881Y-76451248D01*
X142456884Y-76451246D01*
X142530079Y-76350500D01*
X142572944Y-76291501D01*
X142662591Y-76115561D01*
X142723610Y-75927763D01*
X142754500Y-75732736D01*
X142754500Y-75535263D01*
X142723610Y-75340236D01*
X142703270Y-75277637D01*
X142662591Y-75152439D01*
X142572944Y-74976499D01*
X142565486Y-74966234D01*
X142456884Y-74816753D01*
X142317246Y-74677115D01*
X142157505Y-74561058D01*
X142151119Y-74557804D01*
X141987593Y-74474482D01*
X141936800Y-74426510D01*
X141920005Y-74358689D01*
X141942542Y-74292554D01*
X141987593Y-74253517D01*
X142157501Y-74166944D01*
X142197049Y-74138211D01*
X142317246Y-74050884D01*
X142317248Y-74050881D01*
X142317252Y-74050879D01*
X142456879Y-73911252D01*
X142456881Y-73911248D01*
X142456884Y-73911246D01*
X142507779Y-73841192D01*
X142572944Y-73751501D01*
X142662591Y-73575561D01*
X142723610Y-73387763D01*
X142754500Y-73192736D01*
X142754500Y-72995263D01*
X142723610Y-72800236D01*
X142694588Y-72710917D01*
X142662591Y-72612439D01*
X142572944Y-72436499D01*
X142539310Y-72390205D01*
X142456884Y-72276753D01*
X142317246Y-72137115D01*
X142157504Y-72021058D01*
X142157503Y-72021057D01*
X142157501Y-72021056D01*
X141981561Y-71931409D01*
X141981558Y-71931408D01*
X141793763Y-71870389D01*
X141598736Y-71839500D01*
X141598731Y-71839500D01*
X141401269Y-71839500D01*
X141401264Y-71839500D01*
X141206236Y-71870389D01*
X141018441Y-71931408D01*
X140842495Y-72021058D01*
X140682753Y-72137115D01*
X140543115Y-72276753D01*
X140427058Y-72436495D01*
X140337408Y-72612441D01*
X140276389Y-72800236D01*
X140245500Y-72995263D01*
X108070765Y-72995263D01*
X108247816Y-72905051D01*
X108419792Y-72780104D01*
X108570104Y-72629792D01*
X108570106Y-72629788D01*
X108570109Y-72629786D01*
X108695048Y-72457820D01*
X108695047Y-72457820D01*
X108695051Y-72457816D01*
X108791557Y-72268412D01*
X108857246Y-72066243D01*
X108890500Y-71856287D01*
X108890500Y-71643713D01*
X108857246Y-71433757D01*
X108791557Y-71231588D01*
X108695051Y-71042184D01*
X108695049Y-71042181D01*
X108695048Y-71042179D01*
X108570109Y-70870213D01*
X108419786Y-70719890D01*
X108247820Y-70594951D01*
X108058414Y-70498444D01*
X108058413Y-70498443D01*
X108058412Y-70498443D01*
X107856243Y-70432754D01*
X107856241Y-70432753D01*
X107856240Y-70432753D01*
X107694957Y-70407208D01*
X107646287Y-70399500D01*
X107433713Y-70399500D01*
X107385042Y-70407208D01*
X107223760Y-70432753D01*
X107021585Y-70498444D01*
X106832179Y-70594951D01*
X106660213Y-70719890D01*
X106509890Y-70870213D01*
X106384949Y-71042182D01*
X106380484Y-71050946D01*
X106332509Y-71101742D01*
X106264688Y-71118536D01*
X106198553Y-71095998D01*
X106159516Y-71050946D01*
X106155050Y-71042182D01*
X106030109Y-70870213D01*
X105879786Y-70719890D01*
X105707820Y-70594951D01*
X105518414Y-70498444D01*
X105518413Y-70498443D01*
X105518412Y-70498443D01*
X105316243Y-70432754D01*
X105316241Y-70432753D01*
X105316240Y-70432753D01*
X105154957Y-70407208D01*
X105106287Y-70399500D01*
X104893713Y-70399500D01*
X104845042Y-70407208D01*
X104683760Y-70432753D01*
X104481585Y-70498444D01*
X104292179Y-70594951D01*
X104120213Y-70719890D01*
X103969890Y-70870213D01*
X103844949Y-71042182D01*
X103840484Y-71050946D01*
X103792509Y-71101742D01*
X103724688Y-71118536D01*
X103658553Y-71095998D01*
X103619516Y-71050946D01*
X103615050Y-71042182D01*
X103490109Y-70870213D01*
X103339786Y-70719890D01*
X103167820Y-70594951D01*
X102978414Y-70498444D01*
X102978413Y-70498443D01*
X102978412Y-70498443D01*
X102776243Y-70432754D01*
X102776241Y-70432753D01*
X102776240Y-70432753D01*
X102614957Y-70407208D01*
X102566287Y-70399500D01*
X102353713Y-70399500D01*
X102305042Y-70407208D01*
X102143760Y-70432753D01*
X101941585Y-70498444D01*
X101752179Y-70594951D01*
X101580213Y-70719890D01*
X101429890Y-70870213D01*
X101304949Y-71042182D01*
X101300484Y-71050946D01*
X101252509Y-71101742D01*
X101184688Y-71118536D01*
X101118553Y-71095998D01*
X101079516Y-71050946D01*
X101075050Y-71042182D01*
X100950109Y-70870213D01*
X100799786Y-70719890D01*
X100627820Y-70594951D01*
X100438414Y-70498444D01*
X100438413Y-70498443D01*
X100438412Y-70498443D01*
X100236243Y-70432754D01*
X100236241Y-70432753D01*
X100236240Y-70432753D01*
X100074957Y-70407208D01*
X100026287Y-70399500D01*
X99813713Y-70399500D01*
X99765042Y-70407208D01*
X99603760Y-70432753D01*
X99401585Y-70498444D01*
X99212179Y-70594951D01*
X99040213Y-70719890D01*
X98889890Y-70870213D01*
X98764949Y-71042182D01*
X98760484Y-71050946D01*
X98712509Y-71101742D01*
X98644688Y-71118536D01*
X98578553Y-71095998D01*
X98539516Y-71050946D01*
X98535050Y-71042182D01*
X98410109Y-70870213D01*
X98259786Y-70719890D01*
X98087820Y-70594951D01*
X97898414Y-70498444D01*
X97898413Y-70498443D01*
X97898412Y-70498443D01*
X97696243Y-70432754D01*
X97696241Y-70432753D01*
X97696240Y-70432753D01*
X97534957Y-70407208D01*
X97486287Y-70399500D01*
X97273713Y-70399500D01*
X97225042Y-70407208D01*
X97063760Y-70432753D01*
X96861585Y-70498444D01*
X96672179Y-70594951D01*
X96500215Y-70719889D01*
X96386673Y-70833431D01*
X96325350Y-70866915D01*
X96255658Y-70861931D01*
X96199725Y-70820059D01*
X96182810Y-70789082D01*
X96133797Y-70657671D01*
X96133793Y-70657664D01*
X96047547Y-70542455D01*
X96047544Y-70542452D01*
X95932335Y-70456206D01*
X95932328Y-70456202D01*
X95797482Y-70405908D01*
X95797483Y-70405908D01*
X95737883Y-70399501D01*
X95737881Y-70399500D01*
X95737873Y-70399500D01*
X95737864Y-70399500D01*
X93942129Y-70399500D01*
X93942123Y-70399501D01*
X93882516Y-70405908D01*
X93747671Y-70456202D01*
X93747664Y-70456206D01*
X93632455Y-70542452D01*
X93632452Y-70542455D01*
X93546206Y-70657664D01*
X93546202Y-70657671D01*
X93495908Y-70792517D01*
X93489501Y-70852116D01*
X93489500Y-70852135D01*
X39006956Y-70852135D01*
X39017386Y-70613226D01*
X39018326Y-70602495D01*
X39068152Y-70224025D01*
X39070025Y-70213405D01*
X39152649Y-69840709D01*
X39155440Y-69830295D01*
X39270230Y-69466227D01*
X39273917Y-69456095D01*
X39420003Y-69103412D01*
X39424561Y-69093638D01*
X39600822Y-68755045D01*
X39606217Y-68745700D01*
X39811325Y-68423744D01*
X39817515Y-68414905D01*
X40049896Y-68112060D01*
X40056834Y-68103791D01*
X40314726Y-67822352D01*
X40322352Y-67814726D01*
X40603791Y-67556834D01*
X40612060Y-67549896D01*
X40914905Y-67317515D01*
X40923744Y-67311325D01*
X41245700Y-67106217D01*
X41255045Y-67100822D01*
X41593638Y-66924561D01*
X41603412Y-66920003D01*
X41956095Y-66773917D01*
X41966227Y-66770230D01*
X42330295Y-66655440D01*
X42340709Y-66652649D01*
X42713405Y-66570025D01*
X42724025Y-66568152D01*
X43102495Y-66518326D01*
X43113226Y-66517386D01*
X43497297Y-66500617D01*
X43502706Y-66500500D01*
X43565892Y-66500500D01*
X141934108Y-66500500D01*
X141997294Y-66500500D01*
X142002702Y-66500617D01*
G37*
%TD.AperFunction*%
%TD*%
M02*
